<svg width="24" height="24" viewBox="0 0 24 24" fill="none" xmlns="http://www.w3.org/2000/svg">
<g id="&#230;&#151;&#160;&#233;&#154;&#156;&#231;&#162;&#141;-accessibility">
<g id="fill1">
<path d="M12 5.5C13.2426 5.5 14.25 4.49264 14.25 3.25C14.25 2.00736 13.2426 1 12 1C10.7574 1 9.75 2.00736 9.75 3.25C9.75 4.49264 10.7574 5.5 12 5.5Z" fill="white"/>
<path d="M3.25 9.625C3.25 8.72754 3.97754 8 4.875 8H19.125C20.0225 8 20.75 8.72754 20.75 9.625C20.75 10.5225 20.0225 11.25 19.125 11.25H15.25L17.3444 20.6746C17.5525 21.6114 16.8397 22.5 15.8801 22.5H14.5L12.5 15.25H11.5L9.5 22.5H8.11992C7.1603 22.5 6.44747 21.6114 6.65564 20.6746L8.75 11.25H4.875C3.97754 11.25 3.25 10.5225 3.25 9.625Z" fill="white"/>
</g>
<g id="stroke1">
<path d="M12 5.5C13.2426 5.5 14.25 4.49264 14.25 3.25C14.25 2.00736 13.2426 1 12 1C10.7574 1 9.75 2.00736 9.75 3.25C9.75 4.49264 10.7574 5.5 12 5.5Z" stroke="black" stroke-width="2" stroke-linecap="square"/>
<path d="M3.25 9.625C3.25 8.72754 3.97754 8 4.875 8H19.125C20.0225 8 20.75 8.72754 20.75 9.625C20.75 10.5225 20.0225 11.25 19.125 11.25H15.25L17.3444 20.6746C17.5525 21.6114 16.8397 22.5 15.8801 22.5H14.5L12.5 15.25H11.5L9.5 22.5H8.11992C7.1603 22.5 6.44747 21.6114 6.65564 20.6746L8.75 11.25H4.875C3.97754 11.25 3.25 10.5225 3.25 9.625Z" stroke="black" stroke-width="2" stroke-linecap="square"/>
</g>
</g>
</svg>
