<svg viewBox="0 0 1024 1024" version="1.1" xmlns="http://www.w3.org/2000/svg"><path fill-opacity=".9" fill-rule="evenodd" d="M192 128L768 128C803.3462208 128 832 156.653776 832 192L832 768C832 803.3462208 803.3462208 832 768 832L192 832C156.653776 832 128 803.3462208 128 768L128 192C128 156.653776 156.653776 128 192 128ZM192 192L768 192 768 768 192 768 192 192ZM512.064 256L512 448 704.064 448 704.064 512 512 512 512.064 704 448.064 704 448 512 256.064 512 256.064 448 448 448 448.064 256 512.064 256Z"/></svg>