<svg width="24" height="24" viewBox="0 0 24 24" fill="none" xmlns="http://www.w3.org/2000/svg">
<g id="address-book">
<path id="fill1" d="M20.5 2.5H6.5C4.84315 2.5 3.5 3.84315 3.5 5.5V18.5C3.5 16.8431 4.84315 15.5 6.5 15.5H20.5V2.5Z" fill="white"/>
<path id="fill2" d="M11 3H16V9L13.5 7.5L11 9V3Z" fill="white"/>
<path id="stroke2" d="M11 3H16V9L13.5 7.5L11 9V3Z" stroke="black" stroke-width="2" stroke-linecap="square"/>
<path id="stroke1" d="M20.5 21.5H6.5C4.84315 21.5 3.5 20.1569 3.5 18.5C3.5 16.8431 4.84315 15.5 6.5 15.5H20.5V21.5ZM20.5 21.5V2.5H6.5C4.84315 2.5 3.5 3.84315 3.5 5.5V17.5" stroke="black" stroke-width="2" stroke-linecap="square"/>
</g>
</svg>
