<svg width="24" height="24" viewBox="0 0 24 24" fill="none" xmlns="http://www.w3.org/2000/svg">
<g id="alarm-add">
<path id="fill1" d="M12 22C16.9706 22 21 17.9706 21 13C21 8.02944 16.9706 4 12 4C7.02944 4 3 8.02944 3 13C3 17.9706 7.02944 22 12 22Z" fill="white"/>
<path id="stroke1" d="M22.5 6.5L18.5 2.5M1.5 6.5L5.5 2.5M21 13C21 17.9706 16.9706 22 12 22C7.02944 22 3 17.9706 3 13C3 8.02944 7.02944 4 12 4C16.9706 4 21 8.02944 21 13Z" stroke="black" stroke-width="2" stroke-linecap="square"/>
<path id="stroke2" d="M12 9V13M12 13V17M12 13H8M12 13H16" stroke="black" stroke-width="2" stroke-linecap="square"/>
</g>
</svg>
