<svg width="24" height="24" viewBox="0 0 24 24" fill="none" xmlns="http://www.w3.org/2000/svg">
<g clip-path="url(#clip0_100300_106798)">
<path d="M0.0858154 6.49997L2.58595 3.99983L0.586082 1.99997L2.0003 0.585754L4.00016 2.58562L5.50003 1.08576L6.91424 2.49997L5.41438 3.99984L23.4145 22L22.0003 23.4142L18.8611 20.275C17.0712 21.9634 14.6563 23 12 23C6.47718 23 2.00003 18.5228 2.00003 13C2.00003 10.3437 3.03662 7.92875 4.72502 6.13891L4.00016 5.41405L1.50003 7.91418L0.0858154 6.49997ZM6.13994 7.55382C4.81113 8.98274 4.00003 10.8962 4.00003 13C4.00003 17.4182 7.58175 21 12 21C14.1038 21 16.0173 20.1889 17.4462 18.8601L6.13994 7.55382ZM8.56093 3.55375L9.53013 3.30748C10.3211 3.10651 11.1486 2.99997 11.9997 2.99997C17.5225 2.99997 21.9997 7.47712 21.9997 13C21.9997 13.851 21.8932 14.6786 21.6922 15.4695L21.4459 16.4387L19.5075 15.9462L19.7538 14.977C19.9142 14.3457 19.9997 13.6835 19.9997 13C19.9997 8.58169 16.418 4.99997 11.9997 4.99997C11.3161 4.99997 10.6539 5.08548 10.0227 5.24588L9.05346 5.49215L8.56093 3.55375ZM18.5 1.08576L23.9142 6.49997L22.5 7.91418L17.0858 2.49997L18.5 1.08576Z" fill="black" fill-opacity="0.9" style="fill:black;fill-opacity:0.9;"/>
</g>
<defs>
<clipPath id="clip0_100300_106798">
<rect width="24" height="24" fill="white" style="fill:white;fill-opacity:1;"/>
</clipPath>
</defs>
</svg>
