<svg width="24" height="24" viewBox="0 0 24 24" fill="none" xmlns="http://www.w3.org/2000/svg">
<path d="M6.91424 2.50003L1.50003 7.91424L0.0858154 6.50003L5.50003 1.08582L6.91424 2.50003ZM18.5 1.08582L23.9142 6.50003L22.5 7.91424L17.0858 2.50003L18.5 1.08582ZM12 5.00003C7.58175 5.00003 4.00003 8.58175 4.00003 13C4.00003 17.4183 7.58175 21 12 21C16.4183 21 20 17.4183 20 13C20 8.58175 16.4183 5.00003 12 5.00003ZM2.00003 13C2.00003 7.47718 6.47718 3.00003 12 3.00003C17.5229 3.00003 22 7.47718 22 13C22 18.5229 17.5229 23 12 23C6.47718 23 2.00003 18.5229 2.00003 13ZM13 7.50003V12.5858L16.4142 16L15 17.4142L11 13.4142V7.50003H13Z" fill="black" fill-opacity="0.9" style="fill:black;fill-opacity:0.9;"/>
</svg>
