<svg width="24" height="24" viewBox="0 0 24 24" fill="none" xmlns="http://www.w3.org/2000/svg">
    <path
        d="M12 3C10.8955 3 10 3.89543 10 5C10 6.10457 10.8955 7 12 7C13.1046 7 14 6.10457 14 5C14 3.89543 13.1046 3 12 3ZM8.00002 5C8.00002 2.79086 9.79089 1 12 1C14.2092 1 16 2.79086 16 5C16 6.86384 14.7253 8.42994 13 8.87398V10.5H17.5V12.5H13V20.958C16.1331 20.6907 18.6433 19.1616 19.8026 16.73L18.5726 15.5L22.6203 11.4523L22.4855 14.0518C22.1906 19.7402 17.4552 23 11.9998 23C6.54434 23 1.80903 19.7402 1.51406 14.0518L1.37927 11.4523L5.42693 15.5L4.19698 16.73C5.35635 19.1617 7.86656 20.6908 10.9998 20.958V19L11 12.5H6.50002V10.5H11V8.87398C9.2748 8.42994 8.00002 6.86384 8.00002 5Z"
        fill="black" />
</svg>