<svg width="24" height="24" viewBox="0 0 24 24" fill="none" xmlns="http://www.w3.org/2000/svg">
<g id="anchor">
<path id="fill2" d="M15 5C15 6.65685 13.6569 8 12 8C10.3431 8 9 6.65685 9 5C9 3.34315 10.3431 2 12 2C13.6569 2 15 3.34315 15 5Z" fill="white"/>
<path id="stroke1" d="M19.9868 15.5L21.4868 14C21.2268 19.0143 17.0788 22 11.9998 22C6.92078 22 2.7727 19.0143 2.5127 14L4.0127 15.5M7.5 11.5H16.5M12.0002 8L12 22M15 5C15 6.65685 13.6569 8 12 8C10.3431 8 9 6.65685 9 5C9 3.34315 10.3431 2 12 2C13.6569 2 15 3.34315 15 5Z" stroke="black" stroke-width="2" stroke-linecap="square"/>
</g>
</svg>
