<svg width="24" height="24" viewBox="0 0 24 24" fill="none" xmlns="http://www.w3.org/2000/svg">
<g id="animation">
<path id="fill1" d="M22 8C22 11.3137 19.3137 14 16 14C12.6863 14 10 11.3137 10 8C10 4.68629 12.6863 2 16 2C19.3137 2 22 4.68629 22 8Z" fill="white"/>
<path id="stroke1" d="M13.957 17.6719C13.8398 17.7187 13.7305 17.7461 13.7305 17.7461L13.6961 17.8903C12.9042 20.2777 10.6532 21.9999 8 21.9999C4.68629 21.9999 2 19.3136 2 15.9999C2 13.3874 3.66962 11.165 6 10.3413L6.25 10.2695C6.25 10.2695 6.27734 10.1562 6.33594 10.0234M17.957 13.6719C17.8398 13.7187 17.7305 13.7461 17.7305 13.7461L17.6961 13.8903C16.9042 16.2777 14.6532 17.9999 12 17.9999C8.68629 17.9999 6 15.3136 6 11.9999C6 9.38744 7.66962 7.16497 10 6.34129L10.25 6.26953C10.25 6.26953 10.2773 6.15625 10.3359 6.02344M22 8C22 11.3137 19.3137 14 16 14C12.6863 14 10 11.3137 10 8C10 4.68629 12.6863 2 16 2C19.3137 2 22 4.68629 22 8Z" stroke="black" stroke-width="2" stroke-linecap="square"/>
</g>
</svg>
