<svg width="24" height="25" viewBox="0 0 24 25" fill="none" xmlns="http://www.w3.org/2000/svg">
    <path
        d="M11.4102 0.0605469L15.1255 6.23403L22.1449 7.85973L17.4216 13.3009L18.0446 20.4791L11.4102 17.6684L4.77581 20.4791L5.39879 13.3009L0.675537 7.85973L7.69494 6.23403L11.4102 0.0605469ZM11.4102 3.93926L8.97166 7.99127L4.36441 9.05832L7.46456 12.6297L7.05566 17.3411L11.4102 15.4963L15.7647 17.3411L15.3558 12.6297L18.456 9.05832L13.8487 7.99127L11.4102 3.93926ZM20.8631 14.0114L23.338 16.4862L21.9238 17.9004L19.4489 15.4256L20.8631 14.0114ZM12.5663 20.1266L15.0411 22.6015L13.6269 24.0157L11.152 21.5408L12.5663 20.1266ZM19.1444 20.1266L21.6193 22.6015L20.205 24.0157L17.7302 21.5408L19.1444 20.1266Z"
        fill="black" />
</svg>