<svg width="24" height="24" viewBox="0 0 24 24" fill="none" xmlns="http://www.w3.org/2000/svg">
<g clip-path="url(#clip0_100300_109017)">
<path d="M0.585693 12L4.99991 7.58581L6.41412 9.00002L3.41412 12L6.41412 15L4.99991 16.4142L0.585693 12ZM7.58569 5.00003L11.9999 0.585815L16.4141 5.00003L14.9999 6.41424L11.9999 3.41424L8.9999 6.41425L7.58569 5.00003ZM8.9999 17.5858L11.9999 20.5858L14.9999 17.5858L16.4141 19L11.9999 23.4142L7.58569 19L8.9999 17.5858ZM10.998 13.002V10.9981H13.0019V13.002H10.998ZM17.5857 15L20.5857 12L17.5857 9.00003L18.9999 7.58582L23.4141 12L18.9999 16.4142L17.5857 15Z" fill="black" fill-opacity="0.9" style="fill:black;fill-opacity:0.9;"/>
</g>
<defs>
<clipPath id="clip0_100300_109017">
<rect width="24" height="24" fill="white" style="fill:white;fill-opacity:1;"/>
</clipPath>
</defs>
</svg>
