<svg width="24" height="24" viewBox="0 0 24 24" fill="none" xmlns="http://www.w3.org/2000/svg">
<path d="M1.99988 2H10.9999V11H1.99988V2ZM3.99988 4V9H8.99988V4H3.99988ZM17.4999 4C16.1192 4 14.9999 5.11929 14.9999 6.5C14.9999 7.88071 16.1192 9 17.4999 9C18.8806 9 19.9999 7.88071 19.9999 6.5C19.9999 5.11929 18.8806 4 17.4999 4ZM12.9999 6.5C12.9999 4.01472 15.0146 2 17.4999 2C19.9852 2 21.9999 4.01472 21.9999 6.5C21.9999 8.98528 19.9852 11 17.4999 11C15.0146 11 12.9999 8.98528 12.9999 6.5ZM1.99988 13H10.9999V22H1.99988V13ZM3.99988 15V20H8.99988V15H3.99988ZM12.9999 13H21.9999V22H12.9999V13ZM14.9999 15V20H19.9999V15H14.9999Z" fill="black" fill-opacity="0.9" style="fill:black;fill-opacity:0.9;"/>
</svg>
