<svg width="24" height="24" viewBox="0 0 24 24" fill="none" xmlns="http://www.w3.org/2000/svg">
    <path
        d="M12.7999 1.40013L11.9999 0.333496L11.2 1.40013L11.1963 1.40495L11.1842 1.42105L11.1353 1.48577C11.092 1.54287 11.0278 1.6272 10.9451 1.73489C10.7797 1.9503 10.5405 2.25886 10.2471 2.62946C9.65957 3.37166 8.85802 4.35805 7.99736 5.34166C7.13249 6.33009 6.2269 7.2938 5.42932 8.00275C5.02921 8.35841 4.67967 8.62884 4.39381 8.80476C4.14787 8.9561 4.02398 8.99023 3.99809 8.99792C3.99808 8.99744 3.99808 8.99695 3.99808 8.99646L3.99437 7.99646L1.99439 8.00388L1.99809 9.00387C1.99959 9.40898 2.10424 9.91214 2.45679 10.3313C2.83492 10.7809 3.38539 11.0002 3.99994 11.0002L3.99994 20.0002L1.99994 20.0002L1.99994 22.0002L21.9999 22.0002L21.9999 20.0002L19.9999 20.0002L19.9999 11.0002C20.6143 11.0002 21.1652 10.781 21.5433 10.3308C21.896 9.91078 21.9999 9.40657 21.9999 9.00016L21.9999 8.00016L19.9999 8.00016L19.9999 8.99737C19.9704 8.98867 19.8466 8.95277 19.6061 8.80475C19.3202 8.62884 18.9707 8.35841 18.5705 8.00275C17.773 7.2938 16.8674 6.33009 16.0025 5.34166C15.1419 4.35805 14.3403 3.37166 13.7527 2.62946C13.4593 2.25886 13.2202 1.9503 13.0548 1.73489C12.9721 1.6272 12.9079 1.54287 12.8646 1.48577L12.8157 1.42105L12.8035 1.40495L12.7999 1.40013ZM16.7043 9.00016L7.29556 9.00016C8.02912 8.29652 8.79291 7.46965 9.50251 6.65867C10.3919 5.64228 11.2153 4.62867 11.8152 3.87087C11.8794 3.78984 11.941 3.71169 11.9999 3.63671C12.0589 3.71169 12.1205 3.78984 12.1846 3.87087C12.7846 4.62867 13.608 5.64228 14.4974 6.65867C15.207 7.46965 15.9707 8.29651 16.7043 9.00016ZM5.99994 11.0002L17.9999 11.0002L17.9999 20.0002L14.9999 20.0002L14.9999 17.0002C14.9999 15.3433 13.6568 14.0002 11.9999 14.0002C10.3431 14.0002 8.99994 15.3433 8.99994 17.0002L8.99994 20.0002L5.99994 20.0002L5.99994 11.0002ZM12.9999 20.0002L10.9999 20.0002L10.9999 17.0002C10.9999 16.4479 11.4477 16.0002 11.9999 16.0002C12.5522 16.0002 12.9999 16.4479 12.9999 17.0002L12.9999 20.0002Z"
        fill="black" />
</svg>