<svg width="24" height="24" viewBox="0 0 24 24" fill="none" xmlns="http://www.w3.org/2000/svg">
<g id="arrow-left-right-circle">
<path id="fill1  " d="M12 2C17.5228 2 22 6.47715 22 12C22 17.5228 17.5228 22 12 22C6.47715 22 2 17.5228 2 12C2 6.47715 6.47715 2 12 2Z" fill="white"/>
<path id="stroke1" d="M12 2C17.5228 2 22 6.47715 22 12C22 17.5228 17.5228 22 12 22C6.47715 22 2 17.5228 2 12C2 6.47715 6.47715 2 12 2Z" stroke="black" stroke-width="2" stroke-linecap="square"/>
<path id="stroke2" d="M15 11.5L17.5 9L15 6.5M11 9H16.25M9 17.5L6.5 15L9 12.5M13 15H7.75" stroke="black" stroke-width="2" stroke-linecap="square"/>
</g>
</svg>
