<svg width="24" height="24" viewBox="0 0 24 24" fill="none" xmlns="http://www.w3.org/2000/svg">
    <g id="arrow-up-circle">
        <path id="fill1"
            d="M22 12C22 17.5228 17.5228 22 12 22C6.47715 22 2 17.5228 2 12C2 6.47715 6.47715 2 12 2C17.5228 2 22 6.47715 22 12Z"
            fill="white" />
        <path id="stroke1"
            d="M22 12C22 17.5228 17.5228 22 12 22C6.47715 22 2 17.5228 2 12C2 6.47715 6.47715 2 12 2C17.5228 2 22 6.47715 22 12Z"
            stroke="black" stroke-width="2" stroke-linecap="square" />
        <path id="stroke2" d="M8 10.85L12 6.85001L16 10.85M12 8.10001V17.1" stroke="black" stroke-width="2"
            stroke-linecap="square" />
    </g>
</svg>