<svg width="24" height="24" viewBox="0 0 24 24" fill="none" xmlns="http://www.w3.org/2000/svg">
<g id="assignment-user">
<path id="fill1" fill-rule="evenodd" clip-rule="evenodd" d="M9.70802 2.5C10.0938 1.61705 10.9748 1 12 1C13.0252 1 13.9062 1.61705 14.292 2.5H20.5V21.5H3.5V2.5H9.70802Z" fill="white"/>
<path id="stroke1" fill-rule="evenodd" clip-rule="evenodd" d="M9.70802 2.5C10.0938 1.61705 10.9748 1 12 1C13.0252 1 13.9062 1.61705 14.292 2.5H20.5V21.5H3.5V2.5H9.70802Z" stroke="black" stroke-width="2" stroke-linecap="square"/>
<path id="stroke2" d="M17 18C17 16.3431 15.6569 15 14 15H10C8.34315 15 7 16.3431 7 18M14.5 9.5C14.5 10.8807 13.3807 12 12 12C10.6193 12 9.5 10.8807 9.5 9.5C9.5 8.11929 10.6193 7 12 7C13.3807 7 14.5 8.11929 14.5 9.5Z" stroke="black" stroke-width="2" stroke-linecap="square"/>
</g>
</svg>
