<svg width="16" height="16" viewBox="0 0 16 16" fill="none" xmlns="http://www.w3.org/2000/svg">
<path fill-rule="evenodd" clip-rule="evenodd" d="M8.35333 1.98945C9.32964 1.01314 10.9126 1.01314 11.8889 1.98945C12.8652 2.96576 12.8652 4.54867 11.8889 5.52498L6.58556 10.8283L5.17135 9.41407L10.4746 4.11077C10.6699 3.9155 10.6699 3.59892 10.4746 3.40366C10.2794 3.2084 9.9628 3.2084 9.76754 3.40366L4.46424 8.70696C3.68319 9.48801 3.68319 10.7543 4.46424 11.5354C5.24529 12.3164 6.51162 12.3164 7.29267 11.5354L12.9495 5.87853L14.3637 7.29275L8.70688 12.9496C7.14478 14.5117 4.61212 14.5117 3.05003 12.9496C1.48793 11.3875 1.48793 8.85484 3.05003 7.29275L8.35333 1.98945Z" fill="black"/>
</svg>
