<svg width="24" height="24" viewBox="0 0 24 24" fill="none" xmlns="http://www.w3.org/2000/svg">
<path d="M11.3138 3.11437C13.2664 1.16175 16.4322 1.16175 18.3848 3.11437C20.3375 5.06699 20.3375 8.23282 18.3848 10.1854L10.6067 17.9636C9.4351 19.1352 7.53561 19.1352 6.36403 17.9636C5.19246 16.792 5.19246 14.8925 6.36403 13.721L14.1422 5.9428L15.5564 7.35701L7.77825 15.1352C7.38772 15.5257 7.38772 16.1589 7.77825 16.5494C8.16877 16.9399 8.80194 16.9399 9.19246 16.5494L16.9706 8.77122C18.1422 7.59965 18.1422 5.70016 16.9706 4.52858C15.7991 3.35701 13.8996 3.35701 12.728 4.52858L4.94982 12.3068C2.9972 14.2594 2.9972 17.4252 4.94982 19.3778C6.90244 21.3304 10.0683 21.3304 12.0209 19.3778L20.5062 10.8925L21.9204 12.3068L13.4351 20.792C10.7014 23.5257 6.26927 23.5257 3.5356 20.792C0.801934 18.0584 0.801934 13.6262 3.5356 10.8925L11.3138 3.11437Z" fill="black" fill-opacity="0.9" style="fill:black;fill-opacity:0.9;"/>
</svg>
