<svg width="24" height="24" viewBox="0 0 24 24" fill="none" xmlns="http://www.w3.org/2000/svg">
    <path
        d="M11.1692 1.44358L12.0002 0.201172L12.8311 1.44369L12.8365 1.45157L12.8572 1.482C12.8761 1.50965 12.9052 1.55177 12.9438 1.60679C13.021 1.71687 13.1364 1.87838 13.2855 2.07894C13.584 2.4806 14.0153 3.03602 14.5438 3.64714C15.6147 4.88573 17.0272 6.28549 18.4979 7.13305C18.9639 7.40164 19.4539 7.49992 19.9985 7.49992H20.9985V9.49992H19.9985C19.6727 9.49992 19.3378 9.47531 18.9985 9.41349L18.9985 16.9999H20.9985V18.9999H19.9985V21.9999H17.9985L17.9985 18.9999H12.9985L12.9985 21.9999H10.9985L10.9985 18.9999H5.99854L5.99854 21.9999H3.99854L3.99854 18.9999L2.99854 18.9999L2.99854 16.9999L5.00065 16.9999L4.99887 9.41351C4.65945 9.47532 4.32446 9.49992 3.99854 9.49992H2.99854L2.99854 7.49992H3.99854C4.54338 7.49992 5.03342 7.40174 5.4995 7.13334C6.9709 6.28599 8.38407 4.88613 9.45562 3.64739C9.98433 3.03619 10.4159 2.48067 10.7146 2.07894C10.8637 1.87834 10.9792 1.71679 11.0565 1.60669C11.0951 1.55166 11.1242 1.50953 11.1431 1.48187L11.1638 1.45144L11.1684 1.44474L11.1692 1.44358ZM6.99877 8.99988L7.00065 16.9999H9.00011V14.7999C9.00011 13.1431 10.3433 11.7999 12.0001 11.7999C13.657 11.7999 15.0001 13.1431 15.0001 14.7999V16.9999H16.9985V8.9995L6.99877 8.99988ZM15.0069 6.99958C14.2572 6.31561 13.5866 5.59799 13.0309 4.95529C12.6308 4.49262 12.283 4.06015 12 3.69379C11.7168 4.06029 11.3686 4.49295 10.9682 4.95583C10.4123 5.59846 9.74163 6.31596 8.99175 6.9998L15.0069 6.99958ZM13.0001 16.9999V14.7999C13.0001 14.2476 12.5524 13.7999 12.0001 13.7999C11.4478 13.7999 11.0001 14.2476 11.0001 14.7999V16.9999H13.0001Z"
        fill="black" />
</svg>