<svg width="24" height="24" viewBox="0 0 24 24" fill="none" xmlns="http://www.w3.org/2000/svg">
<g id="attic-1">
<path id="fill1" d="M12 2C12.0207 2.03098 14.7782 6.14442 17.998 8V18H6L5.99805 8C9.23165 6.13785 12 2 12 2Z" fill="white"/>
<path id="fill2" d="M10 14.8C10 13.6955 10.8954 12.8 12 12.8C13.1046 12.8 14 13.6955 14 14.8V18H10V14.8Z" fill="white"/>
<path id="stroke2" d="M10 14.8C10 13.6955 10.8954 12.8 12 12.8C13.1046 12.8 14 13.6955 14 14.8V18H10V14.8Z" stroke="black" stroke-width="2" stroke-linecap="square"/>
<path id="stroke1" d="M4.99805 18L3.99805 18M4.99805 18L4.99805 21M4.99805 18L5.99805 18M19.998 18H18.998M18.998 18L18.998 21M18.998 18H17.998M11.998 21L11.998 18M11.998 18H17.998M11.998 18H5.99805M3.99805 8.5C4.67106 8.5 5.34408 8.37661 5.99805 8C9.23165 6.13785 11.9996 2 11.9996 2C11.9996 2 14.7661 6.13695 17.9981 7.99955C18.652 8.37642 19.325 8.5 19.998 8.5M17.998 18V8.5M5.99805 18V8.5M6.75 8H17.252" stroke="black" stroke-width="2" stroke-linecap="square"/>
</g>
</svg>
