<svg width="24" height="24" viewBox="0 0 24 24" fill="none" xmlns="http://www.w3.org/2000/svg">
    <path
        d="M19.8432 4.22785C19.7755 4.23923 19.7052 4.25155 19.632 4.26491C18.8576 4.40642 17.7773 4.66379 16.4539 5.13145C16.6277 5.99524 16.8203 6.9463 16.9838 7.7522C17.075 8.20195 17.1572 8.60633 17.222 8.92487L18.3889 9.04157C19.1292 7.27586 19.5249 5.82593 19.7364 4.79788C19.779 4.59045 19.8142 4.40015 19.8432 4.22785ZM17.5006 10.9627L16.2599 10.8386L9.2246 9.70923L11.02 20.0707C14.1446 16.7017 16.1774 13.5819 17.5006 10.9627ZM9.0282 20.29L7.29115 10.2653C5.9481 11.2962 4.54492 12.5 3.10078 13.9059C3.61252 14.8571 4.63426 16.4477 6.1288 17.9422C7.12523 18.9386 8.16434 19.7249 9.0282 20.29ZM10.6939 7.91949L15.1212 8.63023C15.0902 8.47775 15.0576 8.31694 15.0237 8.14987C14.8823 7.45294 14.719 6.64672 14.5649 5.88173C13.3931 6.39757 12.0933 7.06244 10.6939 7.91949ZM21.9948 2.07617L21.9764 3.16254C21.9753 3.19088 21.9735 3.22974 21.9706 3.27882C21.9647 3.37697 21.9543 3.51599 21.9355 3.69349C21.8981 4.04848 21.8277 4.55735 21.6954 5.20078C21.4306 6.48796 20.9184 8.31225 19.9278 10.5188C18.3959 13.9312 15.726 18.2446 11.0785 22.892L10.5998 23.3707L9.97752 23.104C9.04372 22.7038 6.79046 21.4323 4.71459 19.3564C2.63871 17.2806 1.36721 15.0273 0.967014 14.0935L0.700317 13.4712L1.17905 12.9925C3.3518 10.8197 5.4521 9.07862 7.4223 7.6837C10.2608 5.67405 12.8255 4.38555 14.9423 3.55998C16.7526 2.85392 18.2325 2.48751 19.2726 2.29748C19.7925 2.20248 20.2023 2.15159 20.4884 2.12435C20.6314 2.11073 20.7435 2.10303 20.8229 2.09867C20.8626 2.09649 20.8942 2.09515 20.9174 2.09433L21.9948 2.07617Z"
        fill="black" />
</svg>