<svg width="24" height="24" viewBox="0 0 24 24" fill="none" xmlns="http://www.w3.org/2000/svg">
<g id="banana">
<g id="fill1">
<path d="M18.0001 7.50098C17.3794 13.501 13.1106 16.253 8.23674 15.0718C5.15542 14.1025 4.22777 11.501 4.00005 10.501C3.77233 9.50098 4.23155 9.50602 4.96585 9.85568C5.70014 10.2053 8.11762 11.6743 11.0001 11.501C15.9358 11.2042 17.3226 8.88616 18.0001 7.50098Z" fill="white"/>
<path d="M21 4.1802L18 2.98047V7.50129C17.3793 13.5013 13.1105 16.2533 8.23668 15.0721C6.63432 14.6837 4.57637 14.0341 2.95083 13.1895C2.33917 12.8717 2 13.7136 2 14.5013C2 18.0013 7.42237 22.3043 14.0075 20.6236C20.5926 18.9428 23.7632 11.3288 21 7.50129V4.1802Z" fill="white"/>
</g>
<g id="stroke1">
<path d="M18.0001 7.50098C17.3794 13.501 13.1106 16.253 8.23674 15.0718C5.15542 14.1025 4.22777 11.501 4.00005 10.501C3.77233 9.50098 4.23155 9.50602 4.96585 9.85568C5.70014 10.2053 8.11762 11.6743 11.0001 11.501C15.9358 11.2042 17.3226 8.88616 18.0001 7.50098Z" stroke="black" stroke-width="2" stroke-linecap="square"/>
<path d="M21 4.1802L18 2.98047V7.50129C17.3793 13.5013 13.1105 16.2533 8.23668 15.0721C6.63432 14.6837 4.57637 14.0341 2.95083 13.1895C2.33917 12.8717 2 13.7136 2 14.5013C2 18.0013 7.42237 22.3043 14.0075 20.6236C20.5926 18.9428 23.7632 11.3288 21 7.50129V4.1802Z" stroke="black" stroke-width="2" stroke-linecap="square"/>
</g>
</g>
</svg>
