<svg width="24" height="24" viewBox="0 0 24 24" fill="none" xmlns="http://www.w3.org/2000/svg">
    <path
        d="M17 1.50293L22 3.50248V7.19393C23.4684 9.49542 23.2174 12.6338 21.9073 15.3069C20.5248 18.1277 17.8663 20.6701 14.2548 21.5919C10.6919 22.5012 7.41737 21.7961 5.02101 20.3628C2.67861 18.9617 1 16.7381 1 14.5007C1 14.0006 1.10182 13.3944 1.38816 12.9163C1.53445 12.6721 1.78215 12.3748 2.17679 12.2189C2.60937 12.048 3.04882 12.1128 3.4119 12.3015C3.49105 12.3426 3.57139 12.3833 3.65281 12.4235C3.30109 11.7363 3.11492 11.1177 3.02496 10.7227C2.9572 10.4251 2.91104 10.0885 2.96525 9.76401C3.02655 9.39709 3.23779 8.97293 3.71231 8.75973C4.10347 8.58399 4.48791 8.64359 4.7049 8.6953C4.94724 8.75305 5.1865 8.85288 5.39573 8.95251C5.50087 9.00258 5.62616 9.06666 5.76992 9.14019C6.77884 9.65621 8.69715 10.6373 10.94 10.5025C13.253 10.3634 14.634 9.75884 15.4952 9.11008C16.2685 8.52749 16.6952 7.85631 17 7.2643V1.50293ZM15.8102 11.2802C14.6472 11.9187 13.1113 12.3755 11.06 12.4989C8.57475 12.6483 6.39442 11.6969 5.25012 11.1241C5.67123 12.1278 6.58865 13.4929 8.50524 14.1075C10.6866 14.6278 12.6468 14.2578 14.1207 13.1735C14.7662 12.6986 15.342 12.0692 15.8102 11.2802ZM19 4.45676V7.55225L18.9947 7.60356C18.6616 10.8233 17.3319 13.2941 15.3059 14.7845C13.2791 16.2755 10.6803 16.6926 8.00114 16.0433C6.51963 15.6843 4.63008 15.1017 3.00791 14.3331C3.00275 14.3878 3 14.4441 3 14.5007C3 15.7633 4.03258 17.4411 6.04764 18.6464C8.00873 19.8194 10.738 20.4254 13.7602 19.654C16.7337 18.895 18.9531 16.7901 20.1114 14.4267C21.2884 12.0253 21.276 9.59138 20.1892 8.08601L20 7.82392V4.85666L19 4.45676Z"
        fill="black" />
</svg>