<svg width="24" height="24" viewBox="0 0 24 24" fill="none" xmlns="http://www.w3.org/2000/svg">
    <path
        d="M6.34388 3.92972L5.63677 4.63682C2.12205 8.15154 2.12205 13.85 5.63677 17.3647L6.34388 18.0719L4.92966 19.4861L4.22256 18.779C-0.0732093 14.4832 -0.0732093 7.51838 4.22256 3.22261L4.92966 2.5155L6.34388 3.92972ZM19.0703 2.5155L19.7774 3.22261C24.0732 7.51838 24.0732 14.4832 19.7774 18.779L19.0703 19.4861L17.6561 18.0719L18.3632 17.3647C21.8779 13.85 21.8779 8.15154 18.3632 4.63682L17.6561 3.92972L19.0703 2.5155ZM9.52552 7.11136L8.81841 7.81846C7.06105 9.57582 7.06105 12.4251 8.81841 14.1824L9.52552 14.8895L8.11131 16.3037L7.4042 15.5966C4.86579 13.0582 4.86579 8.94266 7.4042 6.40425L8.11131 5.69714L9.52552 7.11136ZM15.8886 5.69714L16.5958 6.40425C19.1342 8.94266 19.1342 13.0582 16.5958 15.5966L15.8886 16.3037L14.4744 14.8895L15.1815 14.1824C16.9389 12.4251 16.9389 9.57582 15.1815 7.81846L14.4744 7.11136L15.8886 5.69714ZM9.99998 11C9.99998 9.89546 10.8954 9.00003 12 9.00003C13.1045 9.00003 14 9.89546 14 11C14 11.7403 13.5978 12.3867 13 12.7325V23H11V12.7325C10.4022 12.3867 9.99998 11.7403 9.99998 11Z"
        fill="black" />
</svg>