<svg width="24" height="24" viewBox="0 0 24 24" fill="none" xmlns="http://www.w3.org/2000/svg">
    <path
        d="M13.2018 1.97099C14.4622 1.50634 15.9218 1.51685 17.5496 2.17352C20.3674 3.31021 22.1123 6.00621 22.4019 9.09571C22.6925 12.1966 21.5333 15.7073 18.5868 18.6538C15.8055 21.4351 12.3079 22.5646 9.19493 22.3193C6.09772 22.0752 3.28814 20.4464 2.11049 17.629C1.43268 16.0073 1.40456 14.5492 1.87049 13.283C2.3273 12.0415 3.2176 11.0962 4.17911 10.393C4.83878 9.91054 5.57798 9.6078 6.18868 9.35769C6.28271 9.31917 6.3737 9.28191 6.46088 9.24543C7.15662 8.9543 7.70445 8.68318 8.16023 8.22735C8.62293 7.76461 8.89431 7.2137 9.18328 6.51956C9.21933 6.43298 9.25614 6.34259 9.2942 6.24915C9.54259 5.63924 9.84383 4.89959 10.3289 4.24227C11.022 3.3031 11.9642 2.42724 13.2018 1.97099ZM13.8936 3.84752C13.1323 4.12819 12.4802 4.69541 11.9382 5.42987C11.9125 5.46458 11.8877 5.49957 11.8636 5.53488C11.9344 5.59734 12.0036 5.66236 12.0712 5.72994C13.8286 7.4873 13.8286 10.3365 12.0712 12.0939C10.3138 13.8513 7.46461 13.8513 5.70725 12.0939C5.64276 12.0294 5.5806 11.9634 5.52077 11.896C5.4664 11.9315 5.41278 11.9686 5.35978 12.0073C4.59699 12.5652 4.02485 13.2197 3.74745 13.9736C3.47916 14.7028 3.44504 15.6357 3.95578 16.8576C4.7783 18.8255 6.81469 20.1255 9.35204 20.3255C11.8736 20.5242 14.7993 19.6128 17.1726 17.2396C19.7354 14.6768 20.6409 11.7396 20.4106 9.28236C20.1792 6.81374 18.8173 4.84147 16.8014 4.02829C15.576 3.53397 14.6322 3.57524 13.8936 3.84752ZM7.48706 10.9822C8.45982 11.6426 9.7949 11.5418 10.657 10.6797C11.5253 9.81136 11.6214 8.4632 10.9451 7.48873C10.651 8.17536 10.2633 8.95266 9.57452 9.64149C8.91024 10.3058 8.15872 10.6903 7.48706 10.9822Z"
        fill="black" />
</svg>