<svg width="24" height="24" viewBox="0 0 24 24" fill="none" xmlns="http://www.w3.org/2000/svg">
<g id="book-unknown">
<g id="fill1">
<path d="M2 3H9C10.6569 3 12 4.34315 12 6V21H11C11 21 8 20 2 20V3Z" fill="white"/>
<path d="M22 3H15C13.3431 3 12 4.34315 12 6V21H13C13 21 16 20 22 20V3Z" fill="white"/>
</g>
<path id="stroke1" d="M12 21V6M12 21H11C11 21 8 20 2 20V3H9C10.6569 3 12 4.34315 12 6M12 21H13C13 21 16 20 22 20V3H15C13.3431 3 12 4.34315 12 6" stroke="black" stroke-width="2"/>
<path id="stroke2" d="M15 10.5C15 9.39543 15.8954 8.5 17 8.5C18.1046 8.5 19 9.39543 19 10.5C19 12.5 17.0034 12.5278 17.0034 12.75M17 15.5H17.0039V15.5039H17V15.5Z" stroke="black" stroke-width="2" stroke-linecap="square"/>
</g>
</svg>
