<svg width="24" height="24" viewBox="0 0 24 24" fill="none" xmlns="http://www.w3.org/2000/svg">
<path d="M2.4999 17.6C2.4999 19.4778 4.02213 21 5.8999 21H6.9999V19H5.8999C5.1267 19 4.4999 18.3732 4.4999 17.6V14C4.4999 13.2316 4.21105 12.5308 3.73601 12C4.21105 11.4692 4.4999 10.7684 4.4999 10V6.4C4.4999 5.6268 5.1267 5 5.8999 5H6.9999V3H5.8999C4.02213 3 2.4999 4.52223 2.4999 6.4V10C2.4999 10.5523 2.05219 11 1.4999 11H0.399902V13H1.4999C2.05219 13 2.4999 13.4477 2.4999 14V17.6ZM16.9991 21H18.0991C19.9769 21 21.4991 19.4778 21.4991 17.6V14C21.4991 13.4477 21.9468 13 22.4991 13H23.5991V11H22.4991C21.9468 11 21.4991 10.5523 21.4991 10V6.4C21.4991 4.52223 19.9769 3 18.0991 3H16.9991V5H18.0991C18.8723 5 19.4991 5.6268 19.4991 6.4V10C19.4991 10.7684 19.788 11.4692 20.263 12C19.788 12.5308 19.4991 13.2316 19.4991 14V17.6C19.4991 18.3732 18.8723 19 18.0991 19H16.9991V21Z" fill="black" fill-opacity="0.9" style="fill:black;fill-opacity:0.9;"/>
</svg>
