<svg width="24" height="24" viewBox="0 0 24 24" fill="none" xmlns="http://www.w3.org/2000/svg">
<g id="bread" clip-path="url(#clip0_2332_2929)">
<path id="fill1" d="M13.1882 4.68279C12.4654 3.96002 12.3737 3.67135 13.7822 3.15549C17.7155 1.71493 22.2032 5.99442 21.1729 10.0545C20.5747 12.4121 18.9586 14.8672 16.9642 16.944C14.8874 18.9384 12.4323 20.5545 10.0747 21.1528C6.01457 22.1831 1.73507 17.6953 3.17563 13.7621C3.6915 12.3536 3.98016 12.4453 4.70294 13.1681C2.42434 10.8895 6.32661 6.30648 8.47891 8.45878C6.32661 6.30648 10.9096 2.4042 13.1882 4.68279Z" fill="white"/>
<path id="stroke1" d="M13.1882 4.68279L16.2571 7.75168M13.1882 4.68279C12.4654 3.96002 12.3737 3.67135 13.7822 3.15549C17.7155 1.71493 22.2032 5.99442 21.1729 10.0545C20.5747 12.4121 18.9586 14.8672 16.9642 16.944C14.8874 18.9384 12.4323 20.5545 10.0747 21.1528C6.01457 22.183 1.73507 17.6953 3.17563 13.7621C3.6915 12.3536 3.98016 12.4453 4.70294 13.1681M13.1882 4.68279C10.9096 2.40419 6.32661 6.30648 8.47891 8.45878M8.47891 8.45878L12.0144 11.9943M8.47891 8.45878C6.32661 6.30648 2.42434 10.8895 4.70294 13.1681M4.70294 13.1681L7.77183 16.2369" stroke="black" stroke-width="2" stroke-linecap="square"/>
</g>
<defs>
<clipPath id="clip0_2332_2929">
<rect width="24" height="24" fill="white"/>
</clipPath>
</defs>
</svg>
