<svg width="24" height="24" viewBox="0 0 24 24" fill="none" xmlns="http://www.w3.org/2000/svg">
<path d="M5.02242 11.2778C4.97134 11.7407 5.08657 12.1378 5.40951 12.4608L9.18551 16.2368L7.77129 17.651L4.14444 14.0241C4.13454 14.0504 4.12443 14.0776 4.1141 14.1058C3.55717 15.6265 4.07857 17.3459 5.2901 18.6333C6.5025 19.9216 8.23253 20.5882 9.82818 20.1833C11.9516 19.6445 14.2528 18.1572 16.2564 16.2366C18.177 14.233 19.6643 11.9319 20.2031 9.8084C20.608 8.21276 19.9413 6.48273 18.653 5.27033C17.3657 4.0588 15.6462 3.53739 14.1256 4.09433C14.0974 4.10465 14.0702 4.11476 14.0439 4.12466L17.6708 7.75152L16.2566 9.16573L12.4806 5.38973C12.1576 5.06679 11.7605 4.95157 11.2975 5.00264C10.8091 5.05653 10.2679 5.30026 9.80841 5.67991C9.34455 6.0632 9.05121 6.51187 8.95432 6.88901C8.87012 7.21676 8.92351 7.48954 9.18548 7.75151L13.4281 11.9941L12.0139 13.4084L7.77127 9.16572C7.5093 8.90375 7.23652 8.85036 6.90877 8.93456C6.53163 9.03144 6.08297 9.32479 5.69968 9.78865C5.32003 10.2481 5.0763 10.7893 5.02242 11.2778ZM6.92892 6.90916C6.94359 6.73496 6.97344 6.56177 7.01722 6.39137C7.24552 5.5027 7.83678 4.71465 8.53445 4.13815C9.23653 3.55802 10.1338 3.1189 11.0782 3.01471C11.389 2.98042 11.7059 2.98294 12.02 3.02903C12.1658 2.86248 12.3318 2.74363 12.4646 2.66097C12.7322 2.49444 13.0685 2.35157 13.4378 2.21632C15.8504 1.3327 18.3415 2.23075 20.0237 3.81386C21.705 5.39609 22.767 7.83586 22.1417 10.3003C21.4853 12.8869 19.7464 15.4899 17.685 17.6365L17.6709 17.6511L17.6563 17.6652C15.5097 19.7265 12.9066 21.4656 10.3201 22.1219C7.85563 22.7473 5.41586 21.6852 3.83363 20.0039C2.25053 18.3217 1.35247 15.8306 2.2361 13.418C2.37135 13.0487 2.51422 12.7124 2.68074 12.4448C2.76341 12.312 2.88226 12.1461 3.0488 12.0003C3.00271 11.6861 3.0002 11.3692 3.03448 11.0585C3.13867 10.114 3.57779 9.21676 4.15792 8.51468C4.73441 7.81701 5.52246 7.22576 6.41113 6.99746C6.58154 6.95368 6.75472 6.92383 6.92892 6.90916Z" fill="black" fill-opacity="0.9" style="fill:black;fill-opacity:0.9;"/>
</svg>
