<svg width="24" height="24" viewBox="0 0 24 24" fill="none" xmlns="http://www.w3.org/2000/svg">
    <g clip-path="url(#clip0_101749_96509)">
        <path
            d="M8.29743 6.48994C7.09 7.5876 5.91486 9.41695 4.94844 12.3162C4.86593 12.5637 4.7797 12.84 4.68832 13.1328C4.44386 13.916 4.16251 14.8173 3.81687 15.6029C3.42869 16.4851 2.87409 17.4389 1.99976 18.0361V19H7.99976V14C7.99976 11.7909 9.79062 10 11.9998 10C14.2089 10 15.9998 11.7909 15.9998 14V19H21.9998V18.0361C21.1254 17.4389 20.5708 16.4851 20.1826 15.6029C19.837 14.8173 19.5556 13.916 19.3112 13.1328C19.2198 12.84 19.1336 12.5637 19.0511 12.3162C18.0846 9.41695 16.9095 7.5876 15.7021 6.48994C14.5145 5.4103 13.2555 5 11.9998 5C10.744 5 9.48503 5.4103 8.29743 6.48994ZM6.95208 5.01006C8.51448 3.5897 10.2555 3 11.9998 3C13.744 3 15.485 3.5897 17.0474 5.01006C18.59 6.4124 19.9149 8.58305 20.9484 11.6838C21.0567 12.0085 21.1577 12.3323 21.2577 12.6528C21.4894 13.3958 21.7156 14.1209 22.0133 14.7974C22.4415 15.7706 22.8907 16.3199 23.3814 16.5225L23.9998 16.7778V21H13.9998V14C13.9998 12.8954 13.1043 12 11.9998 12C10.8952 12 9.99976 12.8954 9.99976 14V21H-0.000244141V16.7778L0.618109 16.5225C1.10878 16.3199 1.55804 15.7706 1.98623 14.7974C2.28392 14.1209 2.51007 13.3958 2.74186 12.6528C2.84182 12.3323 2.94283 12.0085 3.05107 11.6838C4.08465 8.58305 5.40951 6.4124 6.95208 5.01006Z"
            fill="black" />
    </g>
    <defs>
        <clipPath id="clip0_101749_96509">
            <rect width="24" height="24" fill="white" style="fill:white;fill-opacity:1;" />
        </clipPath>
    </defs>
</svg>