<svg width="24" height="24" viewBox="0 0 24 24" fill="none" xmlns="http://www.w3.org/2000/svg">
<g id="bridge-2">
<path id="fill1" d="M1 17.4468C2.73389 16.7309 3.33756 13.9873 4 12C6 6 9 4 12 4C15 4 18 6 20 12C20.6624 13.9873 21.2661 16.7309 23 17.4468V20H15V14C15 12.3431 13.6569 11 12 11C10.3431 11 9 12.3431 9 14V20H1V17.4468Z" fill="white"/>
<path id="stroke1" d="M1 17.4468C2.73389 16.7309 3.33756 13.9873 4 12C6 6 9 4 12 4C15 4 18 6 20 12C20.6624 13.9873 21.2661 16.7309 23 17.4468V20H15V14C15 12.3431 13.6569 11 12 11C10.3431 11 9 12.3431 9 14V20H1V17.4468Z" stroke="black" stroke-width="2"/>
</g>
</svg>
