<svg width="24" height="24" viewBox="0 0 24 24" fill="none" xmlns="http://www.w3.org/2000/svg">
<g id="brightness-1">
<path id="fill1" d="M4.57537 8.92462L1.5 12L4.57537 15.0754V19.4246H8.92462L12 22.5L15.0754 19.4246H19.4246V15.0754L22.5 12L19.4246 8.92462V4.57538H15.0754L12 1.5L8.92462 4.57538H4.57537V8.92462Z" fill="white"/>
<path id="fill2" d="M10.4375 16.7509C11.4197 15.4224 12.0003 13.779 12.0003 12C12.0003 10.221 11.4197 8.57764 10.4375 7.24909C10.9292 7.08745 11.4545 7 12.0003 7C14.7618 7 17.0003 9.23858 17.0003 12C17.0003 14.7614 14.7618 17 12.0003 17C11.4545 17 10.9292 16.9126 10.4375 16.7509Z" fill="white"/>
<path id="stroke1" d="M4.57537 8.92462L1.5 12L4.57537 15.0754V19.4246H8.92462L12 22.5L15.0754 19.4246H19.4246V15.0754L22.5 12L19.4246 8.92462V4.57538H15.0754L12 1.5L8.92462 4.57538H4.57537V8.92462Z" stroke="black" stroke-width="2"/>
<path id="stroke2" d="M10.4375 16.7509C11.4197 15.4224 12.0003 13.779 12.0003 12C12.0003 10.221 11.4197 8.57764 10.4375 7.24909C10.9292 7.08745 11.4545 7 12.0003 7C14.7618 7 17.0003 9.23858 17.0003 12C17.0003 14.7614 14.7618 17 12.0003 17C11.4545 17 10.9292 16.9126 10.4375 16.7509Z" stroke="black" stroke-width="2"/>
</g>
</svg>
