<svg width="24" height="24" viewBox="0 0 24 24" fill="none" xmlns="http://www.w3.org/2000/svg">
    <path
        d="M12 0.0856934L15.4896 3.57529H20.4246V8.51031L23.9142 11.9999L20.4246 15.4895V20.4245H15.4896L12 23.9141L8.51044 20.4245H3.5754V15.4895L0.0858154 11.9999L3.5754 8.51032V3.57529H8.51044L12 0.0856934ZM12 2.91412L9.33886 5.57529H5.5754V9.33875L2.91424 11.9999L5.5754 14.6611V18.4245H9.33886L12 21.0857L14.6612 18.4245H18.4246V14.6611L21.0858 11.9999L18.4246 9.33874V5.57529H14.6612L12 2.91412ZM12.0648 8.00042C12.6636 9.20566 13.0004 10.5642 13.0004 11.9999C13.0004 13.4356 12.6636 14.7942 12.0648 15.9994C14.2442 15.965 16.0004 14.1875 16.0004 11.9999C16.0004 9.8123 14.2442 8.03485 12.0648 8.00042ZM10.1252 6.29902C10.7164 6.10465 11.3472 5.99991 12.0004 5.99991C15.3141 5.99991 18.0004 8.6862 18.0004 11.9999C18.0004 15.3136 15.3141 17.9999 12.0004 17.9999C11.3472 17.9999 10.7164 17.8952 10.1252 17.7008L8.81105 17.2687L9.63341 16.1563C10.4927 14.994 11.0004 13.5577 11.0004 11.9999C11.0004 10.4421 10.4927 9.00578 9.6334 7.84347L8.81105 6.73107L10.1252 6.29902Z"
        fill="black" />
</svg>