<svg width="24" height="24" viewBox="0 0 24 24" fill="none" xmlns="http://www.w3.org/2000/svg">
<path d="M12 0.0856934L15.4896 3.57529H20.4246V8.51031L23.9142 11.9999L20.4246 15.4895V20.4245H15.4896L12 23.9141L8.51044 20.4245H3.5754V15.4895L0.0858154 11.9999L3.5754 8.51032V3.57529H8.51044L12 0.0856934ZM12 2.91412L9.33886 5.57529H5.5754V9.33875L2.91424 11.9999L5.5754 14.6611V18.4245H9.33886L12 21.0857L14.6612 18.4245H18.4246V14.6611L21.0858 11.9999L18.4246 9.33874V5.57529H14.6612L12 2.91412ZM12 7.99991C9.79089 7.99991 8.00003 9.79077 8.00003 11.9999C8.00003 14.209 9.79089 15.9999 12 15.9999C14.2092 15.9999 16 14.209 16 11.9999C16 9.79077 14.2092 7.99991 12 7.99991ZM6.00003 11.9999C6.00003 8.6862 8.68632 5.99991 12 5.99991C15.3137 5.99991 18 8.6862 18 11.9999C18 15.3136 15.3137 17.9999 12 17.9999C8.68632 17.9999 6.00003 15.3136 6.00003 11.9999Z" fill="black" fill-opacity="0.9" style="fill:black;fill-opacity:0.9;"/>
</svg>
