<svg width="24" height="24" viewBox="0 0 24 24" fill="none" xmlns="http://www.w3.org/2000/svg">
<path d="M12.6155 4.16981C13.9194 3.04605 15.8284 3.10068 16.989 4.26124C17.651 4.92328 17.9532 5.82331 17.8824 6.72088C17.767 6.73066 17.6699 6.74307 17.5987 6.7536C17.5614 6.75911 17.5308 6.76417 17.5079 6.76817L17.4792 6.77334L17.4693 6.77521L17.4656 6.77594L17.4626 6.77653L16.4816 6.97079L16.8701 8.93269L17.8473 8.73918L17.8518 8.73838C17.8588 8.73715 17.8723 8.73489 17.8912 8.73209C17.9293 8.72646 17.9879 8.7189 18.0598 8.71303C18.2098 8.70078 18.3892 8.69827 18.5539 8.72194C19.1998 8.81472 19.8122 9.1047 20.3001 9.5926C21.5181 10.8106 21.5179 12.8531 20.2159 14.1551C19.9236 14.4474 19.5939 14.6737 19.2448 14.8354L18.4401 15.2084L18.7143 16.0519C18.9966 16.9203 18.7852 17.9428 18.0609 18.6671C17.0378 19.6902 15.4413 19.6841 14.4945 18.7373C14.1183 18.3611 13.8807 17.8408 13.8115 17.2658C13.7312 16.598 13.8854 15.9146 14.2414 15.3904L14.7061 14.7062L12.874 12.8742L12.437 11.5631L11.1259 11.1261L10.1101 10.1102L9.4902 10.3715C8.61643 10.7399 7.68651 10.649 6.86162 10.1488C6.61735 10.0006 6.38061 9.81526 6.15793 9.59258C4.93991 8.37456 4.94004 6.33212 6.2421 5.03006C7.45185 3.82031 9.35221 3.83454 10.6284 4.96926C10.6735 5.00938 10.7178 5.05113 10.7612 5.09452C11.4839 5.81722 11.6172 6.41408 11.7152 7.17762L11.8424 8.1695L13.8262 7.91499L13.6989 6.92312C13.5908 6.0799 13.4025 5.1515 12.6155 4.16981ZM19.8649 6.99953C20.016 5.51465 19.5369 3.98067 18.4032 2.84702C16.3944 0.83819 13.1468 0.884259 11.0959 2.84935C9.14035 1.70684 6.57634 1.86739 4.82789 3.61585C2.7826 5.66114 2.70736 8.97044 4.74371 11.0068C4.92727 11.1903 5.12037 11.36 5.3219 11.5147C5.29569 11.6741 5.25143 11.8813 5.18075 12.1385C5.03404 12.6723 4.80689 13.3064 4.5323 13.9523C3.96337 15.2907 3.27535 16.4821 2.80757 16.9499L2.10046 17.657L6.3431 21.8996L7.05021 21.1925C7.3713 20.8714 8.37698 19.9485 9.50837 19.1916C10.075 18.8126 10.6365 18.5001 11.1339 18.3179C11.5124 18.1792 11.7772 18.144 11.9495 18.1538C12.1423 18.8867 12.5141 19.5854 13.0803 20.1515C14.8454 21.9166 17.7087 21.8477 19.4751 20.0813C20.5229 19.0336 20.9712 17.6074 20.799 16.2505C21.0928 16.0551 21.3716 15.8279 21.6301 15.5693C23.6754 13.524 23.7506 10.2147 21.7143 8.17838C21.1741 7.6382 20.5409 7.24554 19.8649 6.99953ZM11.8508 16.1524C11.3563 16.1595 10.8722 16.2838 10.4459 16.4399C9.73956 16.6987 9.02943 17.1057 8.3963 17.5293C7.61643 18.051 6.89777 18.6357 6.37021 19.0983L4.85614 17.5842C5.41134 16.7853 5.95246 15.7238 6.37289 14.7348C6.67302 14.0288 6.9333 13.3087 7.10925 12.6685C7.13033 12.5918 7.1509 12.5138 7.17058 12.4352C7.95869 12.6443 8.79077 12.6553 9.61027 12.4389L9.87864 12.7072L8.46443 14.1214L9.87864 15.5357L11.2929 14.1214L12.1803 15.0089C12.0219 15.376 11.9124 15.7613 11.8508 16.1524Z" fill="black" fill-opacity="0.9" style="fill:black;fill-opacity:0.9;"/>
</svg>
