<svg width="24" height="24" viewBox="0 0 24 24" fill="none" xmlns="http://www.w3.org/2000/svg">
<g id="broccoli" clip-path="url(#clip0_2332_3029)">
<path id="fill1" d="M17.6961 3.55357C16.069 1.92638 13.3931 1.96406 11.7194 3.63774C11.3925 3.96467 11.408 4.07208 11.2929 4.22138C9.65421 2.76434 7.14986 2.70756 5.53503 4.32239C3.86136 5.99606 3.82368 8.67194 5.45086 10.2991C5.72789 10.5761 6.02751 10.8119 6.34312 11.0033C7.42233 11.6577 8.68864 11.7941 9.87868 11.2925L10.5858 11.9996L11.6464 12.3531L12 13.4138L13.4142 14.828C12.9114 15.5684 12.712 16.4978 12.8187 17.3847C12.9112 18.1533 13.2335 18.8899 13.7874 19.4438C15.1434 20.7998 17.3733 20.7684 18.768 19.3737C19.7608 18.3809 20.0628 16.9649 19.6654 15.7422C20.1197 15.5316 20.5467 15.238 20.923 14.8617C22.5967 13.188 22.6344 10.5121 21.0072 8.88492C20.3598 8.23752 19.5464 7.85367 18.6962 7.73153L18.732 7.62459C19.13 6.20839 18.7876 4.64505 17.6961 3.55357Z" fill="white"/>
<path id="fill2" d="M6.3436 20.4857L3.51517 17.6572C4.74299 16.4294 6.51233 12.2669 6.34357 11.0041C7.42279 11.6585 8.68909 11.7949 9.87913 11.2933L10.5862 12.0004L11.6469 12.3539L12.0005 13.4146L13.4147 14.8288C12.9119 15.5692 12.7125 16.4986 12.8192 17.3855C12.6988 17.3316 12.5687 17.2812 12.4247 17.233C10.5674 16.6105 7.0507 19.7786 6.3436 20.4857Z" fill="white"/>
<path id="stroke2" d="M11.4004 12.5998L9.87858 14.1216M3.51465 17.6571L6.34308 20.4855C7.05018 19.7784 10.5669 16.6103 12.4242 17.2328C12.5681 17.281 12.6983 17.3314 12.8187 17.3853C12.712 16.4985 12.9113 15.569 13.4141 14.8286L11.9999 13.4144L11.6464 12.3538L10.5857 12.0002L9.87861 11.2931C8.68857 11.7947 7.42226 11.6584 6.34305 11.0039C6.51181 12.2668 4.74247 16.4292 3.51465 17.6571Z" stroke="black" stroke-width="2" stroke-linecap="square"/>
<path id="stroke1" d="M11.2931 4.2214C11.4081 4.07209 11.3927 3.96469 11.7196 3.63775C13.3933 1.96408 16.0691 1.92639 17.6963 3.55358C18.7878 4.64507 19.1302 6.2084 18.7322 7.6246L18.6963 7.73155M11.2931 4.2214C9.65439 2.76435 7.15004 2.70758 5.53521 4.3224C3.86154 5.99607 3.82385 8.67195 5.45104 10.2991C5.72807 10.5762 6.02765 10.8127 6.34327 11.0041C7.42248 11.6586 8.68878 11.7949 9.87882 11.2933L10.5859 12.0004L11.6466 12.3539L12.0001 13.4146L13.4144 14.8288C12.9115 15.5692 12.7122 16.4986 12.8189 17.3855C12.9113 18.1541 13.2337 18.8899 13.7876 19.4438C15.1436 20.7998 17.3735 20.7684 18.7682 19.3737C19.761 18.3809 20.063 16.9649 19.6656 15.7422C20.1199 15.5316 20.5469 15.238 20.9232 14.8617C22.5969 13.188 22.6346 10.5121 21.0074 8.88494C20.36 8.23754 19.5466 7.85368 18.6963 7.73155M11.2931 4.2214C11.3528 4.2745 11.4113 4.32965 11.4685 4.38687C12.4113 5.32967 12.5953 6.17697 12.7073 7.04982M17.657 7.75693C17.657 7.75693 18.1683 7.65569 18.6963 7.73155" stroke="black" stroke-width="2" stroke-linecap="square"/>
</g>
<defs>
<clipPath id="clip0_2332_3029">
<rect width="24" height="24" fill="white"/>
</clipPath>
</defs>
</svg>
