<svg width="24" height="24" viewBox="0 0 24 24" fill="none" xmlns="http://www.w3.org/2000/svg">
<g clip-path="url(#clip0_100396_60180)">
<path d="M19.41 1.58606L20.1024 2.30757C22.5154 4.8221 24 8.23871 24 12C24 15.7612 22.5154 19.1779 20.1024 21.6924L19.41 22.4139L17.9669 21.0291L18.6593 20.3076C20.7294 18.1505 22 15.2247 22 12C22 8.77527 20.7294 5.84943 18.6593 3.69237L17.9669 2.97086L19.41 1.58606ZM10 3.99997C5.58172 3.99997 2 7.5817 2 12C2 16.4183 5.58172 20 10 20C14.4183 20 18 16.4183 18 12C18 7.5817 14.4183 3.99997 10 3.99997ZM0 12C0 6.47713 4.47715 1.99997 10 1.99997C15.5228 1.99997 20 6.47713 20 12C20 17.5228 15.5228 22 10 22C4.47715 22 0 17.5228 0 12ZM11 6.49997V11.5858L14.4142 15L13 16.4142L9 12.4142V6.49997H11Z" fill="black" fill-opacity="0.9" style="fill:black;fill-opacity:0.9;"/>
</g>
<defs>
<clipPath id="clip0_100396_60180">
<rect width="24" height="24" fill="white" style="fill:white;fill-opacity:1;"/>
</clipPath>
</defs>
</svg>
