<svg width="16" height="16" viewBox="0 0 16 16" fill="none" xmlns="http://www.w3.org/2000/svg">
<path fill-rule="evenodd" clip-rule="evenodd" d="M8 2.54541C4.36364 2.54541 1.25818 4.80723 0 7.99996C1.25818 11.1927 4.36364 13.4545 8 13.4545C11.6364 13.4545 14.7418 11.1927 16 7.99996C14.7418 4.80723 11.6364 2.54541 8 2.54541ZM8 12C5.792 12 4 10.208 4 7.99996C4 5.79196 5.792 3.99996 8 3.99996C10.208 3.99996 12 5.79196 12 7.99996C12 10.208 10.208 12 8 12ZM8 5.99996C6.89333 5.99996 6 6.89329 6 7.99996C6 9.10662 6.89333 9.99996 8 9.99996C9.10667 9.99996 10 9.10662 10 7.99996C10 6.89329 9.10667 5.99996 8 5.99996Z" fill="black" fill-opacity="0.9"/>
</svg>
