<svg width="24" height="24" viewBox="0 0 24 24" fill="none" xmlns="http://www.w3.org/2000/svg">
<path d="M2.99999 1.58582L9.17141 7.75774L16.2425 14.8288L22.4137 21L20.9995 22.4142L18.0345 19.4492C16.2447 20.4377 14.1866 21.0001 11.9996 21.0001C6.42102 21.0001 1.69842 17.3465 0.0892162 12.3042L-0.0078125 12.0001L0.0892163 11.6961C0.856455 9.29201 2.33009 7.20571 4.26511 5.67975L1.58567 2.99993L2.99999 1.58582ZM5.69098 7.10574C4.05507 8.33729 2.79122 10.0353 2.09676 12.0001C3.53843 16.0793 7.42915 19.0001 11.9996 19.0001C13.6314 19.0001 15.1745 18.6285 16.5507 17.9655L14.7571 16.1719C13.9669 16.695 13.0185 17.0003 11.9999 17.0003C9.23846 17.0003 6.99989 14.7618 6.99989 12.0003C6.99989 10.9817 7.3052 10.0334 7.82835 9.24312L5.69098 7.10574ZM9.29203 10.7068C9.10458 11.0984 8.99989 11.5368 8.99989 12.0003C8.99989 13.6572 10.343 15.0003 11.9999 15.0003C12.4634 15.0003 12.9018 14.8956 13.2934 14.7082L9.29203 10.7068ZM12 5.00003C11.4234 5.00003 10.8583 5.04642 10.3081 5.13548L9.32096 5.29527L9.00138 3.32097L9.98853 3.16117C10.644 3.05508 11.3159 3.00003 12 3.00003C17.5786 3.00003 22.3012 6.65367 23.9104 11.696L24.0074 12L23.9104 12.3041C23.4968 13.5999 22.878 14.8034 22.0926 15.8763L21.5019 16.6833L19.8881 15.5019L20.4788 14.695C21.0769 13.8778 21.5595 12.9715 21.9028 12C20.4612 7.92082 16.5704 5.00003 12 5.00003ZM12.5132 6.92636L13.4691 7.21985C15.0499 7.70515 16.2953 8.95049 16.7806 10.5313L17.0741 11.4873L15.1621 12.0742L14.8687 11.1183C14.578 10.1715 13.829 9.42243 12.8822 9.13178L11.9262 8.8383L12.5132 6.92636Z" fill="black" fill-opacity="0.9" style="fill:black;fill-opacity:0.9;"/>
</svg>
