<svg width="16" height="16" viewBox="0 0 16 16" fill="none" xmlns="http://www.w3.org/2000/svg">
<path fill-rule="evenodd" clip-rule="evenodd" d="M10.7732 11.9803L12.1465 13.3535L12.8535 12.6464L3.14969 2.94257L2.44266 3.64972L3.65332 4.86032C2.60522 5.58542 1.72754 6.57559 1.11694 7.76987L1 7.99985L1.11694 8.22983C2.46143 10.8698 5.10156 12.4998 8.00488 12.4998C8.96875 12.4998 9.9043 12.319 10.7732 11.9803ZM9.99121 11.1982L9.34155 10.5487C8.94092 10.76 8.48438 10.8797 7.99976 10.8797C6.40918 10.8797 5.11987 9.59036 5.11987 7.99985C5.11987 7.51529 5.2395 7.05869 5.45093 6.65799L4.36743 5.57443C3.44873 6.17038 2.66992 6.99503 2.1106 7.99985C3.3186 10.1698 5.5498 11.4998 8.00488 11.4998C8.68921 11.4998 9.35718 11.3957 9.99121 11.1982ZM6.21143 7.41855C6.15186 7.60159 6.11987 7.79697 6.11987 7.99985C6.11987 9.03806 6.96143 9.87973 7.99976 9.87973C8.20264 9.87973 8.39795 9.84757 8.58105 9.78812L6.21143 7.41855Z" fill="black" fill-opacity="0.9"/>
<path d="M14.8831 8.22983C14.3201 9.33524 13.53 10.2635 12.5894 10.9693L11.8809 10.261C12.696 9.68131 13.3894 8.91532 13.8992 7.99985C12.6814 5.82987 10.4502 4.49985 8.00488 4.49985C7.4314 4.49985 6.87012 4.57242 6.3313 4.71134L5.53125 3.91116C6.31519 3.64249 7.14868 3.49985 8.00488 3.49985C10.8984 3.49985 13.5386 5.13986 14.8831 7.76987L15 7.99985L14.8831 8.22983Z" fill="black" fill-opacity="0.9"/>
<path d="M10.8796 7.99985C10.8796 8.37375 10.8083 8.73099 10.6787 9.05875L9.86401 8.24399C9.87427 8.16409 9.87964 8.08255 9.87964 7.99985C9.87964 6.96164 9.03784 6.12003 7.99976 6.12003C7.91699 6.12003 7.83545 6.12534 7.75562 6.13571L6.94092 5.32089C7.26855 5.19125 7.62598 5.12003 7.99976 5.12003C9.59033 5.12003 10.8796 6.40939 10.8796 7.99985Z" fill="black" fill-opacity="0.9"/>
</svg>
