<svg width="24" height="24" viewBox="0 0 24 24" fill="none" xmlns="http://www.w3.org/2000/svg">
<g id="browse" clip-path="url(#clip0_2332_3428)">
<path id="fill1" d="M11.9997 4C6.86881 4 2.52275 7.36017 1.04199 12C2.52275 16.6398 6.86881 20 11.9997 20C17.1306 20 21.4766 16.6398 22.9574 12C21.4766 7.36017 17.1306 4 11.9997 4Z" fill="white"/>
<path id="fill2" d="M16 12C16 14.2091 14.2091 16 12 16C9.79086 16 8 14.2091 8 12C8 9.79086 9.79086 8 12 8C14.2091 8 16 9.79086 16 12Z" fill="white"/>
<path id="stroke1" d="M11.9997 4C6.86881 4 2.52275 7.36017 1.04199 12C2.52275 16.6398 6.86881 20 11.9997 20C17.1306 20 21.4766 16.6398 22.9574 12C21.4766 7.36017 17.1306 4 11.9997 4Z" stroke="black" stroke-width="2" stroke-linecap="square"/>
<path id="stroke2" d="M16 12C16 14.2091 14.2091 16 12 16C9.79086 16 8 14.2091 8 12C8 9.79086 9.79086 8 12 8C14.2091 8 16 9.79086 16 12Z" stroke="black" stroke-width="2" stroke-linecap="square"/>
</g>
<defs>
<clipPath id="clip0_2332_3428">
<rect width="24" height="24" fill="white"/>
</clipPath>
</defs>
</svg>
