<svg width="16" height="16" viewBox="0 0 16 16" fill="none" xmlns="http://www.w3.org/2000/svg">
<path fill-rule="evenodd" clip-rule="evenodd" d="M0.928932 2.34292L2.34315 0.928711L7.4817 6.06726C7.64693 6.02324 7.82067 5.99978 8 5.99978C9.10667 5.99978 10 6.89311 10 7.99978C10 8.17911 9.97654 8.35285 9.93252 8.51808L15.0711 13.6566L13.6569 15.0708L11.3582 12.7722C10.3267 13.2113 9.19189 13.4543 8 13.4543C4.36364 13.4543 1.25818 11.1925 0 7.99978C0.589357 6.50424 1.58404 5.21297 2.84874 4.26273L0.928932 2.34292ZM6.06748 7.48148C6.02346 7.64671 6 7.82044 6 7.99978C6 9.10645 6.89333 9.99978 8 9.99978C8.17933 9.99978 8.35307 9.97632 8.5183 9.9323L10.0316 11.4456C9.43607 11.7977 8.74149 11.9998 8 11.9998C5.792 11.9998 4 10.2078 4 7.99978C4 7.25829 4.20209 6.56371 4.55417 5.96816L6.06748 7.48148ZM12 7.99978C12 8.358 11.9528 8.70528 11.8644 9.03572L13.9172 11.0885C14.8191 10.2305 15.5355 9.17859 16 7.99978C14.7418 4.80705 11.6364 2.54523 8 2.54523C7.19915 2.54523 6.42406 2.65494 5.68878 2.86013L6.96406 4.13541C7.2945 4.04695 7.64178 3.99978 8 3.99978C10.208 3.99978 12 5.79178 12 7.99978Z" fill="black" fill-opacity="0.9"/>
</svg>
