<svg width="24" height="24" viewBox="0 0 24 24" fill="none" xmlns="http://www.w3.org/2000/svg">
<g id="browse-gallery">
<path id="fill1" d="M19 12C19 16.9706 14.9706 21 10 21C5.02944 21 1 16.9706 1 12C1 7.02944 5.02944 3 10 3C14.9706 3 19 7.02944 19 12Z" fill="white"/>
<path id="stroke1" d="M10 7.5V12L13 15M19 12C19 16.9706 14.9706 21 10 21C5.02944 21 1 16.9706 1 12C1 7.02944 5.02944 3 10 3C14.9706 3 19 7.02944 19 12Z" stroke="black" stroke-width="2" stroke-linecap="square"/>
<path id="stroke2" d="M19.3809 21C21.6224 18.6642 23 15.493 23 12C23 8.50702 21.6224 5.33579 19.3809 3" stroke="black" stroke-width="2" stroke-linecap="square"/>
</g>
</svg>
