<svg width="24" height="24" viewBox="0 0 24 24" fill="none" xmlns="http://www.w3.org/2000/svg">
    <path
        d="M7.12804 1.59161L9.49299 4.42956C10.2778 4.15127 11.122 4.00002 12 4.00002C12.878 4.00002 13.7222 4.15127 14.507 4.42956L16.872 1.59161L18.4084 2.87198L16.325 5.37211C17.5801 6.25954 18.5512 7.52345 19.0732 9.00002H22V11H19.4836C19.4945 11.1653 19.5 11.332 19.5 11.5V16.5C19.5 16.668 19.4945 16.8348 19.4836 17H22V19H19.0732C18.0436 21.913 15.2655 24 12 24C8.73445 24 5.95636 21.913 4.92676 19H2V17H4.5164C4.50552 16.8348 4.5 16.668 4.5 16.5V11.5C4.5 11.332 4.50553 11.1653 4.5164 11H2V9.00002H4.92681C5.44878 7.52345 6.41991 6.25954 7.67503 5.37211L5.59159 2.87198L7.12804 1.59161ZM12 6.00002C11.1484 6.00002 10.3446 6.19289 9.62743 6.5364C7.77552 7.42349 6.5 9.31378 6.5 11.5V16.5C6.5 19.5376 8.96243 22 12 22C15.0376 22 17.5 19.5376 17.5 16.5V11.5C17.5 9.31378 16.2245 7.42349 14.3726 6.5364C13.6554 6.19289 12.8516 6.00002 12 6.00002ZM9 10H15V12H9V10ZM9 16H15V18H9V16Z"
        fill="black" />
</svg>