<svg width="24" height="24" viewBox="0 0 24 24" fill="none" xmlns="http://www.w3.org/2000/svg">
<g id="bug">
<g id="fill1 ">
<path d="M17 9H7V16C7 18.7614 9.23858 21 12 21C14.7614 21 17 18.7614 17 16V9Z" fill="white"/>
<path d="M12 2C9.79086 2 8 3.79086 8 6H16C16 3.79086 14.2091 2 12 2Z" fill="white"/>
</g>
<path id="stroke1" d="M7 13H4M7 13V16C7 18.7614 9.23858 21 12 21C14.7614 21 17 18.7614 17 16V13M7 13V9H17V13M20 13H17M12 9V20M6.55 16.45L4 19V21M17.45 16.45L20 19V21M6.65 9.65L4 7V5M17.35 9.65L20 7V5M8 6C8 3.79086 9.79086 2 12 2C14.2091 2 16 3.79086 16 6H8Z" stroke="black" stroke-width="2" stroke-linecap="square"/>
</g>
</svg>
