<svg width="24" height="24" viewBox="0 0 24 24" fill="none" xmlns="http://www.w3.org/2000/svg">
<g id="building-1">
<path id="fill1" d="M6.49943 4C8.99947 4.00003 9.16608 6.66667 8.99943 8H8.99996L9.00001 11H21V21H3.99996V8H3.99943C3.83276 6.66667 3.99933 4 6.49943 4Z" fill="white"/>
<path id="fill2" d="M13 16V21H17V16H13Z" fill="white"/>
<path id="stroke2" d="M13 16V21H17V16H13Z" stroke="black" stroke-width="2"/>
<path id="stroke1" d="M2.5 7H1.5V9H2.5V7ZM10.5 9H11.5V7H10.5V9ZM3.99991 21H2.99991V22H3.99991V21ZM7.49991 2.5V1.5H5.49991V2.5H7.49991ZM20.9999 11H21.9999V10H20.9999V11ZM20.9999 21V22H21.9999V21H20.9999ZM2.5 8V9H10.5V8V7H2.5V8ZM3.99991 21H4.99991V8H3.99991H2.99991V21H3.99991ZM8.99991 21V20H3.99991V21V22H8.99991V21ZM3.99991 8L4.99218 7.87597C4.91908 7.2911 4.93369 6.48307 5.17835 5.87138C5.2948 5.58025 5.44677 5.37446 5.62744 5.24025C5.7991 5.11273 6.06267 5 6.49991 5V4V3C5.6871 3 4.99231 3.22061 4.4348 3.63475C3.88629 4.04221 3.53826 4.58642 3.32139 5.12862C2.89941 6.1836 2.91407 7.37557 3.00763 8.12403L3.99991 8ZM8.99991 8H7.99991V21H8.99991H9.99991V8H8.99991ZM3.99991 8V9H8.99991V8V7H3.99991V8ZM6.49991 4V5C6.93715 5 7.20071 5.11273 7.37238 5.24025C7.55304 5.37446 7.70501 5.58025 7.82146 5.87138C8.06612 6.48307 8.08073 7.2911 8.00763 7.87597L8.99991 8L9.99219 8.12403C10.0857 7.37557 10.1004 6.1836 9.67842 5.12862C9.46155 4.58642 9.11352 4.04221 8.56502 3.63475C8.0075 3.22061 7.31271 3 6.49991 3V4ZM6.49991 4H7.49991V2.5H6.49991H5.49991V4H6.49991ZM8.99993 11V12H20.9999V11V10H8.99993V11ZM20.9999 11H19.9999V21H20.9999H21.9999V11H20.9999ZM20.9999 21V20H8.99991V21V22H20.9999V21Z" fill="black"/>
</g>
</svg>
