<svg width="24" height="24" viewBox="0 0 24 24" fill="none" xmlns="http://www.w3.org/2000/svg">
    <g id="building">
        <path id="fill1" d="M16 6H19V10H20V21H4V10H5V6H8V3H16V6Z" fill="white" />
        <path id="fill2" d="M9 15V21H15V15H9Z" fill="white" />
        <path id="stroke2" d="M9 15V21H15V15H9Z" stroke="black" stroke-width="2" stroke-linecap="square" />
        <path id="stroke1"
            d="M16 6V3H8V6M16 6H19V10M16 6H8M8 6H5V10M19 10H5M19 10H20M5 10H4M4 10V21M4 10H3M4 21H3M4 21H20M20 10V21M20 10H21M20 21H21"
            stroke="black" stroke-width="2" stroke-linecap="square" />
    </g>
</svg>