<svg width="24" height="24" viewBox="0 0 24 24" fill="none" xmlns="http://www.w3.org/2000/svg">
    <path
        d="M3 6.00195H2V5.00195V4.99805V3.99805H3H3.00391H4.00391V4.99805V5.00195V6.00195H3.00391H3ZM3 13.002H2V12.002V11.998V10.998H3H3.00391H4.00391V11.998V12.002V13.002H3.00391H3ZM2 20.002H3H3.00391H4.00391V19.002V18.998V17.998H3.00391H3H2V18.998V19.002V20.002ZM8 3.99805H7V5.99805H8H21H22V3.99805H21H8ZM7 10.998H8H21H22V12.998H21H8H7V10.998ZM8 17.998H7V19.998H8H21H22V17.998H21H8Z"
        fill="black" />
</svg>