<svg width="24" height="24" viewBox="0 0 24 24" fill="none" xmlns="http://www.w3.org/2000/svg">
<path d="M8 1V4H16V1H18V4H22V6.00122L22.0012 6.00122L21.9998 13.0002L19.9998 12.9998L20 11H4V20H12V22H2V4H6V1H8ZM4 9H20V6H4V9ZM19.2866 14.0858L23.4142 18.2134L18.1276 23.5H14.0011L13.9999 19.3725L19.2866 14.0858ZM18.6148 17.586L19.914 18.8852L20.5858 18.2134L19.2866 16.9142L18.6148 17.586ZM18.4998 20.2994L17.2006 19.0002L16.0001 20.2007L16.0005 21.5H17.2992L18.4998 20.2994Z" fill="black" fill-opacity="0.9" style="fill:black;fill-opacity:0.9;"/>
</svg>
