<svg width="24" height="24" viewBox="0 0 24 24" fill="none" xmlns="http://www.w3.org/2000/svg">
    <g id="calendar-1">
        <path id="fill1" d="M3 21L21 21V10L3 10L3 21Z" fill="white" />
        <path id="fill2" d="M21 10V5H3V10H21Z" fill="white" />
        <path id="stroke1" d="M21 10V21H3V10M21 10H3M21 10V5H3V10M7 5V2M17 5V2" stroke="black" stroke-width="2"
            stroke-linecap="square" />
        <g id="stroke2">
            <path d="M8 14H8.00391V14.0039H8V14Z" stroke="black" stroke-width="2" stroke-linecap="square" />
            <path d="M12 14H12.0039V14.0039H12V14Z" stroke="black" stroke-width="2" stroke-linecap="square" />
            <path d="M16 14H16.0039V14.0039H16V14Z" stroke="black" stroke-width="2" stroke-linecap="square" />
            <path d="M16 17H16.0039V17.0039H16V17Z" stroke="black" stroke-width="2" stroke-linecap="square" />
            <path d="M8 17H8.00391V17.0039H8V17Z" stroke="black" stroke-width="2" stroke-linecap="square" />
            <path d="M12 17H12.0039V17.0039H12V17Z" stroke="black" stroke-width="2" stroke-linecap="square" />
        </g>
    </g>
</svg>