<svg width="24" height="24" viewBox="0 0 24 24" fill="none" xmlns="http://www.w3.org/2000/svg">
<g id="call-incoming">
<path id="fill1" d="M21 22C17.2007 22 13.6618 20.8848 10.6929 18.964C8.43077 17.5005 6.49953 15.5692 5.03601 13.3071C3.11515 10.3382 2 6.79932 2 3H8.77778L9.97148 8.37167L7.94713 10.396C9.28619 12.7542 11.2458 14.7138 13.604 16.0529L15.6283 14.0285L21 15.2222V22Z" fill="white"/>
<path id="stroke1" d="M21 22C17.2007 22 13.6618 20.8848 10.6929 18.964C8.43077 17.5005 6.49953 15.5692 5.03601 13.3071C3.11515 10.3382 2 6.79932 2 3H8.77778L9.97148 8.37167L7.94713 10.396C9.28619 12.7542 11.2458 14.7138 13.604 16.0529L15.6283 14.0285L21 15.2222V22Z" stroke="black" stroke-width="2" stroke-linecap="square"/>
<path id="stroke2" d="M16.2998 4.18152L16.3742 7.64264L19.8353 7.71705M17.1597 6.85706L20.6165 3.40002" stroke="black" stroke-width="2" stroke-linecap="square"/>
</g>
</svg>
