<svg width="24" height="24" viewBox="0 0 24 24" fill="none" xmlns="http://www.w3.org/2000/svg">
<path d="M22.0316 3.37771L18.7384 6.67094L20.8571 6.71649L20.8141 8.71603L15.3956 8.59953L15.279 3.18096L17.2786 3.13797L17.3241 5.25674L20.6174 1.9635L22.0316 3.37771ZM1 1.99994H9.57995L11.0668 8.69055L9.2078 10.5495C10.2994 12.2507 11.7492 13.7006 13.4504 14.7921L15.3094 12.9332L22 14.42V22.9999H21C17.0022 22.9999 13.2755 21.8259 10.1497 19.8035C7.76894 18.2633 5.73668 16.231 4.1964 13.8503C2.17402 10.7244 1 6.99775 1 2.99994V1.99994ZM3.02729 3.99994C3.20351 7.22071 4.22584 10.2139 5.87561 12.7639C7.26238 14.9073 9.09261 16.7376 11.2361 18.1243C13.786 19.7741 16.7792 20.7964 20 20.9727V16.0243L15.9473 15.1237L13.7725 17.2985L13.1102 16.9224C10.5952 15.4943 8.50568 13.4048 7.07755 10.8897L6.70146 10.2274L8.87621 8.05267L7.97561 3.99994H3.02729Z" fill="black" fill-opacity="0.9" style="fill:black;fill-opacity:0.9;"/>
</svg>
