<svg width="24" height="24" viewBox="0 0 24 24" fill="none" xmlns="http://www.w3.org/2000/svg">
<g id="call-1">
<path id="fill1" d="M21 22C17.2007 22 13.6618 20.8848 10.6929 18.964C8.43077 17.5005 6.49953 15.5692 5.03601 13.3071C3.11515 10.3382 2 6.79932 2 3H8.77778L9.97148 8.37167L7.94713 10.396C9.28619 12.7542 11.2458 14.7138 13.604 16.0529L15.6283 14.0285L21 15.2222V22Z" fill="white"/>
<path id="stroke1" d="M21 22C17.2007 22 13.6618 20.8848 10.6929 18.964C8.43077 17.5005 6.49953 15.5692 5.03601 13.3071C3.11515 10.3382 2 6.79932 2 3H8.77778L9.97148 8.37167L7.94713 10.396C9.28619 12.7542 11.2458 14.7138 13.604 16.0529L15.6283 14.0285L21 15.2222V22Z" stroke="black" stroke-width="2" stroke-linecap="square"/>
<path id="stroke2" d="M20.9821 7.24239C20.7089 6.22965 20.1749 5.30624 19.4334 4.56426C18.6919 3.82227 17.7689 3.28764 16.7563 3.01367M17.6035 8.15357C17.4897 7.73159 17.2672 7.34684 16.9582 7.03768C16.6493 6.72852 16.2647 6.50575 15.8428 6.3916" stroke="black" stroke-width="2" stroke-linecap="square"/>
</g>
</svg>
