<svg width="24" height="24" viewBox="0 0 24 24" fill="none" xmlns="http://www.w3.org/2000/svg">
<path d="M22.4142 3.00003L11.8327 13.5815C12.3413 14.0225 12.8819 14.4274 13.4504 14.7922L15.3094 12.9333L22 14.4201V23H21C17.0022 23 13.2755 21.826 10.1497 19.8036C9.2404 19.2154 8.38205 18.5554 7.58256 17.8317L3 22.4142L1.58579 21L21 1.58582L22.4142 3.00003ZM8.99871 16.4155C9.69759 17.0412 10.4456 17.613 11.2361 18.1244C13.786 19.7742 16.7792 20.7965 20 20.9727V16.0244L15.9473 15.1238L13.7725 17.2986L13.1102 16.9225C12.1446 16.3742 11.2419 15.7285 10.4154 14.9989L8.99871 16.4155ZM1 2.00003H9.57995L11.0668 8.69064L9.20181 10.5556L9.49899 11.06L7.77585 12.0752L6.69246 10.2365L8.87621 8.05275L7.97561 4.00003H3.02729C3.20351 7.2208 4.22584 10.214 5.87561 12.764C5.95693 12.8897 6.03977 13.0143 6.12412 13.1378L6.68806 13.9636L5.03642 15.0915L4.47248 14.2657C4.37878 14.1285 4.28675 13.99 4.1964 13.8504C2.17402 10.7245 1 6.99783 1 3.00003V2.00003Z" fill="black" fill-opacity="0.9" style="fill:black;fill-opacity:0.9;"/>
</svg>
