<svg width="24" height="24" viewBox="0 0 24 24" fill="none" xmlns="http://www.w3.org/2000/svg">
<path d="M1 1.99988H9.57995L11.0668 8.69049L9.2078 10.5494C10.2994 12.2507 11.7492 13.7005 13.4504 14.7921L15.3094 12.9331L22 14.4199V22.9999H21C17.0022 22.9999 13.2755 21.8259 10.1497 19.8035C7.76894 18.2632 5.73668 16.2309 4.1964 13.8502C2.17402 10.7243 1 6.99768 1 2.99988V1.99988ZM3.02729 3.99988C3.20351 7.22065 4.22584 10.2139 5.87561 12.7638C7.26238 14.9073 9.09261 16.7375 11.2361 18.1243C13.786 19.774 16.7792 20.7964 20 20.9726V16.0243L15.9473 15.1237L13.7725 17.2984L13.1102 16.9223C10.5952 15.4942 8.50568 13.4047 7.07755 10.8897L6.70146 10.2274L8.87621 8.0526L7.97561 3.99988H3.02729Z" fill="black" fill-opacity="0.9" style="fill:black;fill-opacity:0.9;"/>
</svg>
