<svg width="24" height="24" viewBox="0 0 24 24" fill="none" xmlns="http://www.w3.org/2000/svg">
    <path
        d="M1.99991 0.585815L22.4141 21L20.9999 22.4142L19.5857 21H0.999907V5.00003H3.58569L0.585693 2.00003L1.99991 0.585815ZM5.58569 7.00003H2.99991V19H17.5857L15.0487 16.4631C14.2053 17.1127 13.1476 17.5 11.9999 17.5C9.23848 17.5 6.99991 15.2615 6.99991 12.5C6.99991 11.3523 7.38726 10.2946 8.03685 9.45119L5.58569 7.00003ZM9.47091 10.8852C9.17235 11.3516 8.99991 11.9055 8.99991 12.5C8.99991 14.1569 10.3431 15.5 11.9999 15.5C12.5944 15.5 13.1483 15.3276 13.6147 15.029L9.47091 10.8852ZM7.88187 2.00003H16.1179L17.6179 5.00003H22.9999V19H20.9999V7.00003H16.3819L14.8819 4.00003H9.11794L8.47837 5.27917L6.68952 4.38474L7.88187 2.00003Z"
        fill="black" />
</svg>