<svg width="24" height="24" viewBox="0 0 24 24" fill="none" xmlns="http://www.w3.org/2000/svg">
<g id="camera-1">
<path id="fill1" d="M20 10C20 14.4183 16.4183 18 12 18C7.58172 18 4 14.4183 4 10C4 5.58172 7.58172 2 12 2C16.4183 2 20 5.58172 20 10Z" fill="white"/>
<path id="fill2" d="M15 10C15 11.6569 13.6569 13 12 13C10.3431 13 9 11.6569 9 10C9 8.34315 10.3431 7 12 7C13.6569 7 15 8.34315 15 10Z" fill="white"/>
<path id="stroke1" d="M6 21H5V23H6V21ZM18 23H19V21H18V23ZM15 17.4185L14.6248 16.4915L15 17.4185ZM6 22V23H18V22V21H6V22ZM4 10H5C5 6.13401 8.13401 3 12 3V2V1C7.02944 1 3 5.02944 3 10H4ZM12 2V3C15.866 3 19 6.13401 19 10H20H21C21 5.02944 16.9706 1 12 1V2ZM12 18V17C11.0699 17 10.1845 16.8191 9.37521 16.4915L9 17.4185L8.62479 18.3454C9.6684 18.7679 10.8083 19 12 19V18ZM9 17.4185L9.37521 16.4915C6.80802 15.4524 5 12.9361 5 10H4H3C3 13.7786 5.32832 17.011 8.62479 18.3454L9 17.4185ZM20 10H19C19 12.9361 17.192 15.4524 14.6248 16.4915L15 17.4185L15.3752 18.3454C18.6717 17.011 21 13.7786 21 10H20ZM15 17.4185L14.6248 16.4915C13.8155 16.8191 12.9301 17 12 17V18V19C13.1917 19 14.3316 18.7679 15.3752 18.3454L15 17.4185ZM16 22L16.977 21.7868L15.977 17.2052L15 17.4185L14.023 17.6317L15.023 22.2132L16 22ZM9 17.4185L8.023 17.2052L7.023 21.7868L8 22L8.977 22.2132L9.977 17.6317L9 17.4185Z" fill="black"/>
<path id="stroke2" d="M15 10C15 11.6569 13.6569 13 12 13C10.3431 13 9 11.6569 9 10C9 8.34315 10.3431 7 12 7C13.6569 7 15 8.34315 15 10Z" stroke="black" stroke-width="2"/>
</g>
</svg>
