<svg width="24" height="24" viewBox="0 0 24 24" fill="none" xmlns="http://www.w3.org/2000/svg">
<g id="camera">
<path id="fill1" d="M15.5 3H8.5L7 6H2V20H22V6H17L15.5 3Z" fill="white"/>
<path id="fill2" d="M16 12.5C16 14.7091 14.2091 16.5 12 16.5C9.79086 16.5 8 14.7091 8 12.5C8 10.2909 9.79086 8.5 12 8.5C14.2091 8.5 16 10.2909 16 12.5Z" fill="white"/>
<path id="stroke1" d="M15.5 3H8.5L7 6H2V20H22V6H17L15.5 3Z" stroke="black" stroke-width="2"/>
<path id="stroke2" d="M16 12.5C16 14.7091 14.2091 16.5 12 16.5C9.79086 16.5 8 14.7091 8 12.5C8 10.2909 9.79086 8.5 12 8.5C14.2091 8.5 16 10.2909 16 12.5Z" stroke="black" stroke-width="2"/>
</g>
</svg>
