<svg width="24" height="24" viewBox="0 0 24 24" fill="none" xmlns="http://www.w3.org/2000/svg">
    <g id="camera-1">
        <path id="fill1"
            d="M20 10C20 14.4183 16.4183 18 12 18C7.58172 18 4 14.4183 4 10C4 5.58172 7.58172 2 12 2C16.4183 2 20 5.58172 20 10Z"
            fill="white" />
        <path id="fill2"
            d="M15 10C15 11.6569 13.6569 13 12 13C10.3431 13 9 11.6569 9 10C9 8.34315 10.3431 7 12 7C13.6569 7 15 8.34315 15 10Z"
            fill="white" />
        <path id="stroke1"
            d="M12 18C10.9391 18 9.92643 17.7935 9 17.4185L8 22M12 18C13.0609 18 14.0736 17.7935 15 17.4185L16 22M12 18C16.4183 18 20 14.4183 20 10C20 5.58172 16.4183 2 12 2C7.58172 2 4 5.58172 4 10C4 14.4183 7.58172 18 12 18ZM16 22H8M16 22H18M8 22H6"
            stroke="black" stroke-width="2" stroke-linecap="square" />
        <path id="stroke2"
            d="M15 10C15 11.6569 13.6569 13 12 13C10.3431 13 9 11.6569 9 10C9 8.34315 10.3431 7 12 7C13.6569 7 15 8.34315 15 10Z"
            stroke="black" stroke-width="2" />
    </g>
</svg>