<svg width="24" height="24" viewBox="0 0 24 24" fill="none" xmlns="http://www.w3.org/2000/svg">
<path d="M9.5 10.5C9.5 9.11929 10.6193 8 12 8C13.3807 8 14.5 9.11929 14.5 10.5C14.5 11.8807 13.3807 13 12 13C10.6193 13 9.5 11.8807 9.5 10.5Z" fill="black" fill-opacity="0.9" style="fill:black;fill-opacity:0.9;"/>
<path d="M3 10.5C3 5.52944 7.02944 1.5 12 1.5C16.9706 1.5 21 5.52944 21 10.5C21 15.1326 17.5 18.9476 13 19.4451V20.4557C14.7052 20.2865 16.2828 19.6895 17.6262 18.7734L18.4524 18.21L19.5792 19.8624L18.753 20.4258C17.0878 21.5613 15.1212 22.2887 13 22.4638V22.5H12.3483C12.2326 22.5033 12.1165 22.505 12 22.505C11.8835 22.505 11.7674 22.5033 11.6518 22.5H11V22.4638C8.87876 22.2887 6.91225 21.5613 5.24705 20.4258L4.42085 19.8624L5.54761 18.21L6.3738 18.7734C7.71723 19.6895 9.29484 20.2865 11 20.4557V19.4451C6.50005 18.9476 3 15.1326 3 10.5ZM7.5 10.5C7.5 12.9853 9.51472 15 12 15C14.4853 15 16.5 12.9853 16.5 10.5C16.5 8.01472 14.4853 6 12 6C9.51472 6 7.5 8.01472 7.5 10.5Z" fill="black" fill-opacity="0.9" style="fill:black;fill-opacity:0.9;"/>
</svg>
