<svg width="24" height="24" viewBox="0 0 24 24" fill="none" xmlns="http://www.w3.org/2000/svg">
<path d="M14.3109 3.53558C14.4644 1.84687 16.5179 1.10341 17.7169 2.30243L21.6975 6.28303C22.8965 7.48205 22.1531 9.53551 20.4643 9.68903L19.1501 9.80851C19.9491 10.9766 19.8301 12.5841 18.793 13.6212L13.6214 18.7927C12.5843 19.8298 10.9768 19.9489 9.80875 19.1498L9.68928 20.4641C9.53576 22.1528 7.4823 22.8963 6.28328 21.6972L2.30268 17.7166C1.10366 16.5176 1.84711 14.4642 3.53582 14.3106L4.85007 14.1912C4.05106 13.0231 4.1701 11.4156 5.20719 10.3785L10.3788 5.20695C11.4159 4.16985 13.0234 4.05081 14.1914 4.84983L14.3109 3.53558ZM16.3683 6.9538C16.3687 6.95424 16.3691 6.95468 16.3696 6.95512L17.0448 7.63035C17.0453 7.63084 17.0458 7.63133 17.0463 7.63182C17.256 7.8407 17.5476 7.94594 17.8425 7.91914L20.2833 7.69724L16.3027 3.71665L16.0808 6.15747C16.054 6.45242 16.1593 6.74404 16.3683 6.9538ZM14.9534 8.36739L13.2072 6.62116C12.8167 6.23063 12.1835 6.23064 11.793 6.62116L9.9143 8.49984L15.5001 14.0856L17.3788 12.2069C17.7693 11.8164 17.7693 11.1833 17.3788 10.7927L15.6328 9.04677C15.6321 9.04603 15.6313 9.0453 15.6306 9.04457L14.9554 8.36933C14.9547 8.36868 14.9541 8.36804 14.9534 8.36739ZM14.0859 15.4998L8.50009 9.91405L6.62141 11.7927C6.23088 12.1833 6.23088 12.8164 6.62141 13.2069L10.793 17.3785C11.1835 17.769 11.8167 17.769 12.2072 17.3785L14.0859 15.4998ZM6.62417 16.0381L3.71689 16.3024L7.69749 20.283L7.96179 17.3758L6.62417 16.0381Z" fill="black" fill-opacity="0.9" style="fill:black;fill-opacity:0.9;"/>
</svg>
