<svg width="24" height="24" viewBox="0 0 24 24" fill="none" xmlns="http://www.w3.org/2000/svg">
<g id="candy">
<path id="fill1" d="M5.91391 13.9139C5.13286 13.1329 5.13286 11.8665 5.91391 11.0855L11.0855 5.91391C11.8665 5.13286 13.1329 5.13286 13.9139 5.91391L18.0855 10.0855C18.8665 10.8665 18.8665 12.1329 18.0855 12.9139L12.9139 18.0855C12.1329 18.8665 10.8665 18.8665 10.0855 18.0855L5.91391 13.9139Z" fill="white"/>
<g id="fill2">
<path d="M17.0093 3.00913C16.4098 2.40962 15.383 2.78134 15.3063 3.6257L15.0844 6.06652C15.0307 6.65765 15.2423 7.2421 15.662 7.66181L16.3372 8.33705C16.7569 8.75676 17.3414 8.96836 17.9325 8.91462L20.3733 8.69272C21.2177 8.61596 21.5894 7.58923 20.9899 6.98972L17.0093 3.00913Z" fill="white"/>
<path d="M3.00913 17.0097C2.40962 16.4102 2.78134 15.3835 3.6257 15.3067L6.99943 15L8.99943 17L8.69272 20.3737C8.61596 21.2181 7.58924 21.5898 6.98972 20.9903L3.00913 17.0097Z" fill="white"/>
</g>
<g id="stroke2">
<path d="M17.0093 3.00913C16.4098 2.40962 15.383 2.78134 15.3063 3.6257L15.0844 6.06652C15.0307 6.65765 15.2423 7.2421 15.662 7.66181L16.3372 8.33705C16.7569 8.75676 17.3414 8.96836 17.9325 8.91462L20.3733 8.69272C21.2177 8.61596 21.5894 7.58923 20.9899 6.98972L17.0093 3.00913Z" stroke="black" stroke-width="2" stroke-linecap="square"/>
<path d="M3.00913 17.0097C2.40962 16.4102 2.78134 15.3835 3.6257 15.3067L6.99943 15L8.99943 17L8.69272 20.3737C8.61596 21.2181 7.58924 21.5898 6.98972 20.9903L3.00913 17.0097Z" stroke="black" stroke-width="2" stroke-linecap="square"/>
</g>
<path id="stroke1" d="M8.49951 8.5L15.4995 15.5M12.9139 18.0855L18.0855 12.9139C18.8665 12.1329 18.8665 10.8665 18.0855 10.0855L13.9139 5.91391C13.1329 5.13286 11.8665 5.13286 11.0855 5.91391L5.91391 11.0855C5.13286 11.8665 5.13286 13.1329 5.91391 13.9139L10.0855 18.0855C10.8665 18.8665 12.1329 18.8665 12.9139 18.0855Z" stroke="black" stroke-width="2" stroke-linecap="square"/>
</g>
</svg>
