<svg width="24" height="24" viewBox="0 0 24 24" fill="none" xmlns="http://www.w3.org/2000/svg">
<g id="castle-4">
<path id="fill1" d="M12 9C14.7614 9 17 11.2386 17 14V21H7V14C7 11.2386 9.23858 9 12 9Z" fill="white"/>
<g id="fill2">
<path d="M21 21V3H15V10C16.2142 10.9122 17 12.3644 17 14V21H21Z" fill="white"/>
<path d="M3 21H7V14C7 12.3643 7.78565 10.9122 9 10V3H3V21Z" fill="white"/>
</g>
<path id="stroke2" d="M12 20.9999V18.3428M3 21H7V14C7 12.3643 7.78565 10.9122 9 10V3H3V21ZM21 3V21H17V14C17 12.3644 16.2142 10.9122 15 10V3H21Z" stroke="black" stroke-width="2" stroke-linecap="square"/>
<path id="stroke1" d="M17 14.8V21H7V14.8M12 9C14.7614 9 17 11.2386 17 14H7C7 11.2386 9.23858 9 12 9ZM12 9V8" stroke="black" stroke-width="2" stroke-linecap="square"/>
</g>
</svg>
