<svg width="24" height="24" viewBox="0 0 24 24" fill="none" xmlns="http://www.w3.org/2000/svg">
<path d="M13 1V2.08296C15.8377 2.55904 18 5.027 18 8H22V22H2V8H6C6 5.027 8.16229 2.55904 11 2.08296V1H13ZM8 8H16C16 5.79086 14.2091 4 12 4C9.79086 4 8 5.79086 8 8ZM4 12.5351V10H20V12.5351C19.4117 12.1948 18.7286 12 18 12C16.8053 12 15.7329 12.5238 15 13.3542C14.2671 12.5238 13.1947 12 12 12C10.8053 12 9.73295 12.5238 9 13.3542C8.26706 12.5238 7.19469 12 6 12C5.27143 12 4.58835 12.1948 4 12.5351ZM8 16C8 14.8954 7.10457 14 6 14C4.89543 14 4 14.8954 4 16V20H8V16ZM10 20H14V16C14 14.8954 13.1046 14 12 14C10.8954 14 10 14.8954 10 16V20ZM16 20H20V16C20 14.8954 19.1046 14 18 14C16.8954 14 16 14.8954 16 16V20Z" fill="black"/>
</svg>
