<svg width="24" height="24" viewBox="0 0 24 24" fill="none" xmlns="http://www.w3.org/2000/svg">
    <path
        d="M1 0.660889L7.47957 2.57941C8.86028 1.97443 10.3913 1.63854 12 1.63854C13.6087 1.63854 15.1397 1.97443 16.5204 2.57941L23 0.660889V12.7142H22.9926C22.7784 18.4579 17.9095 22.9999 12 22.9999C6.09053 22.9999 1.22162 18.4579 1.00735 12.7142H1V0.660889ZM3 6.17683C3.60238 5.34643 4.32311 4.60376 5.1374 3.97174L3 3.33889V6.17683ZM3 12.3192C3 17.0831 6.9986 20.9999 12 20.9999C17.0014 20.9999 21 17.0831 21 12.3192C21 8.9299 18.9827 5.97566 16.0109 4.54596C14.8052 3.9659 13.444 3.63854 12 3.63854C10.556 3.63854 9.1948 3.9659 7.98908 4.54596C5.01727 5.97566 3 8.9299 3 12.3192ZM21 6.17683V3.33889L18.8626 3.97174C19.6769 4.60376 20.3976 5.34643 21 6.17683ZM9 8.99989V11.9999H7V8.99989H9ZM17 8.99989V11.9999H15V8.99989H17ZM12 12.2638L12.8944 14.0527C13.2728 14.8095 13.7513 15.0382 14.083 15.0658C14.4226 15.0941 14.8418 14.9345 15.1679 14.4452L15.7226 13.6131L17.3867 14.7225L16.8321 15.5546C16.1582 16.5653 15.0774 17.1556 13.917 17.0589C13.2042 16.9995 12.546 16.6893 12 16.174C11.454 16.6893 10.7958 16.9995 10.083 17.0589C8.92255 17.1556 7.84177 16.5653 7.16795 15.5546L6.61325 14.7225L8.27735 13.6131L8.83205 14.4452C9.15823 14.9345 9.57745 15.0941 9.91695 15.0658C10.2487 15.0382 10.7272 14.8095 11.1056 14.0527L12 12.2638Z"
        fill="black" />
</svg>