<svg width="24" height="24" viewBox="0 0 24 24" fill="none" xmlns="http://www.w3.org/2000/svg">
<g id="cd">
<path id="fill1" d="M22 12C22 17.5229 17.5228 22.0001 12 22.0001C6.47715 22.0001 2 17.5229 2 12C2 6.47717 6.47715 2 12 2C17.5228 2 22 6.47717 22 12Z" fill="white"/>
<path id="fill2" d="M15 12C15 13.6569 13.6569 15 12 15C10.3431 15 9 13.6569 9 12C9 10.3431 10.3431 9 12 9C13.6569 9 15 10.3431 15 12Z" fill="white"/>
<path id="stroke1" d="M22 12C22 17.5229 17.5228 22.0001 12 22.0001C6.47715 22.0001 2 17.5229 2 12C2 6.47717 6.47715 2 12 2C17.5228 2 22 6.47717 22 12Z" stroke="black" stroke-width="2" stroke-linecap="square"/>
<path id="stroke2" d="M12 5C15.866 5 19 8.13401 19 12M15 12C15 13.6569 13.6569 15 12 15C10.3431 15 9 13.6569 9 12C9 10.3431 10.3431 9 12 9C13.6569 9 15 10.3431 15 12Z" stroke="black" stroke-width="2" stroke-linecap="square"/>
</g>
</svg>
