<svg width="24" height="24" viewBox="0 0 24 24" fill="none" xmlns="http://www.w3.org/2000/svg">
    <path
        d="M11.1742 2.98337L10.1945 3.18403C5.32506 4.18142 2.18613 8.93745 3.18352 13.8069C4.18091 18.6764 8.93693 21.8153 13.8064 20.8179C17.5231 20.0567 20.2339 17.1049 20.8633 13.5813L21.0392 12.5968L23.008 12.9486L22.8322 13.933C22.0636 18.2354 18.7538 21.8461 14.2077 22.7773C8.25615 23.9963 2.44323 20.1598 1.22419 14.2082C0.00516158 8.25666 3.84164 2.44374 9.79321 1.22471L10.7729 1.02405L11.1742 2.98337ZM13.3098 1.03049L14.2878 1.23884C18.4322 2.12171 21.8713 5.37324 22.7767 9.79373L22.9774 10.7734L21.0181 11.1747L20.8174 10.195C20.0772 6.58105 17.266 3.91816 13.8711 3.19495L12.8931 2.98659L13.3098 1.03049ZM15.9199 11.1979C15.4766 9.03366 13.3628 7.63857 11.1986 8.08186C9.03436 8.52514 7.63928 10.6389 8.08256 12.8031C8.52585 14.9673 10.6396 16.3624 12.8038 15.9191C14.9681 15.4759 16.3631 13.3621 15.9199 11.1979ZM10.7972 6.12254C14.0436 5.45761 17.2142 7.55024 17.8792 10.7965C18.5441 14.0429 16.4515 17.2135 13.2052 17.8785C9.95885 18.5434 6.78817 16.4508 6.12324 13.2045C5.45831 9.95815 7.55094 6.78746 10.7972 6.12254Z"
        fill="black" />
</svg>