<svg width="24" height="24" viewBox="0 0 24 24" fill="none" xmlns="http://www.w3.org/2000/svg">
    <g id="chart-radar ">
        <path id="fill1 " d="M12.0002 2L22.0102 9.27269L18.1868 21.0402H5.81371L1.99023 9.27269L12.0002 2Z"
            fill="white" />
        <path id="stroke1"
            d="M12.0002 2L12.588 1.19098L12.0002 0.763932L11.4124 1.19098L12.0002 2ZM22.0102 9.27269L22.9613 9.58171L23.1858 8.89072L22.598 8.46367L22.0102 9.27269ZM18.1868 21.0402V22.0402H18.9133L19.1378 21.3492L18.1868 21.0402ZM5.81371 21.0402L4.86266 21.3492L5.08717 22.0402H5.81371V21.0402ZM1.99023 9.27269L1.40245 8.46367L0.814664 8.89072L1.03918 9.58171L1.99023 9.27269ZM11 12.5251V13.5251H13V12.5251H11ZM11.691 11.5739L10.7399 11.8829L11.358 13.785L12.309 13.476L11.691 11.5739ZM11.6912 13.476L12.6423 13.785L13.2603 11.8829L12.3093 11.5739L11.6912 13.476ZM12 12.5254L12.809 11.9376L12 10.8241L11.191 11.9376L12 12.5254ZM12.0002 2L11.4124 2.80902L21.4224 10.0817L22.0102 9.27269L22.598 8.46367L12.588 1.19098L12.0002 2ZM22.0102 9.27269L21.0592 8.96367L17.2357 20.7311L18.1868 21.0402L19.1378 21.3492L22.9613 9.58171L22.0102 9.27269ZM18.1868 21.0402V20.0402H5.81371V21.0402V22.0402H18.1868V21.0402ZM5.81371 21.0402L6.76477 20.7311L2.94129 8.96367L1.99023 9.27269L1.03918 9.58171L4.86266 21.3492L5.81371 21.0402ZM1.99023 9.27269L2.57802 10.0817L12.588 2.80902L12.0002 2L11.4124 1.19098L1.40245 8.46367L1.99023 9.27269ZM12 2H11V12.5251H12H13V2H12ZM12 12.5249L12.309 13.476L22.319 10.2235L22.01 9.27246L21.701 8.3214L11.691 11.5739L12 12.5249ZM12.0002 12.5249L12.3093 11.5739L2.29925 8.3214L1.99023 9.27246L1.68122 10.2235L11.6912 13.476L12.0002 12.5249ZM12 12.5254L11.191 11.9376L5.00446 20.4526L5.81348 21.0404L6.62249 21.6282L12.809 13.1132L12 12.5254ZM12 12.5254L11.191 13.1132L17.3775 21.6282L18.1865 21.0404L18.9955 20.4526L12.809 11.9376L12 12.5254Z"
            fill="black" />
    </g>
</svg>