<svg width="24" height="24" viewBox="0 0 24 24" fill="none" xmlns="http://www.w3.org/2000/svg">
<path d="M12.0001 0.845337L21.6604 6.42269V17.5774L12.0001 23.1547L2.33984 17.5774V6.42269L12.0001 0.845337ZM12.0001 3.15474L5.33984 7.00004L12.0001 10.8453L18.6604 7.00004L12.0001 3.15474ZM19.6604 8.73209L13.0001 12.5774V20.268L19.6604 16.4227V8.73209ZM11.0001 20.268V12.5774L4.33984 8.73209V16.4227L11.0001 20.268ZM13.0001 5.00004V9.00004H11.0001V5.00004H13.0001ZM9.90191 14.3661L6.43781 16.3661L5.43781 14.634L8.90191 12.634L9.90191 14.3661ZM15.0981 12.634L18.5622 14.634L17.5622 16.3661L14.0981 14.3661L15.0981 12.634Z" fill="black" fill-opacity="0.9" style="fill:black;fill-opacity:0.9;"/>
</svg>
