<svg width="24" height="24" viewBox="0 0 24 24" fill="none" xmlns="http://www.w3.org/2000/svg">
<path d="M11.0001 3.05493C6.50017 3.55237 3.00012 7.36745 3.00012 12C3.00012 16.9706 7.02956 21 12.0001 21C16.6327 21 20.4478 17.5 20.9452 13H11.0001V3.05493ZM13.0001 3.05493V11H20.9452C20.484 6.82838 17.1717 3.51608 13.0001 3.05493ZM1.00012 12C1.00012 5.92487 5.92499 1 12.0001 1C18.0753 1 23.0001 5.92487 23.0001 12C23.0001 18.0751 18.0753 23 12.0001 23C5.92499 23 1.00012 18.0751 1.00012 12Z" fill="black" fill-opacity="0.9" style="fill:black;fill-opacity:0.9;"/>
</svg>
