<svg width="24" height="24" viewBox="0 0 24 24" fill="none" xmlns="http://www.w3.org/2000/svg">
<g id="chart-radial">
<path id="stroke1" d="M22 12C22 17.5228 17.5228 22 12 22C6.47715 22 2 17.5228 2 12C2 6.47715 6.47715 2 12 2M12 6C8.68629 6 6 8.68629 6 12C6 15.3137 8.68629 18 12 18C15.3137 18 18 15.3137 18 12C18 10.3305 17.3182 8.82033 16.2178 7.73265M14 12C14 13.1046 13.1046 14 12 14C10.8954 14 10 13.1046 10 12C10 11.0681 10.6374 10.285 11.5 10.063C11.6598 10.0219 11.8274 10 12 10" stroke="black" stroke-width="2" stroke-linecap="square"/>
</g>
</svg>
