<svg width="24" height="24" viewBox="0 0 24 24" fill="none" xmlns="http://www.w3.org/2000/svg">
    <path
        d="M4 2V20H22V22H2V2H4ZM20.3071 7.27082L22.089 8.17911C21.8943 8.56259 21.7048 8.94928 21.498 9.32648C21.4127 9.48206 21.2893 9.70107 21.1335 9.96054C20.8235 10.4766 20.3778 11.1661 19.843 11.8386C19.3156 12.5018 18.6628 13.1981 17.929 13.6828C17.1995 14.1647 16.2484 14.5254 15.2261 14.2229C13.5223 13.7187 12.9781 12.3765 12.6113 11.4719C12.6006 11.4454 12.59 11.4193 12.5795 11.3936C12.1883 10.4323 11.9529 9.95994 11.2044 9.74776C10.9684 9.68086 10.6324 9.72405 10.1445 10.0466C9.66023 10.3668 9.15917 10.8797 8.68977 11.4704C8.22755 12.0521 7.8328 12.6621 7.55153 13.1319C7.41174 13.3654 7.30194 13.561 7.22784 13.6967C7.03148 14.0563 6.85299 14.426 6.66746 14.7913L4.88381 13.8866C5.07856 13.5033 5.26637 13.1157 5.47241 12.7383C5.55731 12.5828 5.68027 12.3639 5.83556 12.1045C6.14444 11.5886 6.58912 10.8992 7.12394 10.2262C7.65157 9.56218 8.30518 8.86507 9.04153 8.37824C9.77429 7.8938 10.7249 7.53303 11.7499 7.82358C13.4881 8.31631 14.0379 9.66956 14.4096 10.5847C14.4171 10.6032 14.4246 10.6216 14.432 10.6397C14.8278 11.6124 15.0579 12.0874 15.7936 12.3051C16.0159 12.3708 16.3414 12.3346 16.8266 12.0141C17.3077 11.6963 17.8078 11.1846 18.2777 10.5937C18.7403 10.0121 19.1363 9.40144 19.4188 8.93094C19.5592 8.69711 19.6697 8.50119 19.7442 8.36517C19.9413 8.00557 20.1207 7.63603 20.3071 7.27082Z"
        fill="black" />
</svg>