<svg width="24" height="24" viewBox="0 0 24 24" fill="none" xmlns="http://www.w3.org/2000/svg">
<g id="chat-bubble-smile">
<path id="fill1" fill-rule="evenodd" clip-rule="evenodd" d="M12 22C17.5228 22 22 17.5228 22 12C22 6.47715 17.5228 2 12 2C6.47715 2 2 6.47715 2 12C2 14.6624 3.04042 17.0817 4.73686 18.8737L3 22H12Z" fill="white"/>
<path id="stroke1" fill-rule="evenodd" clip-rule="evenodd" d="M12 22C17.5228 22 22 17.5228 22 12C22 6.47715 17.5228 2 12 2C6.47715 2 2 6.47715 2 12C2 14.6624 3.04042 17.0817 4.73686 18.8737L3 22H12Z" stroke="black" stroke-width="2" stroke-linecap="square"/>
<path id="stroke2" d="M7.41602 14C8.18757 15.7659 9.94965 17 12 17C14.0503 17 15.8124 15.7659 16.5839 14" stroke="black" stroke-width="2" stroke-linecap="square"/>
</g>
</svg>
