<svg width="24" height="24" viewBox="0 0 24 24" fill="none" xmlns="http://www.w3.org/2000/svg">
<g id="chat-bubble-help">
<path id="fill1" fill-rule="evenodd" clip-rule="evenodd" d="M12 22C17.5228 22 22 17.5228 22 12C22 6.47715 17.5228 2 12 2C6.47715 2 2 6.47715 2 12C2 14.6624 3.04042 17.0817 4.73686 18.8737L3 22H12Z" fill="white"/>
<g id="stroke1">
<path fill-rule="evenodd" clip-rule="evenodd" d="M12 22C17.5228 22 22 17.5228 22 12C22 6.47715 17.5228 2 12 2C6.47715 2 2 6.47715 2 12C2 14.6624 3.04042 17.0817 4.73686 18.8737L3 22H12Z" stroke="black" stroke-width="2" stroke-linecap="square"/>
</g>
<g id="stroke2">
<path d="M12 17.75H12.0039V17.7539H12V17.75Z" fill="black"/>
<path d="M12.0002 14.75V14.5C12.0002 13.3954 12.9877 12.5414 13.8553 11.8578C14.5525 11.3085 15.0002 10.4565 15.0002 9.5C15.0002 7.84315 13.657 6.5 12.0002 6.5C10.694 6.5 9.58273 7.33481 9.1709 8.5M12 17.75H12.0039V17.7539H12V17.75Z" stroke="black" stroke-width="2" stroke-linecap="square"/>
</g>
</g>
</svg>
