<svg width="24" height="24" viewBox="0 0 24 24" fill="none" xmlns="http://www.w3.org/2000/svg">
    <path
        d="M12.0001 21C16.9707 21 21.0001 16.9706 21.0001 12C21.0001 7.02944 16.9707 3 12.0001 3C7.02956 3 3.00012 7.02944 3.00012 12C3.00012 16.9706 7.02956 21 12.0001 21ZM23.0001 12C23.0001 18.0751 18.0753 23 12.0001 23C5.92499 23 1.00012 18.0751 1.00012 12C1.00012 5.92487 5.92499 0.999999 12.0001 1C18.0753 1 23.0001 5.92487 23.0001 12ZM10.5001 16.4142L6.08591 12L7.50012 10.5858L10.5001 13.5858L16.5001 7.58579L17.9143 9L10.5001 16.4142Z"
        fill="black" />
</svg>