<svg width="24" height="24" viewBox="0 0 24 24" fill="none" xmlns="http://www.w3.org/2000/svg">
<path d="M22.5327 1.46729L18.5356 14.125L17.7024 14.0134C17.6367 14.0046 17.5692 14 17.5001 14C16.6716 14 16.0001 14.6715 16.0001 15.5C16.0001 16.0785 16.3273 16.5822 16.8115 16.8332L17.5582 17.2201L15.6735 23.1883L14.0115 22.7925C7.69362 21.2883 2.72137 16.3469 1.21594 10.0241L0.811768 8.32654L11.783 4.86194L12.0484 5.88014C12.2165 6.52509 12.8041 6.99997 13.5001 6.99997C14.3285 6.99997 15.0001 6.32839 15.0001 5.49997C15.0001 5.31419 14.9668 5.13848 14.9067 4.97696L14.5399 3.99133L22.5327 1.46729ZM16.9951 5.31335C16.9984 5.37519 17.0001 5.43741 17.0001 5.49997C17.0001 7.43296 15.4331 8.99997 13.5001 8.99997C12.2474 8.99997 11.1499 8.34248 10.5315 7.35449L3.18878 9.67326C4.53801 15.1539 8.84616 19.4483 14.3269 20.8109L15.1773 18.118C14.456 17.4775 14.0001 16.5425 14.0001 15.5C14.0001 13.7015 15.3565 12.2198 17.1022 12.0223L19.4674 4.53265L16.9951 5.31335ZM9.50006 11C8.67163 11 8.00006 11.6715 8.00006 12.5C8.00006 13.3284 8.67163 14 9.50006 14C10.3285 14 11.0001 13.3284 11.0001 12.5C11.0001 11.6715 10.3285 11 9.50006 11ZM6.00006 12.5C6.00006 10.567 7.56706 8.99997 9.50006 8.99997C11.4331 8.99997 13.0001 10.567 13.0001 12.5C13.0001 14.433 11.4331 16 9.50006 16C7.56706 16 6.00006 14.433 6.00006 12.5Z" fill="black" fill-opacity="0.9" style="fill:black;fill-opacity:0.9;"/>
</svg>
