<svg width="24" height="24" viewBox="0 0 24 24" fill="none" xmlns="http://www.w3.org/2000/svg">
<g clip-path="url(#clip0_101749_96394)">
<path d="M17 0.585938L23.4142 7.00015L22 8.41437L20.0561 6.47045C19.4111 7.26977 18.5567 8.44755 17.7953 9.81267C16.7661 11.658 15.9775 13.7209 15.9874 15.6006C17.4589 17.3736 17.3654 20.049 15.7071 21.7073C13.9497 23.4646 11.0502 23.4646 9.29287 21.7073C7.53551 19.9499 7.53551 17.0504 9.29287 15.293C10.5763 14.0096 12.469 13.6635 14.0811 14.2547C14.3508 12.3162 15.1663 10.4204 16.0487 8.83845C16.6055 7.84012 17.2074 6.93421 17.7591 6.17956C17.1354 6.25648 16.4197 6.36594 15.6587 6.52149C13.4864 6.96552 11.0859 7.75793 9.36228 9.12517C10.4273 10.8696 10.2089 13.2055 8.70709 14.7073C6.94973 16.4646 4.05023 16.4646 2.29287 14.7073C0.535513 12.9499 0.535514 10.0504 2.29287 8.29305C3.81849 6.76743 6.20487 6.56625 7.9575 7.6895C10.081 5.9338 12.9456 5.03472 15.2581 4.56201C16.1761 4.37437 17.0303 4.24944 17.7519 4.16625L15.5858 2.00015L17 0.585938ZM7.29287 9.70726C6.31656 8.73095 4.6834 8.73095 3.70709 9.70726C2.73078 10.6836 2.73078 12.3167 3.70709 13.293C4.6834 14.2694 6.31656 14.2694 7.29287 13.293C8.26918 12.3167 8.26918 10.6836 7.29287 9.70726ZM14.2929 16.7073C13.3166 15.7309 11.6834 15.7309 10.7071 16.7073C9.73078 17.6836 9.73078 19.3168 10.7071 20.2931C11.6834 21.2694 13.3166 21.2694 14.2929 20.2931C15.2692 19.3168 15.2692 17.6836 14.2929 16.7073Z" fill="black" fill-opacity="0.9" style="fill:black;fill-opacity:0.9;"/>
</g>
<defs>
<clipPath id="clip0_101749_96394">
<rect width="24" height="24" fill="white" style="fill:white;fill-opacity:1;"/>
</clipPath>
</defs>
</svg>
