<svg width="16" height="16" viewBox="0 0 16 16" fill="none" xmlns="http://www.w3.org/2000/svg">
<path fill-rule="evenodd" clip-rule="evenodd" d="M16 8C16 3.58172 12.4183 4.27116e-08 8 9.5399e-08C3.58172 1.48086e-07 4.27116e-08 3.58172 9.5399e-08 8C1.48086e-07 12.4183 3.58172 16 8 16C12.4183 16 16 12.4183 16 8ZM2 8C2 4.691 4.691 2 8 2C11.309 2 14 4.691 14 8C14 11.309 11.309 14 8 14C4.691 14 2 11.309 2 8ZM10.2071 8.70711L10.9142 8L10.2071 7.29289L7.20711 4.29289L5.79289 5.70711L8.08579 8L5.79289 10.2929L7.20711 11.7071L10.2071 8.70711Z" fill="black" fill-opacity="0.9"/>
</svg>
