<svg width="16" height="16" viewBox="0 0 16 16" fill="none" xmlns="http://www.w3.org/2000/svg">
<path fill-rule="evenodd" clip-rule="evenodd" d="M8 0C3.58172 0 0 3.58172 0 8C0 12.4183 3.58172 16 8 16C12.4183 16 16 12.4183 16 8C16 3.58172 12.4183 0 8 0ZM8 14C4.691 14 2 11.309 2 8C2 4.691 4.691 2 8 2C11.309 2 14 4.691 14 8C14 11.309 11.309 14 8 14ZM8.70711 5.79289L8 5.08579L7.29289 5.79289L4.29289 8.79289L5.70711 10.2071L8 7.91421L10.2929 10.2071L11.7071 8.79289L8.70711 5.79289Z" fill="black" fill-opacity="0.9"/>
</svg>
