<svg width="24" height="24" viewBox="0 0 24 24" fill="none" xmlns="http://www.w3.org/2000/svg">
<g id="chinese-cabbage">
<g id="fill1">
<path d="M12.0002 2C14.4002 2 15.0003 4 15.0003 5C15.5238 5.36646 16.3686 6.79678 16.3686 6.79678C16.3719 6.80483 17.4975 9.50299 15.6285 11.5C14.5813 12.5 12.8317 13.6329 12.8317 13.6329H12.8315L13.2493 14.956C13.2517 14.9605 14.8048 17.9141 15.0001 18.5C15.1955 19.0863 15.2305 20.1883 14.5811 20.9997C14.1228 21.5722 13.3238 22 12.0001 22C10.6763 22 9.87728 21.5722 9.41904 20.9997C8.76961 20.1883 8.80461 19.0863 9.00005 18.5C9.19531 17.9142 10.748 14.9613 10.7508 14.956L11.1687 13.6329H11.1688C11.1624 13.6287 9.41731 12.4981 8.37207 11.5C6.50278 9.50263 7.62907 6.80386 7.63203 6.79678C7.63203 6.79678 8.47676 5.36645 9.00025 5C9.00025 4 9.60025 2.00001 12.0002 2Z" fill="white"/>
<path d="M8 14.1985C8 14.1985 2 12.1783 2 8.99997C2 4.85602 7.6317 6.79673 7.6317 6.79673C7.6317 6.79673 6.5 9.49997 8.37176 11.5C9.41894 12.5 11.1685 13.6328 11.1685 13.6328L10.7507 14.956C10.7507 14.956 9.1954 17.9137 8.99996 18.5C8.80452 19.0863 8.76951 20.1882 9.41894 20.9996C2 20.9996 8 14.1985 8 14.1985Z" fill="white"/>
<path d="M16.0001 14.1985C16.0001 14.1985 22.0001 12.1783 22.0001 8.99997C22.0001 4.85602 16.3684 6.79673 16.3684 6.79673C16.3684 6.79673 17.5001 9.49997 15.6283 11.5C14.5811 12.5 12.8315 13.6328 12.8315 13.6328L13.2494 14.956C13.2494 14.956 14.8047 17.9137 15.0001 18.5C15.1956 19.0863 15.2306 20.1882 14.5811 20.9996C22.0001 20.9996 16.0001 14.1985 16.0001 14.1985Z" fill="white"/>
</g>
<path id="fill2" d="M11.1687 13.6329L12.0001 12L12.8316 13.6329L13.2494 14.956L16.0001 14.1985C16.0001 14.1985 22.0001 20.9996 14.5812 20.9996C14.1229 21.5721 13.324 22 12.0002 22C10.6763 22 9.87736 21.5721 9.41913 20.9996C2.00018 20.9996 8.00018 14.1985 8.00018 14.1985L10.7509 14.956L11.1687 13.6329Z" fill="white"/>
<path id="stroke1" d="M19.0001 9.00002L16.3659 10.9531M5 9L7.63419 10.9531M16.4084 14.7C17.5888 16.2261 20.5844 20.7258 15.1 20.9876M12.8315 13.6328C12.8315 13.6328 14.5811 12.5 15.6283 11.5C17.5001 9.49997 16.3659 6.80348 16.3659 6.80348C16.3659 6.80348 15.5216 5.36492 15.0003 5C15.0003 4 14.4003 2 12.0003 2C9.60026 2 9.00026 4 9.00026 5C8.47677 5.36644 7.6317 6.79673 7.6317 6.79673C7.6317 6.79673 6.5 9.49997 8.37176 11.5C9.41894 12.5 11.1685 13.6328 11.1685 13.6328L10.7507 14.956C10.7507 14.956 9.1954 17.9137 8.99996 18.5C8.80452 19.0863 8.76951 20.1883 9.41894 20.9996C9.87718 21.5721 10.6762 22 12 22C13.3238 22 14.1228 21.5721 14.581 20.9996C15.2304 20.1883 15.1954 19.0863 15 18.5C14.8045 17.9137 13.2492 14.956 13.2492 14.956L12.8315 13.6328ZM12.8315 13.6328L12.2545 12.5M13.9371 14.7666L16.0001 14.1985C16.0001 14.1985 22.0001 12.1783 22.0001 8.99997C22.0001 5.72991 18.4727 6.25952 17 6.62315M10.063 14.7666L8 14.1985C8 14.1985 2 12.1783 2 8.99997C2 5.71953 5.52918 6.25213 7 6.61653M7.59158 14.7C6.41121 16.2261 3.41562 20.7258 8.9 20.9876M12 6V12M10 8L11.7501 9.75M14 8L12.25 9.75M11.7271 12.5L11.1503 13.6329" stroke="black" stroke-width="2" stroke-linecap="square"/>
</g>
</svg>
