<svg width="24" height="24" viewBox="0 0 24 24" fill="none" xmlns="http://www.w3.org/2000/svg">
<g id="city-4">
<path id="fill1" d="M16 21V10L12 8L8 10V21H16Z" fill="white"/>
<g id="fill2">
<path d="M3 21H8V5L5.5 3L3 5V21Z" fill="white"/>
<path d="M21 21V5L18.5 3L16 5V21H21Z" fill="white"/>
</g>
<path id="stroke2" d="M11 13H13M12 21V17" stroke="black" stroke-width="2" stroke-linecap="square"/>
<path id="stroke1" d="M8 21H3V5L5.5 3L8 5V21ZM8 21H16M16 21H21V5L18.5 3L16 5V21ZM8.5 9.75L12 8L15.5 9.75" stroke="black" stroke-width="2" stroke-linecap="square"/>
</g>
</svg>
