<svg width="24" height="24" viewBox="0 0 24 24" fill="none" xmlns="http://www.w3.org/2000/svg">
<path d="M8.00929 1.82764L11.9987 4.32008L15.988 1.82764L22.3721 5.65694L21.3433 7.37206L21.0001 7.16622V22.0001H2.99719V7.16622L2.65401 7.37206L1.62524 5.65694L8.00929 1.82764ZM4.99719 5.96657V20.0001H7.00012V15.0001H9.00012V20.0001H10.9972V6.05264L7.98802 4.1726L4.99719 5.96657ZM13.0001 20.0001H15.0001V15.0001H17.0001V20.0001H19.0001V5.96657L16.0093 4.1726L13.0001 6.05264V20.0001ZM7.00012 8.99816H9.00402V11.0021H7.00012V8.99816ZM15.0001 8.99816H17.004V11.0021H15.0001V8.99816Z" fill="black" fill-opacity="0.9" style="fill:black;fill-opacity:0.9;"/>
</svg>
