<svg width="24" height="24" viewBox="0 0 24 24" fill="none" xmlns="http://www.w3.org/2000/svg">
    <path
        d="M11.9987 0.801758L18.052 4.79461L16.9999 6.38954V9.4997L20.3345 11.9998H22.0012V13.9998H21.0012V21.9998H3.00122V13.9998H2.00122V11.9998H3.6678L6.99992 9.4999V6.38918L5.94781 4.79491L11.9987 0.801758ZM8.99992 5.17699V8.9998H14.9999V5.17734L11.999 3.19784L8.99992 5.17699ZM15.6667 10.9998H8.33334L7.00044 11.9998H17.0004L15.6667 10.9998ZM19.0012 13.9998H5.00122V19.9998H10.9988V16.9998H12.9988V19.9998H19.0012V13.9998ZM11.0012 4.99785H13.0051V7.00175H11.0012V4.99785Z"
        fill="black" />
</svg>