<svg width="24" height="24" viewBox="0 0 24 24" fill="none" xmlns="http://www.w3.org/2000/svg">
    <g id="city-5">
        <path id="fill1" d="M16 21V10C13.9493 12.5633 10.0507 12.5633 8 10V21H12H16Z" fill="white" />
        <g id="fill2">
            <path d="M3 21H8V5L5.5 3L3 5V21Z" fill="white" />
            <path d="M21 21V5L18.5 3L16 5V21H21Z" fill="white" />
        </g>
        <path id="stroke2" d="M12 21V16" stroke="black" stroke-width="2" stroke-linecap="square" />
        <path id="stroke1"
            d="M16 21H21V5L18.5 3L16 5V21ZM16 21H8M8 21H3V5L5.5 3L8 5V21ZM8.5 10.5419C10.4585 12.3827 13.5415 12.3827 15.5 10.5419"
            stroke="black" stroke-width="2" stroke-linecap="square" />
    </g>
</svg>