<svg width="24" height="24" viewBox="0 0 24 24" fill="none" xmlns="http://www.w3.org/2000/svg">
<g id="clear-formatting-1">
<path id="fill1" d="M22.2739 11.5454L14.0312 3.30273L5.78861 11.5454L14.0312 19.788L22.2739 11.5454Z" fill="white"/>
<path id="fill2" d="M3.78857 17.788L7.16235 21.1618L12.6574 21.1618L14.0312 19.788L5.78857 11.5454L3.78857 13.5454C2.617 14.717 2.617 16.6165 3.78857 17.788Z" fill="white"/>
<path id="stroke1" d="M12.6572 21.162L7.16212 21.162L3.78835 17.7882C2.61677 16.6166 2.61678 14.7171 3.78835 13.5456L5.78835 11.5456L14.031 19.7882L12.6572 21.162ZM12.6572 21.162H18.9998M14.0309 3.30273L22.2736 11.5454L14.0309 19.788L5.78828 11.5454L14.0309 3.30273Z" stroke="black" stroke-width="2" stroke-linecap="square"/>
</g>
</svg>
