<svg viewBox="0 0 1024 1024" version="1.1" xmlns="http://www.w3.org/2000/svg"><path  fill-opacity=".9" fill-rule="evenodd" d="M448 256V128H576V256H448ZM640 128V256H832C867.3472 256 896 284.65408 896 320V448C896 480.27328 872.1088 506.96768 841.0496 511.36448L885.5616 822.9504C891.072 861.504 861.152 896 822.208 896H201.79264C162.84544 896 132.928 861.504 138.43584 822.9504L182.94784 511.36448C151.88864 506.96768 128 480.27328 128 448V320C128 284.65408 156.65408 256 192 256H384V128C384 92.65408 412.65408 64 448 64H576C611.34592 64 640 92.65408 640 128ZM776.4928 448H832V320H576 448 192L192 448H247.5072 776.4928ZM776.4928 512H247.5072L201.79264 832H320V704H384V832H480V704H544V832H640V704H704V832H822.208L776.4928 512Z" clip-rule="evenodd"/></svg>