<svg width="16" height="16" viewBox="0 0 16 16" fill="none" xmlns="http://www.w3.org/2000/svg">
<path fill-rule="evenodd" clip-rule="evenodd" d="M0 8C0 3.58172 3.58172 0 8 0C12.4183 0 16 3.58172 16 8C16 12.4183 12.4183 16 8 16C3.58172 16 0 12.4183 0 8ZM2 8C2 11.309 4.691 14 8 14C11.309 14 14 11.309 14 8C14 4.691 11.309 2 8 2C4.691 2 2 4.691 2 8ZM5.87906 4.46469L4.46484 5.87891L6.58569 7.99976L4.46424 10.1212L5.87845 11.5354L7.99991 9.41397L10.1217 11.5358L11.5359 10.1215L9.41412 7.99976L11.5353 5.87857L10.1211 4.46436L7.99991 6.58554L5.87906 4.46469Z" fill="black" fill-opacity="0.9"/>
</svg>
