<svg width="24" height="24" viewBox="0 0 24 24" fill="none" xmlns="http://www.w3.org/2000/svg">
    <path
        d="M16.3496 1.49963L22.5004 7.65039V16.3489L16.3496 22.4996H7.65112L1.50037 16.3489L1.50037 7.65039L7.65112 1.49963L16.3496 1.49963ZM15.5212 3.49963L8.47955 3.49963L3.50037 8.47882L3.50037 15.5204L8.47955 20.4996H15.5212L20.5004 15.5204L20.5004 8.47882L15.5212 3.49963ZM16.5962 8.81799L13.4146 11.9996L16.5962 15.1813L15.182 16.5955L12.0004 13.4138L8.81805 16.5962L7.40383 15.182L10.5862 11.9996L7.40383 8.81731L8.81805 7.4031L12.0004 10.5854L15.182 7.40378L16.5962 8.81799Z"
        fill="black" />
</svg>