<svg width="16" height="16" viewBox="0 0 16 16" fill="none" xmlns="http://www.w3.org/2000/svg">
<path fill-rule="evenodd" clip-rule="evenodd" d="M3 13L13 13L13 3L3 3L3 13ZM15 3V1H13H3H1V3V13V15H3L13 15H15V13L15 3ZM6 4.58579L6.70711 5.29289L8 6.58579L9.29289 5.29289L10 4.58579L11.4142 6L10.7071 6.70711L9.41421 8L10.7071 9.29289L11.4142 10L10 11.4142L9.29289 10.7071L8 9.41421L6.70711 10.7071L6 11.4142L4.58579 10L5.29289 9.29289L6.58579 8L5.29289 6.70711L4.58579 6L6 4.58579Z" fill="black" fill-opacity="0.9"/>
</svg>
