<svg width="24" height="24" viewBox="0 0 24 24" fill="none" xmlns="http://www.w3.org/2000/svg">
<g id="cloud">
<path id="fill1" d="M2 15C2 17.2091 3.79086 19 6 19H17C19.7614 19 22 16.7614 22 14C22 11.2386 19.7614 9 17 9C16.9723 9 16.9447 9.00023 16.9172 9.00067C16.4414 6.16263 13.9732 4 11 4C7.68629 4 5 6.68629 5 10C5 10.3762 5.03463 10.7444 5.10088 11.1015C3.3247 11.5094 2 13.1 2 15Z" fill="white"/>
<path id="stroke1" d="M2 15C2 17.2091 3.79086 19 6 19H17C19.7614 19 22 16.7614 22 14C22 11.2386 19.7614 9 17 9C16.9723 9 16.9447 9.00023 16.9172 9.00067C16.4414 6.16263 13.9732 4 11 4C7.68629 4 5 6.68629 5 10C5 10.3762 5.03463 10.7444 5.10088 11.1015C3.3247 11.5094 2 13.1 2 15Z" stroke="black" stroke-width="2"/>
</g>
</svg>
