<svg width="24" height="24" viewBox="0 0 24 24" fill="none" xmlns="http://www.w3.org/2000/svg">
<g id="cloudy-day">
<path id="fill1" d="M2 16.5333C2 18.4479 3.52223 20 5.4 20H14.75C17.0972 20 19 18.0599 19 15.6667C19 15.0761 18.8841 14.5131 18.6743 14C18.0338 12.434 16.518 11.3333 14.75 11.3333C14.7265 11.3333 14.703 11.3335 14.6796 11.3339C14.2752 8.87428 12.1772 7 9.65 7C6.83335 7 4.55 9.32812 4.55 12.2C4.55 12.5261 4.57944 12.8451 4.63575 13.1546C3.12599 13.5082 2 14.8867 2 16.5333Z" fill="white"/>
<path id="fill2" d="M14.7497 11.3333C14.7261 11.3333 14.7027 11.3335 14.6792 11.3339C14.3002 9.02865 12.4336 7.23758 10.1201 7.02183C10.5565 5.28554 12.128 4 13.9997 4C15.8827 4 17.4618 5.30116 17.887 7.05344C18.0859 7.01832 18.2906 7 18.4997 7C20.4326 7 21.9997 8.567 21.9997 10.5C21.9997 12.2632 20.1739 14 18.6739 14C18.0334 12.434 16.5176 11.3333 14.7497 11.3333Z" fill="white"/>
<path id="stroke2" d="M14.7497 11.3333C14.7261 11.3333 14.7027 11.3335 14.6792 11.3339C14.3002 9.02865 12.4336 7.23758 10.1201 7.02183C10.5565 5.28554 12.128 4 13.9997 4C15.8827 4 17.4618 5.30116 17.887 7.05344C18.0859 7.01832 18.2906 7 18.4997 7C20.4326 7 21.9997 8.567 21.9997 10.5C21.9997 12.2632 20.1739 14 18.6739 14C18.0334 12.434 16.5176 11.3333 14.7497 11.3333Z" stroke="black" stroke-width="2"/>
<path id="stroke1" d="M2 16.5333C2 18.4479 3.52223 20 5.4 20H14.75C17.0972 20 19 18.0599 19 15.6667C19 15.0761 18.8841 14.5131 18.6743 14C18.0338 12.434 16.518 11.3333 14.75 11.3333C14.7265 11.3333 14.703 11.3335 14.6796 11.3339C14.2752 8.87428 12.1772 7 9.65 7C6.83335 7 4.55 9.32812 4.55 12.2C4.55 12.5261 4.57944 12.8451 4.63575 13.1546C3.12599 13.5082 2 14.8867 2 16.5333Z" stroke="black" stroke-width="2"/>
</g>
</svg>
