<svg width="24" height="24" viewBox="0 0 24 24" fill="none" xmlns="http://www.w3.org/2000/svg">
<path d="M11.0001 5C8.2387 5 6.00012 7.23858 6.00012 10C6.00012 10.3148 6.02908 10.6218 6.08422 10.919L6.25909 11.8615L5.32486 12.0761C3.99285 12.382 3.00012 13.5763 3.00012 15C3.00012 16.6569 4.34327 18 6.00012 18H17.0001C19.2093 18 21.0001 16.2091 21.0001 14C21.0001 11.7909 19.2093 10 17.0001 10C16.9779 10 16.9557 10.0002 16.9335 10.0005L16.0733 10.0145L15.931 9.16602C15.5347 6.80174 13.4768 5 11.0001 5ZM4.00012 10C4.00012 6.13401 7.13413 3 11.0001 3C14.1874 3 16.8757 5.12935 17.7226 8.04306C20.6957 8.39988 23.0001 10.9308 23.0001 14C23.0001 17.3137 20.3138 20 17.0001 20H6.00012C3.2387 20 1.00012 17.7614 1.00012 15C1.00012 12.9443 2.23997 11.18 4.01203 10.4112C4.00412 10.275 4.00012 10.1379 4.00012 10Z" fill="black" fill-opacity="0.9" style="fill:black;fill-opacity:0.9;"/>
</svg>
