<svg width="16" height="16" viewBox="0 0 16 16" fill="none" xmlns="http://www.w3.org/2000/svg">
<path fill-rule="evenodd" clip-rule="evenodd" d="M8 3.59082C6.33493 3.59082 4.97226 4.88891 4.86985 6.5276L4.82099 7.3095L4.05012 7.4492C2.88418 7.66049 2 8.68253 2 9.909C2 11.2897 3.11929 12.409 4.5 12.409H11.5C12.8807 12.409 14 11.2897 14 9.909C14 8.68253 13.1158 7.66049 11.9499 7.4492L11.179 7.3095L11.1301 6.5276C11.0277 4.88891 9.66507 3.59082 8 3.59082ZM2.97152 5.67553C3.45706 3.34286 5.5236 1.59082 8 1.59082C10.4764 1.59082 12.5429 3.34286 13.0285 5.67553C14.7614 6.3014 16 7.95975 16 9.909C16 12.3943 13.9853 14.409 11.5 14.409H4.5C2.01472 14.409 0 12.3943 0 9.909C0 7.95975 1.23858 6.3014 2.97152 5.67553Z" fill="black" fill-opacity="0.9"/>
</svg>
