<svg width="16" height="16" viewBox="0 0 16 16" fill="none" xmlns="http://www.w3.org/2000/svg">
<path fill-rule="evenodd" clip-rule="evenodd" d="M8 2.5C6.33493 2.5 4.97226 3.79809 4.86985 5.43678L4.82099 6.21868L4.05012 6.35838C2.88418 6.56967 2 7.59171 2 8.81818C2 10.0277 2.85888 11.0365 4 11.2682V13.2907C1.75002 13.042 0 11.1345 0 8.81818C0 6.86893 1.23858 5.21058 2.97152 4.58471C3.45706 2.25204 5.5236 0.5 8 0.5C10.4764 0.5 12.5429 2.25204 13.0285 4.58471C14.7614 5.21058 16 6.86893 16 8.81818C16 11.1345 14.25 13.042 12 13.2907V11.2682C13.1411 11.0365 14 10.0277 14 8.81818C14 7.59171 13.1158 6.56967 11.9499 6.35838L11.179 6.21868L11.1301 5.43678C11.0277 3.79809 9.66507 2.5 8 2.5ZM6.6364 11.1364L6 11.7728L4.72721 10.5L5.3636 9.8636L7.3636 7.8636L8 7.22721L8.6364 7.8636L10.6364 9.8636L11.2728 10.5L10 11.7728L9.3636 11.1364L8.9 10.6728L8.9 14V14.9H7.1L7.1 14V10.6728L6.6364 11.1364Z" fill="black"/>
</svg>
