<svg width="24" height="24" viewBox="0 0 24 24" fill="none" xmlns="http://www.w3.org/2000/svg">
    <path
        d="M16.5715 1.01367L22.9861 7.42827L22.1097 11.7814L19.0677 14.8234L19.0716 14.8273C19.0101 14.8889 18.944 14.9525 18.8733 15.0179L11.783 22.1081L7.42996 22.9844L1.01538 16.5698L1.8893 12.2148L12.2165 1.88767L16.5715 1.01367ZM17.4875 13.5751L19.7748 11.2879L18.069 9.58207C15.9749 11.8803 12.2162 14.6713 6.36752 14.8511L7.52509 16.0087C12.9103 16.7807 16.257 14.6985 17.4875 13.5751ZM9.69269 18.1763L11.2895 19.7732L13.259 17.8037C12.1973 18.0429 11.0076 18.1861 9.69269 18.1763ZM9.26318 20.5752L3.42336 14.7354L3.18705 15.913L8.08617 20.8122L9.26318 20.5752ZM4.31959 12.8032C10.7338 13.3003 14.6275 10.4229 16.6534 8.16643L12.7098 4.22283L4.22447 12.7081L4.31959 12.8032ZM14.7371 3.4217L20.5769 9.26153L20.8139 8.08446L15.9147 3.18535L14.7371 3.4217Z"
        fill="black" />
</svg>