<svg width="24" height="24" viewBox="0 0 24 24" fill="none" xmlns="http://www.w3.org/2000/svg">
<g id="cola">
<path id="fill1" d="M21.1893 11.2881L11.2898 21.1876L2.81055 12.7083L12.7101 2.80884L21.1893 11.2881Z" fill="white"/>
<g id="fill2">
<path d="M2.10107 16.2415L2.81011 12.7082L11.2894 21.1875L7.75792 21.8984L2.10107 16.2415Z" fill="white"/>
<path d="M16.243 2.09961L21.8998 7.75646L21.1889 11.288L12.7096 2.80871L16.243 2.09961Z" fill="white"/>
</g>
<path id="stroke2" d="M7.04976 16.9479C13.2534 17.9516 17.0803 15.4045 18.3644 14.1204M18.0092 8.10829C16.0241 10.6233 11.6097 14.5078 3.87004 13.7681" stroke="black" stroke-width="2"/>
<path id="stroke1" d="M13.2 3.29909L20.7009 10.8M3.30002 13.2L10.8009 20.7008M12.7096 2.80871L16.243 2.09961L21.8998 7.75646L21.1889 11.288L11.2894 21.1875L7.75792 21.8984L2.10107 16.2415L2.81011 12.7082L12.7096 2.80871Z" stroke="black" stroke-width="2" stroke-linecap="square"/>
</g>
</svg>
