<svg width="24" height="24" viewBox="0 0 24 24" fill="none" xmlns="http://www.w3.org/2000/svg">
    <path
        d="M12 1.58582L18.0104 7.59622C20.4744 10.0602 21.1094 13.6605 19.9155 16.7102C19.5191 17.7895 18.8886 18.7954 17.998 19.6294C17.4161 20.209 16.7711 20.6869 16.0852 21.0631C15.8485 21.1953 15.6098 21.3118 15.3673 21.4137C12.2635 22.7513 8.52496 22.1524 5.98959 19.617C2.67014 16.2976 2.67014 10.9157 5.98959 7.59622L12 1.58582ZM15.1574 19.2902C15.6096 19.0319 16.0836 18.6782 16.6084 18.1906C17.2562 17.5394 17.7377 16.7851 18.0527 15.9807C18.3232 15.2297 18.4494 14.417 18.4343 13.5928C18.4023 11.8509 17.7388 10.153 16.5962 9.01044L13 5.41424V19.9557C13.5116 19.9048 13.9641 19.8072 14.3962 19.6474C14.4468 19.6286 14.4974 19.6089 14.5482 19.5882C14.7552 19.5001 14.9586 19.4007 15.1574 19.2902ZM11 5.41424L7.40381 9.01044C4.8654 11.5488 4.8654 15.6644 7.40381 18.2028C8.41787 19.2169 9.68364 19.8258 11 20.0297V5.41424Z"
        fill="black" />
</svg>