<svg width="24" height="24" viewBox="0 0 24 24" fill="none" xmlns="http://www.w3.org/2000/svg">
<g id="combination">
<g id="fill2">
<path d="M12 3L16.3302 9.75H7.66992L12 3Z" fill="white"/>
<path d="M3 14H10V21H3V14Z" fill="white"/>
<path d="M21 17.5C21 19.433 19.433 21 17.5 21C15.567 21 14 19.433 14 17.5C14 15.567 15.567 14 17.5 14C19.433 14 21 15.567 21 17.5Z" fill="white"/>
</g>
<g id="stroke1">
<path d="M12 3L16.3302 9.75H7.66992L12 3Z" stroke="black" stroke-width="2" stroke-linecap="square"/>
<path d="M3 14H10V21H3V14Z" stroke="black" stroke-width="2" stroke-linecap="square"/>
<path d="M21 17.5C21 19.433 19.433 21 17.5 21C15.567 21 14 19.433 14 17.5C14 15.567 15.567 14 17.5 14C19.433 14 21 15.567 21 17.5Z" stroke="black" stroke-width="2" stroke-linecap="square"/>
</g>
</g>
</svg>
