<svg width="24" height="24" viewBox="0 0 24 24" fill="none" xmlns="http://www.w3.org/2000/svg">
<g id="component-steps">
<g id="fill1">
<path d="M7 12C7 10.6193 5.88071 9.5 4.5 9.5C3.11929 9.5 2 10.6193 2 12C2 13.3807 3.11929 14.5 4.5 14.5C5.88071 14.5 7 13.3807 7 12Z" fill="white"/>
<path d="M14.5 12C14.5 10.6193 13.3807 9.5 12 9.5C10.6193 9.5 9.5 10.6193 9.5 12C9.5 13.3807 10.6193 14.5 12 14.5C13.3807 14.5 14.5 13.3807 14.5 12Z" fill="white"/>
<path d="M22 12C22 10.6193 20.8807 9.5 19.5 9.5C18.1193 9.5 17 10.6193 17 12C17 13.3807 18.1193 14.5 19.5 14.5C20.8807 14.5 22 13.3807 22 12Z" fill="white"/>
</g>
<path id="stroke1" d="M14.499 11H13.499V13H14.499V11ZM7 12H8C8 10.067 6.433 8.5 4.5 8.5V9.5V10.5C5.32843 10.5 6 11.1716 6 12H7ZM4.5 9.5V8.5C2.567 8.5 1 10.067 1 12H2H3C3 11.1716 3.67157 10.5 4.5 10.5V9.5ZM2 12H1C1 13.933 2.567 15.5 4.5 15.5V14.5V13.5C3.67157 13.5 3 12.8284 3 12H2ZM4.5 14.5V15.5C6.433 15.5 8 13.933 8 12H7H6C6 12.8284 5.32843 13.5 4.5 13.5V14.5ZM7 12V13H9.5V12V11H7V12ZM14.5 12H15.5C15.5 10.067 13.933 8.5 12 8.5V9.5V10.5C12.8284 10.5 13.5 11.1716 13.5 12H14.5ZM12 9.5V8.5C10.067 8.5 8.5 10.067 8.5 12H9.5H10.5C10.5 11.1716 11.1716 10.5 12 10.5V9.5ZM9.5 12H8.5C8.5 13.933 10.067 15.5 12 15.5V14.5V13.5C11.1716 13.5 10.5 12.8284 10.5 12H9.5ZM12 14.5V15.5C13.933 15.5 15.5 13.933 15.5 12H14.5H13.5C13.5 12.8284 12.8284 13.5 12 13.5V14.5ZM14.499 12V13H17.0002V12V11H14.499V12ZM22 12H23C23 10.067 21.433 8.5 19.5 8.5V9.5V10.5C20.3284 10.5 21 11.1716 21 12H22ZM19.5 9.5V8.5C17.567 8.5 16 10.067 16 12H17H18C18 11.1716 18.6716 10.5 19.5 10.5V9.5ZM17 12H16C16 13.933 17.567 15.5 19.5 15.5V14.5V13.5C18.6716 13.5 18 12.8284 18 12H17ZM19.5 14.5V15.5C21.433 15.5 23 13.933 23 12H22H21C21 12.8284 20.3284 13.5 19.5 13.5V14.5Z" fill="black"/>
</g>
</svg>
