<svg width="24" height="24" viewBox="0 0 24 24" fill="none" xmlns="http://www.w3.org/2000/svg">
    <g id="component-steps">
        <g id="fill1">
            <path
                d="M7 12C7 10.6193 5.88071 9.5 4.5 9.5C3.11929 9.5 2 10.6193 2 12C2 13.3807 3.11929 14.5 4.5 14.5C5.88071 14.5 7 13.3807 7 12Z"
                fill="white" />
            <path
                d="M14.5 12C14.5 10.6193 13.3807 9.5 12 9.5C10.6193 9.5 9.5 10.6193 9.5 12C9.5 13.3807 10.6193 14.5 12 14.5C13.3807 14.5 14.5 13.3807 14.5 12Z"
                fill="white" />
            <path
                d="M22 12C22 10.6193 20.8807 9.5 19.5 9.5C18.1193 9.5 17 10.6193 17 12C17 13.3807 18.1193 14.5 19.5 14.5C20.8807 14.5 22 13.3807 22 12Z"
                fill="white" />
        </g>
        <path id="stroke1"
            d="M7 12C7 10.6193 5.88071 9.5 4.5 9.5C3.11929 9.5 2 10.6193 2 12C2 13.3807 3.11929 14.5 4.5 14.5C5.88071 14.5 7 13.3807 7 12ZM7 12H9.5M9.5 12C9.5 10.6193 10.6193 9.5 12 9.5C13.3807 9.5 14.5 10.6193 14.5 12M9.5 12C9.5 13.3807 10.6193 14.5 12 14.5C13.3807 14.5 14.5 13.3807 14.5 12M14.5 12H17.0002M17.0002 12C17.0002 10.6193 18.1193 9.5 19.5 9.5C20.8807 9.5 22 10.6193 22 12C22 13.3807 20.8807 14.5 19.5 14.5C18.1193 14.5 17.0002 13.3807 17.0002 12Z"
            stroke="black" stroke-width="2" />
    </g>
</svg>