<svg width="24" height="24" viewBox="0 0 24 24" fill="none" xmlns="http://www.w3.org/2000/svg">
<g id="compass-1">
<path id="fill1" d="M12 22C17.5228 22 22 17.5228 22 12C22 6.47715 17.5228 2 12 2C6.47715 2 2 6.47715 2 12C2 17.5228 6.47715 22 12 22Z" fill="white"/>
<path id="fill2" d="M14.1007 9.89929L12 2L9.89929 9.89929L2 12L9.89929 14.1007L12 22L14.1007 14.1007L22 12L14.1007 9.89929Z" fill="white"/>
<path id="stroke1" d="M22 12C22 17.5228 17.5228 22 12 22M22 12C22 6.47715 17.5228 2 12 2M22 12L14.1007 9.89929L12 2M22 12L14.1007 14.1007L12 22M12 22C6.47715 22 2 17.5228 2 12M12 22L9.89929 14.1007L2 12M2 12C2 6.47715 6.47715 2 12 2M2 12L9.89929 9.89929L12 2M13.1111 11.9998C13.1111 12.6134 12.6137 13.1109 12 13.1109C11.3864 13.1109 10.8889 12.6134 10.8889 11.9998C10.8889 11.3861 11.3864 10.8887 12 10.8887C12.6137 10.8887 13.1111 11.3861 13.1111 11.9998Z" stroke="black" stroke-width="2"/>
</g>
</svg>
