<svg width="24" height="24" viewBox="0 0 24 24" fill="none" xmlns="http://www.w3.org/2000/svg">
<g id="compass">
<path id="fill1" d="M2 12C2 6.47715 6.47715 2 12 2C17.5228 2 22 6.47715 22 12C22 17.5228 17.5228 22 12 22C6.47715 22 2 17.5229 2 12Z" fill="white"/>
<path id="fill2" d="M9.99961 10.0004L15.8887 8.11134L13.9996 14.0005L8.11051 15.8895L9.99961 10.0004Z" fill="white"/>
<path id="stroke1" d="M2 12C2 6.47715 6.47715 2 12 2C17.5228 2 22 6.47715 22 12C22 17.5228 17.5228 22 12 22C6.47715 22 2 17.5229 2 12Z" stroke="black" stroke-width="2" stroke-linecap="square"/>
<path id="stroke2" d="M9.99945 10.0004L15.8885 8.11133L13.9995 14.0005L8.11035 15.8895L9.99945 10.0004Z" stroke="black" stroke-width="2" stroke-linecap="square"/>
</g>
</svg>
