<svg width="24" height="24" viewBox="0 0 24 24" fill="none" xmlns="http://www.w3.org/2000/svg">
    <path
        d="M8.99991 1.58594L11.9999 4.58594L14.9999 1.58594L23.9141 10.5002L11.9999 22.4144L0.0856934 10.5002L8.99991 1.58594ZM10.5857 6.00015L8.99991 4.41436L2.91412 10.5002L11.9999 19.5859L12.9541 18.6318L10.5857 16.2634L11.9999 14.8492L14.3683 17.2176L15.3224 16.2634L12.9541 13.8951L14.3683 12.4808L16.7366 14.8492L18.0857 13.5002L14.9999 10.4144L11.9999 13.4144L7.58569 9.00015L10.5857 6.00015ZM19.4999 12.0859L21.0857 10.5002L14.9999 4.41436L10.4141 9.00015L11.9999 10.5859L14.9999 7.58594L19.4999 12.0859Z"
        fill="black" />
</svg>