<svg width="24" height="24" viewBox="0 0 24 24" fill="none" xmlns="http://www.w3.org/2000/svg">
<g id="copyright">
<path id="fill1" d="M2 12C2 6.47715 6.47715 2 12 2C17.5228 2 22 6.47715 22 12C22 17.5228 17.5228 22 12 22C6.47715 22 2 17.5228 2 12Z" fill="white"/>
<path id="stroke1" d="M2 12C2 6.47715 6.47715 2 12 2C17.5228 2 22 6.47715 22 12C22 17.5228 17.5228 22 12 22C6.47715 22 2 17.5228 2 12Z" stroke="black" stroke-width="2" stroke-linecap="square"/>
<path id="stroke2" d="M15.1816 15.1827C13.4243 16.9401 10.575 16.9401 8.81768 15.1827C7.06032 13.4254 7.06032 10.5761 8.81768 8.81875C10.575 7.06139 13.4243 7.06139 15.1816 8.81875" stroke="black" stroke-width="2" stroke-linecap="square"/>
</g>
</svg>
