<svg width="24" height="24" viewBox="0 0 24 24" fill="none" xmlns="http://www.w3.org/2000/svg">
<g id="corn">
<path id="fill1" d="M20 8.99999C21.2888 7.39096 23.0764 4.65866 21.2189 2.79125C19.355 0.91738 16.6122 2.71023 15 3.99999L9.62239 8.25177C10.3291 10.3354 10.198 13.1392 9 15C10.8537 13.8065 13.6446 13.6724 15.7232 14.3692C17.1494 12.5799 18.5754 10.7905 20 8.99999Z" fill="white"/>
<path id="fill2" d="M13.9999 18.5C16.9999 16.25 18.4999 16 18.4999 16C18.4999 16 17.447 14.9471 15.7231 14.3692C13.6445 13.6724 10.8536 13.8065 8.9999 15C10.1979 13.1393 10.329 10.3355 9.62229 8.25179C9.04265 6.54275 7.9999 5.5 7.9999 5.5C7.9999 5.5 7.7499 7 5.4999 10C3.9999 12 -0.4001 16.8 3.9999 20C7.1999 24.4 11.9999 20 13.9999 18.5Z" fill="white"/>
<path id="stroke1" d="M9 15C10.198 13.1393 10.3291 10.3355 9.62239 8.25179L15.0001 3.99999M9 15C10.8537 13.8065 13.6446 13.6724 15.7232 14.3692C17.1494 12.58 18.5755 10.7905 20.0001 8.99999M9 15L21.219 2.79125M21.219 2.79125C23.0765 4.65866 21.2889 7.39096 20.0001 8.99999M21.219 2.79125C19.3551 0.917381 16.6123 2.71023 15.0001 3.99999M20.0001 8.99999L15.0001 3.99999M17.3508 12.3271L11.6632 6.63477" stroke="black" stroke-width="2"/>
<path id="stroke2" d="M3.9999 20C7.1999 24.4 11.9999 20 13.9999 18.5C16.9999 16.25 18.4999 16 18.4999 16C18.4999 16 17.447 14.9471 15.7231 14.3692C13.6445 13.6724 10.8536 13.8065 8.9999 15M3.9999 20L8.9999 15M3.9999 20C-0.4001 16.8 3.9999 12 5.4999 10C7.7499 7 7.9999 5.5 7.9999 5.5C7.9999 5.5 9.04265 6.54275 9.62229 8.25179C10.329 10.3355 10.1979 13.1393 8.9999 15" stroke="black" stroke-width="2" stroke-linecap="square"/>
</g>
</svg>
