<svg width="24" height="24" viewBox="0 0 24 24" fill="none" xmlns="http://www.w3.org/2000/svg">
<g id="crack">
<path id="fill1" d="M12 22C17.5228 22 22 17.5228 22 12C22 6.47715 17.5228 2 12 2C6.47715 2 2 6.47715 2 12C2 17.5228 6.47715 22 12 22Z" fill="white"/>
<path id="stroke2" d="M16 9.00001V11M8 9.00001V11M8.53516 15C9.22678 16.1956 10.5195 17 12 17C13.4806 17 14.7733 16.1956 15.4649 15M12.75 2.54321L11 6.00001L13 10L11 14L13 18L11.25 21.4568" stroke="black" stroke-width="2" stroke-linecap="square"/>
<path id="stroke1" d="M12 22C17.5228 22 22 17.5228 22 12C22 6.47715 17.5228 2 12 2C6.47715 2 2 6.47715 2 12C2 17.5228 6.47715 22 12 22Z" stroke="black" stroke-width="2" stroke-linecap="square"/>
</g>
</svg>
