<svg width="24" height="24" viewBox="0 0 24 24" fill="none" xmlns="http://www.w3.org/2000/svg">
<g clip-path="url(#clip0_100300_106781)">
<path d="M1.99991 0.585815L23.4141 22L21.9999 23.4142L19.5857 21H0.999907V3.00003H1.58569L0.585693 2.00003L1.99991 0.585815ZM2.99991 5.00003V9.00003L7.58569 9.00003L3.58569 5.00003H2.99991ZM2.99991 11V19H17.5857L9.58569 11H2.99991ZM7.58079 2.99856L22.9999 3.00072L23.0033 12.4186L22.9999 12.4152L23.0033 18.4186L20.9999 16.4152V11.0013L15.5869 11.002L13.5816 8.99856L20.9999 9.00128V5.00128L9.58708 5.00198L7.58079 2.99856ZM4.99991 14H9.99991V16H4.99991V14Z" fill="black" fill-opacity="0.9" style="fill:black;fill-opacity:0.9;"/>
</g>
<defs>
<clipPath id="clip0_100300_106781">
<rect width="24" height="24" fill="white" style="fill:white;fill-opacity:1;"/>
</clipPath>
</defs>
</svg>
