<svg width="24" height="24" viewBox="0 0 24 24" fill="none" xmlns="http://www.w3.org/2000/svg">
<g id="creditcard-off" clip-path="url(#clip0_2332_3493)">
<path id="stroke1" d="M17.001 10.0019H16.001L16 10.0009L17.001 10.0019ZM17.001 10.0019L22 10.001M22 10.001L22.001 10.0019L22 9.00096M22 10.001V9.00096M22 10.001V15.001M22 15.001V16.001L22.001 16.0019L22 15.001ZM11.001 4.00195H10.001L10 4.00095L11.001 4.00195ZM11.001 4.00195L22 4.00097V9.00096M6 15H9M2 10H9M4 4L2 4V20H20L4 4Z" stroke="black" stroke-width="2" stroke-linecap="square"/>
<path id="stroke2" d="M2 2L22 22" stroke="black" stroke-width="2" stroke-linecap="square"/>
</g>
<defs>
<clipPath id="clip0_2332_3493">
<rect width="24" height="24" fill="white"/>
</clipPath>
</defs>
</svg>
