<svg width="24" height="24" viewBox="0 0 24 24" fill="none" xmlns="http://www.w3.org/2000/svg">
    <path
        d="M1.94116 1H22.0587L20.9611 20.2076L11.9999 23.568L3.03874 20.2076L1.94116 1ZM4.05871 3L4.96114 18.7924L11.9999 21.432L19.0387 18.7924L19.9412 3H4.05871ZM5.48223 5H18.3298L18.222 6.88688L10.9319 10.3768L18.0225 10.3768L17.6177 17.4612L11.9996 19.568L6.38144 17.4612L6.26746 15.4665L6.26727 15.4632L6.19242 14.0734H8.20259L8.26445 15.3568L8.30384 16.0461L11.9996 17.432L15.6953 16.0461L15.905 12.3768L6.09091 12.3768L5.98523 10.5276L13.3539 7H12.0005L5.74616 7.01163L5.48223 5Z"
        fill="black" />
</svg>