<svg width="24" height="24" viewBox="0 0 24 24" fill="none" xmlns="http://www.w3.org/2000/svg">
    <path
        d="M14.7251 2.18086C16.8847 1.49713 18.7173 1.77554 20.0852 2.76274C20.3086 2.92397 20.5159 3.10165 20.7071 3.29288C20.9356 3.52135 21.1446 3.77265 21.3294 4.04689C22.2594 5.42745 22.4872 7.24841 21.7852 9.37997C21.0923 11.4839 19.4892 13.925 16.7071 16.7071C13.8794 19.5348 11.4033 21.1452 9.27487 21.8191C7.11524 22.5028 5.28271 22.2244 3.91481 21.2372C3.69139 21.076 3.48412 20.8983 3.29289 20.7071C3.06442 20.4786 2.85536 20.2273 2.67061 19.953C1.7407 18.5725 1.51291 16.7516 2.21485 14.62C2.90771 12.516 4.5108 10.075 7.29289 7.29288C10.1206 4.46516 12.5967 2.8547 14.7251 2.18086ZM15.3288 4.08758C13.6238 4.62737 11.4153 5.99893 8.70711 8.70709C6.04362 11.3706 4.6724 13.5514 4.1145 15.2456C3.92744 15.8136 3.8326 16.3221 3.80938 16.776C6.93329 11.664 11.9127 6.83777 16.9977 3.80352C16.5102 3.80356 15.9564 3.88889 15.3288 4.08758ZM19.2003 4.8537C13.5446 7.88493 7.79642 13.4689 4.74576 19.1614C7.42427 17.6676 10.2739 15.3786 12.8559 12.7887C15.4139 10.2229 17.6653 7.40599 19.2003 4.8537ZM6.92195 20.1956C7.42863 20.2055 8.00888 20.122 8.67122 19.9123C10.3762 19.3726 12.5847 18.001 15.2929 15.2929C17.9564 12.6294 19.3277 10.4485 19.8856 8.75438C20.1008 8.10076 20.194 7.52607 20.1964 7.02247C18.62 9.41319 16.5511 11.915 14.2723 14.2007C11.9758 16.5042 9.43288 18.6218 6.92195 20.1956Z"
        fill="black" />
</svg>