<svg width="24" height="24" viewBox="0 0 24 24" fill="none" xmlns="http://www.w3.org/2000/svg">
    <g id="currency-exchange">
        <path id="stroke1"
            d="M21.448 13C20.9483 17.7767 16.909 21.5 12 21.5C8.18227 21.5 4.89052 19.248 3.38065 16M2.5 20.5V15.5H5.5M2.55176 11C3.05145 6.22334 7.09079 2.5 11.9998 2.5C15.8175 2.5 19.1092 4.75197 20.6191 8M21.4998 3.5V8.5H18.4998"
            stroke="black" stroke-width="2" stroke-linecap="square" />
        <path id="stroke2"
            d="M14.5 8H12M12 8H11C9.89543 8 9 8.89543 9 10C9 11.1046 9.89543 12 11 12H13C14.1046 12 15 12.8954 15 14C15 15.1046 14.1046 16 13 16H12M12 8V7M12 16H9.5M12 16V17"
            stroke="black" stroke-width="2" stroke-linecap="square" />
    </g>
</svg>