<svg width="24" height="24" viewBox="0 0 24 24" fill="none" xmlns="http://www.w3.org/2000/svg">
    <path
        d="M20.5 5.83468C18.592 3.20865 15.4963 1.5 12 1.5C6.57365 1.5 2.10982 5.61542 1.55741 10.896L1.45337 11.8905L3.44251 12.0986L3.54656 11.104C3.99355 6.83125 7.60839 3.5 12 3.5C15.0407 3.5 17.7102 5.09688 19.2127 7.5H17.5V9.5H22.5V2.5H20.5V5.83468ZM11 6V7C9.34313 7 7.99998 8.34315 7.99998 10C7.99998 11.6569 9.34313 13 11 13H13C13.5523 13 14 13.4477 14 14C14 14.5523 13.5523 15 13 15H8.49998V17H11V18H13V17C14.6568 17 16 15.6569 16 14C16 12.3431 14.6568 11 13 11H11C10.4477 11 9.99998 10.5523 9.99998 10C9.99998 9.44772 10.4477 9 11 9H15.5V7H13V6H11ZM20.5575 11.9014L20.4534 12.896C20.0064 17.1687 16.3916 20.5 12 20.5C8.95928 20.5 6.28981 18.9031 4.78727 16.5H6.49998V14.5H1.49998V21.5H3.49998V18.1653C5.40793 20.7914 8.50366 22.5 12 22.5C17.4263 22.5 21.8901 18.3846 22.4426 13.104L22.5466 12.1095L20.5575 11.9014Z"
        fill="black" />
</svg>