<svg width="24" height="24" viewBox="0 0 24 24" fill="none" xmlns="http://www.w3.org/2000/svg">
<g id="dam-3">
<path id="fill1" d="M4 21V10C4 5.02944 8 2 12 2C16 2 20 5.02944 20 10V21H16V10H8V21H4Z" fill="white"/>
<path id="stroke1" d="M4 21V10C4 5.02944 8 2 12 2C16 2 20 5.02944 20 10V21M4 21H3M4 21H8M20 21H21M20 21H16M8 10V21M8 10H16M8 10H4.25M8 21H9M16 10V21M16 10H19.75M16 21H15" stroke="black" stroke-width="2" stroke-linecap="square"/>
<path id="stroke2" d="M11 6H13" stroke="black" stroke-width="2" stroke-linecap="square"/>
</g>
</svg>
