<svg width="24" height="24" viewBox="0 0 24 24" fill="none" xmlns="http://www.w3.org/2000/svg">
<g id="dam-5">
<path id="fill1" d="M16 3H8V15C8 12.7909 9.79086 11 12 11C14.2091 11 16 12.7909 16 15V3Z" fill="white"/>
<g id="fill2">
<path d="M20 21V3H16V21H20Z" fill="white"/>
<path d="M4 21V3H8V21H4Z" fill="white"/>
</g>
<path id="stroke1" d="M4 3V21M4 3H8M4 3H3M20 3V21M20 3H16M20 3H21M4 21H3M4 21C9 21 3 21 8 21M20 21H21M20 21H16M8 3H16M8 3C8 8.9797 8 9.84222 8 15M8 21H16M8 21C8 19.5597 8 16.2423 8 15M16 3V15M16 21V15M8 15C8 12.7909 9.79086 11 12 11C14.2091 11 16 12.7909 16 15" stroke="black" stroke-width="2" stroke-linecap="square"/>
</g>
</svg>
