<svg width="24" height="24" viewBox="0 0 24 24" fill="none" xmlns="http://www.w3.org/2000/svg">
<g id="dam-1">
<path id="fill1" d="M8 21V10.1C8 7.89086 9.79086 6.1 12 6.1C14.2091 6.1 16 7.89086 16 10.1V21H20V10.1C20 5.62649 16.4735 2 12 2C7.52649 2 4 5.62649 4 10.1V21H8Z" fill="white"/>
<path id="stroke1" d="M8 21V10.1C8 7.89086 9.79086 6.1 12 6.1C14.2091 6.1 16 7.89086 16 10.1V21M8 21H4M8 21H9M3 21H4M4 21V10.1C4 5.62649 7.52649 2 12 2C16.4735 2 20 5.62649 20 10.1V21M20 21H21M20 21H16M16 21H15" stroke="black" stroke-width="2" stroke-linecap="square"/>
</g>
</svg>
