<svg width="24" height="24" viewBox="0 0 24 24" fill="none" xmlns="http://www.w3.org/2000/svg">
    <g opacity="0.9">
        <path
            d="M12 2.99976C7.02944 2.99976 3 7.02919 3 11.9998C3 15.3294 4.80766 18.2381 7.49994 19.7959L8.36549 20.2967L7.36386 22.0278L6.49831 21.527C3.21354 19.6264 1 16.0722 1 11.9998C1 5.92462 5.92487 0.999756 12 0.999756C13.2027 0.999756 14.3623 1.19315 15.4481 1.55129L16.3977 1.86453L15.7713 3.76388L14.8216 3.45064C13.9354 3.15833 12.9872 2.99976 12 2.99976ZM20.981 4.4142L15.4386 9.95552C15.7949 10.5537 16 11.2532 16 11.9998C16 14.209 14.2091 15.9998 12 15.9998C9.79086 15.9998 8 14.209 8 11.9998C8 9.79071 9.79086 7.99985 12 7.99985C12.7362 7.99985 13.4266 8.19931 14.0193 8.54644L19.5669 2.99985L20.981 4.4142ZM22.1352 7.60201L22.4485 8.55169C22.8066 9.6375 23 10.797 23 11.9998C23 16.071 20.7877 19.6244 17.5044 21.5254L16.639 22.0265L15.6369 20.2956L16.5023 19.7946C19.1933 18.2365 21 15.3285 21 11.9998C21 11.0125 20.8414 10.0644 20.5491 9.17817L20.2359 8.22849L22.1352 7.60201ZM12 9.99985C10.8954 9.99985 10 10.8953 10 11.9998C10 13.1044 10.8954 13.9998 12 13.9998C13.1046 13.9998 14 13.1044 14 11.9998C14 11.4439 13.7745 10.9425 13.4075 10.579C13.045 10.2199 12.5492 9.99985 12 9.99985Z"
            fill="black" />
    </g>
</svg>