<svg width="24" height="24" viewBox="0 0 24 24" fill="none" xmlns="http://www.w3.org/2000/svg">
<g id="dashboard">
<path id="fill2" d="M15 11.9998C15 13.6566 13.6569 14.9998 12 14.9998C10.3431 14.9998 9 13.6566 9 11.9998C9 10.3429 10.3431 8.99976 12 8.99976C13.6569 8.99976 15 10.3429 15 11.9998Z" fill="white"/>
<path id="stroke1" d="M19.5668 4.41406L14.1113 9.86853M14.1113 9.86853C13.5692 9.33152 12.8233 8.99985 12 8.99985C10.3431 8.99985 9 10.343 9 11.9998C9 13.6567 10.3431 14.9998 12 14.9998C13.6569 14.9998 15 13.6567 15 11.9998C15 11.1663 14.6601 10.4122 14.1113 9.86853Z" stroke="black" stroke-width="2" stroke-linecap="square"/>
<path id="stroke2" d="M6.99912 20.6617C4.0106 18.9325 2 15.7011 2 12C2 6.47715 6.47715 2 12 2C13.095 2 14.1488 2.17598 15.1348 2.50121M17.0034 20.6603C19.9906 18.9308 22.0001 15.7001 22.0001 12.0001C22.0001 10.9051 21.8241 9.85125 21.4989 8.86523" stroke="black" stroke-width="2" stroke-linecap="square"/>
</g>
</svg>
