<svg width="16" height="16" viewBox="0 0 16 16" fill="none" xmlns="http://www.w3.org/2000/svg">
<g clip-path="url(#clip0_915_10173)">
<path d="M8 1C9.0558 1 10.0958 1.20891 11.0618 1.6091L9.48748 3.18342C9.00396 3.05977 8.50439 2.99624 8 2.99624C6.81257 2.99624 5.65181 3.34835 4.66449 4.00806C3.67718 4.66776 2.90766 5.60542 2.45325 6.70246C1.99884 7.7995 1.87995 9.00666 2.1116 10.1713C2.34313 11.3352 2.91442 12.4045 3.75328 13.2439L3.7547 13.2453L2.34315 14.6569C1.86349 14.1772 1.44943 13.6412 1.10856 13.063C0.654335 12.2926 0.330066 11.4473 0.153721 10.5607C-0.15496 9.00887 0.00346637 7.40034 0.608967 5.93853C1.21447 4.47672 2.23985 3.22729 3.55544 2.34824C4.87104 1.46919 6.41775 1 8 1Z" fill="black"/>
<path d="M13.8884 10.1713C14.0735 9.24078 14.0348 8.28313 13.78 7.37618L15.3394 5.81676C15.357 5.85719 15.3742 5.89778 15.391 5.93853C15.9965 7.40034 16.155 9.00887 15.8463 10.5607C15.6699 11.4473 15.3457 12.2926 14.8914 13.063C14.5506 13.6412 14.1365 14.1772 13.6569 14.6569L12.2453 13.2453L12.2467 13.2439C13.0856 12.4045 13.6569 11.3352 13.8884 10.1713Z" fill="black"/>
<path d="M13.0312 2.46826L14.4455 3.88248L9.91305 8.41489C9.96959 8.59996 10 8.79643 10 9C10 10.1046 9.10457 11 8 11C6.89543 11 6 10.1046 6 9C6 7.89543 6.89543 7 8 7C8.15435 7 8.30462 7.01749 8.44893 7.05058L13.0312 2.46826Z" fill="black"/>
</g>
<defs>
<clipPath id="clip0_915_10173">
<rect width="16" height="16" fill="white"/>
</clipPath>
</defs>
</svg>
