<svg width="24" height="24" viewBox="0 0 24 24" fill="none" xmlns="http://www.w3.org/2000/svg">
<path d="M2 2H22V14.5H20V13H4L4 20.0004H14.5V22.0004H2L2 2ZM4 11H20V4H4V11ZM5.99805 6.5H8.00195V8.50391H5.99805V6.5ZM17.3789 15.9644L19.5002 18.0858L21.6215 15.9644L23.0358 17.3787L20.9144 19.5L23.0358 21.6213L21.6215 23.0355L19.5002 20.9142L17.3789 23.0355L15.9647 21.6213L18.086 19.5L15.9647 17.3787L17.3789 15.9644ZM5.99805 15.5H8.00195V17.5039H5.99805V15.5Z" fill="black" fill-opacity="0.9" style="fill:black;fill-opacity:0.9;"/>
</svg>
