<svg width="24" height="24" viewBox="0 0 24 24" fill="none" xmlns="http://www.w3.org/2000/svg">
<path d="M2 2H22V13H4L4 20.0004H13.5V22.0004H2L2 2ZM4 11H20V4H4V11ZM5.99805 6.5H8.00195V8.50391H5.99805V6.5ZM18.75 16.5C17.7835 16.5 17 17.2835 17 18.25C17 19.2165 17.7835 20 18.75 20C19.7165 20 20.5 19.2165 20.5 18.25C20.5 17.2835 19.7165 16.5 18.75 16.5ZM15 18.25C15 16.1789 16.6789 14.5 18.75 14.5C20.8211 14.5 22.5 16.1789 22.5 18.25C22.5 18.9223 22.3231 19.5533 22.0132 20.099L23.6642 21.75L22.25 23.1642L20.599 21.5132C20.0533 21.8231 19.4223 22 18.75 22C16.6789 22 15 20.3211 15 18.25ZM5.99805 15.5H8.00195V17.5039H5.99805V15.5Z" fill="black" fill-opacity="0.9" style="fill:black;fill-opacity:0.9;"/>
</svg>
