<svg width="24" height="24" viewBox="0 0 24 24" fill="none" xmlns="http://www.w3.org/2000/svg">
<g id="data-display">
<path id="stroke1" d="M4 5L4.5 5C5.05228 5 5.5 5.44772 5.5 6L5.5 15M5.5 15H4M5.5 15H7M10 5L13 5C13.5523 5 14 5.44772 14 6V9C14 9.55228 13.5523 10 13 10H11C10.4477 10 10 10.4477 10 11V15H14M17 15H20C20.5523 15 21 14.5523 21 14V10M17 5L20 5C20.5523 5 21 5.44772 21 6V10M21 10H17.5" stroke="black" stroke-width="2" stroke-linecap="square"/>
<path id="stroke2" d="M21 19L4 19" stroke="black" stroke-width="2" stroke-linecap="square"/>
</g>
</svg>
