<svg viewBox="0 0 1024 1024" version="1.1" xmlns="http://www.w3.org/2000/svg"><path fill-opacity=".9" fill-rule="evenodd" d="M174.63250560000006 116.1597152L167.16875519999996 116.59028992C135.33907840000006 120.28725696 110.63250560000006 147.33822144 110.63250560000006 180.1597152L110.63250560000006 180.1597152 110.63250560000006 496.1568576C110.49646080000002 512.77611904 116.15264000000002 528.89482688 128.1261568 540.86833984L128.1261568 540.86833984 535.41966016 948.1618432C560.41321472 973.1553984 603.46843328 970.6227392 631.5861824000001 942.504992L631.5861824000001 942.504992 937.05631168 637.03486208C965.1740608 608.91711296 967.70672064 565.8618944 942.7131660800001 540.86833984L942.7131660800001 540.86833984 535.41966016 133.57483392C523.95402048 122.10919488 508.68737792 116.43633472 492.7794976 116.1597152L492.7794976 116.1597152 174.63250560000006 116.1597152ZM395.9680000000001 256.40588416C466.660448 256.40588416 523.9680000000001 313.71343616 523.9680000000001 384.40588416 523.9680000000001 455.09833216 466.660448 512.40588416 395.9680000000001 512.40588416 325.27555200000006 512.40588416 267.9680000000001 455.09833216 267.9680000000001 384.40588416 267.9680000000001 313.71343616 325.27555200000006 256.40588416 395.9680000000001 256.40588416ZM395.9680000000001 320.40588416C360.6217792 320.40588416 331.9680000000001 349.05966016 331.9680000000001 384.40588416 331.9680000000001 419.75210816 360.6217792 448.40588416 395.9680000000001 448.40588416 431.31422399999997 448.40588416 459.9680000000001 419.75210816 459.9680000000001 384.40588416 459.9680000000001 349.05966016 431.31422399999997 320.40588416 395.9680000000001 320.40588416Z"/></svg>