<svg width="24" height="24" viewBox="0 0 24 24" fill="none" xmlns="http://www.w3.org/2000/svg">
    <g id="discount">
        <path id="fill1"
            d="M11.878 22.0207L1.97852 12.1212L11.878 2.22168L21.0704 2.92879L21.7775 12.1212L11.878 22.0207Z"
            fill="white" />
        <path id="fill2"
            d="M13.9998 7.17075C14.7809 6.3897 16.0472 6.3897 16.8283 7.17075C17.6093 7.9518 17.6093 9.21813 16.8283 9.99917C16.0472 10.7802 14.7809 10.7802 13.9998 9.99917C13.2188 9.21813 13.2188 7.9518 13.9998 7.17075Z"
            fill="white" />
        <path id="stroke1"
            d="M11.878 22.0207L1.97852 12.1212L11.878 2.22168L21.0704 2.92879L21.7775 12.1212L11.878 22.0207Z"
            stroke="black" stroke-width="2" />
        <path id="stroke2"
            d="M13.9998 7.17075C14.7809 6.3897 16.0472 6.3897 16.8283 7.17075C17.6093 7.9518 17.6093 9.21813 16.8283 9.99917C16.0472 10.7802 14.7809 10.7802 13.9998 9.99917C13.2188 9.21813 13.2188 7.9518 13.9998 7.17075Z"
            stroke="black" stroke-width="2" />
    </g>
</svg>