<svg width="24" height="24" viewBox="0 0 24 24" fill="none" xmlns="http://www.w3.org/2000/svg">
    <path
        d="M11.4965 1.18945L22.0021 1.99757L22.8102 12.5032L11.8784 23.435L0.564697 12.1213L11.4965 1.18945ZM12.2603 3.25411L3.39312 12.1213L11.8784 20.6066L20.7456 11.7394L20.1395 3.8602L12.2603 3.25411ZM16.1206 7.87789C15.7301 7.48737 15.0969 7.48737 14.7064 7.87789C14.3159 8.26842 14.3159 8.90158 14.7064 9.29211C15.0969 9.68263 15.7301 9.68263 16.1206 9.2921C16.5111 8.90158 16.5111 8.26842 16.1206 7.87789ZM13.2922 6.46368C14.4637 5.29211 16.3632 5.2921 17.5348 6.46368C18.7064 7.63525 18.7064 9.53475 17.5348 10.7063C16.3632 11.8779 14.4637 11.8779 13.2922 10.7063C12.1206 9.53475 12.1206 7.63525 13.2922 6.46368Z"
        fill="black" />
</svg>