<svg width="16" height="16" viewBox="0 0 16 16" fill="none" xmlns="http://www.w3.org/2000/svg">
<path fill-rule="evenodd" clip-rule="evenodd" d="M2.79297 3L7.74272 3L12.8138 8.07107L7.86404 13.0208L2.79297 7.94975L2.79297 3ZM0.792969 3V8.77817L6.44982 14.435L7.86404 15.8492L9.27825 14.435L14.228 9.48528L15.6422 8.07107L14.228 6.65685L8.57114 1H2.79297H0.792969V3ZM4.29338 6.00007C4.29338 6.8285 4.96496 7.50007 5.79338 7.50007C6.62181 7.50007 7.29338 6.8285 7.29338 6.00007C7.29338 5.17165 6.62181 4.50007 5.79338 4.50007C4.96496 4.50007 4.29338 5.17165 4.29338 6.00007Z" fill="black" fill-opacity="0.9"/>
</svg>
    