<svg viewBox="0 0 1024 1024" version="1.1" xmlns="http://www.w3.org/2000/svg"><path fill-opacity=".9" fill-rule="evenodd" d="M493.04229568 116.1597152C508.86786752 116.30420928 524.0067104 121.97761344 535.39539904 133.36630208L942.6889024 540.659808C967.6824576 565.65336256 965.1497984 608.70858112 937.0320512 636.82633024L631.56192128 942.2964608C603.44417216 970.414208 560.3889536 972.9468672 535.39539904 947.953312L128.10189312 540.659808C116.179456 528.73737088 110.52056832 512.70502848 110.91453056 496.14468224L110.89530624 496.1568576 110.89530624 180.1597152C110.89530624 147.33822144 135.6018784 120.28725696 167.43155456 116.59028992L174.89530624 116.1597152 493.04229568 116.1597152ZM174.89530624 180.0957152L174.89530624 496.1568576 174.06330624 496.1277152 580.65023296 902.6984768 897.4340736 585.91464192 491.69530624 180.1597152 174.89530624 180.0957152ZM396.1453088 256.40588416C466.8377568 256.40588416 524.1453088 313.71343616 524.1453088 384.40588416 524.1453088 455.09833216 466.8377568 512.40588416 396.1453088 512.40588416 325.4528608 512.40588416 268.1453088 455.09833216 268.1453088 384.40588416 268.1453088 313.71343616 325.4528608 256.40588416 396.1453088 256.40588416ZM396.1453088 320.40588416C360.7990848 320.40588416 332.1453088 349.05966016 332.1453088 384.40588416 332.1453088 419.75210816 360.7990848 448.40588416 396.1453088 448.40588416 431.4915328 448.40588416 460.1453088 419.75210816 460.1453088 384.40588416 460.1453088 349.05966016 431.4915328 320.40588416 396.1453088 320.40588416Z"/></svg>