<svg width="24" height="24" viewBox="0 0 24 24" fill="none" xmlns="http://www.w3.org/2000/svg">
    <path
        d="M13.0001 1V4.53223C14.9453 4.97174 16.4273 6.66549 16.4273 8.73684C16.4273 9.66591 16.1291 10.519 15.6248 11.217L18.1119 16.0951C18.7126 15.8916 19.3052 15.6572 19.8871 15.3919L20.797 14.977L21.6267 16.7968L20.7169 17.2116C20.1624 17.4645 19.5992 17.6919 19.029 17.8939L21.6323 23H19.3838L17.0804 18.4796C13.7478 19.3072 10.2522 19.3072 6.91955 18.4796L4.61622 23H2.36768L4.97101 17.8939C4.40085 17.6919 3.83765 17.4645 3.28317 17.2116L2.37328 16.7968L3.203 14.977L4.11289 15.3919C4.6948 15.6572 5.28737 15.8916 5.88814 16.0951L8.37534 11.2168C7.87109 10.5188 7.57301 9.66581 7.57301 8.73684C7.57301 6.66549 9.05495 4.97174 11.0001 4.53223V1H13.0001ZM7.8543 16.6451C10.582 17.252 13.418 17.252 16.1457 16.6451L14.0621 12.5558C13.4435 12.8737 12.7406 13.0526 12.0001 13.0526C11.2595 13.0526 10.5566 12.8736 9.93798 12.5557L7.8543 16.6451ZM12.0001 6.42105C10.6283 6.42105 9.57301 7.48874 9.57301 8.73684C9.57301 9.98494 10.6283 11.0526 12.0001 11.0526C13.372 11.0526 14.4273 9.98494 14.4273 8.73684C14.4273 7.48874 13.372 6.42105 12.0001 6.42105Z"
        fill="black" />
</svg>