<svg width="24" height="24" viewBox="0 0 24 24" fill="none" xmlns="http://www.w3.org/2000/svg">
    <g id="dividers-1">
        <path id="fill2"
            d="M15.4275 8.73669C15.4275 10.5679 13.8931 12.0525 12.0004 12.0525C10.1076 12.0525 8.57324 10.5679 8.57324 8.73669C8.57324 6.90543 10.1076 5.4209 12.0004 5.4209C13.8931 5.4209 15.4275 6.90543 15.4275 8.73669Z"
            fill="white" />
        <path id="stroke1"
            d="M9.57037 11.075L10.4614 11.529L8.67948 10.6208L9.57037 11.075ZM4.00367 22V23H4.61647L4.89467 22.454L4.00367 22ZM4.00024 22L3.10936 21.5458L2.36792 23H4.00024V22ZM14.4301 11.075L15.321 10.6208L13.5391 11.529L14.4301 11.075ZM19.9968 22L19.1058 22.454L19.384 23H19.9968V22ZM20.0002 22V23H21.6326L20.8911 21.5458L20.0002 22ZM20.7171 17.2116L21.627 16.7968L20.7972 14.977L19.8874 15.3919L20.7171 17.2116ZM4.1131 15.3919L3.20321 14.977L2.3735 16.7968L3.28338 17.2116L4.1131 15.3919ZM15.4275 8.73684H14.4275C14.4275 9.98494 13.3722 11.0526 12.0004 11.0526V12.0526V13.0526C14.414 13.0526 16.4275 11.1513 16.4275 8.73684H15.4275ZM12.0004 12.0526V11.0526C10.6285 11.0526 9.57325 9.98494 9.57325 8.73684H8.57325H7.57325C7.57325 11.1513 9.58673 13.0526 12.0004 13.0526V12.0526ZM8.57325 8.73684H9.57325C9.57325 7.48874 10.6285 6.42105 12.0004 6.42105V5.42105V4.42105C9.58673 4.42105 7.57325 6.32242 7.57325 8.73684H8.57325ZM12.0004 5.42105V6.42105C13.3722 6.42105 14.4275 7.48874 14.4275 8.73684H15.4275H16.4275C16.4275 6.32242 14.414 4.42105 12.0004 4.42105V5.42105ZM4.00367 22V21H4.00024V22V23H4.00367V22ZM4.00367 22L4.89467 22.454L10.4614 11.529L9.57037 11.075L8.67937 10.621L3.11267 21.546L4.00367 22ZM4.00024 22L4.89113 22.4542L10.4613 11.5292L9.57037 11.075L8.67948 10.6208L3.10936 21.5458L4.00024 22ZM19.9968 22V23H20.0002V22V21H19.9968V22ZM19.9968 22L20.8878 21.546L15.3211 10.621L14.4301 11.075L13.5391 11.529L19.1058 22.454L19.9968 22ZM20.0002 22L20.8911 21.5458L15.321 10.6208L14.4301 11.075L13.5392 11.5292L19.1094 22.4542L20.0002 22ZM12.0004 5.42105H13.0004V1H12.0004H11.0004V5.42105H12.0004ZM20.3022 16.3018L19.8874 15.3919C14.8914 17.6697 9.10905 17.6697 4.1131 15.3919L3.69824 16.3018L3.28338 17.2116C8.80638 19.7298 15.1941 19.7298 20.7171 17.2116L20.3022 16.3018Z"
            fill="black" />
    </g>
</svg>