<svg width="24" height="24" viewBox="0 0 24 24" fill="none" xmlns="http://www.w3.org/2000/svg">
    <path
        d="M13 1V2.23201C14.9307 2.68153 16.375 4.40425 16.375 6.47059C16.375 7.3274 16.1254 8.12713 15.696 8.80043L18.9659 15H22V17H20.0208L22.351 21.418L20.582 22.351L17.7596 17L13 17V19H11V17H6.24028L3.41794 22.351L1.64893 21.418L3.97914 17H1.99996L1.99996 15H5.03401L8.3039 8.80043C7.87451 8.12713 7.62496 7.3274 7.62496 6.47059C7.62496 4.40425 9.06919 2.68153 11 2.23201V1H13ZM9.80694 10.2378L7.29515 15L11 15V13H13V15L16.7048 15L14.193 10.2378C13.548 10.6101 12.7985 10.8235 12 10.8235C11.2014 10.8235 10.4519 10.6101 9.80694 10.2378ZM12 4.11765C10.6821 4.11765 9.62496 5.17727 9.62496 6.47059C9.62496 7.0719 9.85137 7.61927 10.2273 8.03654C10.6629 8.52001 11.2943 8.82353 12 8.82353C12.7056 8.82353 13.3371 8.52001 13.7726 8.03654C14.1485 7.61927 14.375 7.0719 14.375 6.47059C14.375 5.17727 13.3178 4.11765 12 4.11765Z"
        fill="black" />
</svg>