<svg width="24" height="24" viewBox="0 0 24 24" fill="none" xmlns="http://www.w3.org/2000/svg">
<g clip-path="url(#clip0_101749_96596)">
<path d="M11.9999 23.4144L7.58569 19.0001L8.9999 17.5859L10.9999 19.5859L10.9999 13.0001L4.41412 13.0001L6.41412 15.0002L4.99991 16.4144L0.585693 12.0001L4.99991 7.58593L6.41412 9.00014L4.41412 11.0001L10.9999 11.0001L10.9999 4.41436L8.9999 6.41437L7.58569 5.00015L11.9999 0.585938L16.4141 5.00015L14.9999 6.41436L12.9999 4.41437L12.9999 11.0001L19.5857 11.0002L17.5857 9.00015L18.9999 7.58594L23.4141 12.0002L18.9999 16.4144L17.5857 15.0002L19.5857 13.0002L12.9999 13.0001L12.9999 19.5859L14.9999 17.5859L16.4141 19.0002L11.9999 23.4144Z" fill="black" fill-opacity="0.9" style="fill:black;fill-opacity:0.9;"/>
</g>
<defs>
<clipPath id="clip0_101749_96596">
<rect width="24" height="24" fill="white" style="fill:white;fill-opacity:1;"/>
</clipPath>
</defs>
</svg>
