<svg width="24" height="24" viewBox="0 0 24 24" fill="none" xmlns="http://www.w3.org/2000/svg">
<path d="M14.9999 3C11.6862 3 8.99992 5.68629 8.99992 9C8.99992 10.6835 9.68773 12.195 10.8008 13.2858L11.5151 13.9857L10.1153 15.4141L9.40104 14.7142C8.68318 14.0108 8.09677 13.1723 7.68317 12.2393L7.20599 12.7082C7.20121 12.7133 7.18982 12.7238 7.17655 12.7807C7.1611 12.8468 7.15161 12.9618 7.178 13.1343C7.23177 13.4857 7.41832 13.9665 7.77742 14.508C8.00204 14.8466 8.29334 15.2076 8.62124 15.5355C8.8991 15.8134 9.20474 16.0686 9.49387 16.2738C10.0646 16.6789 10.585 16.8994 10.9715 16.9699C11.1619 17.0046 11.2911 16.9978 11.3668 16.982C11.4328 16.9682 11.4412 16.9583 11.4559 16.9435L13.583 14.8536C14.0541 14.9261 14.5217 15 14.9999 15C18.3136 15 20.9999 12.3137 20.9999 9C20.9999 5.68629 18.3136 3 14.9999 3ZM7.06712 10.0408C7.02276 9.69975 6.99992 9.35233 6.99992 9C6.99992 4.58172 10.5816 1 14.9999 1C19.4182 1 22.9999 4.58172 22.9999 9C22.9999 13.4183 19.4182 17 14.9999 17C14.759 17 14.5203 16.9893 14.2843 16.9684L12.8604 18.3674C12.2245 19.0004 11.3482 19.0715 10.6128 18.9375C10.1021 18.8444 9.5744 18.6421 9.05844 18.3588L7.99951 19.4153C7.99479 19.9213 7.9637 20.5903 7.78504 21.185C7.66315 21.5908 7.45131 22.0432 7.06363 22.4025C6.65609 22.7802 6.13046 22.9841 5.52571 22.9997C4.89655 23.0159 4.36492 22.8123 3.95859 22.4578C3.57485 22.1231 3.35792 21.703 3.23207 21.3549C3.17496 21.1969 3.13226 21.0417 3.10023 20.8969C2.9565 20.8647 2.80249 20.8218 2.6457 20.7648C2.29846 20.6386 1.87999 20.4217 1.54579 20.0398C1.19209 19.6356 0.986516 19.1062 1.00015 18.4783C1.01332 17.8719 1.21798 17.3454 1.59683 16.9378C1.95653 16.5509 2.40961 16.3393 2.81508 16.2174C3.41097 16.0381 4.0802 16.0059 4.58577 16.0007L5.69221 14.897C5.44677 14.4114 5.27442 13.9166 5.20101 13.4368C5.09242 12.7271 5.18675 11.899 5.79282 11.2929L5.79904 11.2867L7.06712 10.0408ZM6.84823 16.5687L5.4134 18H4.99991C4.40848 18 3.83037 18.0005 3.39121 18.1326C3.18726 18.1939 3.09705 18.2615 3.06165 18.2996C3.04516 18.3173 3.00314 18.3625 2.99968 18.5217C2.99666 18.6605 3.03277 18.702 3.05095 18.7228C3.08862 18.7659 3.17224 18.8282 3.32915 18.8852C3.48174 18.9407 3.65034 18.9717 3.79163 18.9872C3.90989 19.0002 3.99218 19.0001 3.9898 19.0001L5.01991 18.9831L4.99982 20.0132C4.99984 20.0108 4.99947 20.0934 5.01212 20.212C5.02724 20.3537 5.05785 20.5225 5.11296 20.675C5.16964 20.8318 5.23147 20.9142 5.27334 20.9507C5.29277 20.9677 5.33434 21.0039 5.47411 21.0003C5.6389 20.9961 5.68585 20.9526 5.70399 20.9357C5.74191 20.9006 5.80895 20.8115 5.8696 20.6096C5.99993 20.1758 5.99992 19.606 5.99991 19.0121V18.5851L7.42661 17.1617C7.22452 16.9733 7.03016 16.7737 6.84823 16.5687Z" fill="black" fill-opacity="0.9" style="fill:black;fill-opacity:0.9;"/>
</svg>
