<svg width="24" height="24" viewBox="0 0 24 24" fill="none" xmlns="http://www.w3.org/2000/svg">
    <g id="DV-dv">
        <path id="fill2" d="M15 8H21V16H15V8Z" fill="white" />
        <path id="fill1"
            d="M12 12C12 13.1258 11.6279 14.1647 11 15.0005C10.0878 16.2147 8.6356 17 7 17C5.3644 17 3.91223 16.2147 3 15.0005C2.37209 14.1647 2 13.1258 2 12C2 10.8742 2.37209 9.83526 3 8.99951C3.91223 7.78534 5.3644 7 7 7C8.6356 7 10.0878 7.78534 11 8.99951C11.6279 9.83526 12 10.8742 12 12Z"
            fill="white" />
        <path id="Vector"
            d="M15 8V7H14V8H15ZM21 8H22V7H21V8ZM21 16V17H22V16H21ZM15 16H14V17H15V16ZM15 13H16V11H15V13ZM3 3V2H2V3H3ZM11 3H12V2H11V3ZM11 21V22H12V21H11ZM3 21H2V22H3V21ZM15 8V9H21V8V7H15V8ZM21 8H20V16H21H22V8H21ZM21 16V15H15V16V17H21V16ZM15 16H16V8H15H14V16H15ZM12 12V13H15V12V11H12V12ZM7 7V8C9.20914 8 11 9.79086 11 12H12H13C13 8.68629 10.3137 6 7 6V7ZM2 12H3C3 9.79086 4.79086 8 7 8V7V6C3.68629 6 1 8.68629 1 12H2ZM12 12H11C11 14.2091 9.20914 16 7 16V17V18C10.3137 18 13 15.3137 13 12H12ZM7 17V16C4.79086 16 3 14.2091 3 12H2H1C1 15.3137 3.68629 18 7 18V17ZM3 3V4H11V3V2H3V3ZM11 3H10V8.99951H11H12V3H11ZM3 8.99951H4V3H3H2V8.99951H3ZM11 21V20H3V21V22H11V21ZM3 21H4V15.0005H3H2V21H3ZM11 15.0005H10V21H11H12V15.0005H11Z"
            fill="black" />
    </g>
</svg>