<svg width="24" height="24" viewBox="0 0 24 24" fill="none" xmlns="http://www.w3.org/2000/svg">
    <g id="dvd">
        <path id="fill1" d="M3 3H21V21H3V3Z" fill="white" />
        <path id="fill2"
            d="M17 12C17 14.7614 14.7614 17 12 17C9.23858 17 7 14.7614 7 12C7 9.23858 9.23858 7 12 7C14.7614 7 17 9.23858 17 12Z"
            fill="white" />
        <path id="stroke1" d="M3 3H21V21H3V3Z" stroke="black" stroke-width="2" />
        <g id="stroke2">
            <path
                d="M17 12C17 14.7614 14.7614 17 12 17C9.23858 17 7 14.7614 7 12C7 9.23858 9.23858 7 12 7C14.7614 7 17 9.23858 17 12Z"
                stroke="black" stroke-width="2" />
            <path
                d="M13 12C13 12.5523 12.5523 13 12 13C11.4477 13 11 12.5523 11 12C11 11.4477 11.4477 11 12 11C12.5523 11 13 11.4477 13 12Z"
                stroke="black" stroke-width="2" />
        </g>
    </g>
</svg>