<svg width="24" height="24" viewBox="0 0 24 24" fill="none" xmlns="http://www.w3.org/2000/svg">
<g id="earphone">
<g id="fill1">
<path d="M3 14C6 14 6 14 6 14C7.10457 14 8 14.8954 8 16V18C8 19.1046 7.10457 20 6 20H3V14Z" fill="white"/>
<path d="M16 16C16 14.8954 16.8954 14 18 14H21V20H18C16.8954 20 16 19.1046 16 18V16Z" fill="white"/>
</g>
<path id="stroke1" d="M3 20V12.0667C3 7.05929 7.02944 3 12 3C16.9706 3 21 7.05929 21 12.0667V20M3 20H6C7.10457 20 8 19.1046 8 18V16C8 14.8954 7.10457 14 6 14C6 14 6 14 3 14V20ZM21 20V14H18C16.8954 14 16 14.8954 16 16V18C16 19.1046 16.8954 20 18 20H21Z" stroke="black" stroke-width="2" stroke-linecap="square"/>
</g>
</svg>
