<svg width="24" height="24" viewBox="0 0 24 24" fill="none" xmlns="http://www.w3.org/2000/svg">
<g id="earth">
<path id="fill1" d="M22 12C22 17.5228 17.5228 22 12 22C6.47715 22 2 17.5228 2 12C2 6.47715 6.47715 2 12 2C17.5228 2 22 6.47715 22 12Z" fill="white"/>
<path id="fill2" d="M11.9998 22C17.5226 22 21.9998 17.5228 21.9998 12C21.9998 11.6454 21.9813 11.2951 21.9453 10.95L19.9949 12.0839L16.4862 16.151L14.9825 13.1007L11.9751 12.0839V8.01678L8.96765 7L6.9627 9.03356L3.04978 7.55C2.51284 8.62877 2.15726 9.81824 2.04199 11.075L7.96517 13.1007L4.94978 19.1C6.74978 20.9 9.30455 22 11.9998 22Z" fill="white"/>
<path id="stroke1" d="M2.04102 11.0886L7.9654 13.1007L4.94772 19.0898M3.04078 7.55301L6.96292 9.03356L8.96787 7L11.9753 8.01678V12.0839L14.9827 13.1007L16.4864 16.151L19.9951 12.0839L21.9389 10.9542M22 12C22 17.5228 17.5228 22 12 22C6.47715 22 2 17.5228 2 12C2 6.47715 6.47715 2 12 2C17.5228 2 22 6.47715 22 12Z" stroke="black" stroke-width="2"/>
</g>
</svg>
