<svg width="24" height="24" viewBox="0 0 24 24" fill="none" xmlns="http://www.w3.org/2000/svg">
    <path
        d="M3.14072 10.406L9.37592 12.5236L6.18045 18.8656C7.74955 20.1969 9.78099 21 12 21C16.7449 21 20.6322 17.3281 20.9754 12.6708L20.6427 12.8642L16.2572 17.9477L14.2693 13.9151L10.9753 12.8014V8.7343L9.24053 8.14779L7.21833 10.1989L3.57638 8.82407C3.3851 9.33115 3.23829 9.86006 3.14072 10.406ZM4.49381 7.03263L6.70751 7.86827L8.69521 5.85221L12.9753 7.29926V11.3664L15.6962 12.2863L16.7157 14.3544L19.3475 11.3037L20.8623 10.4232C20.1168 6.20448 16.4326 3 12 3C8.86553 3 6.10532 4.60236 4.49381 7.03263ZM4.72793 17.3036L6.55487 13.6777L3.0123 12.4746C3.10585 14.2752 3.72858 15.9357 4.72793 17.3036ZM1 12C1 5.92487 5.92487 1 12 1C18.0751 1 23 5.92487 23 12C23 18.0751 18.0751 23 12 23C5.92487 23 1 18.0751 1 12Z"
        fill="black" />
</svg>