<svg width="24" height="24" viewBox="0 0 24 24" fill="none" xmlns="http://www.w3.org/2000/svg">
<path d="M15.748 2.94724C16.5291 2.16619 17.7954 2.16619 18.5764 2.94724L21.0513 5.42211C21.8324 6.20316 21.8324 7.46949 21.0513 8.25054L18.7014 10.6005L16.4985 12.8033L15.0843 11.389L16.58 9.89334L14.1052 7.41846L12.6094 8.91418L11.1952 7.49993L13.3981 5.29716L15.748 2.94724ZM15.5194 6.00427L17.9943 8.47914L19.6371 6.83632L17.1622 4.36145L15.5194 6.00427ZM4.00003 2.58576L21.4142 20L20 21.4142L13.9437 15.3578L9.15784 20.1436L2.7781 21.2201L3.85454 14.8403L8.64035 10.0545L2.58582 3.99997L4.00003 2.58576ZM10.0546 11.4687L5.72039 15.8029L5.21806 18.7801L8.19527 18.2778L12.5294 13.9436L10.0546 11.4687Z" fill="black" fill-opacity="0.9" style="fill:black;fill-opacity:0.9;"/>
</svg>
