<svg width="24" height="24" viewBox="0 0 24 24" fill="none" xmlns="http://www.w3.org/2000/svg">
<path d="M11.0874 5.89858L9.60204 5.20575L10.6118 4.19601C12.9325 1.87531 16.5709 1.67603 19.1183 3.59822L20.606 2.85438L21.5004 4.64324L20.5669 5.11C22.3116 7.64249 22.0578 11.1369 19.8052 13.3894L18.7955 14.3992L18.1017 12.9118C17.6395 13.4037 17.0892 13.9813 16.6223 14.4481C16.1642 14.9063 15.96 15.5212 15.6273 16.5228C15.598 16.6111 15.5677 16.7024 15.5361 16.7968C15.1698 17.8928 14.6683 19.226 13.442 20.4567C12.2337 21.6692 10.5971 22.5013 8.81989 22.6059C7.01819 22.7119 5.15133 22.0642 3.54415 20.4571C1.9376 18.8505 1.2882 16.9861 1.39322 15.1847C1.49681 13.4078 2.32858 11.7711 3.54124 10.5584C4.77363 9.32605 6.10755 8.82434 7.20449 8.45892C7.3018 8.4265 7.39574 8.39543 7.48648 8.36542C8.48399 8.03548 9.0949 7.83341 9.55124 7.37707C10.018 6.91034 10.5954 6.36047 11.0874 5.89858ZM13.291 4.71955L14.8761 5.45887L15.3762 8.62502L18.5423 9.12514L19.2817 10.7102C20.0672 9.04138 19.7703 6.98954 18.391 5.61022C18.3584 5.57766 18.3255 5.54571 18.2922 5.51437C16.9154 4.21749 14.9206 3.95254 13.291 4.71955ZM17.1795 10.9347L13.6276 10.3736L13.0666 6.82172L13.042 6.81027C12.9178 6.92545 12.7758 7.05762 12.6227 7.20079C12.1022 7.68765 11.4624 8.2943 10.9655 8.79128C10.15 9.60677 9.05868 9.95993 8.15557 10.2522C8.04621 10.2876 7.93961 10.3221 7.8366 10.3564C6.81271 10.6975 5.84768 11.0804 4.95545 11.9726C4.04351 12.8846 3.46133 14.0747 3.38983 15.3011C3.31976 16.5031 3.73412 17.8186 4.95837 19.0429C6.18198 20.2665 7.49919 20.6802 8.70241 20.6094C9.93013 20.5371 11.1193 19.9542 12.0253 19.045C12.9133 18.1538 13.2965 17.1882 13.6393 16.1627C13.6734 16.0607 13.7077 15.9552 13.7429 15.847C14.037 14.9422 14.3921 13.8499 15.2081 13.0339C15.7054 12.5367 16.3124 11.8969 16.7996 11.3765C16.9428 11.2236 17.075 11.0817 17.1902 10.9575L17.1795 10.9347Z" fill="black" fill-opacity="0.9" style="fill:black;fill-opacity:0.9;"/>
</svg>
