<svg width="24" height="24" viewBox="0 0 24 24" fill="none" xmlns="http://www.w3.org/2000/svg">
<g id="eggplant">
<path id="fill1" d="M4.25173 19.7495C1.42094 16.9187 2.12421 13.3897 4.24882 11.2651C6.37343 9.1405 8.84673 9.49583 10.2588 8.08374C11.2772 7.06536 12.8575 5.62012 12.8575 5.62012L13.9718 6.13986L14.5024 9.49887L17.8614 10.0295L18.3805 11.1424C18.3805 11.1424 16.9343 12.722 15.9157 13.7406C14.5036 15.1527 14.8483 17.6285 12.7341 19.7504C10.6199 21.8722 7.08253 22.5803 4.25173 19.7495Z" fill="white"/>
<path id="fill2" d="M19.0976 12.6823L18.3795 11.1429L17.8604 10.0299L14.5014 9.49931L13.9708 6.1403L12.8565 5.62056L11.3184 4.90312C13.4269 2.79457 16.8214 2.75568 18.9773 4.78645C19.0179 4.82461 19.0579 4.8635 19.0976 4.90312C21.2457 7.05129 21.2457 10.5342 19.0976 12.6823Z" fill="white"/>
<path id="stroke1" d="M12.35 6.08813C11.8 6.59829 10.9133 7.42914 10.2588 8.08366C8.84673 9.49575 6.37343 9.14042 4.24882 11.265C2.12421 13.3896 1.42094 16.9186 4.25173 19.7494C7.08253 22.5802 10.6199 21.8721 12.7341 19.7503C14.8483 17.6285 14.5036 15.1526 15.9157 13.7405C16.5652 13.091 17.3886 12.2134 17.9 11.6627" stroke="black" stroke-width="2" stroke-linecap="square"/>
<path id="stroke2" d="M19.2002 4.675L20.1582 4.196M14.5014 9.49888L13.9708 6.13986L11.3184 4.90312C13.4665 2.75495 16.9494 2.75495 19.0976 4.90312C21.2457 7.05129 21.2457 10.5342 19.0976 12.6823L17.8604 10.0295L14.5014 9.49888Z" stroke="black" stroke-width="2" stroke-linecap="square"/>
</g>
</svg>
