<svg width="24" height="24" viewBox="0 0 24 24" fill="none" xmlns="http://www.w3.org/2000/svg">
<path d="M12.0001 3C7.02956 3 3.00012 7.02944 3.00012 12C3.00012 16.9706 7.02956 21 12.0001 21C16.9707 21 21.0001 16.9706 21.0001 12C21.0001 7.02944 16.9707 3 12.0001 3ZM1.00012 12C1.00012 5.92487 5.92499 1 12.0001 1C18.0753 1 23.0001 5.92487 23.0001 12C23.0001 18.0751 18.0753 23 12.0001 23C5.92499 23 1.00012 18.0751 1.00012 12ZM13.0001 6.5V14H11.0001V6.5H13.0001ZM11.0001 15.5H13.004V17.5039H11.0001V15.5Z" fill="black" fill-opacity="0.9" style="fill:black;fill-opacity:0.9;"/>
</svg>
