<svg viewBox="0 0 1024 1024" version="1.1" xmlns="http://www.w3.org/2000/svg"><path  fill-rule="evenodd" d="M512 0C794.7697907809525 0 1024 229.23020921904762 1024 512 1024 794.7697907809525 794.7697907809525 1024 512 1024 229.23020921904762 1024 0 794.7697907809525 0 512 0 229.23020921904762 229.23020921904762 0 512 0ZM511.1222857142857 686.7626666666666C493.95809523809527 686.7626666666666 479.9146666666667 692.2239999999999 468.99199999999996 703.1466666666666 456.50895238095234 714.0693333333332 451.04761904761904 728.1127619047618 451.04761904761904 745.2769523809523 451.04761904761904 762.4411428571427 456.50895238095234 776.4845714285714 468.99199999999996 787.4072380952381 479.9146666666667 798.3299047619047 493.95809523809527 804.5714285714286 511.1222857142857 804.5714285714286 528.2864761904762 804.5714285714286 542.3299047619047 799.1100952380953 554.8129523809523 788.1874285714287 565.735619047619 777.2647619047619 571.9771428571429 762.4411428571427 571.9771428571429 745.2769523809523 571.9771428571429 728.1127619047618 565.735619047619 714.0693333333332 554.8129523809523 703.1466666666666 543.1100952380953 692.2239999999999 528.2864761904762 686.7626666666666 511.1222857142857 686.7626666666666ZM564.1752380952381 247.51542857142854L458.8495238095238 247.51542857142854 478.3542857142857 644.6323809523809 544.6704761904762 644.6323809523809 564.1752380952381 247.51542857142854Z"/></svg>