<svg width="16" height="16" viewBox="0 0 16 16" fill="none" xmlns="http://www.w3.org/2000/svg">
<path fill-rule="evenodd" clip-rule="evenodd" d="M16 8C16 12.4183 12.4183 16 8 16C3.58172 16 3.13124e-07 12.4183 6.99382e-07 8C1.08564e-06 3.58172 3.58172 -1.08564e-06 8 -6.99382e-07C12.4183 -3.13124e-07 16 3.58172 16 8ZM8 2C11.309 2 14 4.691 14 8C14 11.309 11.309 14 8 14C4.691 14 2 11.309 2 8C2 4.691 4.691 2 8 2ZM7 12L7 10L9 10L9 12L7 12ZM7 9L7 4L9 4L9 9L7 9Z" fill="black" fill-opacity="0.9"/>
</svg>
