<svg width="24" height="24" viewBox="0 0 24 24" fill="none" xmlns="http://www.w3.org/2000/svg">
<path d="M7.47148 1.9726C8.85376 1.34749 10.3875 1 11.9998 1C18.0749 1 22.9998 5.92487 22.9998 12C22.9998 13.6122 22.6523 15.146 22.0272 16.5283L21.6151 17.4395L19.7928 16.6153L20.2049 15.7042C20.7152 14.5757 20.9998 13.3225 20.9998 12C20.9998 7.02944 16.9703 3 11.9998 3C10.6773 3 9.42405 3.28459 8.29561 3.79492L7.38445 4.20698L6.56033 2.38466L7.47148 1.9726ZM2.99976 1.58579L10.6034 9.18941L10.605 9.18879L14.8127 13.3965L14.812 13.3981L22.414 21L20.9998 22.4142L19.0388 20.4532C17.1318 22.0426 14.6769 23 11.9998 23C5.92462 23 0.999756 18.0751 0.999756 12C0.999756 9.3229 1.95712 6.86792 3.54652 4.96098L1.58554 3L2.99976 1.58579ZM4.96781 6.38227C3.73555 7.9224 2.99976 9.87458 2.99976 12C2.99976 16.9706 7.02919 21 11.9998 21C14.1252 21 16.0774 20.2642 17.6175 19.0319L14.0264 15.4408L12.4769 19.4693L10.3762 13.6253L4.53214 11.5245L8.56063 9.97509L4.96781 6.38227ZM17.4423 6.55882L15.5055 11.5945L13.6388 10.8766L13.9602 10.0409L13.1245 10.3623L12.4066 8.49564L17.4423 6.55882Z" fill="black" fill-opacity="0.9" style="fill:black;fill-opacity:0.9;"/>
</svg>
