<svg width="24" height="24" viewBox="0 0 24 24" fill="none" xmlns="http://www.w3.org/2000/svg">
<g id="extension">
<path id="fill1" fill-rule="evenodd" clip-rule="evenodd" d="M9 4C9 2.89543 9.89543 2 11 2C12.1046 2 13 2.89543 13 4V5H19V11H20C21.1046 11 22 11.8954 22 13C22 14.1046 21.1046 15 20 15H19V21H14.4646C14.2219 19.3039 12.7632 18 11 18C9.23676 18 7.77806 19.3039 7.53544 21H3V16.4646C4.69615 16.2219 6 14.7632 6 13C6 11.2368 4.69615 9.77806 3 9.53544V5H9V4Z" fill="white"/>
<path id="stroke1 " fill-rule="evenodd" clip-rule="evenodd" d="M9 4C9 2.89543 9.89543 2 11 2C12.1046 2 13 2.89543 13 4V5H19V11H20C21.1046 11 22 11.8954 22 13C22 14.1046 21.1046 15 20 15H19V21H14.4646C14.2219 19.3039 12.7632 18 11 18C9.23676 18 7.77806 19.3039 7.53544 21H3V16.4646C4.69615 16.2219 6 14.7632 6 13C6 11.2368 4.69615 9.77806 3 9.53544V5H9V4Z" stroke="black" stroke-width="2" stroke-linecap="square"/>
</g>
</svg>
