<svg width="24" height="24" viewBox="0 0 24 24" fill="none" xmlns="http://www.w3.org/2000/svg">
    <path
        d="M3.99621 0.695068L5.09332 2.89911L7.29736 3.99621L5.09332 5.09332L3.99621 7.29736L2.89911 5.09332L0.695068 3.99621L2.89911 2.89911L3.99621 0.695068ZM12 2.99998C11.3774 2.99998 10.7705 3.06306 10.1852 3.18284L9.20545 3.38331L8.80451 1.42391L9.78421 1.22344C10.5008 1.07682 11.2419 0.999985 12 0.999985C18.0751 0.999985 23 5.92485 23 12C23 18.0751 18.0751 23 12 23C5.92485 23 0.999985 18.0751 0.999985 12C0.999985 11.1153 1.10463 10.2537 1.30268 9.42744L1.53576 8.45499L3.48068 8.92116L3.24759 9.89362C3.08587 10.5683 2.99998 11.2735 2.99998 12C2.99998 16.9705 7.02942 21 12 21C16.9705 21 21 16.9705 21 12C21 7.02942 16.9705 2.99998 12 2.99998ZM14.5122 8.93358H16.5161V10.9375H14.5122V8.93358ZM7.46288 8.93425H9.46678V10.9382H7.46288V8.93425ZM9.9094 13.1858L10.3979 14.0583C10.7134 14.6217 11.3137 14.9989 12.0008 14.9989C12.6879 14.9989 13.2882 14.6217 13.6037 14.0583L14.0922 13.1858L15.8373 14.1628L15.3488 15.0354C14.694 16.2048 13.4408 16.9989 12.0008 16.9989C10.5608 16.9989 9.30756 16.2048 8.65282 15.0354L8.1643 14.1628L9.9094 13.1858ZM20.8306 20.8188L19.2617 21.5997L20.8306 22.3806L21.6115 23.9495L22.3924 22.3806L23.9612 21.5997L22.3924 20.8188L21.6115 19.25L20.8306 20.8188Z"
        fill="black" />
</svg>