<svg width="24" height="24" viewBox="0 0 24 24" fill="none" xmlns="http://www.w3.org/2000/svg">
    <g id="face-retouching">
        <path id="stroke1"
            d="M9.78422 1.22346L8.80452 1.42393L9.20547 3.38333L10.1852 3.18286L9.78422 1.22346ZM15.3488 15.0354L15.8373 14.1628L14.0922 13.1858L13.6037 14.0584L15.3488 15.0354ZM10.3979 14.0584L9.90942 13.1858L8.16432 14.1628L8.65284 15.0354L10.3979 14.0584ZM8.46289 9.93457V8.93457H7.46289V9.93457H8.46289ZM8.4668 9.93457H9.4668V8.93457H8.4668V9.93457ZM8.4668 9.93848V10.9385H9.4668V9.93848H8.4668ZM8.46289 9.93848H7.46289V10.9385H8.46289V9.93848ZM15.5122 9.93359V8.93359H14.5122V9.93359H15.5122ZM15.5161 9.93359H16.5161V8.93359H15.5161V9.93359ZM15.5161 9.9375V10.9375H16.5161V9.9375H15.5161ZM15.5122 9.9375H14.5122V10.9375H15.5122V9.9375ZM12 2V3C16.9706 3 21 7.02944 21 12H22H23C23 5.92487 18.0751 1 12 1V2ZM22 12H21C21 16.9706 16.9706 21 12 21V22V23C18.0751 23 23 18.0751 23 12H22ZM12 22V21C7.02944 21 3 16.9706 3 12H2H1C1 18.0751 5.92487 23 12 23V22ZM2 12H3C3 11.2735 3.08588 10.5683 3.2476 9.89363L2.27515 9.66054L1.30269 9.42746C1.10465 10.2537 1 11.1153 1 12H2ZM9.98469 2.20316L10.1852 3.18286C10.7705 3.06307 11.3774 3 12 3V2V1C11.2419 1 10.5008 1.07683 9.78422 1.22346L9.98469 2.20316ZM14.4762 14.5469L13.6037 14.0584C13.2882 14.6217 12.6879 14.9989 12.0008 14.9989V15.9989V16.9989C13.4408 16.9989 14.694 16.2048 15.3488 15.0354L14.4762 14.5469ZM12.0008 15.9989V14.9989C11.3137 14.9989 10.7134 14.6217 10.3979 14.0584L9.52539 14.5469L8.65284 15.0354C9.30758 16.2048 10.5608 16.9989 12.0008 16.9989V15.9989ZM8.46289 9.93457V10.9346H8.4668V9.93457V8.93457H8.46289V9.93457ZM8.4668 9.93457H7.4668V9.93848H8.4668H9.4668V9.93457H8.4668ZM8.4668 9.93848V8.93848H8.46289V9.93848V10.9385H8.4668V9.93848ZM8.46289 9.93848H9.46289V9.93457H8.46289H7.46289V9.93848H8.46289ZM15.5122 9.93359V10.9336H15.5161V9.93359V8.93359H15.5122V9.93359ZM15.5161 9.93359H14.5161V9.9375H15.5161H16.5161V9.93359H15.5161ZM15.5161 9.9375V8.9375H15.5122V9.9375V10.9375H15.5161V9.9375ZM15.5122 9.9375H16.5122V9.93359H15.5122H14.5122V9.9375H15.5122Z"
            fill="black" />
        <g id="stroke2">
            <path
                d="M4.25 3L4.66543 3.83457L5.5 4.25L4.66543 4.66543L4.25 5.5L3.83457 4.66543L3 4.25L3.83457 3.83457L4.25 3Z"
                stroke="black" stroke-width="2" />
            <path
                d="M21.625 21.5L21.6665 21.5835L21.75 21.625L21.6665 21.6665L21.625 21.75L21.5835 21.6665L21.5 21.625L21.5835 21.5835L21.625 21.5Z"
                stroke="black" stroke-width="2" />
        </g>
    </g>
</svg>