<svg width="24" height="24" viewBox="0 0 24 24" fill="none" xmlns="http://www.w3.org/2000/svg">
<g id="file-zip">
<path id="fill1" d="M4 22H20V8H14V2H4V22Z" fill="white"/>
<path id="stroke1" d="M14 2V8H20M14 2H15L20 7V8M14 2H4V22H20V8" stroke="black" stroke-width="2"/>
<g id="stroke2">
<path d="M8 6H8.00391V6.00391H8V6Z" stroke="black" stroke-width="2"/>
<path d="M10 4H10.0039V4.00391H10V4Z" stroke="black" stroke-width="2"/>
<path d="M10 8H10.0039V8.00391H10V8Z" stroke="black" stroke-width="2"/>
<path d="M8 10H8.00391V10.0039H8V10Z" stroke="black" stroke-width="2"/>
<path d="M8 14H8.00391V14.0039H8V14Z" stroke="black" stroke-width="2"/>
<path d="M10 12H10.0039V12.0039H10V12Z" stroke="black" stroke-width="2"/>
</g>
</g>
</svg>
