<svg viewBox="0 0 1024 1024" version="1.1" xmlns="http://www.w3.org/2000/svg"><path fill-opacity=".9" fill-rule="evenodd" d="M549.49033216 64C579.66607488 64 608.7432224 74.65685504 631.69150784 93.88428288L640 101.49223872 794.5096704 256.00190656C816.113856 277.60609792 829.1976768 286.44208128 831.5983936 311.1418336L832 320.00190656 832 511.936 866.1258368 512C873.1950848 512 878.9258368 517.7307552 878.9258368 524.8 878.9258368 527.66668672 877.9635264 530.45039616 876.1931136 532.70506176L743.66608 701.481216 879.1839744 875.3306496C883.5300928 880.90608 882.5335424 888.949088 876.958112 893.2952128 874.70944 895.0480768 871.9399104 896 869.0887616 896L813.0272704 896 702.3533824 754.089216 590.889808 896 537.61868864 896C530.54944384 896 524.81868864 890.2692416 524.81868864 883.2 524.81868864 880.333664 525.7807616 877.5502784 527.55077952 875.2957504L662.705088 703.145216 529.79724288 532.67009664C525.45070848 527.0949856 526.44666624 519.05190336 532.02177728 514.70536896 534.27057152 512.95213696 537.04040064 512 539.89187392 512L596.01034944 512 703.958336 650.537216 812.7979648 512 831.936 511.936 832 448.00190656 768 448.00190656 768 512.00190656 767.936 512 767.936 384 512 384.00190656 512 128.00190656 256 128.00190656 256 832.0019072 448 832.0019072 448 896.0019072 256 896.0019072C236.3246336 896.0019072 197.62550656 882.9772928 192.55306944 841.3626112L192 832.0019072 192 128.00190656C192 107.33312384 205.77216576 69.49329664 246.78880384 64.53984768L256 64 549.49033216 64ZM576 128.00190656L576 320.00190656 768 320.00190656 576 128.00190656Z"/></svg>