<svg width="24" height="24" viewBox="0 0 24 24" fill="none" xmlns="http://www.w3.org/2000/svg">
<path d="M3 1H15.4142L21 6.58579V12H19V9H13V3H5V21H13V23H3V1ZM15 3.41421V7H18.5858L15 3.41421ZM15 15.5C15 14.1193 16.1193 13 17.5 13C18.8807 13 20 14.1193 20 15.5V20H18V15.5C18 15.2239 17.7761 15 17.5 15C17.2239 15 17 15.2239 17 15.5V20C17 21.1046 17.8954 22 19 22C20.1046 22 21 21.1046 21 20V15.5H23V20C23 22.2091 21.2091 24 19 24C16.7909 24 15 22.2091 15 20V15.5Z" fill="black" fill-opacity="0.9" style="fill:black;fill-opacity:0.9;"/>
</svg>
