<svg width="16" height="16" viewBox="0 0 16 16" fill="none" xmlns="http://www.w3.org/2000/svg">
<path fill-rule="evenodd" clip-rule="evenodd" d="M1.5 15.499V0.5H10.5L14.5 4.501V7.5H12.5V6H9V2.501H3.5V13.5H8V15.499H1.5ZM13.0996 9.4412V8.5H14.8996V9.57845C14.8996 9.88977 14.7958 10.1922 14.6047 10.438L13.3902 11.9995L14.6055 13.562C14.7966 13.8078 14.9004 14.1102 14.9004 14.4216V15.5H13.1004V14.5588L12.25 13.4654L11.3996 14.5588V15.5H9.59961V14.4216C9.59961 14.1102 9.70338 13.8078 9.89452 13.562L11.1098 11.9995L9.8953 10.438C9.70416 10.1922 9.60039 9.88977 9.60039 9.57845V8.5H11.4004V9.4412L12.25 10.5336L13.0996 9.4412Z" fill="black" fill-opacity="0.9"/>
</svg>
