<svg width="16" height="16" viewBox="0 0 16 16" fill="none" xmlns="http://www.w3.org/2000/svg">
<path fill-rule="evenodd" clip-rule="evenodd" d="M1.5 15.499V0.5H10.5L14.5 4.501V7H12.5V6H9V2.501H3.5V13.5H9V15.499H1.5ZM13.0021 16H12.0021H12H11V15V14.9979V13.9979H12H12.0021H13.0021V14.9979V15V16ZM11 10.5C11 9.94771 11.4477 9.5 12 9.5C12.5523 9.5 13 9.94772 13 10.5C13 10.9655 12.681 11.359 12.2482 11.4692C11.6873 11.612 11 12.1284 11 13V13.5H13V13.329C14.1647 12.9171 15 11.8072 15 10.5C15 8.84315 13.6569 7.5 12 7.5C10.3431 7.5 9 8.84315 9 10.5H11Z" fill="black" fill-opacity="0.9"/>
</svg>
