<svg width="16" height="16" viewBox="0 0 16 16" fill="none" xmlns="http://www.w3.org/2000/svg">
<path fill-rule="evenodd" clip-rule="evenodd" d="M1.5 0.5V8H3.5V2.501H9V6H12.5V8H14.5V4.501L10.5 0.5H1.5ZM7.5 15.5H8.5V13.5H7.5H6.5V11.5H7.5H8.5V9.5H7.5H6C5.17157 9.5 4.5 10.1716 4.5 11V14C4.5 14.8284 5.17157 15.5 6 15.5H7.5ZM15 14C15 14.8284 14.3284 15.5 13.5 15.5H11C10.1716 15.5 9.5 14.8284 9.5 14V11C9.5 10.1716 10.1716 9.5 11 9.5H13.5C14.3284 9.5 15 10.1716 15 11V14ZM13 13.5V11.5H11.5V13.5H13ZM3.5 9.5H1.5V15.5H3.5V9.5Z" fill="black" fill-opacity="0.9"/>
</svg>
