<svg width="24" height="24" viewBox="0 0 24 24" fill="none" xmlns="http://www.w3.org/2000/svg">
<path d="M15.4142 1H3V23H21V6.58579L15.4142 1ZM14.5 7.5V3L19 7.5H14.5ZM15 11.6465C15 12.1896 14.7792 12.7093 14.3883 13.0862L13.4406 14L14.3883 14.9138C14.7792 15.2907 15 15.8104 15 16.3535V18H13L13 16.3535L12 15.3892L11 16.3535L11 18L9.00001 18L9.00001 16.3535C9.00001 15.8104 9.22083 15.2907 9.61173 14.9138L10.5594 14L9.61173 13.0862C9.22083 12.7093 9.00001 12.1896 9.00001 11.6465L9 10L11 10L11 11.6465L12 12.6108L13 11.6465L13 10L15 10L15 11.6465Z" fill="black" fill-opacity="0.9" style="fill:black;fill-opacity:0.9;"/>
</svg>
