<svg width="24" height="24" viewBox="0 0 24 24" fill="none" xmlns="http://www.w3.org/2000/svg">
<g id="file-safety">
<path id="fill2" d="M14.498 14.5C16.8935 14.5 19.1026 14.5 21.498 14.5V19.1336C21.498 19.8089 21.1572 20.4387 20.5919 20.808L17.998 22.5024L15.4042 20.808C14.8389 20.4387 14.498 19.8089 14.498 19.1336V14.5Z" fill="white"/>
<path id="stroke1" d="M20 10.5V7L15 2H4V22H10.5M14 2V8H20" stroke="black" stroke-width="2" stroke-linecap="square"/>
<path id="stroke2" d="M14.498 14.5C16.8935 14.5 19.1026 14.5 21.498 14.5V19.1336C21.498 19.8089 21.1572 20.4387 20.5919 20.808L17.998 22.5024L15.4042 20.808C14.8389 20.4387 14.498 19.8089 14.498 19.1336V14.5Z" stroke="black" stroke-width="2"/>
</g>
</svg>
