<svg width="16" height="16" viewBox="0 0 16 16" fill="none" xmlns="http://www.w3.org/2000/svg">
<path fill-rule="evenodd" clip-rule="evenodd" d="M3.99996 2V14H8.49992V15H3.99531C3.52002 15 2.99996 14.6627 2.99996 14.0781V1.92191C2.99996 1.33727 3.52002 1 3.99531 1H8.8658C9.13433 1 9.39158 1.108 9.57964 1.29969L13.2138 5.004C13.3972 5.19096 13.4999 5.44241 13.4999 5.70431V7.5H12.4999V6.01275H8.5V2H3.99996ZM9.5 2.64645L11.8215 5.01275H9.5V2.64645Z" fill="black" fill-opacity="0.9"/>
<path d="M11.4999 8.42065C10.4291 8.42065 9.49992 9.24178 9.49992 10.3222H10.4999C10.4999 9.85692 10.9164 9.42065 11.4999 9.42065C12.0834 9.42065 12.4999 9.85692 12.4999 10.3222C12.4999 10.6216 12.2198 10.9812 11.7811 11.1477L11.7786 11.1487C11.3355 11.3196 11 11.7405 11 12.2599V12.9207H12V12.2599C12 12.1949 12.0413 12.1195 12.1376 12.0821C12.7955 11.8317 13.4999 11.1914 13.4999 10.3222C13.4999 9.24178 12.5707 8.42065 11.4999 8.42065Z" fill="black" fill-opacity="0.9"/>
<path d="M11.4998 13.8C11.1684 13.8 10.8998 14.0686 10.8998 14.4C10.8998 14.7314 11.1684 15 11.4998 15C11.8312 15 12.0998 14.7314 12.0998 14.4C12.0998 14.0686 11.8312 13.8 11.4998 13.8Z" fill="black" fill-opacity="0.9"/>
</svg>
