<svg width="24" height="24" viewBox="0 0 24 24" fill="none" xmlns="http://www.w3.org/2000/svg">
<path d="M15.4142 1H3V23H11.5V17C11.5 13.4101 14.4101 10.5 18 10.5C19.0821 10.5 20.1025 10.7644 21 11.2322V6.58579L15.4142 1ZM14.5 7.5V3L19 7.5H14.5Z" fill="black" fill-opacity="0.9" style="fill:black;fill-opacity:0.9;"/>
<path d="M18.001 14.5C18.6913 14.5 19.251 15.0596 19.251 15.75V16.5H16.751V15.75C16.751 15.0596 17.3106 14.5 18.001 14.5ZM21.251 16.5V15.75C21.251 13.9551 19.7959 12.5 18.001 12.5C16.2061 12.5 14.751 13.9551 14.751 15.75V16.5H13.5V23H22.5V16.5H21.251Z" fill="black" fill-opacity="0.9" style="fill:black;fill-opacity:0.9;"/>
</svg>
