<svg width="16" height="16" viewBox="0 0 16 16" fill="none" xmlns="http://www.w3.org/2000/svg">
<path fill-rule="evenodd" clip-rule="evenodd" d="M1.5 0.5V8H3.5V2.501H9V6H12.5V8H14.5V4.501L10.5 0.5H1.5ZM2.5 9.5H1.5V11.5H2.5H3.5V12.5H2.5H1.5V13.5V14.5V15.5H3.5V14.5H4C4.82843 14.5 5.5 13.8284 5.5 13V11C5.5 10.1716 4.82843 9.5 4 9.5H2.5ZM11 11.5C11 10.3954 11.8954 9.5 13 9.5H13.5H14.5V11.5H13.5H13V12.5H13.5H14.5V14.5H13.5H13V15.5H11V14.5V13.5V11.5ZM7.5 9.5H6.5V11.5H7.5H8V13.5H7.5H6.5V15.5H7.5H8.5C9.32843 15.5 10 14.8284 10 14V11C10 10.1716 9.32843 9.5 8.5 9.5H7.5Z" fill="black" fill-opacity="0.9"/>
</svg>
