<svg width="24" height="24" viewBox="0 0 24 24" fill="none" xmlns="http://www.w3.org/2000/svg">
<g id="file-search">
<path id="fill2" d="M21 17.25C21 19.3211 19.3211 21 17.25 21C15.1789 21 13.5 19.3211 13.5 17.25C13.5 15.1789 15.1789 13.5 17.25 13.5C19.3211 13.5 21 15.1789 21 17.25Z" fill="white"/>
<path id="stroke1" d="M20 10.5V7L15 2H4V22H11.5M14 2V8H20" stroke="black" stroke-width="2" stroke-linecap="square"/>
<path id="stroke2" d="M19.9979 20L21.5 21.5M21 17.25C21 19.3211 19.3211 21 17.25 21C15.1789 21 13.5 19.3211 13.5 17.25C13.5 15.1789 15.1789 13.5 17.25 13.5C19.3211 13.5 21 15.1789 21 17.25Z" stroke="black" stroke-width="2" stroke-linecap="square"/>
</g>
</svg>
