<svg width="24" height="24" viewBox="0 0 24 24" fill="none" xmlns="http://www.w3.org/2000/svg">
<g id="fill-color-1">
<path id="fill2" d="M3.58788 14.1215L9.87886 20.4125C11.0504 21.584 12.9499 21.584 14.1215 20.4125L21.5342 12.9998H2.87988C3.02427 13.4094 3.26027 13.7939 3.58788 14.1215Z" fill="white"/>
<path id="stroke1" d="M12 8L5.99996 2M21 13H3.49996M12 1.4668L22.5336 12.0004L14.1213 20.4127C12.9497 21.5843 11.0502 21.5843 9.87864 20.4127L3.58766 14.1217C2.41609 12.9502 2.41609 11.0507 3.58766 9.8791L12 1.4668Z" stroke="black" stroke-width="2" stroke-linecap="square"/>
<path id="stroke2" d="M21.2197 22.0095C21.5126 22.3795 21.9874 22.3795 22.2803 22.0095C22.5732 21.6396 22.5732 21.0398 22.2803 20.6698L21.75 20L21.2197 20.6698C20.9268 21.0398 20.9268 21.6396 21.2197 22.0095Z" stroke="black" stroke-width="2" stroke-linecap="square"/>
</g>
</svg>
