<svg width="24" height="24" viewBox="0 0 24 24" fill="none" xmlns="http://www.w3.org/2000/svg">
    <path
        d="M9.52545 0.625977L10.2326 1.33308L12.7074 3.80796L21.1927 12.2932L21.8998 13.0003L21.1927 13.7075L12.7074 22.1927L12.0003 22.8998L11.2932 22.1927L2.80794 13.7075L2.10083 13.0003L2.80794 12.2932L10.5861 4.51506L8.81834 2.7473L8.11124 2.04019L9.52545 0.625977ZM5.92945 12.0002H6.00006H18.0712L12.0003 5.92928L5.92945 12.0002ZM18.0716 14.0002H6.00006H5.92906L12.0003 20.0714L18.0716 14.0002ZM20.7501 17.3891L21.5341 18.3794L22.0644 19.0493C22.6453 19.7829 22.6453 20.8968 22.0644 21.6304C21.7498 22.0279 21.2805 22.2872 20.7501 22.2872C20.2196 22.2872 19.7504 22.0279 19.4357 21.6304C18.8548 20.8968 18.8548 19.7829 19.4357 19.0493L19.966 18.3794L20.7501 17.3891Z"
        fill="black" />
</svg>