<svg width="16" height="16" viewBox="0 0 16 16" fill="none" xmlns="http://www.w3.org/2000/svg">
<path fill-rule="evenodd" clip-rule="evenodd" d="M10.9975 2H2.00293C1.72825 2 1.46567 2.11298 1.27681 2.31243L1.19622 2.40887C0.902004 2.80934 0.945188 3.3756 1.31537 3.72612L4.99904 7.214L5.00004 15L8.00004 12.75V7.214L11.685 3.72615C11.8845 3.53729 11.9975 3.27469 11.9975 3C11.9975 2.44772 11.5498 2 10.9975 2ZM2.00293 3H10.9975L7.00004 6.78485V12.249L5.99904 12.999L6.00004 6.78486L2.00293 3Z" fill="black" fill-opacity="0.9"/>
<path fill-rule="evenodd" clip-rule="evenodd" d="M12.1214 11.4143L10.7071 10L10 10.7071L11.4143 12.1214L10.0002 13.5355L10.7073 14.2426L12.1214 12.8285L13.5355 14.2426L14.2426 13.5355L12.8285 12.1214L14.2428 10.7071L13.5357 10L12.1214 11.4143Z" fill="black" fill-opacity="0.9"/>
</svg>
