<svg width="25" height="24" viewBox="0 0 25 24" fill="none" xmlns="http://www.w3.org/2000/svg">
<path d="M20.887 2.26995L19.3182 3.05085L20.887 3.83175L21.6679 5.40053L22.4488 3.83175L24.0176 3.05085L22.4488 2.26996L21.6679 0.701172L20.887 2.26995ZM7.95838 1.51477L9.05548 3.71882L11.2595 4.81592L9.05548 5.91302L7.95838 8.11706L6.86127 5.91302L4.65723 4.81592L6.86127 3.71882L7.95838 1.51477ZM17.2381 3.40212L22.3868 8.55087L7.29768 23.64L2.14893 18.4913L17.2381 3.40212ZM15.2336 8.23507L17.5539 10.5554L19.5584 8.55087L17.2381 6.23055L15.2336 8.23507ZM16.1397 11.9696L13.8193 9.64928L4.97735 18.4913L7.29768 20.8116L16.1397 11.9696Z" fill="black" fill-opacity="0.9" style="fill:black;fill-opacity:0.9;"/>
</svg>
