<svg viewBox="0 0 1024 1024" version="1.1" xmlns="http://www.w3.org/2000/svg"><path  fill-opacity=".9" fill-rule="evenodd" d="M703.84 128H128.18752C110.608 128 93.80288 135.23072 81.71584 147.99552L76.55808 154.16768C57.728256 179.79776 60.492032 216.0384 84.18368 238.47168L319.93856 461.696 320.00256 960 512.00256 816V461.696L747.84 238.4736C760.608 226.38656 767.84 209.58016 767.84 192 767.84 156.65408 739.1872 128 703.84 128ZM128.18752 192H703.84L448.00256 434.2304V783.936L383.93856 831.936 384.00256 434.23104 128.18752 192Z" clip-rule="evenodd"/><path  fill-opacity=".9" fill-rule="evenodd" d="M775.7696 730.5152L685.2544 640 640 685.2544 730.5152 775.7696 640.0128 866.272 685.2672 911.5264 775.7696 821.024 866.272 911.5264 911.5264 866.272 821.024 775.7696 911.5392 685.2544 866.2848 640 775.7696 730.5152Z" clip-rule="evenodd"/></svg>