<svg width="24" height="24" viewBox="0 0 24 24" fill="none" xmlns="http://www.w3.org/2000/svg">
<g id="filter-2">
<path id="fill1" d="M3.56348 18.4913L7.29802 22.2259L17.5542 11.9696L13.8197 8.23511L3.56348 18.4913Z" fill="white"/>
<path id="fill2" d="M20.9728 8.55095L17.2383 4.81641L13.8195 8.23514L17.5541 11.9697L20.9728 8.55095Z" fill="white"/>
<path id="stroke1" d="M17.2384 4.81641L20.973 8.55095M17.2384 4.81641L3.56348 18.4914L7.29802 22.2259L20.973 8.55095M17.2384 4.81641L13.8197 8.23514L17.5542 11.9697L20.973 8.55095" stroke="black" stroke-width="2" stroke-linecap="square"/>
<g id="stroke2">
<path d="M7.75 3.5L8.16543 4.33457L9 4.75L8.16543 5.16543L7.75 6L7.33457 5.16543L6.5 4.75L7.33457 4.33457L7.75 3.5Z" stroke="black" stroke-width="2"/>
<path d="M21.625 3L21.6665 3.08346L21.75 3.125L21.6665 3.16654L21.625 3.25L21.5835 3.16654L21.5 3.125L21.5835 3.08346L21.625 3Z" stroke="black" stroke-width="2"/>
</g>
</g>
</svg>
