<svg width="24" height="24" viewBox="0 0 24 24" fill="none" xmlns="http://www.w3.org/2000/svg">
    <path
        d="M13.4968 5.56424C15.146 4.65794 17.3556 4.42743 20.1659 4.87039C20.2849 5.55513 20.3875 6.58145 20.3129 7.7297C20.2108 9.30174 19.7831 11.0075 18.711 12.3861L18.5462 12.5979L18.51 12.8611L18.5098 12.8627L18.5096 12.8638L18.5076 12.8771C18.5052 12.892 18.5011 12.917 18.4949 12.9514C18.4825 13.02 18.462 13.1255 18.4308 13.2607C18.3683 13.5317 18.264 13.9185 18.0994 14.3664C17.8958 14.9205 17.6061 15.5514 17.201 16.1681L16.3606 14.4798L15.4003 15.2C13.6497 16.5129 10.9041 17 9.0003 17H8.0003L8.0003 18C8.0003 18.7703 7.99685 19.2933 7.89472 19.8039C7.8604 19.9755 7.81373 20.1501 7.74806 20.3335L3.73687 16.3223C4.05726 16.2316 4.39116 16.1632 4.71486 16.1134C5.08423 16.0565 5.41219 16.028 5.64674 16.0138C5.76355 16.0067 5.85597 16.0033 5.91734 16.0016C5.94799 16.0007 5.9708 16.0003 5.98493 16.0002L6.0003 16L6.00164 16L7.0003 16V15C7.0003 12.3028 7.86415 11.007 8.83 9.55823L9.20215 8.99999L7.42792 6.33865C7.46381 6.32577 7.50116 6.31281 7.53999 6.29981C8.00576 6.14384 8.58212 6.0149 9.19291 5.92739C9.80186 5.84013 10.4207 5.79753 10.9663 5.8046C11.1679 5.80721 11.3509 5.81653 11.5141 5.83106C11.6042 6.59931 11.8873 7.47413 12.3752 8.30596C13.1003 9.54211 14.3135 10.748 16.1491 11.4363L17.0854 11.7874L17.7877 9.91479L16.8513 9.56367C15.4869 9.05202 14.6168 8.17455 14.1003 7.29403C13.7163 6.63938 13.5445 6.01399 13.4968 5.56424ZM20.4438 13.4095C21.7293 11.65 22.1957 9.59882 22.3087 7.85937C22.4261 6.05294 22.169 4.48803 21.9654 3.73802L21.8011 3.13295L21.1849 3.01719C17.7599 2.37376 14.7138 2.52473 12.3302 3.92691C11.9131 3.84563 11.4507 3.81071 10.9923 3.80477C10.3318 3.79621 9.60889 3.84736 8.90924 3.9476C8.21144 4.04759 7.51241 4.1999 6.90495 4.40331C6.32977 4.59591 5.71185 4.87424 5.2932 5.29289L4.71351 5.87258L6.80029 9.00275C5.98691 10.2591 5.20065 11.7141 5.03302 14.0575C4.84375 14.0766 4.63389 14.1023 4.41075 14.1366C3.55384 14.2685 2.37934 14.5455 1.4456 15.1679L0.430664 15.8446L8.15573 23.5696L8.83235 22.5547C9.39533 21.7102 9.70212 20.9649 9.85588 20.1961C9.93856 19.7827 9.97393 19.3732 9.98905 18.9649C11.6933 18.8476 13.8257 18.42 15.6011 17.4421L16.7209 19.6918L17.7038 18.7088C18.8923 17.5203 19.5832 16.1272 19.9767 15.0562C20.1749 14.5168 20.3017 14.048 20.3796 13.7102C20.4064 13.5941 20.4275 13.4931 20.4438 13.4095ZM17.5002 5.58026L18.9174 6.99726L17.5002 8.41415L16.0834 6.99726L17.5002 5.58026Z"
        fill="black" />
</svg>