<svg width="24" height="24" viewBox="0 0 24 24" fill="none" xmlns="http://www.w3.org/2000/svg">
<g id="fish">
<path id="fill1" d="M12.5 5.00018C10.9687 4.50018 7 5.00019 6 6.00019L8 9.00018C7 10.5002 6 12.0002 6 15.0002C6 15.0002 3.5 15.0002 2 16.0002L8 22.0002C9 20.5002 9 19.5002 9 18.0002C11 18.0002 14 17.5002 16 16.0002L16.9964 18.0019C19.1019 15.8964 19.5 13.0002 19.5 13.0002C21.9749 9.8182 21.3531 5.30094 21 4.00018C17.4994 3.34255 14.6213 3.58597 12.5 5.00018Z" fill="white"/>
<path id="stroke1" d="M12.5 5.00018C10.9687 4.50018 7 5.00019 6 6.00019L8 9.00018C7 10.5002 6 12.0002 6 15.0002C6 15.0002 3.5 15.0002 2 16.0002L8 22.0002C9 20.5002 9 19.5002 9 18.0002C11 18.0002 14 17.5002 16 16.0002L16.9964 18.0019C19.1019 15.8964 19.5 13.0002 19.5 13.0002C21.9749 9.8182 21.3531 5.30094 21 4.00018C17.4994 3.34255 14.6213 3.58597 12.5 5.00018ZM12.5 5.00018C12.3333 6.33352 13.2999 9.30019 16.4999 10.5002" stroke="black" stroke-width="2" stroke-linecap="square"/>
<path id="stroke2" d="M17.4998 6.99414L17.4971 6.9969L17.4998 6.99967L17.5026 6.9969L17.4998 6.99414Z" stroke="black" stroke-width="2" stroke-linecap="square"/>
</g>
</svg>
