<svg width="24" height="24" viewBox="0 0 24 24" fill="none" xmlns="http://www.w3.org/2000/svg">
<path d="M8.32492 2.38757L15.0319 8.87265L19.9908 7.54392C21.3245 7.18657 22.6953 7.97802 23.0527 9.31169C23.41 10.6454 22.6186 12.0162 21.2849 12.3736L3.58932 17.1151L0.425293 10.7159L3.59932 9.86545L5.27607 11.4867L8.61144 10.593L4.60904 3.38324L8.32492 2.38757ZM7.60095 4.65211L11.6034 11.8619L4.69991 13.7117L3.62259 12.67L4.65542 14.7589L20.7673 10.4417C21.034 10.3702 21.1923 10.0961 21.1208 9.82933C21.0493 9.56259 20.7752 9.4043 20.5084 9.47577L14.4558 11.0976L7.74877 4.61251L7.60095 4.65211ZM2.00005 19H22V21H2.00005V19Z" fill="black" fill-opacity="0.9" style="fill:black;fill-opacity:0.9;"/>
</svg>
