<svg width="24" height="24" viewBox="0 0 24 24" fill="none" xmlns="http://www.w3.org/2000/svg">
<g id="flip-smiling-face">
<path id="fill1" d="M22 12C22 17.5228 17.5228 22 12 22C6.47715 22 2 17.5228 2 12C2 6.47715 6.47715 2 12 2C17.5228 2 22 6.47715 22 12Z" fill="white"/>
<path id="stroke1" d="M2.00098 12C2.00098 6.47715 6.47813 2 12.001 2C17.5238 2 22.001 6.47715 22.001 12C22.001 17.5228 17.5238 22 12.001 22C6.47813 22 2.00098 17.5228 2.00098 12Z" stroke="black" stroke-width="2" stroke-linecap="square"/>
<path id="stroke2" d="M16.001 13V15M8.00098 13V15M8.53563 9C9.22724 7.8044 10.5199 7 12.0005 7C13.4811 7 14.7737 7.8044 15.4654 9" stroke="black" stroke-width="2" stroke-linecap="square"/>
</g>
</svg>
