<svg width="24" height="24" viewBox="0 0 24 24" fill="none" xmlns="http://www.w3.org/2000/svg">
<g id="focus">
<path id="fill1" d="M19 12C19 15.866 15.866 19 12 19C8.13401 19 5 15.866 5 12C5 8.13401 8.13401 5 12 5C15.866 5 19 8.13401 19 12Z" fill="white"/>
<path id="stroke1" d="M19 12C19 15.866 15.866 19 12 19M19 12C19 8.13401 15.866 5 12 5M19 12H22M12 19C8.13401 19 5 15.866 5 12M12 19V22M5 12C5 8.13401 8.13401 5 12 5M5 12H2M12 5V2" stroke="black" stroke-width="2" stroke-linecap="square"/>
<path id="stroke2" d="M13 12C13 12.5523 12.5523 13 12 13C11.4477 13 11 12.5523 11 12C11 11.4477 11.4477 11 12 11C12.5523 11 13 11.4477 13 12Z" stroke="black" stroke-width="2" stroke-linecap="square"/>
</g>
</svg>
