<svg width="24" height="24" viewBox="0 0 24 24" fill="none" xmlns="http://www.w3.org/2000/svg">
<path d="M10.9158 0.585449L10.4657 2.25967C10.1658 3.37554 10.1958 4.59695 10.5353 5.86378C11.5359 9.59804 15.3742 11.8141 19.1085 10.8135C19.5546 10.694 19.9781 10.5344 20.3766 10.3398L21.917 9.58766L21.8135 11.2988C21.7509 12.3323 21.4388 13.3586 20.8944 14.4473L20.4472 15.3417L18.6584 14.4473L19.1056 13.5529C19.2383 13.2874 19.3505 13.0346 19.4439 12.7922C14.7007 13.9595 9.87364 11.1219 8.60344 6.38142C8.35002 5.43563 8.22898 4.47658 8.26572 3.52925C4.92344 5.18739 3.09917 9.02142 4.10198 12.764C4.11845 12.8254 4.18706 13.0153 4.27542 13.2433C4.31503 13.3454 4.35284 13.4407 4.38082 13.5105L4.41406 13.5931L4.42304 13.6153L4.42579 13.622L4.80372 14.5481L2.95198 15.3038L2.57414 14.3779L2.57028 14.3684L2.56016 14.3435L2.52422 14.2542C2.49437 14.1797 2.45369 14.0772 2.41064 13.9662C2.33368 13.7676 2.22031 13.4689 2.17013 13.2816C0.74071 7.94694 3.90653 2.46357 9.2412 1.03415L10.9158 0.585449ZM2.00098 17.0001H8.00098V19.0001H2.00098V17.0001ZM10.001 17.0001H22.001V19.0001H10.001V17.0001ZM17.001 21.0001H22.001V23.0001H17.001V21.0001ZM2.00098 21.0001H15.001V23.0001H2.00098V21.0001Z" fill="black" fill-opacity="0.9" style="fill:black;fill-opacity:0.9;"/>
</svg>
