<svg width="24" height="24" viewBox="0 0 24 24" fill="none" xmlns="http://www.w3.org/2000/svg">
    <path
        d="M11.1 5C8.63404 5 6.7 6.91564 6.7 9.2C6.7 9.46219 6.72505 9.71791 6.77273 9.9654L7.00186 11.1546H5.79079C4.83859 11.1546 4 12.0183 4 13V14H2V13C2 11.343 3.12378 9.81486 4.7012 9.32086C4.7004 9.28066 4.7 9.24037 4.7 9.2C4.7 5.7406 7.60128 3 11.1 3C11.646 3 12.1775 3.06644 12.6858 3.192C14.8331 3.7225 16.5652 5.31155 17.2193 7.37863C17.9416 7.47026 18.6217 7.69802 19.2299 8.03569C20.9409 8.9857 22 11.0856 22 13V14H20V13C20 11.7021 19.2442 10.3312 18.259 9.78426C17.7444 9.49852 17.1446 9.33333 16.5 9.33333C16.4803 9.33333 16.4607 9.33349 16.4411 9.33379L15.5868 9.34716L15.4403 8.50544C15.158 6.88414 13.8892 5.54944 12.2061 5.13363C11.8538 5.0466 11.4834 5 11.1 5ZM2 15H8V17H2V15ZM10 15H22V17H10V15ZM17 19H22V21H17V19ZM2 21L2 19L15 19V21L2 21Z"
        fill="black" />
</svg>