<svg width="24" height="24" viewBox="0 0 24 24" fill="none" xmlns="http://www.w3.org/2000/svg">
<path d="M1 2.5H9.48062L11.4806 5H23V11.5H21V7H10.5194L8.51937 4.5H3V19H12.5V21H1V2.5ZM18.25 14.5C19.7688 14.5 21 15.7312 21 17.25C21 18.0085 20.6929 18.6952 20.1963 19.1928C20.1936 19.1955 20.1908 19.1983 20.188 19.2011C19.6908 19.6949 19.0061 20 18.25 20C16.7312 20 15.5 18.7688 15.5 17.25C15.5 15.7312 16.7312 14.5 18.25 14.5ZM22.2419 19.8254C22.7216 19.0834 23 18.1992 23 17.25C23 14.6266 20.8734 12.5 18.25 12.5C15.6266 12.5 13.5 14.6266 13.5 17.25C13.5 19.8734 15.6266 22 18.25 22C19.2004 22 20.0857 21.7209 20.8282 21.2401L22.4983 22.9142L23.9142 21.5017L22.2419 19.8254Z" fill="black" fill-opacity="0.9" style="fill:black;fill-opacity:0.9;"/>
</svg>
