<svg width="24" height="24" viewBox="0 0 24 24" fill="none" xmlns="http://www.w3.org/2000/svg">
    <path
        d="M12.0001 21C13.1047 21 14.0001 20.1046 14.0001 19C14.0001 17.8954 13.1047 17 12.0001 17C10.8956 17 10.0001 17.8954 10.0001 19C10.0001 20.1046 10.8956 21 12.0001 21ZM13.0001 15.126C14.7253 15.5701 16.0001 17.1362 16.0001 19C16.0001 21.2091 14.2093 23 12.0001 23C9.79098 23 8.00012 21.2091 8.00012 19C8.00012 17.1362 9.27489 15.5701 11.0001 15.126L11.0001 13L7.00012 13C5.34327 13 4.00012 11.6569 4.00012 10L4.00012 8.87398C2.27489 8.42994 1.00012 6.86384 1.00012 5C1.00012 2.79086 2.79098 1 5.00012 0.999999C7.20926 0.999999 9.00012 2.79086 9.00012 5C9.00012 6.86384 7.72535 8.42994 6.00012 8.87398L6.00012 10C6.00012 10.5523 6.44784 11 7.00012 11L17.0001 11C17.5524 11 18.0001 10.5523 18.0001 10L18.0001 8.87398C16.2749 8.42994 15.0001 6.86384 15.0001 5C15.0001 2.79086 16.791 0.999997 19.0001 0.999997C21.2093 0.999996 23.0001 2.79086 23.0001 5C23.0001 6.86384 21.7253 8.42994 20.0001 8.87398L20.0001 10C20.0001 11.6569 18.657 13 17.0001 13L13.0001 13L13.0001 15.126ZM4.99733 7L5.00291 7C6.1062 6.99849 7.00012 6.10364 7.00012 5C7.00012 3.89543 6.10469 3 5.00012 3C3.89555 3 3.00012 3.89543 3.00012 5C3.00012 6.10364 3.89404 6.99849 4.99733 7ZM19.0001 7C20.1047 7 21.0001 6.10457 21.0001 5C21.0001 3.89543 20.1047 3 19.0001 3C17.8955 3 17.0001 3.89543 17.0001 5C17.0001 6.10457 17.8955 7 19.0001 7Z"
        fill="black" />
</svg>