<svg width="24" height="24" viewBox="0 0 24 24" fill="none" xmlns="http://www.w3.org/2000/svg">
<g id="fork">
<g id="fill1">
<path d="M8 5C8 3.34315 6.65685 2 5 2C3.34315 2 2 3.34315 2 5C2 6.65686 3.34315 8 5 8C6.65686 8 8 6.65685 8 5Z" fill="white"/>
<path d="M22 5C22 3.34315 20.6569 2 19 2C17.3431 2 16 3.34315 16 5C16 6.65685 17.3431 8 19 8C20.6569 8 22 6.65685 22 5Z" fill="white"/>
<path d="M15 19C15 17.3431 13.6569 16 12 16C10.3431 16 9 17.3431 9 19C9 20.6569 10.3431 22 12 22C13.6569 22 15 20.6569 15 19Z" fill="white"/>
</g>
<path id="stroke1" d="M12 12L7 12C5.89543 12 5 11.1046 5 10L5 8M12 12H17C18.1046 12 19 11.1046 19 10L19 8.5M12 12L12 16M5 8C3.34314 8 2 6.65686 2 5C2 3.34315 3.34315 2 5 2C6.65685 2 8 3.34315 8 5C8 6.65685 6.65685 8 5 8ZM12 16C13.6569 16 15 17.3431 15 19C15 20.6569 13.6569 22 12 22C10.3431 22 9 20.6569 9 19C9 17.3431 10.3431 16 12 16ZM22 5C22 3.34315 20.6569 2 19 2C17.3431 2 16 3.34315 16 5C16 6.65685 17.3431 8 19 8C20.6569 8 22 6.65685 22 5Z" stroke="black" stroke-width="2" stroke-linecap="square"/>
</g>
</svg>
