<svg width="24" height="24" viewBox="0 0 24 24" fill="none" xmlns="http://www.w3.org/2000/svg">
<path d="M17.465 0.994141L21.0006 4.52967L20.2935 5.23678L22.4148 7.3581L20.2935 9.47942L22.4148 11.6007L19.2149 14.8006L20.6127 16.1984L8.84563 23.2595L0.741455 15.1553L7.80138 3.38712L9.31541 4.90115L13.2224 0.994141L15.3437 3.11546L17.465 0.994141ZM12.8509 8.43668L13.5581 9.14379L18.1722 4.52968L17.465 3.82257L12.8509 8.43668ZM18.8793 6.651L14.9723 10.558L15.6794 11.2651L19.5864 7.3581L18.8793 6.651ZM17.0936 12.6793L17.8007 13.3864L19.5864 11.6007L18.8793 10.8936L17.0936 12.6793ZM17.3872 15.8013L8.19846 6.61262L6.25912 9.84485L14.1549 17.7407L17.3872 15.8013ZM12.3873 18.8014L5.19858 11.6127L3.25971 14.8451L9.15553 20.741L12.3873 18.8014ZM10.7296 6.31536L11.4367 7.02247L13.9295 4.52968L13.2224 3.82257L10.7296 6.31536Z" fill="black" fill-opacity="0.9" style="fill:black;fill-opacity:0.9;"/>
</svg>
