<svg width="16" height="16" viewBox="0 0 16 16" fill="none" xmlns="http://www.w3.org/2000/svg">
<path fill-rule="evenodd" clip-rule="evenodd" d="M8.79289 10.2071L8.08579 9.5L9.5 8.08579L10.2071 8.79289L12.5 11.0858L12.5 10L12.5 9L14.5 9L14.5 10L14.5 13.5L14.5 14.5L13.5 14.5L10 14.5L9 14.5L9 12.5L10 12.5L11.0858 12.5L8.79289 10.2071ZM6 1.5L7 1.5L7 3.5L6 3.5L4.91421 3.5L7.20711 5.79289L7.91421 6.5L6.5 7.91421L5.79289 7.20711L3.5 4.91421L3.5 6L3.5 7L1.5 7L1.5 6L1.5 2.5L1.5 1.5L2.5 1.5L6 1.5Z" fill="black" fill-opacity="0.9"/>
</svg>
