<svg width="24" height="24" viewBox="0 0 24 24" fill="none" xmlns="http://www.w3.org/2000/svg">
    <path
        d="M14.6485 0.195801V2.00005C14.6485 5.13893 16.2559 6.74441 18.2278 8.50954C18.3302 8.60121 18.4339 8.69347 18.5386 8.78655C20.4206 10.461 22.6027 12.4024 22.949 15.9429C23.1514 17.8586 22.739 19.9726 21.1922 21.391C19.6738 22.7833 17.3168 23.2763 14.1271 22.5986C13.3617 22.8962 12.5088 23 11.6481 23C10.73 23 9.99791 22.8073 9.42123 22.5222C9.28533 22.5691 9.12463 22.6204 8.94298 22.6716C8.36697 22.8338 7.55778 23 6.64811 23C3.18919 23 1.00013 20.1024 1 17.0018C0.999927 15.2127 1.46396 13.8164 2.22137 12.68C2.96562 11.5634 3.95772 10.7524 4.91847 10.0759C5.33469 9.78279 5.71962 9.52992 6.0857 9.28944C6.62657 8.93413 7.12632 8.60584 7.62511 8.21472C8.3446 7.65054 8.88539 7.07666 9.21382 6.38052C9.19407 6.10089 9.11179 5.79174 9.00688 5.50883C8.94668 5.34647 8.88555 5.21002 8.84033 5.11589C8.81788 5.06915 8.79979 5.03374 8.78829 5.01179L8.77642 4.98946L8.77519 4.98721L8.30969 4.15756L14.6485 0.195801ZM10.9102 4.89073C11.0682 5.33365 11.2368 5.95884 11.2167 6.61281C11.1757 7.94904 10.8472 9.71731 9.87746 12.1769L9.86794 12.2011L9.85717 12.2247C7.70366 16.9516 8.80309 19.7286 10.0704 20.5913C10.3573 20.7866 10.8407 21 11.6481 21C12.4774 21 13.12 20.8809 13.5914 20.6522C13.9742 20.4666 14.4237 19.9091 14.6725 18.9424C14.9118 18.0122 14.9112 16.8811 14.5815 15.8307C14.3116 14.9708 14.0135 14.3989 13.7051 13.8073C13.6057 13.6167 13.5052 13.424 13.4043 13.2189C12.9799 12.3567 12.6485 11.4395 12.6485 10V9.00005H14.6485V10C14.6485 11.0606 14.8733 11.6746 15.1987 12.3357C15.2708 12.4822 15.3523 12.638 15.4398 12.8055C15.7598 13.4176 16.1615 14.186 16.4897 15.2318C16.9349 16.6501 16.9385 18.1617 16.6094 19.4408C16.4823 19.9346 16.2964 20.4246 16.0475 20.8704C17.9642 21.0289 19.1423 20.5571 19.8404 19.917C20.756 19.0774 21.124 17.697 20.9597 16.1498L20.9588 16.1411C20.6913 13.3928 19.0594 11.9347 17.1045 10.188C17.0347 10.1256 16.9645 10.0629 16.8939 9.99974C15.1783 8.46405 13.3154 6.70152 12.7922 3.7145L10.9102 4.89073ZM8.52264 10.0436C8.06011 10.3835 7.55004 10.7204 7.06372 11.0416C6.7109 11.2747 6.37058 11.4995 6.06999 11.7111C5.18116 12.337 4.42608 12.9783 3.88558 13.7892C3.35824 14.5804 2.99994 15.5869 3 17.0017C3.00009 19.2312 4.51349 21 6.64811 21C7.00193 21 7.34089 20.9657 7.6493 20.9145C6.28952 18.8369 6.20491 15.4317 8.02616 11.4197C8.21998 10.9268 8.3841 10.469 8.52264 10.0436Z"
        fill="black" />
</svg>