<svg width="24" height="24" viewBox="0 0 24 24" fill="none" xmlns="http://www.w3.org/2000/svg">
<g id="gender-female">
<path id="fill1" d="M18 9C18 12.3137 15.3137 15 12 15C8.68629 15 6 12.3137 6 9C6 5.68629 8.68629 3 12 3C15.3137 3 18 5.68629 18 9Z" fill="white"/>
<path id="stroke1" d="M12 15C15.3137 15 18 12.3137 18 9C18 5.68629 15.3137 3 12 3C8.68629 3 6 5.68629 6 9C6 12.3137 8.68629 15 12 15ZM12 15L12 21M15 18.0039L9 18.0039" stroke="black" stroke-width="2" stroke-linecap="square"/>
</g>
</svg>
