<svg viewBox="0 0 1024 1024" version="1.1" xmlns="http://www.w3.org/2000/svg"><path fill-opacity=".9" fill-rule="evenodd" d="M835.3369248903466 199.17588303818673C840.0329212636638 204.744626125889 842.8629237091814 211.9383594280422 842.8629237091814 219.79307623712157L842.8629237091814 219.79307623712157 842.8629228040847 443.79307495614574 778.8629215538338 443.79307450359744 778.8764459609735 297.0343880349656 592.3941378451752 483.6026721894859C655.7312910893395 568.1318595629998 651.529936839823 687.2392016516635 579.7900705711425 767.1810268808676L571.3339197335472 776.1059182380261C483.85647948583266 863.5833584857407 342.0275220096885 863.5833584857405 254.55008176197396 776.1059182380261 167.0726406091627 688.6284770852149 167.07264151425932 546.7995205141674 254.55008176197384 459.3220802664528 334.3458121682338 379.52634986019285 459.3665672112797 372.5191977131215 547.1050445822564 438.3006242777872L733.6668667990302 251.7342992050306 586.8629236862091 251.7930766359729 586.8629241387575 187.79307629081853 810.8629237628784 187.7930762908186C818.7176405719578 187.79307629081853 825.911373874111 190.6230787363362 831.4801169618132 195.31907510965328ZM526.0790857376081 504.5769142623919C463.59519926453555 442.09302778931925 362.28880223098554 442.09302778931925 299.8049157579129 504.5769142623919 237.32102792719536 567.0608020931095 237.32102928484034 668.3671977690146 299.8049157579129 730.8510842420872 362.2888022309855 793.3349707151597 463.5951979068906 793.3349720728045 526.0790857376081 730.8510842420869 588.5629722106808 668.3671977690144 588.5629722106808 567.0608007354645 526.0790857376081 504.5769142623919Z"/></svg>