<svg width="24" height="24" viewBox="0 0 24 24" fill="none" xmlns="http://www.w3.org/2000/svg">
<path d="M12 4C14.7614 4 17 6.23858 17 9C17 11.677 14.8962 13.8627 12.2517 13.9938H11.7483C9.10382 13.8627 7 11.677 7 9C7 6.23858 9.23858 4 12 4ZM13 15.9291C16.3923 15.4439 19 12.5265 19 9C19 5.13401 15.866 2 12 2C8.13401 2 5 5.13401 5 9C5 12.5265 7.60771 15.4439 11 15.9291L11 17.0038H8V19.0038H11L11 22.0038H13L13 19.0038H16V17.0038L13 17.0038V15.9291Z" fill="black" fill-opacity="0.9" style="fill:black;fill-opacity:0.9;"/>
</svg>
