<svg width="16" height="16" viewBox="0 0 16 16" fill="none" xmlns="http://www.w3.org/2000/svg">
<path fill-rule="evenodd" clip-rule="evenodd" d="M9.5 2H8.5V4H9.5H10.5858L8.75739 5.8284C7.96696 5.30488 7.01908 5 6 5C3.23858 5 1 7.23858 1 10C1 12.7614 3.23858 15 6 15C8.76142 15 11 12.7614 11 10C11 8.98092 10.6951 8.03304 10.1716 7.24261L12 5.41421V6.5V7.5H14V6.5V3V2H13H9.5ZM3 10C3 8.34315 4.34315 7 6 7C7.65685 7 9 8.34315 9 10C9 11.6569 7.65685 13 6 13C4.34315 13 3 11.6569 3 10Z" fill="black"/>
</svg>
