<svg width="24" height="24" viewBox="0 0 24 24" fill="none" xmlns="http://www.w3.org/2000/svg">
<g id="gesture-up-and-down">
<path id="fill1" d="M7.83121 8.90139L12.2236 16.5093L8.93781 17.543C8.59165 17.6519 8.34809 17.9625 8.32484 18.3246L8.26197 19.3037L14.1181 21.7232C14.6223 21.9315 15.1948 21.8938 15.6673 21.621L21.8035 18.0782C22.4585 17.7001 22.7979 16.9452 22.6461 16.2043L21.5145 10.6794C21.3477 9.8651 20.633 9.27914 19.8018 9.27519L15.6049 9.25528C15.2937 9.25381 14.9877 9.33502 14.7182 9.49062L12.849 10.5698L10.8721 7.14571C10.3873 6.30598 9.31356 6.01827 8.47383 6.50309C7.63411 6.9879 7.3464 8.06166 7.83121 8.90139Z" fill="white"/>
<path id="stroke1" d="M7.83121 8.90139L12.2236 16.5093L8.93781 17.543C8.59165 17.6519 8.34809 17.9625 8.32484 18.3246L8.26197 19.3037L14.1181 21.7232C14.6223 21.9315 15.1948 21.8938 15.6673 21.621L21.8035 18.0782C22.4585 17.7001 22.7979 16.9452 22.6461 16.2043L21.5145 10.6794C21.3477 9.8651 20.633 9.27914 19.8018 9.27519L15.6049 9.25528C15.2937 9.25381 14.9877 9.33502 14.7182 9.49062L12.849 10.5698L10.8721 7.14571C10.3873 6.30598 9.31356 6.01827 8.47383 6.50309C7.63411 6.9879 7.3464 8.06166 7.83121 8.90139Z" stroke="black" stroke-width="2" stroke-linecap="square"/>
<path id="stroke2" d="M5.19787 4.50052V1.51524L1.4982 1.51318M5.19787 15.5005L5.19787 18.4858L1.49799 18.4863M4.01024 17.95C-0.0185398 13.4026 -0.00335695 6.52984 4.05579 1.99996" stroke="black" stroke-width="2" stroke-linecap="square"/>
</g>
</svg>
