<svg width="24" height="24" viewBox="0 0 24 24" fill="none" xmlns="http://www.w3.org/2000/svg">
<g id="gesture-press">
<path id="fill1" d="M9.24412 16.3511V7.56622C9.24412 6.59659 10.0302 5.81055 10.9998 5.81055C11.9694 5.81055 12.7555 6.59659 12.7555 7.56622V11.52H14.9138C15.0767 11.52 15.2381 11.5427 15.3935 11.5868C15.5349 11.6269 15.6713 11.6848 15.7994 11.7596L19.4241 13.8752C20.1419 14.2943 20.4679 15.1591 20.2052 15.9477L18.4228 21.2982C18.1837 22.0157 17.5123 22.4997 16.7561 22.4997H9.67056C9.12496 22.4997 8.61032 22.2462 8.27779 21.8137L4.41602 16.7903L4.95999 15.9738C5.1612 15.6718 5.5274 15.5246 5.88164 15.6034L9.24412 16.3511Z" fill="white"/>
<path id="fill2" d="M15.3935 11.5863C16.3903 10.515 17 9.07871 17 7.5C17 4.18629 14.3137 1.5 11 1.5C7.68629 1.5 5 4.18629 5 7.5C5 10.2028 6.7871 12.4882 9.24412 13.239V7.56574C9.24412 6.5961 10.0302 5.81006 10.9998 5.81006C11.9694 5.81006 12.7555 6.5961 12.7555 7.56573V11.5195H14.9138C15.0767 11.5195 15.2381 11.5422 15.3935 11.5863Z" fill="white"/>
<path id="stroke2" d="M15.6435 11.3C16.4913 10.2653 17 8.94204 17 7.5C17 4.18629 14.3137 1.5 11 1.5C7.68629 1.5 5 4.18629 5 7.5C5 10.056 6.5983 12.2388 8.85 13.1033" stroke="black" stroke-width="2" stroke-linecap="square"/>
<path id="stroke1" d="M9.24412 16.3511V7.56622C9.24412 6.59659 10.0302 5.81055 10.9998 5.81055C11.9694 5.81055 12.7555 6.59659 12.7555 7.56622V11.52H14.9138C15.0767 11.52 15.2381 11.5427 15.3935 11.5868C15.5349 11.6269 15.6713 11.6848 15.7994 11.7596L19.4241 13.8752C20.1419 14.2943 20.4679 15.1591 20.2052 15.9477L18.4228 21.2982C18.1837 22.0157 17.5123 22.4997 16.7561 22.4997H9.67056C9.12496 22.4997 8.61032 22.2462 8.27779 21.8137L4.41602 16.7903L4.95999 15.9738C5.1612 15.6718 5.5274 15.5246 5.88164 15.6034L9.24412 16.3511Z" stroke="black" stroke-width="2" stroke-linecap="square"/>
</g>
</svg>
