<svg width="24" height="24" viewBox="0 0 24 24" fill="none" xmlns="http://www.w3.org/2000/svg">
<path d="M19.5002 7.57018C21.1571 7.57018 22.5002 8.91333 22.5002 10.5702C22.5002 12.227 21.1571 13.5702 19.5002 13.5702H16.0002V15.0295C16.0002 15.5606 15.8592 16.0823 15.5916 16.5411L13.1827 20.6706C12.4672 21.8972 10.9898 22.4541 9.64266 22.0051L3.55156 19.9747C2.32653 19.5664 1.50024 18.42 1.50024 17.1287L1.50024 9.05499C1.50024 8.12358 1.93286 7.245 2.67111 6.67711L8.95861 1.84058L10.4848 2.85805C11.1721 3.31621 11.507 4.14971 11.3278 4.95601L10.7469 7.57018L19.5002 7.57018ZM20.5002 10.5702C20.5002 10.0179 20.0525 9.57018 19.5002 9.57018L8.25363 9.57018L9.37541 4.52215L9.04188 4.29979L3.89053 8.26236C3.64445 8.45166 3.50024 8.74452 3.50024 9.05499L3.50024 17.1287C3.50024 17.5591 3.77567 17.9412 4.18402 18.0773L10.2751 20.1077C10.7242 20.2574 11.2166 20.0718 11.4551 19.6629L13.864 15.5334C13.9532 15.3804 14.0002 15.2065 14.0002 15.0295V11.5702H19.5002C20.0525 11.5702 20.5002 11.1225 20.5002 10.5702Z" fill="black" fill-opacity="0.9" style="fill:black;fill-opacity:0.9;"/>
</svg>
