<svg width="24" height="24" viewBox="0 0 24 24" fill="none" xmlns="http://www.w3.org/2000/svg">
    <g id="gesture-typing">
        <path id="fill1"
            d="M12.7555 12.02V8.06622C12.7555 7.09659 11.9694 6.31055 10.9998 6.31055C10.0302 6.31055 9.24412 7.09659 9.24412 8.06622V16.8511L5.88164 16.1034C5.5274 16.0246 5.1612 16.1718 4.95999 16.4738L4.41602 17.2903L8.27779 22.3137C8.61032 22.7462 9.12496 22.9997 9.67056 22.9997H16.7561C17.5123 22.9997 18.1837 22.5157 18.4228 21.7982L20.2052 16.4477C20.4679 15.6591 20.1419 14.7943 19.4241 14.3752L15.7994 12.2596C15.5306 12.1027 15.225 12.02 14.9138 12.02H12.7555Z"
            fill="white" />
        <g id="fill2">
            <path
                d="M5 2C5 2.55228 4.55228 3 4 3C3.44772 3 3 2.55228 3 2C3 1.44772 3.44772 1 4 1C4.55228 1 5 1.44772 5 2Z"
                fill="white" />
            <path
                d="M11 3C11.5523 3 12 2.55228 12 2C12 1.44772 11.5523 1 11 1C10.4477 1 10 1.44772 10 2C10 2.55228 10.4477 3 11 3Z"
                fill="white" />
            <path
                d="M19 2C19 2.55228 18.5523 3 18 3C17.4477 3 17 2.55228 17 2C17 1.44772 17.4477 1 18 1C18.5523 1 19 1.44772 19 2Z"
                fill="white" />
            <path
                d="M18 9C18.5523 9 19 8.55228 19 8C19 7.44772 18.5523 7 18 7C17.4477 7 17 7.44772 17 8C17 8.55228 17.4477 9 18 9Z"
                fill="white" />
            <path
                d="M5 8C5 8.55228 4.55228 9 4 9C3.44772 9 3 8.55228 3 8C3 7.44772 3.44772 7 4 7C4.55228 7 5 7.44772 5 8Z"
                fill="white" />
        </g>
        <path id="stroke1"
            d="M9.24412 16.8506V8.06574C9.24412 7.0961 10.0302 6.31006 10.9998 6.31006C11.9694 6.31006 12.7555 7.0961 12.7555 8.06573V12.0195H14.9138C15.0767 12.0195 15.2381 12.0422 15.3935 12.0863C15.5349 12.1264 15.6713 12.1843 15.7994 12.2591L19.4241 14.3748C20.1419 14.7938 20.4679 15.6586 20.2052 16.4472L18.4228 21.7977C18.1837 22.5152 17.5123 22.9992 16.7561 22.9992H9.67056C9.12496 22.9992 8.61032 22.7457 8.27779 22.3132L4.41602 17.2898L4.95999 16.4733C5.1612 16.1713 5.5274 16.0242 5.88164 16.1029L9.24412 16.8506Z"
            stroke="black" stroke-width="2" stroke-linecap="square" />
        <g id="stroke2">
            <path
                d="M5 2C5 2.55228 4.55228 3 4 3C3.44772 3 3 2.55228 3 2C3 1.44772 3.44772 1 4 1C4.55228 1 5 1.44772 5 2Z"
                stroke="black" stroke-width="2" stroke-linecap="square" />
            <path
                d="M11 3C11.5523 3 12 2.55228 12 2C12 1.44772 11.5523 1 11 1C10.4477 1 10 1.44772 10 2C10 2.55228 10.4477 3 11 3Z"
                stroke="black" stroke-width="2" stroke-linecap="square" />
            <path
                d="M19 2C19 2.55228 18.5523 3 18 3C17.4477 3 17 2.55228 17 2C17 1.44772 17.4477 1 18 1C18.5523 1 19 1.44772 19 2Z"
                stroke="black" stroke-width="2" stroke-linecap="square" />
            <path
                d="M18 9C18.5523 9 19 8.55228 19 8C19 7.44772 18.5523 7 18 7C17.4477 7 17 7.44772 17 8C17 8.55228 17.4477 9 18 9Z"
                stroke="black" stroke-width="2" stroke-linecap="square" />
            <path
                d="M5 8C5 8.55228 4.55228 9 4 9C3.44772 9 3 8.55228 3 8C3 7.44772 3.44772 7 4 7C4.55228 7 5 7.44772 5 8Z"
                stroke="black" stroke-width="2" stroke-linecap="square" />
        </g>
    </g>
</svg>