<svg width="24" height="24" viewBox="0 0 24 24" fill="none" xmlns="http://www.w3.org/2000/svg">
<path d="M10.3564 3.30262C10.0438 3.29651 9.77083 3.51295 9.70551 3.81868L7.42495 14.4932L6.2082 15.7099L8.9095 18.4112L10.4367 16.884C10.7949 16.5258 10.9961 16.04 10.9961 15.5334L10.9961 3.95501C10.9961 3.59961 10.7117 3.30957 10.3564 3.30262ZM7.49529 19.8254L4.79399 17.1241L4.15045 17.7677L6.85175 20.469L7.49529 19.8254ZM7.74965 3.40081C8.01517 2.158 9.12488 1.27815 10.3955 1.303C11.0023 1.31487 11.5582 1.52983 11.999 1.88226C12.4397 1.52983 12.9956 1.31487 13.6024 1.303C14.873 1.27815 15.9827 2.158 16.2483 3.40081L18.4053 13.4971L22.6759 17.7677L17.1462 23.2974L12.147 18.2982C12.0961 18.2473 12.0467 18.1952 11.999 18.1418C11.9512 18.1952 11.9018 18.2473 11.8509 18.2982L6.85175 23.2974L1.32202 17.7677L5.59262 13.4971L7.74965 3.40081ZM14.2924 3.81868C14.2271 3.51295 13.9541 3.29651 13.6415 3.30262C13.2862 3.30957 13.0018 3.59961 13.0018 3.95501L13.0018 15.5334C13.0018 16.04 13.203 16.5258 13.5612 16.884L15.0884 18.4112L17.7897 15.7099L16.573 14.4932L14.2924 3.81868ZM19.2039 17.1241L16.5026 19.8254L17.1462 20.469L19.8475 17.7677L19.2039 17.1241Z" fill="black" fill-opacity="0.9" style="fill:black;fill-opacity:0.9;"/>
</svg>
