<svg width="24" height="24" viewBox="0 0 24 24" fill="none" xmlns="http://www.w3.org/2000/svg">
<g id="gesture-left-slip">
<path id="fill1" d="M13.7555 11.52V7.56622C13.7555 6.59659 12.9694 5.81055 11.9998 5.81055C11.0302 5.81055 10.2441 6.59659 10.2441 7.56622V16.3511L6.88164 15.6034C6.5274 15.5246 6.1612 15.6718 5.95999 15.9738L5.41602 16.7903L9.27779 21.8137C9.61032 22.2462 10.125 22.4997 10.6706 22.4997H17.7561C18.5123 22.4997 19.1837 22.0157 19.4228 21.2982L21.2052 15.9477C21.4679 15.1591 21.1419 14.2943 20.4241 13.8752L16.7994 11.7596C16.5306 11.6027 16.225 11.52 15.9138 11.52H13.7555Z" fill="white"/>
<path id="stroke1" d="M13.7555 11.52V7.56622C13.7555 6.59659 12.9694 5.81055 11.9998 5.81055C11.0302 5.81055 10.2441 6.59659 10.2441 7.56622V16.3511L6.88164 15.6034C6.5274 15.5246 6.1612 15.6718 5.95999 15.9738L5.41602 16.7903L9.27779 21.8137C9.61032 22.2462 10.125 22.4997 10.6706 22.4997H17.7561C18.5123 22.4997 19.1837 22.0157 19.4228 21.2982L21.2052 15.9477C21.4679 15.1591 21.1419 14.2943 20.4241 13.8752L16.7994 11.7596C16.5306 11.6027 16.225 11.52 15.9138 11.52H13.7555Z" stroke="black" stroke-width="2" stroke-linecap="square"/>
<path id="stroke2" d="M20.4854 5.51667C15.9571 0.988393 8.71015 0.835708 3.99854 5.05862M3.51274 2.50015L3.51479 6.19982H6.50007" stroke="black" stroke-width="2" stroke-linecap="square"/>
</g>
</svg>
