<svg width="24" height="24" viewBox="0 0 24 24" fill="none" xmlns="http://www.w3.org/2000/svg">
    <path
        d="M2.99991 0.585693L5.41412 2.99991L3.99991 4.41412L1.58569 1.99991L2.99991 0.585693ZM22.4141 1.99991L19.9999 4.41412L18.5857 2.99991L20.9999 0.585693L22.4141 1.99991ZM10.3564 3.30247C10.0438 3.29635 9.77083 3.51279 9.70551 3.81852L7.42495 14.493L6.2082 15.7098L8.9095 18.4111L10.4367 16.8839C10.7949 16.5257 10.9961 16.0398 10.9961 15.5332L10.9961 3.95485C10.9961 3.59946 10.7117 3.30942 10.3564 3.30247ZM7.49529 19.8253L4.79399 17.124L4.15045 17.7675L6.85175 20.4688L7.49529 19.8253ZM7.74965 3.40066C8.01517 2.15785 9.12489 1.27799 10.3955 1.30285C11.0023 1.31472 11.5582 1.52968 11.999 1.88211C12.4397 1.52968 12.9956 1.31472 13.6024 1.30285C14.873 1.27799 15.9827 2.15785 16.2483 3.40066L18.4053 13.4969L22.6759 17.7675L17.1462 23.2972L12.147 18.2981C12.0961 18.2472 12.0467 18.195 11.999 18.1416C11.9512 18.195 11.9018 18.2472 11.8509 18.2981L6.85175 23.2972L1.32202 17.7675L5.59262 13.4969L7.74965 3.40066ZM14.2924 3.81852C14.2271 3.51279 13.9541 3.29635 13.6415 3.30247C13.2862 3.30942 13.0018 3.59946 13.0018 3.95485L13.0018 15.5332C13.0018 16.0398 13.203 16.5257 13.5612 16.8839L15.0884 18.4111L17.7897 15.7098L16.573 14.493L14.2924 3.81852ZM19.2039 17.124L16.5026 19.8253L17.1462 20.4688L19.8475 17.7675L19.2039 17.124ZM5.41412 6.99991L2.99991 9.41412L1.58569 7.99991L3.99991 5.58569L5.41412 6.99991ZM19.9999 5.58569L22.4141 7.99991L20.9999 9.41412L18.5857 6.99991L19.9999 5.58569Z"
        fill="black" />
</svg>