<svg width="24" height="24" viewBox="0 0 24 24" fill="none" xmlns="http://www.w3.org/2000/svg">
    <g id="gesture-open">
        <path id="fill1"
            d="M16.2564 4.27938C16.8165 3.71938 17.7217 3.71056 18.2925 4.2595C18.7307 4.68092 18.8544 5.32192 18.627 5.86688C18.5599 6.02778 18.4691 6.17816 18.3977 6.33724L16.6407 9.9264L19.0815 15.1886L13.2508 16.9735L12.0667 9.91468C11.946 9.43398 12.054 9.43398 11.9333 9.91468L10.7492 16.9735L4.91846 15.1886L7.35928 9.9264L5.60229 6.33724C5.53092 6.17816 5.44014 6.02778 5.373 5.86688C5.1456 5.32192 5.26926 4.68092 5.70747 4.2595C6.27833 3.71056 7.18354 3.71938 7.74355 4.27938L11.2604 7.7971C11.6656 8.20229 11.921 8.72928 11.9909 9.29202C12.0106 9.45095 11.9894 9.45095 12.0091 9.29202C12.079 8.72928 12.3344 8.20229 12.7396 7.7971L16.2564 4.27938Z"
            fill="white" />
        <g id="fill2">
            <path d="M21 20.1458L13.783 20.1456L13.2508 16.9734L19.0815 15.1885L21 15.1887V20.1458Z" fill="white" />
            <path d="M3 20.1458L10.217 20.1456L10.7492 16.9734L4.91846 15.1885L3 15.1887L3 20.1458Z" fill="white" />
        </g>
        <g id="stroke1">
            <path
                d="M5.60229 6.33723L7.35928 9.92643L4.91846 15.1886L10.7492 16.9735L11.9334 9.9147C11.9845 9.71084 12.0168 9.50064 11.9909 9.29206C11.921 8.7293 11.6656 8.20229 11.2604 7.79709L7.74357 4.2794C7.18355 3.71939 6.27836 3.71054 5.70749 4.25949C5.26926 4.6809 5.14561 5.3219 5.37301 5.86686C5.44016 6.02778 5.53091 6.17815 5.60229 6.33723Z"
                stroke="black" stroke-width="2" stroke-linecap="square" />
            <path
                d="M18.3977 6.33723L16.6407 9.92643L19.0815 15.1886L13.2508 16.9735L12.0666 9.9147C12.0155 9.71084 11.9832 9.50064 12.0091 9.29206C12.079 8.7293 12.3344 8.20229 12.7396 7.79709L16.2564 4.2794C16.8164 3.71939 17.7216 3.71054 18.2925 4.25949C18.7307 4.6809 18.8544 5.3219 18.627 5.86686C18.5598 6.02778 18.4691 6.17815 18.3977 6.33723Z"
                stroke="black" stroke-width="2" stroke-linecap="square" />
            <path d="M21 20.1458L13.783 20.1456L13.2508 16.9734L19.0815 15.1885L21 15.1887V20.1458Z" stroke="black"
                stroke-width="2" stroke-linecap="square" />
            <path d="M3 20.1458L10.217 20.1456L10.7492 16.9734L4.91846 15.1885L3 15.1887L3 20.1458Z" stroke="black"
                stroke-width="2" stroke-linecap="square" />
        </g>
    </g>
</svg>