<svg width="24" height="24" viewBox="0 0 24 24" fill="none" xmlns="http://www.w3.org/2000/svg">
    <g clip-path="url(#clip0_101749_96176)">
        <path
            d="M9.86588 2.18609C10.0509 0.948859 11.1181 0 12.4069 0C13.7191 0 14.8015 0.983655 14.9571 2.25382C15.1461 2.20952 15.3431 2.18609 15.5456 2.18609C16.9647 2.18609 18.115 3.33644 18.115 4.75547V5.58561C18.2975 5.54447 18.4873 5.52275 18.6822 5.52275C20.0999 5.52275 21.2493 6.6721 21.2493 8.08989V15C21.2493 19.4183 17.6676 23 13.2493 23H11.8989C8.26334 23 5.08492 20.5486 4.16135 17.0323L2.89295 12.2032C2.55023 10.8984 3.40124 9.58074 4.73154 9.35646C5.45786 9.234 6.18388 9.46825 6.69872 9.9599V4.75547C6.69872 3.33644 7.84908 2.18609 9.26811 2.18609H9.86588ZM9.83749 4.75547C9.83749 4.44101 9.58257 4.18609 9.26811 4.18609C8.95364 4.18609 8.69872 4.44101 8.69872 4.75547V13.5045C8.69872 14.5761 7.26615 14.8779 6.80928 13.9667L5.3691 11.4723C5.30739 11.3654 5.18574 11.3081 5.06404 11.3286C4.89278 11.3575 4.78322 11.5271 4.82734 11.6951L6.09574 16.5242C6.78842 19.1615 9.17223 21 11.8989 21H13.2493C16.563 21 19.2493 18.3137 19.2493 15V8.08989C19.2493 7.77667 18.9954 7.52275 18.6822 7.52275C18.3689 7.52275 18.115 7.77667 18.115 8.08989V12H16.115V4.75547C16.115 4.44101 15.8601 4.18609 15.5456 4.18609C15.2312 4.18609 14.9763 4.44101 14.9763 4.75547V12H12.9763V2.56938C12.9763 2.25492 12.7213 2 12.4069 2C12.0924 2 11.8375 2.25492 11.8375 2.56938V12H9.83749V4.75547Z"
            fill="black" />
    </g>
    <defs>
        <clipPath id="clip0_101749_96176">
            <rect width="24" height="24" fill="white" style="fill:white;fill-opacity:1;" />
        </clipPath>
    </defs>
</svg>