<svg width="24" height="24" viewBox="0 0 24 24" fill="none" xmlns="http://www.w3.org/2000/svg">
    <g clip-path="url(#clip0_101749_96159)">
        <path
            d="M0.498878 0.512451L6.19787 0.515189L6.19787 5.50047L4.19787 5.50047L4.19787 3.40099C1.26738 7.29936 1.26738 12.7016 4.19787 16.6L4.19787 14.5005H6.19787L6.19787 19.4858L0.498152 19.4864L0.497831 17.4864L2.36888 17.4861C-0.78989 13.0113 -0.789628 6.98829 2.36967 2.51373L0.497514 2.51245L0.498878 0.512451ZM10.0068 7.64605C9.79809 7.28462 9.33593 7.16078 8.97449 7.36946C8.61306 7.57813 8.48922 8.04029 8.6979 8.40173L13.7137 17.0894L9.3181 18.4723L9.30647 18.6533L14.5006 20.7993C14.7178 20.8891 14.9644 20.8728 15.1679 20.7553L21.3042 17.2125C21.5863 17.0496 21.7325 16.7245 21.6671 16.4053L20.5355 10.8804C20.4636 10.5296 20.1558 10.2772 19.7977 10.2755L15.6008 10.2556C15.4668 10.255 15.3349 10.29 15.2188 10.357L12.4837 11.9362L10.0068 7.64605ZM7.97449 5.6374C9.29251 4.87645 10.9779 5.32803 11.7388 6.64605L13.2157 9.2041L14.2188 8.62494C14.6418 8.38077 15.122 8.25332 15.6103 8.25564L19.8072 8.27555C21.1116 8.28173 22.2331 9.20125 22.4948 10.4791L23.6265 16.004C23.8646 17.1666 23.3319 18.3512 22.3042 18.9446L16.1679 22.4873C15.4265 22.9154 14.5282 22.9747 13.7369 22.6478L7.21879 19.9548L7.32755 18.2609C7.37728 17.4865 7.89811 16.8224 8.63836 16.5895L10.7349 15.9299L6.96585 9.40173C6.20489 8.08371 6.65647 6.39836 7.97449 5.6374Z"
            fill="black" />
    </g>
    <defs>
        <clipPath id="clip0_101749_96159">
            <rect width="24" height="24" fill="white" style="fill:white;fill-opacity:1;" />
        </clipPath>
    </defs>
</svg>