<svg width="24" height="24" viewBox="0 0 24 24" fill="none" xmlns="http://www.w3.org/2000/svg">
    <path
        d="M4.5 7.56994C2.84315 7.56994 1.5 8.91309 1.5 10.5699C1.5 12.2268 2.84315 13.5699 4.5 13.5699H8V15.0292C8 15.5604 8.14102 16.082 8.40866 16.5409L10.8176 20.6704C11.5331 21.897 13.0105 22.4539 14.3576 22.0048L20.4487 19.9745C21.6737 19.5661 22.5 18.4197 22.5 17.1284V9.05474C22.5 8.12333 22.0674 7.24476 21.3291 6.67687L15.0416 1.84033L13.5154 2.8578C12.8282 3.31596 12.4933 4.14947 12.6725 4.95576L13.2534 7.56994L4.5 7.56994ZM3.5 10.5699C3.5 10.0177 3.94772 9.56994 4.5 9.56994L15.7466 9.56994L14.6248 4.5219L14.9584 4.29954L20.1097 8.26212C20.3558 8.45141 20.5 8.74427 20.5 9.05474V17.1284C20.5 17.5589 20.2246 17.941 19.8162 18.0771L13.7251 20.1075C13.2761 20.2571 12.7836 20.0715 12.5451 19.6627L10.1362 15.5331C10.047 15.3802 10 15.2063 10 15.0292V11.5699H4.5C3.94772 11.5699 3.5 11.1222 3.5 10.5699Z"
        fill="black" />
</svg>