<svg width="24" height="24" viewBox="0 0 24 24" fill="none" xmlns="http://www.w3.org/2000/svg">
    <path
        d="M12.0001 0.5V3.91421H10.0001V0.5H12.0001ZM5.0001 3.08481L7.41432 5.49902L6.0001 6.91324L3.58589 4.49902L5.0001 3.08481ZM18.4143 4.49902L16.0001 6.91324L14.5859 5.49902L17.0001 3.08481L18.4143 4.49902ZM10.9999 6.81C10.5826 6.81 10.2442 7.14833 10.2442 7.56568V17.5973L5.74607 16.5971L5.64547 16.7481L9.0707 21.2037C9.21394 21.39 9.43563 21.4992 9.67066 21.4992H16.7562C17.0819 21.4992 17.3712 21.2907 17.4741 20.9816L19.2565 15.6311C19.3697 15.2914 19.2293 14.9188 18.9201 14.7383L15.2954 12.6226C15.1796 12.5551 15.048 12.5195 14.9139 12.5195H11.7556V7.56568C11.7556 7.14833 11.4172 6.81 10.9999 6.81ZM8.24423 7.56568C8.24423 6.04376 9.47798 4.81 10.9999 4.81C12.5218 4.81 13.7556 6.04376 13.7556 7.56568V10.5195H14.9139C15.4022 10.5195 15.8818 10.6492 16.3036 10.8954L19.9283 13.0111C21.0548 13.6686 21.5663 15.0257 21.154 16.2632L19.3716 21.6137C18.9965 22.7397 17.9429 23.4992 16.7562 23.4992H9.67066C8.81449 23.4992 8.00691 23.1014 7.48509 22.4226L3.18677 16.8313L4.12788 15.4188C4.55816 14.773 5.34128 14.4583 6.0988 14.6267L8.24423 15.1038V7.56568Z"
        fill="black" />
</svg>