<svg width="24" height="24" viewBox="0 0 24 24" fill="none" xmlns="http://www.w3.org/2000/svg">
<path d="M7.24999 4.5C7.24999 2.84315 8.59314 1.5 10.25 1.5C11.9068 1.5 13.25 2.84315 13.25 4.5V8H14.7093C15.2405 8 15.7621 8.14103 16.2209 8.40866L20.3505 10.8176C21.577 11.5331 22.1339 13.0105 21.6849 14.3576L19.6545 20.4487C19.2462 21.6737 18.0998 22.5 16.8085 22.5H8.7348C7.80339 22.5 6.92481 22.0674 6.35692 21.3291L1.52039 15.0416L2.53786 13.5154C2.99602 12.8282 3.82952 12.4933 4.63582 12.6725L7.24999 13.2534V4.5ZM10.25 3.5C9.69771 3.5 9.24999 3.94772 9.24999 4.5V15.7466L4.20196 14.6248L3.9796 14.9584L7.94217 20.1097C8.13147 20.3558 8.42433 20.5 8.7348 20.5H16.8085C17.2389 20.5 17.621 20.2246 17.7572 19.8162L19.7875 13.7251C19.9372 13.2761 19.7516 12.7836 19.3427 12.5451L15.2132 10.1362C15.0602 10.047 14.8863 10 14.7093 10H11.25V4.5C11.25 3.94772 10.8023 3.5 10.25 3.5Z" fill="black" fill-opacity="0.9" style="fill:black;fill-opacity:0.9;"/>
</svg>
