<svg width="24" height="24" viewBox="0 0 24 24" fill="none" xmlns="http://www.w3.org/2000/svg">
<path d="M7.57018 19.5C7.57018 21.1569 8.91333 22.5 10.5702 22.5C12.227 22.5 13.5702 21.1569 13.5702 19.5V16H15.0295C15.5606 16 16.0823 15.859 16.5411 15.5913L20.6706 13.1824C21.8972 12.4669 22.4541 10.9895 22.0051 9.64242L19.9747 3.55132C19.5664 2.32629 18.42 1.5 17.1287 1.5H9.05499C8.12358 1.5 7.245 1.93261 6.67711 2.67087L1.84058 8.95837L2.85805 10.4846C3.31621 11.1718 4.14971 11.5067 4.95601 11.3275L7.57018 10.7466V19.5ZM10.5702 20.5C10.0179 20.5 9.57018 20.0523 9.57018 19.5V8.25338L4.52215 9.37517L4.29979 9.04163L8.26236 3.89029C8.45166 3.6442 8.74452 3.5 9.05499 3.5H17.1287C17.5591 3.5 17.9412 3.77543 18.0773 4.18377L20.1077 10.2749C20.2574 10.7239 20.0718 11.2164 19.6629 11.4549L15.5334 13.8638C15.3804 13.953 15.2065 14 15.0295 14H11.5702V19.5C11.5702 20.0523 11.1225 20.5 10.5702 20.5Z" fill="black" fill-opacity="0.9" style="fill:black;fill-opacity:0.9;"/>
</svg>
