<svg width="24" height="24" viewBox="0 0 24 24" fill="none" xmlns="http://www.w3.org/2000/svg">
    <path
        d="M11.0001 2.5C13.7615 2.5 16.0001 4.73858 16.0001 7.5C16.0001 8.63542 15.6226 9.68101 14.9851 10.5204C14.9614 10.5198 14.9377 10.5195 14.9139 10.5195H13.7556V7.56574C13.7556 6.04382 12.5218 4.81006 10.9999 4.81006C9.47798 4.81006 8.24423 6.04382 8.24423 7.56574V11.6729C6.89154 10.7776 6.0001 9.24213 6.0001 7.5C6.0001 4.73858 8.23868 2.5 11.0001 2.5ZM16.9116 11.2503C17.6005 10.1663 18.0001 8.87917 18.0001 7.5C18.0001 3.63401 14.8661 0.5 11.0001 0.5C7.13411 0.5 4.0001 3.63401 4.0001 7.5C4.0001 10.3886 5.74917 12.8666 8.24423 13.9363V15.1038L6.0988 14.6268C5.34128 14.4583 4.55816 14.7731 4.12788 15.4189L3.18677 16.8314L7.48509 22.4227C8.00691 23.1014 8.81449 23.4993 9.67066 23.4993H16.7562C17.9429 23.4993 18.9965 22.7397 19.3716 21.6138L21.154 16.2633C21.5663 15.0257 21.0548 13.6687 19.9283 13.0111L16.9116 11.2503ZM10.9999 6.81006C11.4172 6.81006 11.7556 7.14839 11.7556 7.56574V12.5195H14.9139C14.9841 12.5195 15.0536 12.5293 15.1205 12.5483C15.1815 12.5656 15.2402 12.5905 15.2954 12.6227L18.9201 14.7384C19.2293 14.9189 19.3697 15.2914 19.2565 15.6311L17.4741 20.9817C17.3712 21.2908 17.0819 21.4993 16.7562 21.4993H9.67066C9.43563 21.4993 9.21394 21.39 9.0707 21.2037L5.64547 16.7482L5.74607 16.5972L10.2442 17.5974V7.56574C10.2442 7.14839 10.5826 6.81006 10.9999 6.81006Z"
        fill="black" />
</svg>