<svg width="24" height="24" viewBox="0 0 24 24" fill="none" xmlns="http://www.w3.org/2000/svg">
<g clip-path="url(#clip0_101749_96165)">
<path d="M0.498877 1.51245L6.19787 1.51519V6.50047H4.19787V4.40099C0.958594 8.71012 1.29991 14.8567 5.22183 18.7786L5.92893 19.4858L4.51472 20.9L3.80761 20.1929C-0.733326 15.6519 -1.21264 8.58741 2.36967 3.51373L0.497514 3.51245L0.498877 1.51245Z" fill="black" fill-opacity="0.9" style="fill:black;fill-opacity:0.9;"/>
<path d="M10.0068 8.64621C9.79809 8.28477 9.33593 8.16094 8.97449 8.36961C8.61306 8.57828 8.48922 9.04045 8.6979 9.40188L13.7137 18.0895L9.3181 19.4724L9.30647 19.6535L14.5006 21.7995C14.7178 21.8892 14.9644 21.873 15.1679 21.7554L21.3042 18.2127C21.5863 18.0498 21.7325 17.7246 21.6671 17.4055L20.5355 11.8806C20.4636 11.5298 20.1558 11.2774 19.7977 11.2757L15.6008 11.2558C15.4668 11.2551 15.3349 11.2901 15.2188 11.3571L12.4837 12.9363L10.0068 8.64621ZM7.97449 6.63756C9.29251 5.8766 10.9779 6.32819 11.7388 7.64621L13.2157 10.2043L14.2188 9.6251C14.6418 9.38092 15.122 9.25348 15.6103 9.25579L19.8072 9.2757C21.1116 9.28189 22.2331 10.2014 22.4948 11.4793L23.6265 17.0042C23.8646 18.1668 23.3319 19.3514 22.3042 19.9447L16.1679 23.4875C15.4265 23.9156 14.5282 23.9749 13.7369 23.6479L7.21879 20.9549L7.32755 19.2611C7.37728 18.4866 7.89811 17.8225 8.63836 17.5896L10.7349 16.9301L6.96585 10.4019C6.20489 9.08387 6.65647 7.39852 7.97449 6.63756Z" fill="black" fill-opacity="0.9" style="fill:black;fill-opacity:0.9;"/>
</g>
<defs>
<clipPath id="clip0_101749_96165">
<rect width="24" height="24" fill="white" style="fill:white;fill-opacity:1;"/>
</clipPath>
</defs>
</svg>
