<svg width="24" height="24" viewBox="0 0 24 24" fill="none" xmlns="http://www.w3.org/2000/svg">
<g id="gesture-wipe-down">
<path id="fill1" d="M7.83219 7.90139L12.2246 15.5093L8.93878 16.543C8.59262 16.6519 8.34907 16.9625 8.32581 17.3246L8.26295 18.3037L14.119 20.7232C14.6233 20.9315 15.1957 20.8938 15.6683 20.621L21.8045 17.0782C22.4594 16.7001 22.7989 15.9452 22.6471 15.2043L21.5155 9.67942C21.3487 8.8651 20.634 8.27914 19.8028 8.27519L15.6059 8.25528C15.2947 8.25381 14.9887 8.33502 14.7192 8.49062L12.85 9.56979L10.8731 6.14571C10.3883 5.30598 9.31454 5.01827 8.47481 5.50309C7.63508 5.9879 7.34737 7.06166 7.83219 7.90139Z" fill="white"/>
<path id="stroke1" d="M7.83219 7.90139L12.2246 15.5093L8.93878 16.543C8.59262 16.6519 8.34907 16.9625 8.32581 17.3246L8.26295 18.3037L14.119 20.7232C14.6233 20.9315 15.1957 20.8938 15.6683 20.621L21.8045 17.0782C22.4594 16.7001 22.7989 15.9452 22.6471 15.2043L21.5155 9.67942C21.3487 8.8651 20.634 8.27914 19.8028 8.27519L15.6059 8.25528C15.2947 8.25381 14.9887 8.33502 14.7192 8.49062L12.85 9.56979L10.8731 6.14571C10.3883 5.30598 9.31454 5.01827 8.47481 5.50309C7.63508 5.9879 7.34737 7.06166 7.83219 7.90139Z" stroke="black" stroke-width="2" stroke-linecap="square"/>
<path id="stroke2" d="M4.05448 19C-0.166192 14.2883 -0.0127785 7.04312 4.51472 2.51562M1.49799 19.4867L5.19787 19.4862L5.19787 16.5009" stroke="black" stroke-width="2" stroke-linecap="square"/>
</g>
</svg>
