<svg width="24" height="24" viewBox="0 0 24 24" fill="none" xmlns="http://www.w3.org/2000/svg">
<g id="gift">
<path id="fill1" d="M22 15L22 7L2 7L2 15L22 15Z" fill="white"/>
<path id="fill2" d="M22 21L22 15L2 15L2 21L22 21Z" fill="white"/>
<path id="stroke1" d="M22 21L2 21M22 21V7L2 7L2 21M22 21V15L2 15L2 21" stroke="black" stroke-width="2" stroke-linecap="square"/>
<path id="stroke2" d="M12 4C12 5.65685 10.6569 7 9 7C7.34315 7 6 5.65685 6 4C6 2.34315 7.34315 1 9 1C10.6569 1 12 2.34315 12 4ZM12 4C12 5.65685 13.3431 7 15 7C16.6569 7 18 5.65685 18 4C18 2.34315 16.6569 1 15 1C13.3431 1 12 2.34315 12 4ZM8 11L12 7L16 11" stroke="black" stroke-width="2" stroke-linecap="square"/>
</g>
</svg>
