<svg width="16" height="16" viewBox="0 0 16 16" fill="none" xmlns="http://www.w3.org/2000/svg">
<path fill-rule="evenodd" clip-rule="evenodd" d="M5.5 0.5C6.47934 0.5 7.36474 0.902234 8 1.55051C8.63526 0.902234 9.52066 0.5 10.5 0.5C12.433 0.5 14 2.067 14 4C14 4.5368 13.8792 5.04537 13.6632 5.5H15V15.5H1V5.5H2.33682C2.12085 5.04537 2 4.5368 2 4C2 2.067 3.567 0.5 5.5 0.5ZM7 5.5H5.5C4.67157 5.5 4 4.82843 4 4C4 3.17157 4.67157 2.5 5.5 2.5C6.32843 2.5 7 3.17157 7 4V5.5ZM7 7.5H3V13.5H13V7.5H9V10.5H7V7.5ZM12 4C12 4.82843 11.3284 5.5 10.5 5.5H9V4C9 3.17157 9.67157 2.5 10.5 2.5C11.3284 2.5 12 3.17157 12 4Z" fill="black"/>
</svg>
