<svg width="24" height="24" viewBox="0 0 24 24" fill="none" xmlns="http://www.w3.org/2000/svg">
<g id="git-merge">
<g id="fill1">
<path d="M8 6C8 7.38071 6.88071 8.5 5.5 8.5C4.11929 8.5 3 7.38071 3 6C3 4.61929 4.11929 3.5 5.5 3.5C6.88071 3.5 8 4.61929 8 6Z" fill="white"/>
<path d="M21 18C21 19.3807 19.8807 20.5 18.5 20.5C17.1193 20.5 16 19.3807 16 18C16 16.6193 17.1193 15.5 18.5 15.5C19.8807 15.5 21 16.6193 21 18Z" fill="white"/>
<path d="M8 18C8 19.3807 6.88071 20.5 5.5 20.5C4.11929 20.5 3 19.3807 3 18C3 16.6193 4.11929 15.5 5.5 15.5C6.88071 15.5 8 16.6193 8 18Z" fill="white"/>
</g>
<path id="stroke1" d="M18.5 15.5V14.5C18.5 12.8431 17.1569 11.5 15.5 11.5H8.5C6.84315 11.5 5.5 10.1569 5.5 8.5M18.5 15.5C17.1193 15.5 16 16.6193 16 18C16 19.3807 17.1193 20.5 18.5 20.5C19.8807 20.5 21 19.3807 21 18C21 16.6193 19.8807 15.5 18.5 15.5ZM5.5 8.5C6.88071 8.5 8 7.38071 8 6C8 4.61929 6.88071 3.5 5.5 3.5C4.11929 3.5 3 4.61929 3 6C3 7.38071 4.11929 8.5 5.5 8.5ZM5.5 9V15M8 18C8 19.3807 6.88071 20.5 5.5 20.5C4.11929 20.5 3 19.3807 3 18C3 16.6193 4.11929 15.5 5.5 15.5C6.88071 15.5 8 16.6193 8 18Z" stroke="black" stroke-width="2" stroke-linecap="square"/>
</g>
</svg>
