<svg width="24" height="24" viewBox="0 0 24 24" fill="none" xmlns="http://www.w3.org/2000/svg">
    <g id="git-branch">
        <g id="fill1">
            <path
                d="M21 6C21 4.61929 19.8807 3.5 18.5 3.5C17.1193 3.5 16 4.61929 16 6C16 7.38071 17.1193 8.5 18.5 8.5C19.8807 8.5 21 7.38071 21 6Z"
                fill="white" />
            <path
                d="M8 6C8 4.61929 6.88071 3.5 5.5 3.5C4.11929 3.5 3 4.61929 3 6C3 7.38071 4.11929 8.5 5.5 8.5C6.88071 8.5 8 7.38071 8 6Z"
                fill="white" />
            <path
                d="M8 18C8 16.6193 6.88071 15.5 5.5 15.5C4.11929 15.5 3 16.6193 3 18C3 19.3807 4.11929 20.5 5.5 20.5C6.88071 20.5 8 19.3807 8 18Z"
                fill="white" />
        </g>
        <path id="stroke1"
            d="M5.5 15V9M18.5 8.5V9.5C18.5 11.1569 17.1569 12.5 15.5 12.5H8.5C6.84315 12.5 5.5 13.8431 5.5 15.5M18.5 8.5C17.1193 8.5 16 7.38071 16 6C16 4.61929 17.1193 3.5 18.5 3.5C19.8807 3.5 21 4.61929 21 6C21 7.38071 19.8807 8.5 18.5 8.5ZM5.5 15.5C6.88071 15.5 8 16.6193 8 18C8 19.3807 6.88071 20.5 5.5 20.5C4.11929 20.5 3 19.3807 3 18C3 16.6193 4.11929 15.5 5.5 15.5ZM8 6C8 4.61929 6.88071 3.5 5.5 3.5C4.11929 3.5 3 4.61929 3 6C3 7.38071 4.11929 8.5 5.5 8.5C6.88071 8.5 8 7.38071 8 6Z"
            stroke="black" stroke-width="2" stroke-linecap="square" />
    </g>
</svg>