<svg width="24" height="24" viewBox="0 0 24 24" fill="none" xmlns="http://www.w3.org/2000/svg">
    <g id="gps">
        <path id="fill2" d="M11.9471 17.6953L15.0004 21.9988H8.89453L11.9471 17.6953Z" fill="white" />
        <path id="stroke1"
            d="M19.3369 18.7482C20.9779 16.9695 21.9804 14.5928 21.9804 11.9819C21.9804 6.46959 17.5118 2.00098 11.9995 2.00098C6.48716 2.00098 2.01855 6.46959 2.01855 11.9819C2.01855 14.5928 3.02103 16.9695 4.66207 18.7482M16.0433 15.7286C16.9476 14.7484 17.5 13.4387 17.5 12C17.5 8.96244 15.0376 6.5 12 6.5C8.96243 6.5 6.5 8.96244 6.5 12C6.5 13.4387 7.05242 14.7484 7.95672 15.7286M11.9471 17.6953L15.0004 21.9988H8.89453L11.9471 17.6953ZM13 12C13 12.5523 12.5523 13 12 13C11.4477 13 11 12.5523 11 12C11 11.4477 11.4477 11 12 11C12.5523 11 13 11.4477 13 12Z"
            stroke="black" stroke-width="2" stroke-linecap="square" />
    </g>
</svg>