<svg width="16" height="16" viewBox="0 0 16 16" fill="none" xmlns="http://www.w3.org/2000/svg">
<path fill-rule="evenodd" clip-rule="evenodd" d="M2.21284 2.83687C3.79057 1.25914 6.25806 1.11347 8.00009 2.39985C9.74212 1.11347 12.2096 1.25914 13.7873 2.83687C15.5256 4.57508 15.5256 7.39329 13.7873 9.13151L8.00009 14.9188L2.21284 9.13151C0.474625 7.39329 0.474625 4.57508 2.21284 2.83687ZM6.96471 4.37965C6.07854 3.49348 4.64179 3.49348 3.75562 4.37965C2.86946 5.26581 2.86946 6.70257 3.75562 7.58873L8.00009 11.8332L12.2446 7.58873C13.1307 6.70257 13.1307 5.26581 12.2446 4.37965C11.3584 3.49348 9.92164 3.49348 9.03547 4.37964L8.00009 5.41503L6.96471 4.37965Z" fill="black" fill-opacity="0.9"/>
</svg>
