<svg width="24" height="24" viewBox="0 0 24 24" fill="none" xmlns="http://www.w3.org/2000/svg">
<path d="M12.0001 21C16.9707 21 21.0001 16.9706 21.0001 12C21.0001 7.02944 16.9707 3 12.0001 3C7.02956 3 3.00012 7.02944 3.00012 12C3.00012 16.9706 7.02956 21 12.0001 21ZM23.0001 12C23.0001 18.0751 18.0753 23 12.0001 23C5.92499 23 1.00012 18.0751 1.00012 12C1.00012 5.92487 5.92499 0.999999 12.0001 1C18.0753 1 23.0001 5.92487 23.0001 12ZM13.004 18.2539L11.0001 18.2539L11.0001 16.25H13.004L13.004 18.2539ZM11.0003 15.25V14C11.0003 13.1334 11.3905 12.4265 11.8266 11.8902C12.2583 11.3592 12.8005 10.9159 13.2366 10.5723C13.7035 10.2045 14.0003 9.63718 14.0003 9C14.0003 7.89543 13.1049 7 12.0003 7C11.1311 7 10.3889 7.5551 10.1139 8.33325L9.78061 9.27609L7.89493 8.60959L8.22818 7.66675C8.77682 6.11451 10.2571 5 12.0003 5C14.2095 5 16.0003 6.79086 16.0003 9C16.0003 10.2759 15.4018 11.4125 14.4743 12.1433C14.0427 12.4834 13.6574 12.8088 13.3784 13.1519C13.1038 13.4896 13.0003 13.762 13.0003 14V15.25H11.0003Z" fill="black" fill-opacity="0.9" style="fill:black;fill-opacity:0.9;"/>
</svg>
