<svg viewBox="0 0 48 48" version="1.1" xmlns="http://www.w3.org/2000/svg"><path  fill-rule="evenodd" d="M24,3 C35.5979797,3 45,12.4020203 45,24 C45,35.5979797 35.5979797,45 24,45 C12.4020203,45 3,35.5979797 3,24 C3,12.4020203 12.4020203,3 24,3 Z M23.2516556,31.2857143 C22.589404,31.2857143 21.9933775,31.4835165 21.5298013,31.9450549 C21.0662252,32.3736264 20.8344371,32.9340659 20.8344371,33.6263736 C20.8344371,34.2857143 21.0662252,34.8461538 21.5298013,35.3076923 C21.9933775,35.7692308 22.589404,36 23.2516556,36 C23.9139073,36 24.5099338,35.7692308 24.9735099,35.3406593 C25.4370861,34.8791209 25.7019868,34.3186813 25.7019868,33.6263736 C25.7019868,32.9340659 25.4701987,32.3736264 25.0066225,31.9450549 C24.5430464,31.4835165 23.9470199,31.2857143 23.2516556,31.2857143 Z M23.8476821,12 C21.397351,12 19.4768212,12.6923077 18.0860927,14.1098901 C16.6953642,15.4945055 16,17.3736264 16,19.7802198 L19.4768212,19.7802198 C19.4768212,18.3296703 19.7748344,17.2087912 20.3708609,16.4175824 C21.0331126,15.4615385 22.1258278,15 23.615894,15 C24.807947,15 25.7682119,15.3296703 26.4304636,15.989011 C27.0596026,16.6483516 27.3907285,17.5384615 27.3907285,18.6923077 C27.3907285,19.5494505 27.0596026,20.3406593 26.4635762,21.0989011 L25.9006623,21.7252747 C23.8476821,23.5384615 22.589404,24.8901099 22.1589404,25.8131868 C21.6953642,26.6703297 21.4966887,27.7252747 21.4966887,28.9450549 L21.4966887,29.5054945 L25.0397351,29.5054945 L25.0397351,28.9450549 C25.0397351,28.1538462 25.205298,27.4285714 25.5695364,26.7692308 C25.8675497,26.1758242 26.3311258,25.5824176 26.9602649,25.0549451 C28.5165563,23.7032967 29.4437086,22.8461538 29.7417219,22.4835165 C30.5695364,21.4285714 31,20.0769231 31,18.4615385 C31,16.4835165 30.3377483,14.9010989 29.013245,13.7472527 C27.6887417,12.5604396 25.9668874,12 23.8476821,12 Z"/></svg>