<svg width="24" height="24" viewBox="0 0 24 24" fill="none" xmlns="http://www.w3.org/2000/svg">
<g id="help-circle">
<path id="fill1" d="M2 12C2 6.47715 6.47715 2 12 2C17.5228 2 22 6.47715 22 12C22 17.5228 17.5228 22 12 22C6.47715 22 2 17.5228 2 12Z" fill="white"/>
<path id="stroke1" d="M2 12C2 6.47715 6.47715 2 12 2C17.5228 2 22 6.47715 22 12C22 17.5228 17.5228 22 12 22C6.47715 22 2 17.5228 2 12Z" stroke="black" stroke-width="2" stroke-linecap="square"/>
<path id="stroke2" d="M12.0002 14.25V14C12.0002 12.8954 12.9877 12.0414 13.8553 11.3578C14.5525 10.8085 15.0002 9.95652 15.0002 9C15.0002 7.34315 13.657 6 12.0002 6C10.694 6 9.58273 6.83481 9.1709 8M12.0002 17.25H12.0041V17.2539H12.0002V17.25Z" stroke="black" stroke-width="2" stroke-linecap="square"/>
</g>
</svg>
