<svg width="24" height="24" viewBox="0 0 24 24" fill="none" xmlns="http://www.w3.org/2000/svg">
<path d="M12.9956 21.0028L10.9956 20.997L10.9956 18.991H13.0074L12.9956 21.0028ZM10.9959 17.4467V15.0681C10.9959 13.9172 11.5132 12.9582 12.1321 12.1969C12.7467 11.441 13.5277 10.7998 14.1871 10.2803C15.0129 9.62963 15.5402 8.6238 15.5402 7.49424C15.5402 5.53678 13.9533 3.94995 11.9959 3.94995C10.4542 3.94995 9.14004 4.93478 8.65301 6.31272L8.31976 7.25556L6.43408 6.58907L6.76733 5.64623C7.52796 3.49419 9.5803 1.94995 11.9959 1.94995C15.0579 1.94995 17.5402 4.43221 17.5402 7.49424C17.5402 9.26249 16.7113 10.8377 15.4248 11.8513C14.7699 12.3673 14.1458 12.8906 13.684 13.4586C13.2265 14.0213 12.9959 14.5458 12.9959 15.0681V17.4467H10.9959Z" fill="black" fill-opacity="0.9" style="fill:black;fill-opacity:0.9;"/>
</svg>
