<svg viewBox="0 0 1024 1024" version="1.1" xmlns="http://www.w3.org/2000/svg"><path fill-opacity=".9" fill-rule="evenodd" d="M512 96C741.7504576 96 928 282.24954432 928 512 928 741.7504576 741.7504576 928 512 928 282.24954432 928 96 741.7504576 96 512 96 282.24954432 282.24954432 96 512 96ZM544 672L480 672 480 736 544 736 544 672ZM511.94934848 316.79357824C455.376064 315.90376256 403.89780352 354.22768704 388.246704 407.6169056 385.3298528 417.56690432 384 431.38724224 384 442.58695936L384 442.58695936 448.25864064 442.58695936 448.4281024 436.88934272C448.7590048 430.9195872 449.55016384 424.503648 450.58499584 420.97361536 459.7961696 389.55235008 478.19034496 380.3909248 512 380.3909248 547.8533504 380.3909248 575.80742976 397.67644416 576.43752576 442.25242048 576.87187904 472.9806432 572.34315648 486.03252928 539.69683072 517.6924928L539.69683072 517.6924928 529.43594048 527.7943712C493.105152 564.48261312 479.84877568 594.00480064 479.84877568 640L479.84877568 640 544.14543296 639.97426496 544.33294784 632.61727168C545.85718848 604.2392832 550.12829504 587.77674496 581.23240896 557.61406016L581.23240896 557.61406016 591.32161984 547.68326784C626.86304896 511.80632384 640.6040192 486.41802816 639.97972736 442.25242048 638.94855808 369.30255552 580.86566208 317.87753152 511.94934848 316.79357824Z"/></svg>