<svg width="16" height="16" viewBox="0 0 16 16" fill="none" xmlns="http://www.w3.org/2000/svg">
<path fill-rule="evenodd" clip-rule="evenodd" d="M8 16C12.4183 16 16 12.4183 16 8C16 3.58172 12.4183 -3.13124e-07 8 -6.99382e-07C3.58172 -1.08564e-06 1.08564e-06 3.58172 6.99382e-07 8C3.13124e-07 12.4183 3.58172 16 8 16ZM8 2C11.309 2 14 4.691 14 8C14 11.309 11.309 14 8 14C4.691 14 2 11.309 2 8C2 4.691 4.691 2 8 2ZM9 12.7367L9 11.2367L7 11.2367L7 12.7367L9 12.7367ZM7.99998 3.2998C7.47338 3.29981 6.95605 3.43843 6.5 3.70173C6.04395 3.96503 5.66525 4.34373 5.40194 4.79977C5.13864 5.25581 5.00001 5.77313 5 6.29973L7 6.29973L7.007 6.18273C7.065 5.68573 7.488 5.29873 8 5.29873C8.551 5.29873 9 5.74773 9 6.29873C9 6.84973 8.578 7.22073 8 7.37773L8 7.39173L7.869 7.44573C7.357 7.68273 7 8.19673 7 8.79873L7 10.1737L9 10.1737L9 9.11573L9.176 9.04773C9.71602 8.81903 10.1769 8.43659 10.5012 7.94798C10.8255 7.45937 10.999 6.88617 11 6.29973C11 5.77313 10.8614 5.2558 10.598 4.79976C10.3347 4.34371 9.95602 3.96501 9.49997 3.70171C9.04391 3.43841 8.52658 3.2998 7.99998 3.2998Z" fill="black" fill-opacity="0.9"/>
</svg>
