<svg width="16" height="16" viewBox="0 0 16 16" fill="none" xmlns="http://www.w3.org/2000/svg">
<path fill-rule="evenodd" clip-rule="evenodd" d="M0 8C0 12.4183 3.58172 16 8 16C12.4183 16 16 12.4183 16 8C16 3.58172 12.4183 0 8 0C3.58172 0 0 3.58172 0 8ZM9 12.7367V11.2367H7V12.7367H9ZM7.99998 3.2998C7.47338 3.29981 6.95605 3.43843 6.5 3.70173C6.04395 3.96503 5.66525 4.34373 5.40194 4.79977C5.13864 5.25581 5.00001 5.77313 5 6.29973H7L7.007 6.18273C7.065 5.68573 7.488 5.29873 8 5.29873C8.551 5.29873 9 5.74773 9 6.29873C9 6.84973 8.578 7.22073 8 7.37773V7.39173L7.869 7.44573C7.357 7.68273 7 8.19673 7 8.79873V10.1737H9V9.11573L9.176 9.04773C9.71602 8.81903 10.1769 8.43659 10.5012 7.94798C10.8255 7.45937 10.999 6.88617 11 6.29973C11 5.77312 10.8614 5.2558 10.598 4.79976C10.3347 4.34371 9.95602 3.965 9.49997 3.70171C9.04391 3.43841 8.52658 3.2998 7.99998 3.2998Z" fill="#1A1A1A"/>
</svg>
