<svg width="24" height="24" viewBox="0 0 24 24" fill="none" xmlns="http://www.w3.org/2000/svg">
<path d="M12 3.5C10.5415 3.5 9.17158 3.86651 7.97435 4.51164C6.66995 5.21451 5.5701 6.24843 4.78739 7.5H8.49998V9.5H1.49998V2.5H3.49998V5.83442C4.42579 4.56009 5.63097 3.50248 7.02562 2.75098C8.50718 1.95264 10.2022 1.5 12 1.5C17.799 1.5 22.5 6.20101 22.5 12V13H20.5V12C20.5 7.30558 16.6944 3.5 12 3.5ZM13 6V11.5858L14.6642 13.25L13.25 14.6642L11 12.4142V6H13ZM3.44251 11.9014L3.54656 12.896C3.99354 17.1687 7.60839 20.5 12 20.5H13V22.5H12C6.57365 22.5 2.10982 18.3846 1.55741 13.104L1.45337 12.1095L3.44251 11.9014ZM19.5 14.0046V15.145C20.033 15.3037 20.5128 15.5859 20.9062 15.9584L21.8951 15.3875L22.8951 17.1195L21.9059 17.6906C21.9674 17.9504 22 18.2215 22 18.5001C22 18.7802 21.9671 19.0525 21.9049 19.3136L22.8951 19.8853L21.8951 21.6173L20.9032 21.0446C20.5104 21.4158 20.0316 21.6969 19.5 21.8551V23.0001H17.5V21.8551C16.9683 21.6969 16.4895 21.4157 16.0967 21.0446L15.1048 21.6172L14.1048 19.8852L15.095 19.3135C15.0329 19.0525 15 18.7801 15 18.5001C15 18.2215 15.0325 17.9505 15.094 17.6907L14.1048 17.1196L15.1048 15.3876L16.0937 15.9585C16.4871 15.5859 16.9669 15.3037 17.5 15.145V14.0046H19.5ZM18.5 17.0001C17.6716 17.0001 17 17.6717 17 18.5001C17 19.3285 17.6716 20.0001 18.5 20.0001C19.3284 20.0001 20 19.3285 20 18.5001C20 17.6717 19.3284 17.0001 18.5 17.0001Z" fill="black" fill-opacity="0.9" style="fill:black;fill-opacity:0.9;"/>
</svg>
