<svg width="24" height="24" viewBox="0 0 24 24" fill="none" xmlns="http://www.w3.org/2000/svg">
    <path
        d="M22.5002 12C22.5002 6.20101 17.7992 1.5 12.0002 1.5C10.2025 1.5 8.50743 1.95264 7.02586 2.75098C5.63121 3.50248 4.42604 4.56009 3.50023 5.83442V2.5H1.50023V9.5H8.50023V7.5H4.78763C5.57034 6.24843 6.67019 5.21451 7.97459 4.51164C9.17182 3.86651 10.5417 3.5 12.0002 3.5C16.6946 3.5 20.5002 7.30558 20.5002 12C20.5002 16.6944 16.6946 20.5 12.0002 20.5C7.60863 20.5 3.99379 17.1687 3.5468 12.896L3.44276 11.9014L1.45361 12.1095L1.55766 13.104C2.11007 18.3846 6.57389 22.5 12.0002 22.5C17.7992 22.5 22.5002 17.799 22.5002 12ZM11.0002 6V12.4142L14.5002 15.9142L15.9144 14.5L13.0002 11.5858V6H11.0002Z"
        fill="black" />
</svg>