<svg width="16" height="16" viewBox="0 0 16 16" fill="none" xmlns="http://www.w3.org/2000/svg">
<path fill-rule="evenodd" clip-rule="evenodd" d="M2 1L2 2.70864C3.46589 1.04763 5.61073 4.63169e-07 8.00025 2.5427e-07C12.4185 -1.31988e-07 16.0003 3.58172 16.0003 8C16.0003 12.4183 12.4185 16 8.00025 16C3.7499 16 0.273722 12.6854 0.0156243 8.5L2.02079 8.5C2.27487 11.5798 4.85492 14 8.00025 14C11.314 14 14.0003 11.3137 14.0003 8C14.0003 4.68629 11.314 2 8.00025 2C5.99273 2 4.21548 2.98593 3.1263 4.5L5 4.5L5 6.5L-8.30516e-07 6.5L-1.31134e-06 1L2 1ZM9 7.58579L9 4.5L7 4.5L7 8.41421L10 11.4142L11.4142 10L9 7.58579Z" fill="black" fill-opacity="0.9"/>
</svg>
