<svg width="24" height="24" viewBox="0 0 24 24" fill="none" xmlns="http://www.w3.org/2000/svg">
<g id="hospital">
<path id="fill1" d="M6 9V3H18V9H21V21H3V9H6Z" fill="white"/>
<g id="fill2">
<path d="M10 21V15H14V21H10Z" fill="white"/>
</g>
<g id="stroke2">
<path d="M10 8H12M12 8H14M12 8V6M12 8V10M10 15V21H14V15H10Z" stroke="black" stroke-width="2" stroke-linecap="square"/>
</g>
<path id="stroke1" d="M5 3C5.34388 3 5.67667 3 6 3M19 3C18.6561 3 18.3233 3 18 3M6 3V9C4.82099 9 4.52489 9 3 9V21H21V9C19.9327 9 18.9408 9 18 9V3M6 3C9.75964 3 14.2404 3 18 3" stroke="black" stroke-width="2" stroke-linecap="square"/>
</g>
</svg>
