<svg width="24" height="24" viewBox="0 0 24 24" fill="none" xmlns="http://www.w3.org/2000/svg">
<path d="M4 2.00024H20V5.00024C20 8.01227 18.3354 10.6355 15.876 12.0002C18.3354 13.365 20 15.9882 20 19.0002V22.0002H4V19.0002C4 15.9882 5.66458 13.365 8.12399 12.0002C5.66458 10.6355 4 8.01227 4 5.00024V2.00024ZM12 13.0002C8.68629 13.0002 6 15.6865 6 19.0002V20.0002H18V19.0002C18 15.6865 15.3137 13.0002 12 13.0002ZM6 4.00024V5.00024C6 8.31395 8.68629 11.0002 12 11.0002C15.3137 11.0002 18 8.31395 18 5.00024V4.00024H6Z" fill="black" fill-opacity="0.9" style="fill:black;fill-opacity:0.9;"/>
</svg>
