<svg width="24" height="24" viewBox="0 0 24 24" fill="none" xmlns="http://www.w3.org/2000/svg">
<g id="https">
<path id="fill1" d="M4.5 10H19.5V21H4.5V10Z" fill="white"/>
<path id="fill2" d="M13 15.5C13 16.0523 12.5523 16.5 12 16.5C11.4477 16.5 11 16.0523 11 15.5C11 14.9477 11.4477 14.5 12 14.5C12.5523 14.5 13 14.9477 13 15.5Z" fill="white"/>
<path id="stroke1" d="M17 10V7C17 4.23858 14.7614 2 12 2C9.23858 2 7 4.23858 7 7V10M4.5 10H19.5V21H4.5V10Z" stroke="black" stroke-width="2" stroke-linecap="square"/>
<path id="stroke2" d="M13 15.5C13 16.0523 12.5523 16.5 12 16.5C11.4477 16.5 11 16.0523 11 15.5C11 14.9477 11.4477 14.5 12 14.5C12.5523 14.5 13 14.9477 13 15.5Z" stroke="black" stroke-width="2" stroke-linecap="square"/>
</g>
</svg>
