<svg width="24" height="24" viewBox="0 0 24 24" fill="none" xmlns="http://www.w3.org/2000/svg">
    <g id="ice-cream">
        <path id="fill1" d="M17 15L8.99997 7L2.98477 19.7021C2.62917 20.5319 3.46811 21.3708 4.29783 21.0152L17 15Z"
            fill="white" />
        <path id="fill2"
            d="M14.9998 4C13.634 2.63412 11.3657 2.63412 9.99983 4C9.19126 4.80857 8.85109 5.93337 8.99983 7L16.9998 15C18.0665 15.1487 19.1913 14.8086 19.9998 14C21.3657 12.6341 21.3657 10.3659 19.9998 9.00001C21.3657 7.63412 21.3657 5.36588 19.9998 4C18.634 2.63412 16.3657 2.63412 14.9998 4Z"
            fill="white" />
        <path id="stroke1" d="M17 15L8.99997 7L2.98477 19.7021C2.62917 20.5319 3.46811 21.3708 4.29783 21.0152L17 15Z"
            stroke="black" stroke-width="2" stroke-linecap="square" />
        <path id="stroke2"
            d="M14.9998 4C13.634 2.63412 11.3657 2.63412 9.99983 4C9.19126 4.80857 8.85109 5.93337 8.99983 7L16.9998 15C18.0665 15.1487 19.1913 14.8086 19.9998 14C21.3657 12.6341 21.3657 10.3659 19.9998 9.00001C21.3657 7.63412 21.3657 5.36588 19.9998 4C18.634 2.63412 16.3657 2.63412 14.9998 4Z"
            stroke="black" stroke-width="2" />
    </g>
</svg>