<svg width="24" height="24" viewBox="0 0 24 24" fill="none" xmlns="http://www.w3.org/2000/svg">
<g id="&#229;&#134;&#176;&#230;&#183;&#135;&#230;&#183;&#139;_ice-cream">
<path id="Union" fill-rule="evenodd" clip-rule="evenodd" d="M14.9996 2.71706C13.2435 1.56387 10.8296 1.75582 9.29248 3.29289C8.33207 4.2533 7.88892 5.55643 7.97647 6.824L2.0726 19.291L2.06524 19.3082C1.35405 20.9677 3.03193 22.6455 4.69137 21.9343L4.70855 21.927L17.1756 16.0231C18.4432 16.1107 19.7463 15.6675 20.7067 14.7071C22.2438 13.17 22.4357 10.7561 21.2825 9.00001C22.4357 7.24393 22.2438 4.82996 20.7067 3.29289C19.1696 1.75582 16.7557 1.56387 14.9996 2.71706ZM16.4142 4.21327C17.2273 5.61753 17.2273 7.38246 16.4141 8.78673C17.3546 9.22317 18.5268 9.05856 19.2925 8.2929C20.2678 7.31754 20.2678 5.68246 19.2925 4.7071C18.5268 3.94144 17.3546 3.77683 16.4142 4.21327ZM19.7863 10.4146C18.0522 11.4187 15.7682 11.1828 14.2925 9.7071L13.5854 9L14.2925 8.29289C15.2678 7.31753 15.2678 5.68246 14.2925 4.7071C13.3171 3.73175 11.6821 3.73175 10.7067 4.7071C10.2066 5.2072 9.95447 5.88041 9.96589 6.55208L17.4475 14.0337C18.1192 14.0451 18.7924 13.793 19.2925 13.2929C20.0581 12.5272 20.2228 11.355 19.7863 10.4146ZM15.289 14.7036L9.29598 8.7106L3.905 20.0946L15.289 14.7036Z" fill="black"/>
</g>
</svg>
