<svg width="24" height="24" viewBox="0 0 24 24" fill="none" xmlns="http://www.w3.org/2000/svg">
<g id="ice-cream" clip-path="url(#clip0_2332_2841)">
<path id="fill1" d="M17 15L9 7L2.9848 19.7021C2.6292 20.5319 3.46814 21.3708 4.29786 21.0152L17 15Z" fill="white"/>
<path id="fill2" d="M15 4C13.6341 2.63412 11.3659 2.63412 10 4C9.19142 4.80858 8.85125 5.93337 9 7L17 15C18.0666 15.1487 19.1914 14.8086 20 14C21.3659 12.6341 21.3659 10.3659 20 9.00001C21.3659 7.63413 21.3659 5.36588 20 4C18.6341 2.63412 16.3659 2.63412 15 4Z" fill="white"/>
<path id="stroke1" d="M17 15L9 7L2.9848 19.7021C2.6292 20.5319 3.46814 21.3708 4.29786 21.0152L17 15Z" stroke="black" stroke-width="2" stroke-linecap="square"/>
<path id="stroke2" d="M15 4C13.6341 2.63412 11.3659 2.63412 10 4C9.19142 4.80858 8.85125 5.93337 9 7L17 15C18.0666 15.1487 19.1914 14.8086 20 14C21.3659 12.6341 21.3659 10.3659 20 9.00001C21.3659 7.63413 21.3659 5.36588 20 4C18.6341 2.63412 16.3659 2.63412 15 4Z" stroke="black" stroke-width="2"/>
</g>
<defs>
<clipPath id="clip0_2332_2841">
<rect width="24" height="24" fill="white"/>
</clipPath>
</defs>
</svg>
