<svg width="24" height="24" viewBox="0 0 24 24" fill="none" xmlns="http://www.w3.org/2000/svg">
    <path
        d="M15.0001 2.71706C13.244 1.56387 10.83 1.75582 9.29297 3.29289C8.33256 4.2533 7.88941 5.55643 7.97696 6.824L2.07309 19.291L2.06573 19.3082C1.35454 20.9677 3.03241 22.6455 4.69186 21.9343L4.70904 21.927L17.1761 16.0231C18.4436 16.1107 19.7468 15.6675 20.7072 14.7071C22.2443 13.17 22.4362 10.7561 21.283 9.00001C22.4362 7.24393 22.2443 4.82996 20.7072 3.29289C19.1701 1.75582 16.7562 1.56387 15.0001 2.71706ZM16.4146 4.21327C17.3551 3.77683 18.5273 3.94144 19.293 4.7071C20.2683 5.68246 20.2683 7.31754 19.293 8.2929C18.5273 9.05856 17.3551 9.22317 16.4146 8.78673C17.2278 7.38246 17.2278 5.61753 16.4146 4.21327ZM19.7868 10.4146C20.2232 11.355 20.0586 12.5272 19.293 13.2929C18.7929 13.793 18.1197 14.0451 17.448 14.0337L9.96637 6.55208C9.95496 5.88041 10.2071 5.2072 10.7072 4.7071C11.6825 3.73175 13.3176 3.73175 14.293 4.7071C15.2683 5.68246 15.2683 7.31753 14.293 8.29289L13.5859 9L14.293 9.7071C15.7687 11.1828 18.0527 11.4187 19.7868 10.4146ZM15.2895 14.7036L3.90548 20.0946L9.29647 8.7106L15.2895 14.7036Z"
        fill="black" />
</svg>