<svg width="24" height="24" viewBox="0 0 24 24" fill="none" xmlns="http://www.w3.org/2000/svg">
<path d="M23.4142 1.99991L22 3.41412V21.9999H3.41424L2.00003 23.4141L0.585815 21.9999L22 0.585693L23.4142 1.99991ZM5.41424 19.9999H17.5858L11.5 13.9141L5.41424 19.9999ZM12.9142 12.4999L20 19.5857V5.41412L18.7076 6.70655C18.895 7.09821 19.0002 7.53702 19.0002 7.99981C19.0002 9.65667 17.657 10.9998 16.0002 10.9998C15.5374 10.9998 15.0986 10.8946 14.7069 10.7072L12.9142 12.4999ZM17.734 1.99759L15.364 4.00174L4.00218 4.00013L4.00217 15.962L1.99751 17.6577L2.00218 1.99977L14.9979 2.00174M17.734 1.99759L14.9992 1.99991ZM14.9992 1.99991L12.8312 2.00174Z" fill="black" fill-opacity="0.9" style="fill:black;fill-opacity:0.9;"/>
</svg>
