<svg width="24" height="24" viewBox="0 0 24 24" fill="none" xmlns="http://www.w3.org/2000/svg">
<path d="M1.99988 2H21.9999V12H19.9999V4H3.99988V13.5858L8.99988 8.58579L14.4141 14L12.9999 15.4142L8.99988 11.4142L3.99988 16.4142V20H11.9999V22H1.99988V2ZM15.7468 7.25C15.1945 7.25 14.7468 7.69772 14.7468 8.25C14.7468 8.80228 15.1945 9.25 15.7468 9.25C16.299 9.25 16.7468 8.80228 16.7468 8.25C16.7468 7.69772 16.299 7.25 15.7468 7.25ZM12.7468 8.25C12.7468 6.59315 14.0899 5.25 15.7468 5.25C17.4036 5.25 18.7468 6.59315 18.7468 8.25C18.7468 9.90685 17.4036 11.25 15.7468 11.25C14.0899 11.25 12.7468 9.90685 12.7468 8.25ZM16.1715 14.7574L18.9999 17.5858L21.8283 14.7574L23.2425 16.1716L20.4141 19L23.2425 21.8284L21.8283 23.2426L18.9999 20.4142L16.1715 23.2426L14.7572 21.8284L17.5857 19L14.7572 16.1716L16.1715 14.7574Z" fill="black" fill-opacity="0.9" style="fill:black;fill-opacity:0.9;"/>
</svg>
