<svg width="24" height="24" viewBox="0 0 24 24" fill="none" xmlns="http://www.w3.org/2000/svg">
<path d="M2 2H22V10H20V4H4V13.5858L9 8.58579L14.9142 14.5L13.5 15.9142L9 11.4142L4 16.4142V20H10V22H2V2ZM15.7469 7.25C15.1946 7.25 14.7469 7.69772 14.7469 8.25C14.7469 8.80228 15.1946 9.25 15.7469 9.25C16.2992 9.25 16.7469 8.80228 16.7469 8.25C16.7469 7.69772 16.2992 7.25 15.7469 7.25ZM12.7469 8.25C12.7469 6.59315 14.09 5.25 15.7469 5.25C17.4037 5.25 18.7469 6.59315 18.7469 8.25C18.7469 9.90685 17.4037 11.25 15.7469 11.25C14.09 11.25 12.7469 9.90685 12.7469 8.25ZM19.7866 12.0858L23.9142 16.2134L16.6276 23.5H12.5011L12.4999 19.3725L19.7866 12.0858ZM18.8648 15.836L20.164 17.1352L21.0858 16.2134L19.7866 14.9142L18.8648 15.836ZM18.7498 18.5494L17.4506 17.2502L14.5001 20.2007L14.5005 21.5H15.7992L18.7498 18.5494Z" fill="black" fill-opacity="0.9" style="fill:black;fill-opacity:0.9;"/>
</svg>
