<svg width="24" height="24" viewBox="0 0 24 24" fill="none" xmlns="http://www.w3.org/2000/svg">
<path d="M2 2H22V11H20V4H4V13.5858L9 8.58579L12.9142 12.5L11.5 13.9142L9 11.4142L4 16.4142V20H11V22H2V2ZM15.7469 7.25C15.1946 7.25 14.7469 7.69772 14.7469 8.25C14.7469 8.80229 15.1946 9.25 15.7469 9.25C16.2992 9.25 16.7469 8.80229 16.7469 8.25C16.7469 7.69772 16.2992 7.25 15.7469 7.25ZM12.7469 8.25C12.7469 6.59315 14.09 5.25 15.7469 5.25C17.4037 5.25 18.7469 6.59315 18.7469 8.25C18.7469 9.90686 17.4037 11.25 15.7469 11.25C14.09 11.25 12.7469 9.90686 12.7469 8.25ZM17.6538 14.5C15.912 14.5 14.5 15.912 14.5 17.6538C14.5 19.3957 15.912 20.8077 17.6538 20.8077C18.5256 20.8077 19.3131 20.4554 19.885 19.8829C20.4562 19.3112 20.8077 18.5245 20.8077 17.6538C20.8077 15.912 19.3957 14.5 17.6538 14.5ZM12.5 17.6538C12.5 14.8075 14.8075 12.5 17.6538 12.5C20.5002 12.5 22.8077 14.8075 22.8077 17.6538C22.8077 18.7146 22.4865 19.7014 21.937 20.521L23.9142 22.501L22.499 23.9142L20.5232 21.9356C19.7032 22.4859 18.7156 22.8077 17.6538 22.8077C14.8075 22.8077 12.5 20.5002 12.5 17.6538Z" fill="black" fill-opacity="0.9" style="fill:black;fill-opacity:0.9;"/>
</svg>
