<svg width="24" height="24" viewBox="0 0 24 24" fill="none" xmlns="http://www.w3.org/2000/svg">
<path d="M17 4C15.8954 4 15 4.89543 15 6C15 7.10457 15.8954 8 17 8C18.1046 8 19 7.10457 19 6C19 4.89543 18.1046 4 17 4ZM13 6C13 3.79086 14.7909 2 17 2C19.2092 2 21 3.79086 21 6C21 8.20914 19.2092 10 17 10C14.7909 10 13 8.20914 13 6ZM8.99574 8.14409L13.4881 15.1322L15.925 11.2333L24 22H0.178345L8.99574 8.14409ZM9.00429 11.8559L3.82169 20H20L16.0751 14.7667L13.5119 18.8678L9.00429 11.8559Z" fill="black" fill-opacity="0.9" style="fill:black;fill-opacity:0.9;"/>
</svg>
