<svg viewBox="0 0 1024 1024" version="1.1" xmlns="http://www.w3.org/2000/svg"><path fill-opacity=".9" fill-rule="evenodd" d="M512 96C741.7504576 96 928 282.24954432 928 512 928 741.7504576 741.7504576 928 512 928 282.24954432 928 96 741.7504576 96 512 96 282.24954432 282.24954432 96 512 96ZM512 160C317.59576832 160 160 317.59576832 160 512 160 706.4042304 317.59576832 864 512 864 706.4042304 864 864 706.4042304 864 512 864 317.59576832 706.4042304 160 512 160ZM544 416L544 672 608 672 608 736 480 736 480 480 416 480 416 416 544 416ZM544 288L544 352 480 352 480 288 544 288Z"/></svg>