<svg width="16" height="16" viewBox="0 0 16 16" fill="none" xmlns="http://www.w3.org/2000/svg">
<path d="M7.50562 11.9998V6.5H8.50562V11.9998H7.50562Z" fill="black" fill-opacity="0.9"/>
<path d="M8.59985 4H7.3999V5.19995H8.59985V4Z" fill="black" fill-opacity="0.9"/>
<path fill-rule="evenodd" clip-rule="evenodd" d="M1 8C1 11.866 4.13403 15 8 15C11.866 15 15 11.866 15 8C15 4.13403 11.866 1 8 1C4.13403 1 1 4.13403 1 8ZM2 8C2 11.3137 4.68628 14 8 14C11.3137 14 14 11.3137 14 8C14 4.68628 11.3137 2 8 2C4.68628 2 2 4.68628 2 8Z" fill="black" fill-opacity="0.9"/>
</svg>
