<svg width="16" height="16" viewBox="0 0 16 16" fill="none" xmlns="http://www.w3.org/2000/svg">
<g clip-path="url(#clip0_915_10183)">
<path d="M8 16C3.58172 16 0 12.4183 0 8C0 3.58172 3.58172 0 8 0C12.4183 0 16 3.58172 16 8C16 12.4183 12.4183 16 8 16ZM2.08296 9C2.55904 11.8377 5.027 14 8 14C10.973 14 13.441 11.8377 13.917 9H2.08296ZM2.08296 7H13.917C13.441 4.16229 10.973 2 8 2C5.027 2 2.55904 4.16229 2.08296 7ZM8.64256 12.8552C9.17713 11.6333 9.5 9.88855 9.5 8C9.5 6.11145 9.17713 4.36666 8.64256 3.14478C8.43061 2.66034 8.20314 2.30218 8 2.09422C7.79686 2.30218 7.56939 2.66034 7.35744 3.14478C6.82287 4.36666 6.5 6.11145 6.5 8C6.5 9.88855 6.82287 11.6333 7.35744 12.8552C7.56939 13.3397 7.79686 13.6978 8 13.9058C8.20314 13.6978 8.43061 13.3397 8.64256 12.8552ZM8 16C6.067 16 4.5 12.4183 4.5 8C4.5 3.58172 6.067 0 8 0C9.933 0 11.5 3.58172 11.5 8C11.5 12.4183 9.933 16 8 16Z" fill="black" fill-opacity="0.9"/>
</g>
<defs>
<clipPath id="clip0_915_10183">
<rect width="16" height="16" fill="white"/>
</clipPath>
</defs>
</svg>
