<svg width="24" height="24" viewBox="0 0 24 24" fill="none" xmlns="http://www.w3.org/2000/svg">
<g id="joyful">
<path id="fill1" d="M22 12C22 17.5228 17.5228 22 12 22C6.47715 22 2 17.5228 2 12C2 6.47715 6.47715 2 12 2C17.5228 2 22 6.47715 22 12Z" fill="white"/>
<path id="fill2" d="M12 18C14.2091 18 16 16.2091 16 14H8C8 16.2091 9.79086 18 12 18Z" fill="white"/>
<path id="stroke1" d="M22 12C22 17.5228 17.5228 22 12 22C6.47715 22 2 17.5228 2 12C2 6.47715 6.47715 2 12 2C17.5228 2 22 6.47715 22 12Z" stroke="black" stroke-width="2" stroke-linecap="square"/>
<path id="stroke2" d="M16 8.5L14 9.62501L14 10L16 11.5M8 8.5L10 9.62501L10 10L8.00001 11.5M16 14C16 16.2091 14.2091 18 12 18C9.79086 18 8 16.2091 8 14H16Z" stroke="black" stroke-width="2" stroke-linecap="square"/>
</g>
</svg>
