<svg viewBox="0 0 1024 1024" version="1.1" xmlns="http://www.w3.org/2000/svg"><path fill-opacity=".9" fill-rule="evenodd" d="M448 128L448 192 192 192 192 832 832 832 832 577.984 896 578.03750016 896 832C896 867.3462208 867.3462208 896 832 896L192 896C156.653776 896 128 867.3462208 128 832L128 192C128 156.653776 156.653776 128 192 128L448 128ZM864 128C881.6731136 128 896 142.32688832 896 160L896 448 832 448 832 236.544 428.61562496 640 383.36079104 594.74516608 786.112 191.936 576 192 576 128 864 128 864 128Z"/></svg>