<svg width="24" height="24" viewBox="0 0 24 24" fill="none" xmlns="http://www.w3.org/2000/svg">
    <path
        d="M22.4141 21L2.9999 1.58582L1.58569 3.00003L2.99991 4.41424L2.99991 21L19.5857 21L20.9999 22.4142L22.4141 21ZM17.5857 19H4.99991L4.99991 6.41424L10.5857 12.0001L10.0839 12.5021L11.5006 13.9188L12.0026 13.417L17.5857 19ZM21.0057 17.419L20.9999 14.5V13.49H18.9999V15.4133L21.0057 17.419ZM20.9999 3.00003L12.9999 3.00003V5.00003L17.5857 5.00003L13.0857 9.50003L14.4999 10.9142L18.9999 6.41424V11H20.9999L20.9999 3.00003ZM10.5097 3.00198L9.49967 3.00198L6.58059 2.99613L8.58644 5.00198H10.5097V3.00198Z"
        fill="black" />
</svg>