<svg width="24" height="24" viewBox="0 0 24 24" fill="none" xmlns="http://www.w3.org/2000/svg">
<g id="lemon" clip-path="url(#clip0_2332_2932)">
<path id="fill1" d="M20 6.5C22.0235 9.53272 22.3231 13.6769 18 18C13.6769 22.3231 9.53272 22.0235 6.5 20L4.59845 20.5085C3.95683 20.6194 3.39675 20.0658 3.50003 19.423L4 17.5C1.96672 14.4656 1.67042 10.3296 6.00001 5.99999C10.3296 1.67039 14.4656 1.96672 17.5 4L19.423 3.5C20.0659 3.39672 20.6194 3.9568 20.5086 4.59842L20 6.5Z" fill="white"/>
<path id="stroke1" d="M20 6.5C22.0235 9.53272 22.3231 13.6769 18 18C13.6769 22.3231 9.53272 22.0235 6.5 20L4.59845 20.5085C3.95683 20.6194 3.39675 20.0658 3.50003 19.423L4 17.5C1.96672 14.4656 1.67042 10.3296 6.00001 5.99999C10.3296 1.67039 14.4656 1.96672 17.5 4L19.423 3.5C20.0659 3.39672 20.6194 3.9568 20.5086 4.59842L20 6.5Z" stroke="black" stroke-width="2" stroke-linecap="square"/>
<g id="stroke2">
<path d="M8.58398 12.8302L8.58675 12.8274L8.58951 12.8302L8.58675 12.8329L8.58398 12.8302Z" stroke="black" stroke-width="2" stroke-linecap="square"/>
<path d="M9.29102 9.295L9.29378 9.29224L9.29654 9.295L9.29378 9.29776L9.29102 9.295Z" stroke="black" stroke-width="2" stroke-linecap="square"/>
<path d="M12.8267 8.58797L12.8294 8.58521L12.8322 8.58797L12.8294 8.59073L12.8267 8.58797Z" stroke="black" stroke-width="2" stroke-linecap="square"/>
</g>
</g>
<defs>
<clipPath id="clip0_2332_2932">
<rect width="24" height="24" fill="white"/>
</clipPath>
</defs>
</svg>
