<svg width="24" height="24" viewBox="0 0 24 24" fill="none" xmlns="http://www.w3.org/2000/svg">
    <path
        d="M3.60806 12.3442C3.42517 14.0227 3.91951 15.5836 4.83076 16.9435L5.08093 17.3168L4.51434 19.496L6.67872 18.9172L7.05505 19.1683C8.41417 20.0752 9.97739 20.5687 11.6581 20.386C13.3381 20.2034 15.2538 19.3321 17.2929 17.293C19.332 15.254 20.2033 13.3382 20.3859 11.6582C20.5686 9.97752 20.075 8.41431 19.1682 7.05518L18.9171 6.67885L19.4959 4.51444L17.3167 5.08107L16.9434 4.8309C15.5834 3.91964 14.0225 3.4253 12.344 3.60818C10.6657 3.79105 8.7502 4.66419 6.70714 6.70724C4.66409 8.7503 3.79094 10.6658 3.60806 12.3442ZM1.61983 12.1275C1.86289 9.89683 3.00639 7.57957 5.29293 5.29303C7.57947 3.00649 9.89672 1.863 12.1274 1.61995C14.1891 1.39532 16.0746 1.95112 17.6705 2.92258L19.2174 2.52036L19.2644 2.51282C20.5848 2.30069 21.7216 3.45101 21.494 4.76879L21.4863 4.8133L21.0795 6.33441C22.0452 7.92906 22.5981 9.81417 22.3742 11.8743C22.1317 14.1054 20.9912 16.4232 18.7071 18.7073C16.4231 20.9913 14.1052 22.1318 11.8742 22.3743C9.81404 22.5982 7.92892 22.0453 6.33427 21.0796L4.81319 21.4864L4.76869 21.4941C3.45091 21.7217 2.30059 20.5849 2.51271 19.2645L2.52026 19.2175L2.92245 17.6706C1.95098 16.0747 1.39519 14.1892 1.61983 12.1275ZM7.87676 9.29513L9.29374 7.87816L10.7107 9.29513L9.29374 10.7121L7.87676 9.29513ZM7.16966 12.8307L8.58663 11.4137L10.0036 12.8307L8.58663 14.2476L7.16966 12.8307ZM11.4123 8.58803L12.8293 7.17105L14.2462 8.58803L12.8293 10.005L11.4123 8.58803Z"
        fill="black" />
</svg>