<svg width="24" height="24" viewBox="0 0 24 24" fill="none" xmlns="http://www.w3.org/2000/svg">
    <g id="lemon">
        <path id="fill1"
            d="M20.0001 6.50007C22.0236 9.53279 22.3232 13.677 18.0001 18.0001C13.6769 22.3232 9.53278 22.0236 6.50006 20.0001L4.59851 20.5086C3.95689 20.6194 3.39681 20.0659 3.50009 19.423L4.00006 17.5001C1.96678 14.4657 1.67048 10.3297 6.00008 6.00006C10.3297 1.67046 14.4656 1.96679 17.5001 4.00007L19.4231 3.50007C20.0659 3.39679 20.6195 3.95687 20.5086 4.59849L20.0001 6.50007Z"
            fill="white" />
        <path id="stroke1"
            d="M20.0001 6.50007C22.0236 9.53279 22.3232 13.677 18.0001 18.0001C13.6769 22.3232 9.53278 22.0236 6.50006 20.0001L4.59851 20.5086C3.95689 20.6194 3.39681 20.0659 3.50009 19.423L4.00006 17.5001C1.96678 14.4657 1.67048 10.3297 6.00008 6.00006C10.3297 1.67046 14.4656 1.96679 17.5001 4.00007L19.4231 3.50007C20.0659 3.39679 20.6195 3.95687 20.5086 4.59849L20.0001 6.50007Z"
            stroke="black" stroke-width="2" stroke-linecap="square" />
        <g id="stroke2">
            <path d="M8.58398 12.8299L8.58675 12.8271L8.58951 12.8299L8.58675 12.8327L8.58398 12.8299Z" stroke="black"
                stroke-width="2" stroke-linecap="square" />
            <path d="M9.29102 9.29475L9.29378 9.29199L9.29654 9.29475L9.29378 9.29752L9.29102 9.29475Z" stroke="black"
                stroke-width="2" stroke-linecap="square" />
            <path d="M12.8267 8.58772L12.8294 8.58496L12.8322 8.58772L12.8294 8.59048L12.8267 8.58772Z" stroke="black"
                stroke-width="2" stroke-linecap="square" />
        </g>
    </g>
</svg>