<svg width="24" height="24" viewBox="0 0 24 24" fill="none" xmlns="http://www.w3.org/2000/svg">
<path d="M9.00005 1V2H15V1H17V10C17 12.3933 17.4822 15.311 17.9786 17.669C18.2251 18.8397 18.4716 19.8569 18.6565 20.5807C18.7488 20.9425 18.8256 21.2304 18.8791 21.4271C18.9058 21.5255 18.9267 21.6009 18.9408 21.6514L18.9567 21.7079L18.9605 21.7216L18.9614 21.7247L19.3258 23H13.2193L12.2193 19H11.7808L10.7808 23H4.67432L5.03849 21.7254L5.03956 21.7216L5.04344 21.7079L5.05931 21.6514C5.07338 21.6009 5.09427 21.5255 5.121 21.4271C5.17447 21.2304 5.25127 20.9425 5.34363 20.5807C5.52844 19.8569 5.77502 18.8397 6.0215 17.669C6.51791 15.311 7.00005 12.3933 7.00005 10V1H9.00005ZM9.00005 7.0024V10C9.00005 12.6067 8.48219 15.689 7.9786 18.081C7.73352 19.2451 7.48855 20.2607 7.3007 21H9.21927L10.2193 17H13.7808L14.7808 21H16.6994C16.5115 20.2607 16.2666 19.2451 16.0215 18.081C15.5179 15.689 15 12.6067 15 10V7.0024H9.00005ZM15 5V4H9.00005V5H15ZM11 8.99805H13.004V11.002H11V8.99805Z" fill="black" fill-opacity="0.9" style="fill:black;fill-opacity:0.9;"/>
</svg>
