<svg width="24" height="24" viewBox="0 0 24 24" fill="none" xmlns="http://www.w3.org/2000/svg">
<g id="lightbulb">
<path id="fill1" fill-rule="evenodd" clip-rule="evenodd" d="M11.9998 0.999879C15.9698 1.0019 19.1998 4.23028 19.1998 8.19988C19.1998 9.28948 18.9833 10.1185 18.4926 11.3071C18.0019 12.4956 16.7461 15.0037 16.0039 16.9999H7.99609C7.28648 14.9986 6.00366 12.4962 5.5086 11.3071C5.01355 10.1179 4.7998 9.28948 4.7998 8.19988C4.7998 4.23028 8.02981 0.997856 11.9998 0.999879Z" fill="white"/>
<path id="stroke1" d="M8.5 20H15.5M10.5 23H13.5M11.9998 0.999879C15.9698 1.0019 19.1998 4.23028 19.1998 8.19988C19.1998 9.28948 18.9833 10.1185 18.4926 11.3071C18.0019 12.4956 16.7461 15.0037 16.0039 16.9999H7.99609C7.28648 14.9986 6.00366 12.4962 5.5086 11.3071C5.01355 10.1179 4.7998 9.28948 4.7998 8.19988C4.7998 4.23028 8.02981 0.997856 11.9998 0.999879Z" stroke="black" stroke-width="2" stroke-linecap="square"/>
</g>
</svg>
