<svg width="24" height="24" viewBox="0 0 24 24" fill="none" xmlns="http://www.w3.org/2000/svg">
<g id="lighthouse-2">
<path id="fill1" d="M6 21.9999C6 21.9999 8 14.9999 8 9.99985V3.00146H16V9.99985C16 14.9999 18 21.9999 18 21.9999H14L13 17.9999H11L10 21.9999H6Z" fill="white"/>
<path id="stroke1" d="M8 2V3.00161M8 3.00161V10C8 15 6 22 6 22H10L11 18H13L14 22H18C18 22 16 15 16 10V3.00161M8 3.00161H16M16 3.00161V2M17 6H7M18 14H6" stroke="black" stroke-width="2" stroke-linecap="square"/>
<path id="stroke2" d="M12 9.99805H12.0039V10.002H12V9.99805Z" stroke="black" stroke-width="2" stroke-linecap="square"/>
</g>
</svg>
