<svg width="24" height="24" viewBox="0 0 24 24" fill="none" xmlns="http://www.w3.org/2000/svg">
<g id="lightbulb-circle">
<path id="fill1" d="M12 2C6.47715 2 2 6.47715 2 12C2 17.5228 6.47715 22 12 22C17.5228 22 22 17.5228 22 12C22 6.47715 17.5228 2 12 2Z" fill="white"/>
<path id="fill2" fill-rule="evenodd" clip-rule="evenodd" d="M12 5C14.482 5 16.5 7.019 16.5 9.5C16.5 10.181 16.352 10.834 16.058 11.442C15.545 12.504 14.982 13.708 14.527 15L12 15L9.473 15C9.019 13.708 8.455 12.504 7.943 11.442C7.649 10.834 7.5 10.181 7.5 9.5C7.5 7.019 9.519 5 12 5Z" fill="white"/>
<path id="stroke1" d="M12 2C6.47715 2 2 6.47715 2 12C2 17.5228 6.47715 22 12 22C17.5228 22 22 17.5228 22 12C22 6.47715 17.5228 2 12 2Z" stroke="black" stroke-width="2" stroke-linecap="square"/>
<path id="stroke2" d="M10.5 18H13.5M12 5C14.482 5 16.5 7.019 16.5 9.5C16.5 10.181 16.352 10.834 16.058 11.442C15.545 12.504 14.982 13.708 14.527 15H9.473C9.019 13.708 8.455 12.504 7.943 11.442C7.649 10.834 7.5 10.181 7.5 9.5C7.5 7.019 9.519 5 12 5Z" stroke="black" stroke-width="2" stroke-linecap="square"/>
</g>
</svg>
