<svg width="24" height="24" viewBox="0 0 24 24" fill="none" xmlns="http://www.w3.org/2000/svg">
<path d="M9.00005 1V2.00161H15V1H17V5H18V7H17V10C17 10.9409 17.0746 11.9629 17.1952 13H19V15H17.4771C17.6286 15.9278 17.8027 16.8335 17.9786 17.669C18.2251 18.8397 18.4716 19.8569 18.6565 20.5807C18.7488 20.9425 18.8256 21.2304 18.8791 21.4271C19.0221 21.953 19.1762 22.476 19.3258 23H13.2193L12.2193 19H11.7808L10.7808 23H4.67432C4.82391 22.476 4.97804 21.953 5.121 21.4271C5.17447 21.2304 5.25127 20.9425 5.34363 20.5807C5.52844 19.8569 5.77502 18.8397 6.0215 17.669C6.19738 16.8335 6.37148 15.9278 6.52297 15H5.00005V13H6.80492C6.92553 11.9629 7.00005 10.9409 7.00005 10V7H6.00005V5H7.00005V1H9.00005ZM9.00005 4.00161V5H15V4.00161H9.00005ZM15 7H9.00005V10C9.00005 10.9553 8.9305 11.9744 8.8176 13H15.1825C15.0696 11.9744 15 10.9553 15 10V7ZM15.4516 15H8.54848C8.37807 16.0867 8.17722 17.1375 7.9786 18.081C7.73352 19.2451 7.48855 20.2607 7.3007 21H9.21927L10.2193 17H13.7808L14.7808 21H16.6994C16.5115 20.2607 16.2666 19.2451 16.0215 18.081C15.8229 17.1375 15.622 16.0867 15.4516 15ZM11 8.99805H13.004V11.002H11V8.99805Z" fill="black" fill-opacity="0.9" style="fill:black;fill-opacity:0.9;"/>
</svg>
