<svg width="24" height="24" viewBox="0 0 24 24" fill="none" xmlns="http://www.w3.org/2000/svg">
    <g clip-path="url(#clip0_100396_60208)">
        <path
            d="M11.9993 2.00012C8.58248 1.99838 5.7998 4.78231 5.7998 8.20012C5.7998 9.11664 5.96877 9.81079 6.4318 10.923C6.59209 11.308 6.83687 11.8327 7.12767 12.4561C7.26915 12.7593 7.42152 13.086 7.58036 13.4312C7.95475 14.245 8.3553 15.1423 8.69003 16.0001H15.3187C15.6604 15.1474 16.0604 14.2512 16.4329 13.4355C16.5686 13.1382 16.6997 12.8537 16.8231 12.5857C17.1354 11.9079 17.3991 11.3354 17.5683 10.9257C18.0286 9.81075 18.1998 9.11575 18.1998 8.20012C18.1998 4.78324 15.4178 2.00187 11.9993 2.00012ZM3.7998 8.20012C3.7998 3.67874 7.47714 -0.00218182 12.0003 0.000123152C16.5218 0.00242723 20.1998 3.67781 20.1998 8.20012C20.1998 9.4637 19.938 10.4268 19.4169 11.689C19.2313 12.1384 18.9405 12.7697 18.6196 13.4664C18.5 13.7259 18.3763 13.9946 18.2522 14.2662C17.785 15.2895 17.2987 16.3872 16.9412 17.3486L16.699 18.0001H7.28967L7.05359 17.3343C6.71497 16.3793 6.23324 15.2883 5.76342 14.2671C5.62102 13.9576 5.47797 13.6509 5.34072 13.3566C5.03727 12.7061 4.76223 12.1164 4.58541 11.6917C4.05832 10.4256 3.7998 9.46281 3.7998 8.20012ZM7.5 19.0001H16.5V21.0001H7.5V19.0001ZM9.5 22.0001H14.5V24.0001H9.5V22.0001Z"
            fill="black" />
    </g>
    <defs>
        <clipPath id="clip0_100396_60208">
            <rect width="24" height="24" fill="white" style="fill:white;fill-opacity:1;" />
        </clipPath>
    </defs>
</svg>