<svg width="24" height="24" viewBox="0 0 24 24" fill="none" xmlns="http://www.w3.org/2000/svg">
    <path
        d="M12 0.922852L18.2999 3.4428L17.5571 5.29975L17 5.07692V9.99988H19V11.9999H17.0935C17.2575 13.9053 17.6142 15.9379 17.9786 17.6689C18.2251 18.8396 18.4716 19.8568 18.6565 20.5806C18.7488 20.9424 18.8256 21.2303 18.8791 21.427C18.9058 21.5253 18.9267 21.6008 18.9408 21.6513L18.9567 21.7078L18.9605 21.7215L18.9614 21.7246L19.3258 22.9999H13.2193L12.2193 18.9999H11.7808L10.7808 22.9999H4.67432L5.03849 21.7253L5.03956 21.7215L5.04344 21.7078L5.05931 21.6513C5.07338 21.6008 5.09427 21.5253 5.121 21.427C5.17447 21.2303 5.25127 20.9424 5.34363 20.5806C5.52844 19.8568 5.77502 18.8396 6.0215 17.6689C6.38591 15.9379 6.74263 13.9053 6.90657 11.9999H5.00005V9.99988H7.00005V5.07692L6.44296 5.29975L5.70018 3.4428L12 0.922852ZM9.00005 4.27692V9.99988H15V4.27692L12 3.07692L9.00005 4.27692ZM15.0867 11.9999H8.91337C8.74522 14.0864 8.35786 16.2794 7.9786 18.0809C7.73352 19.245 7.48855 20.2606 7.3007 20.9999H9.21927L10.2193 16.9999H13.7808L14.7808 20.9999H16.6994C16.5115 20.2606 16.2666 19.245 16.0215 18.0809C15.6422 16.2794 15.2549 14.0864 15.0867 11.9999ZM11 5.99793H13.004V8.00184H11V5.99793Z"
        fill="black" />
</svg>