<svg width="24" height="24" viewBox="0 0 24 24" fill="none" xmlns="http://www.w3.org/2000/svg">
<g id="lighthouse">
<path id="fill1" d="M6 22C6 22 8 15 8 10V3H16V10C16 15 18 22 18 22H14L13 18H11L10 22H6Z" fill="white"/>
<path id="stroke1" d="M8 2V10C8 15 6 22 6 22H10L11 18H13L14 22H18C18 22 16 15 16 10V2M16 6H8M8 3H16" stroke="black" stroke-width="2" stroke-linecap="square"/>
<path id="stroke2" d="M12 9.99805H12.0039V10.002H12V9.99805Z" stroke="black" stroke-width="2" stroke-linecap="square"/>
</g>
</svg>
