<svg width="16" height="16" viewBox="0 0 16 16" fill="none" xmlns="http://www.w3.org/2000/svg">
<path fill-rule="evenodd" clip-rule="evenodd" d="M5.6 1V3.5H7.4L7.4 1H5.6ZM13.4797 2.5201C12.3081 1.34852 10.4087 1.34852 9.23708 2.5201L6.40865 5.34852L7.82287 6.76274L10.6513 3.93431C11.0418 3.54378 11.675 3.54378 12.0655 3.93431C12.456 4.32483 12.456 4.958 12.0655 5.34852L9.23708 8.17695L10.6513 9.59116L13.4797 6.76274C14.6513 5.59116 14.6513 3.69167 13.4797 2.5201ZM2.51956 13.4803C1.34799 12.3087 1.34799 10.4092 2.51956 9.23761L4.99444 6.76274L6.40865 8.17695L3.93378 10.6518C3.54325 11.0423 3.54325 11.6755 3.93378 12.066C4.3243 12.4566 4.95747 12.4566 5.34799 12.066L7.82286 9.59116L9.23708 11.0054L6.7622 13.4803C5.59063 14.6518 3.69114 14.6518 2.51956 13.4803ZM3.5 7.4H1V5.6H3.5V7.4ZM3.69157 4.96485L1.36314 2.63642L2.63593 1.36363L4.96436 3.69206L3.69157 4.96485ZM15 8.6H12.5V10.4H15V8.6ZM10.4 12.5V15H8.6V12.5H10.4ZM14.636 13.3637L12.3075 11.0352L11.0348 12.308L13.3632 14.6365L14.636 13.3637Z" fill="black"/>
</svg>
