<svg width="24" height="24" viewBox="0 0 24 24" fill="none" xmlns="http://www.w3.org/2000/svg">
<path d="M4.30396 2.8895L7.83949 6.42503L6.42528 7.83925L2.88974 4.30371L4.30396 2.8895ZM10.2532 1.18066L10.2532 5.68066L8.25317 5.68066L8.25317 1.18066L10.2532 1.18066ZM1.34692 8.08887L5.84692 8.08887L5.84692 10.0889L1.34692 10.0889L1.34692 8.08887ZM14.8292 5.63413L11.7851 8.67815L10.3709 7.26394L13.4149 4.21991C15.1723 2.46256 18.0215 2.46256 19.7789 4.21992C21.5363 5.97727 21.5363 8.82652 19.7789 10.5839L16.7349 13.6279L15.3207 12.2137L18.3647 9.16966C19.341 8.19335 19.341 6.61044 18.3647 5.63413C17.3884 4.65782 15.8055 4.65782 14.8292 5.63413ZM5.63677 14.8265C4.66046 15.8028 4.66046 17.3857 5.63677 18.362C6.61308 19.3384 8.19599 19.3384 9.1723 18.362L12.2163 15.318L13.6305 16.7322L10.5865 19.7763C8.82916 21.5336 5.97991 21.5336 4.22256 19.7763C2.4652 18.0189 2.4652 15.1697 4.22256 13.4123L7.26658 10.3683L8.68079 11.7825L5.63677 14.8265ZM18.3157 13.7451L22.8157 13.7451V15.7451H18.3157V13.7451ZM15.9094 18.1514V22.6514H13.9094L13.9094 18.1514H15.9094ZM17.5733 16.1588L21.1088 19.6943L19.6946 21.1085L16.159 17.573L17.5733 16.1588Z" fill="black" fill-opacity="0.9" style="fill:black;fill-opacity:0.9;"/>
</svg>
