<svg width="24" height="24" viewBox="0 0 24 24" fill="none" xmlns="http://www.w3.org/2000/svg">
    <path
        d="M19.7782 4.92892C18.4114 3.56212 16.1953 3.56209 14.8285 4.92892L12.7072 7.05024L11.293 5.63603L13.4143 3.51471C15.5622 1.36682 19.0446 1.36687 21.1925 3.51471C23.3403 5.66255 23.3403 9.14499 21.1925 11.2929L18.0105 14.4749C15.8626 16.6228 12.3801 16.6227 10.2323 14.4749L8.69974 12.9423L10.114 11.5281L11.6465 13.0606C13.0133 14.4275 15.2294 14.4275 16.5963 13.0606L19.7782 9.87867C21.1451 8.51184 21.145 6.29573 19.7782 4.92892ZM12.3536 10.9393C10.9868 9.57252 8.7707 9.5725 7.40387 10.9393L4.22189 14.1213C2.85506 15.4881 2.85509 17.7043 4.22189 19.0711C5.58869 20.4379 7.80481 20.4379 9.17164 19.0711L11.293 16.9497L12.7072 18.364L10.5859 20.4853C8.43796 22.6332 4.95552 22.6331 2.80768 20.4853C0.659835 18.3374 0.659787 14.855 2.80768 12.7071L5.98966 9.52512C8.13755 7.37722 11.62 7.37727 13.7678 9.52512L15.0637 10.821L13.6495 12.2352L12.3536 10.9393Z"
        fill="black" />
</svg>