<svg width="24" height="24" viewBox="0 0 24 24" fill="none" xmlns="http://www.w3.org/2000/svg">
    <path
        d="M13.293 3.95949C15.1563 2.09618 18.1773 2.09619 20.0406 3.95949C21.9039 5.8228 21.9039 8.84381 20.0406 10.7071L17.0099 13.7379L15.5956 12.3236L18.6264 9.29291C19.7086 8.21065 19.7086 6.45596 18.6264 5.37371C17.5441 4.29145 15.7894 4.29145 14.7072 5.3737L11.6764 8.40444L10.2622 6.99023L13.293 3.95949ZM15.413 9.99989L9.99875 15.4142L8.58454 14L13.9988 8.58568L15.413 9.99989ZM8.40444 11.6764L5.3737 14.7072C4.29145 15.7894 4.29145 17.5441 5.3737 18.6264C6.45596 19.7086 8.21065 19.7086 9.29291 18.6264L12.3236 15.5956L13.7379 17.0099L10.7071 20.0406C8.84381 21.9039 5.8228 21.9039 3.95949 20.0406C2.09619 18.1773 2.09618 15.1563 3.95949 13.293L6.99023 10.2622L8.40444 11.6764Z"
        fill="black" />
</svg>