<svg width="16" height="16" viewBox="0 0 16 16" fill="none" xmlns="http://www.w3.org/2000/svg">
<path fill-rule="evenodd" clip-rule="evenodd" d="M7.64573 2.69648C9.20783 1.13438 11.7405 1.13438 13.3026 2.69648C14.8647 4.25857 14.8647 6.79123 13.3026 8.35333L11.5348 10.1211L10.1206 8.70688L11.8884 6.93912C12.6694 6.15807 12.6694 4.89174 11.8884 4.11069C11.1073 3.32964 9.84099 3.32964 9.05994 4.11069L7.29218 5.87846L5.87796 4.46424L7.64573 2.69648ZM2.69696 7.64671C1.13487 9.2088 1.13487 11.7415 2.69696 13.3036C4.25906 14.8657 6.79172 14.8657 8.35382 13.3036L10.1212 11.5361L8.70703 10.1219L6.9396 11.8893C6.15856 12.6704 4.89223 12.6704 4.11118 11.8893C3.33013 11.1083 3.33013 9.84197 4.11118 9.06092L5.8786 7.2935L4.46439 5.87928L2.69696 7.64671ZM9.061 5.52535L5.52546 9.06088L6.93967 10.4751L10.4752 6.93956L9.061 5.52535Z" fill="black"/>
</svg>
