<svg width="24" height="24" viewBox="0 0 24 24" fill="none" xmlns="http://www.w3.org/2000/svg">
<path d="M8.99834 12.9985V15.0024L11.0023 15.0024V12.9985L8.99834 12.9985Z" fill="black" fill-opacity="0.9" style="fill:black;fill-opacity:0.9;"/>
<path d="M19.4999 1.08594L22.9141 4.50015L17.9999 9.41436L17.9999 13.4144L9.41407 22.0001C8.63303 22.7812 7.3667 22.7812 6.58565 22.0001L1.99985 17.4144C1.2188 16.6333 1.2188 15.367 1.99985 14.5859L10.5857 6.00014L14.5857 6.00015L19.4999 1.08594ZM4.99988 14.4143L3.41406 16.0001L7.99986 20.5859L9.58566 19.0001L4.99988 14.4143ZM10.4139 8.99979L14.9996 13.5856L15.9996 12.5856L15.9996 8.58559L20.0854 4.4998L19.4996 3.91402L15.4138 7.99981L11.4139 7.9998L10.4139 8.99979ZM6.41387 12.9998L10.9996 17.5856L13.5854 14.9998L8.99964 10.414L6.41387 12.9998Z" fill="black" fill-opacity="0.9" style="fill:black;fill-opacity:0.9;"/>
</svg>
