<svg viewBox="0 0 1024 1024" version="1.1" xmlns="http://www.w3.org/2000/svg"><path fill-opacity=".9" fill-rule="evenodd" d="M512 64C688.7311168 64 832 207.26888 832 384 832 441.73148352 816.6325824 497.36922688 787.939328 546.12224L789.888 542.464 784.4236672 554.34668352C764.347904 595.00752 725.8841664 656.0170688 678.953632 723.6715904L678.953632 723.6715904 640.2663488 778.7126016C567.23077504 881.7191104 550.38458944 898.1331712 512 898.1331712 488.24613952 898.1331712 478.78608576 891.7996032 464.0690912 878.0959232 460.07423232 874.3761216 456.05905408 870.0746688 451.56696832 864.8676928 448.03350336 860.7718976 444.08009472 855.95904 439.71068416 850.4459648L439.71068416 850.4459648 425.3583904 831.8229568C414.5271264 817.450688 401.90573952 800.0989248 388.2450528 780.8377536L388.2450528 780.8377536 356.07144448 734.72944C300.33739072 653.6616576 250.71530816 576.02012672 235.4663008 545.0102336 207.14991104 496.57407424 192 441.32083264 192 384 192 207.26888 335.26888 64 512 64ZM512 128C370.615104 128 256 242.615104 256 384 256 430.94542848 268.63637312 474.93947392 290.71736192 512.70976576 323.91948352 579.51015808 498.66843968 834.1331712 512 834.1331712 525.37925824 834.1331712 700.9030144 591.03883904 733.4609344 512L732.7829632 513.66033152C755.163488 475.63335296 768 431.3157408 768 384 768 242.615104 653.384896 128 512 128ZM512 256C582.692448 256 640 313.307552 640 384 640 454.692448 582.692448 512 512 512 441.307552 512 384 454.692448 384 384 384 313.307552 441.307552 256 512 256ZM512 320C476.653776 320 448 348.653776 448 384 448 419.346224 476.653776 448 512 448 547.346224 448 576 419.346224 576 384 576 348.653776 547.346224 320 512 320Z"/></svg>