<svg width="16" height="16" viewBox="0 0 16 16" fill="none" xmlns="http://www.w3.org/2000/svg">
<rect width="16" height="16" fill="white"/>
<path fill-rule="evenodd" clip-rule="evenodd" d="M8.70646 15.2494L7.99935 15.9565L7.29224 15.2494L3.52101 11.4782C1.04769 9.00486 1.04769 4.99481 3.52101 2.52149C5.99433 0.0481737 10.0044 0.0481737 12.4777 2.52149C14.951 4.99481 14.951 9.00486 12.4777 11.4782L8.70646 15.2494ZM4.93522 10.064L7.99935 13.1281L11.0635 10.064C12.7557 8.3717 12.7558 5.62798 11.0635 3.93571C9.37121 2.24344 6.62749 2.24344 4.93522 3.93571C3.24295 5.62798 3.24295 8.3717 4.93522 10.064ZM7 6.99983C7 6.44754 7.44772 5.99983 8 5.99983C8.55228 5.99983 9 6.44754 9 6.99983C9 7.55211 8.55228 7.99983 8 7.99983C7.44772 7.99983 7 7.55211 7 6.99983ZM8 3.99983C6.34315 3.99983 5 5.34298 5 6.99983C5 8.65668 6.34315 9.99983 8 9.99983C9.65685 9.99983 11 8.65668 11 6.99983C11 5.34298 9.65685 3.99983 8 3.99983Z" fill="black"/>
</svg>
