<svg width="24" height="24" viewBox="0 0 24 24" fill="none" xmlns="http://www.w3.org/2000/svg">
<g id="location-setting">
<path id="fill2" d="M21 18C21 19.6569 19.6569 21 18 21C16.3431 21 15 19.6569 15 18C15 16.3431 16.3431 15 18 15C19.6569 15 21 16.3431 21 18Z" fill="white"/>
<path id="stroke1" d="M18 10V11H20V10H18ZM11 22C11.5666 21.176 11.5668 21.1761 11.5669 21.1762C11.5669 21.1762 11.5671 21.1763 11.5671 21.1764C11.5672 21.1764 11.5671 21.1763 11.5669 21.1762C11.5665 21.176 11.5657 21.1754 11.5644 21.1745C11.5617 21.1726 11.5572 21.1695 11.5509 21.1651C11.5382 21.1562 11.5183 21.1421 11.4916 21.1231C11.4382 21.0849 11.3577 21.0266 11.254 20.9493C11.0465 20.7946 10.7467 20.5642 10.3855 20.2668C9.66141 19.6709 8.69817 18.8126 7.73804 17.7625C5.7821 15.6231 4 12.8623 4 10H3H2C2 13.637 4.2179 16.8762 6.26196 19.112C7.30183 20.2494 8.33859 21.1725 9.11454 21.8111C9.50327 22.131 9.82848 22.3811 10.0585 22.5526C10.1736 22.6384 10.2649 22.7046 10.3287 22.7502C10.3606 22.773 10.3856 22.7906 10.4032 22.803C10.412 22.8092 10.419 22.814 10.424 22.8175C10.4266 22.8193 10.4286 22.8207 10.4302 22.8218C10.431 22.8223 10.4316 22.8228 10.4322 22.8231C10.4324 22.8233 10.4327 22.8235 10.4329 22.8236C10.4332 22.8238 10.4334 22.824 11 22ZM3 10H4C4 6.13401 7.13401 3 11 3V2V1C6.02944 1 2 5.02944 2 10H3ZM11 2V3C14.866 3 18 6.13401 18 10H19H20C20 5.02944 15.9706 1 11 1V2ZM14 10H13C13 11.1046 12.1046 12 11 12V13V14C13.2091 14 15 12.2091 15 10H14ZM11 13V12C9.89543 12 9 11.1046 9 10H8H7C7 12.2091 8.79086 14 11 14V13ZM8 10H9C9 8.89543 9.89543 8 11 8V7V6C8.79086 6 7 7.79086 7 10H8ZM11 7V8C12.1046 8 13 8.89543 13 10H14H15C15 7.79086 13.2091 6 11 6V7Z" fill="black"/>
<path id="stroke2" d="M17.9999 15V13.75M17.9999 15C16.3431 15 14.9999 16.3431 14.9999 18C14.9999 19.6569 16.3431 21 17.9999 21M17.9999 15C19.6568 15 20.9999 16.3431 20.9999 18C20.9999 19.6569 19.6568 21 17.9999 21M17.9999 21V22.25M15.4019 16.5L14.3193 15.875M20.598 19.5L21.6806 20.125M20.598 16.5L21.6806 15.875M15.4019 19.5L14.3193 20.125" stroke="black" stroke-width="2" stroke-linecap="square"/>
</g>
</svg>
