<svg width="24" height="24" viewBox="0 0 24 24" fill="none" xmlns="http://www.w3.org/2000/svg">
<g id="location-1">
<path id="fill1" d="M16 6C16 8.20914 14.2091 10 12 10C9.79086 10 8 8.20914 8 6C8 3.79086 9.79086 2 12 2C14.2091 2 16 3.79086 16 6Z" fill="white"/>
<path id="stroke1" d="M12 10C14.2091 10 16 8.20914 16 6C16 3.79086 14.2091 2 12 2C9.79086 2 8 3.79086 8 6C8 8.20914 9.79086 10 12 10ZM12 10V16" stroke="black" stroke-width="2" stroke-linecap="square"/>
<path id="stroke2" d="M17 12H20L21 21H3L4 12H7" stroke="black" stroke-width="2" stroke-linecap="square"/>
</g>
</svg>
