<svg width="24" height="24" viewBox="0 0 24 24" fill="none" xmlns="http://www.w3.org/2000/svg">
    <path
        d="M12 3C10.3431 3 8.99996 4.34315 8.99996 6C8.99996 7.65685 10.3431 9 12 9C13.6568 9 15 7.65685 15 6C15 4.34315 13.6568 3 12 3ZM6.99996 6C6.99996 3.23858 9.23853 1 12 1C14.7614 1 17 3.23858 17 6C17 8.41896 15.2822 10.4367 13 10.9V17H11V10.9C8.71771 10.4367 6.99996 8.41896 6.99996 6ZM3.10491 11H7.99996V13H4.895L4.11722 20H19.8827L19.1049 13H16V11H20.895L22.1172 22H1.88269L3.10491 11Z"
        fill="black" />
</svg>