<svg width="24" height="24" viewBox="0 0 24 24" fill="none" xmlns="http://www.w3.org/2000/svg">
<g id="location-parking-place">
<path id="fill1" d="M20 10C20 16.5 12 22 12 22C12 22 4 16.4992 4 10C4 5.58172 7.58172 2 12 2C16.4183 2 20 5.58172 20 10Z" fill="white"/>
<path id="stroke1" d="M20 10C20 16.5 12 22 12 22C12 22 4 16.4992 4 10C4 5.58172 7.58172 2 12 2C16.4183 2 20 5.58172 20 10Z" stroke="black" stroke-width="2"/>
<path id="stroke2" d="M10 14V11.2M10 11.2V8H13.6364C14.0909 8 15 8.35384 15 9.6C15 10.8462 14.0909 11.2 13.6364 11.2H10Z" stroke="black" stroke-width="2" stroke-linecap="square"/>
</g>
</svg>
