<svg width="24" height="24" viewBox="0 0 24 24" fill="none" xmlns="http://www.w3.org/2000/svg">
<path d="M7.99951 7.00195C7.99951 4.79281 9.79037 3.00195 11.9995 3.00195C13.6382 3.00195 15.049 3.98751 15.6671 5.40232C15.7238 5.53201 15.7737 5.66525 15.8166 5.8016L16.1162 6.75565L18.0243 6.15635L17.7247 5.2023C17.6602 4.99706 17.585 4.7966 17.4998 4.60158C16.5749 2.48459 14.4614 1.00195 11.9995 1.00195C8.6858 1.00195 5.99951 3.68824 5.99951 7.00195V10.002H5.49951H3.49951V22.002H20.4995V10.002H7.99951V7.00195ZM14.9995 15.002V17.002H8.99951V15.002H14.9995Z" fill="black" fill-opacity="0.9" style="fill:black;fill-opacity:0.9;"/>
</svg>
