<svg width="24" height="24" viewBox="0 0 24 24" fill="none" xmlns="http://www.w3.org/2000/svg">
    <path
        d="M12 3C14.2091 3 16 4.79086 16 7V10H8V7C8 4.79086 9.79086 3 12 3ZM18 10V7C18 3.68629 15.3137 1 12 1C8.68629 1 6 3.68629 6 7V10H3.5V22H11.5V20H5.5V12H20.5V10H18ZM18.5 15C16.567 15 15 16.567 15 18.5C15 20.433 16.567 22 18.5 22C20.433 22 22 20.433 22 18.5C22 16.567 20.433 15 18.5 15ZM13 18.5C13 15.4624 15.4624 13 18.5 13C21.5376 13 24 15.4624 24 18.5C24 21.5376 21.5376 24 18.5 24C15.4624 24 13 21.5376 13 18.5ZM9 15H11.5V17H9V15ZM19.5 16.252V18.0858L20.9142 19.5001L19.4999 20.9142L17.5 18.9141V16.252H19.5Z"
        fill="black" />
</svg>