<svg width="24" height="24" viewBox="0 0 24 24" fill="none" xmlns="http://www.w3.org/2000/svg">
<path d="M11.9995 3.00195C9.79037 3.00195 7.99951 4.79281 7.99951 7.00195V10.002H20.4995V22.002H3.49951V10.002H5.99951V7.00195C5.99951 3.68824 8.6858 1.00195 11.9995 1.00195C14.4614 1.00195 16.5749 2.48459 17.4998 4.60158C17.585 4.7966 17.6602 4.99706 17.7247 5.2023L18.0243 6.15635L16.1162 6.75565L15.8166 5.8016C15.7737 5.66525 15.7238 5.53201 15.6671 5.40232C15.049 3.98751 13.6382 3.00195 11.9995 3.00195ZM5.49951 12.002V20.002H18.4995V12.002H5.49951ZM8.99951 15.002H14.9995V17.002H8.99951V15.002Z" fill="black" fill-opacity="0.9" style="fill:black;fill-opacity:0.9;"/>
</svg>
