<svg width="24" height="24" viewBox="0 0 24 24" fill="none" xmlns="http://www.w3.org/2000/svg">
<g id="lock-time">
<path id="fill2" d="M14 18.5C14 20.9853 16.0147 23 18.5 23C20.9853 23 23 20.9853 23 18.5C23 16.0147 20.9853 14 18.5 14C16.0147 14 14 16.0147 14 18.5Z" fill="white"/>
<path id="stroke1" d="M19.5 11H4.5V21H10.5M10 16H10.5M17 11V7C17 4.23858 14.7614 2 12 2C9.23858 2 7 4.23858 7 7V11H17Z" stroke="black" stroke-width="2" stroke-linecap="square"/>
<path id="stroke2" d="M18.5 17.252V18.4999L19.5 19.5M18.5 23C16.0147 23 14 20.9853 14 18.5C14 16.0147 16.0147 14 18.5 14C20.9853 14 23 16.0147 23 18.5C23 20.9853 20.9853 23 18.5 23Z" stroke="black" stroke-width="2" stroke-linecap="square"/>
</g>
</svg>
