<svg width="24" height="24" viewBox="0 0 24 24" fill="none" xmlns="http://www.w3.org/2000/svg">
<g id="logo-miniprogram">
<path id="fill1" d="M12 22C17.5229 22 22 17.5229 22 12C22 6.47715 17.5229 2 12 2C6.47715 2 2 6.47715 2 12C2 17.5229 6.47715 22 12 22Z" fill="white"/>
<path id="stroke1" d="M12 22C17.5229 22 22 17.5229 22 12C22 6.47715 17.5229 2 12 2C6.47715 2 2 6.47715 2 12C2 17.5229 6.47715 22 12 22Z" stroke="black" stroke-width="2" stroke-linecap="square"/>
<path id="stroke2" d="M9 12.05C7.85888 12.2816 7 13.2905 7 14.5C7 15.8807 8.11929 17 9.5 17C10.8807 17 12 15.8807 12 14.5V9.5C12 8.11929 13.1193 7 14.5 7C15.8807 7 17 8.11929 17 9.5C17 10.7095 16.1411 11.7184 15 11.95" stroke="black" stroke-width="2" stroke-linecap="square"/>
</g>
</svg>
