<svg width="24" height="24" viewBox="0 0 24 24" fill="none" xmlns="http://www.w3.org/2000/svg">
<g id="logo-instagram">
<rect id="fill1" x="2" y="2" width="20" height="20" rx="6" fill="white"/>
<path id="fill2" d="M16.5 12C16.5 14.4853 14.4853 16.5 12 16.5C9.51472 16.5 7.5 14.4853 7.5 12C7.5 9.51472 9.51472 7.5 12 7.5C14.4853 7.5 16.5 9.51472 16.5 12Z" fill="white"/>
<rect id="stroke1" x="2" y="2" width="20" height="20" rx="6" stroke="black" stroke-width="2"/>
<path id="stroke2" d="M17.75 6.25V5.25C17.1977 5.25 16.75 5.69772 16.75 6.25H17.75ZM17.7539 6.25H18.7539C18.7539 5.69772 18.3062 5.25 17.7539 5.25V6.25ZM17.7539 6.25391V7.25391C18.3062 7.25391 18.7539 6.80619 18.7539 6.25391H17.7539ZM17.75 6.25391H16.75C16.75 6.80619 17.1977 7.25391 17.75 7.25391V6.25391ZM16.5 12H15.5C15.5 13.933 13.933 15.5 12 15.5V16.5V17.5C15.0376 17.5 17.5 15.0376 17.5 12H16.5ZM12 16.5V15.5C10.067 15.5 8.5 13.933 8.5 12H7.5H6.5C6.5 15.0376 8.96243 17.5 12 17.5V16.5ZM7.5 12H8.5C8.5 10.067 10.067 8.5 12 8.5V7.5V6.5C8.96243 6.5 6.5 8.96243 6.5 12H7.5ZM12 7.5V8.5C13.933 8.5 15.5 10.067 15.5 12H16.5H17.5C17.5 8.96243 15.0376 6.5 12 6.5V7.5ZM17.75 6.25V7.25H17.7539V6.25V5.25H17.75V6.25ZM17.7539 6.25H16.7539V6.25391H17.7539H18.7539V6.25H17.7539ZM17.7539 6.25391V5.25391H17.75V6.25391V7.25391H17.7539V6.25391ZM17.75 6.25391H18.75V6.25H17.75H16.75V6.25391H17.75Z" fill="black"/>
</g>
</svg>
