<svg width="16" height="16" viewBox="0 0 16 16" fill="none" xmlns="http://www.w3.org/2000/svg">
<g clip-path="url(#clip0_915_10206)">
<path fill-rule="evenodd" clip-rule="evenodd" d="M8 16C12.4183 16 16 12.4183 16 8C16 3.58172 12.4183 0 8 0C3.58172 0 0 3.58172 0 8C0 12.4183 3.58172 16 8 16ZM7.99937 12.0009L6.90297 13.8999C4.11314 13.3845 2 10.939 2 8C2 7.34562 2.10476 6.7157 2.29842 6.12611L4.51622 9.96746C4.6393 10.1859 4.7835 10.3938 4.94793 10.5877C5.31884 11.0261 5.77194 11.3695 6.27066 11.6079C6.42131 11.6802 6.57719 11.7434 6.73758 11.7967C7.14746 11.9335 7.56969 12.0001 7.98853 12.0009L7.99937 12.0009ZM11.4271 10.0639L9.22711 13.8744C11.9523 13.3081 14 10.8932 14 8C14 7.29873 13.8797 6.62556 13.6586 6H11.4649C11.7622 6.51391 11.9484 7.1001 11.9907 7.72576C12.0178 8.11405 11.9884 8.50839 11.8993 8.89605C11.8036 9.31411 11.6424 9.70719 11.4271 10.0639ZM8.06237 4H12.4722C11.3736 2.7725 9.777 2 8 2C6.17449 2 4.53939 2.81525 3.43893 4.10154L4.53477 5.99959C4.74921 5.62745 5.02547 5.28673 5.35899 4.9944C5.5472 4.82902 5.74917 4.68312 5.96171 4.55757C6.28546 4.36546 6.63864 4.21772 7.01286 4.12273C7.33551 4.04047 7.66353 4.00008 7.98948 3.99959C8.01377 3.99951 8.03806 3.99964 8.06237 4ZM6.98992 9.72656C6.9932 9.72848 6.99648 9.73039 6.99977 9.73228C7.07319 9.77467 7.14818 9.81188 7.22432 9.84401C7.2524 9.85584 7.28082 9.86705 7.30954 9.87762C7.52475 9.95678 7.75733 10 8 10C8.10122 10 8.20068 9.99248 8.29786 9.97797C8.45043 9.95487 8.59997 9.91426 8.74328 9.85699C8.83022 9.82202 8.91576 9.78051 8.99926 9.7323C9.10095 9.6736 9.19553 9.6073 9.2827 9.53456C9.39353 9.44182 9.49415 9.3373 9.58266 9.22293C9.92669 8.77705 10.0684 8.20143 9.96798 7.64487C9.95792 7.58928 9.94552 7.53416 9.93082 7.47965C9.88648 7.31554 9.82032 7.15444 9.73131 7.00025C9.59115 6.7575 9.40779 6.55524 9.19654 6.39758C9.13427 6.3512 9.06865 6.30795 8.99977 6.26818C8.98246 6.25819 8.96507 6.24849 8.9476 6.23907C8.67145 6.09071 8.3634 6.00886 8.04996 6.00061C8.03336 6.0002 8.0167 6 8 6C7.97256 6 7.94525 6.00055 7.91807 6.00165C7.62437 6.01393 7.33618 6.0908 7.07539 6.22639C7.04984 6.23972 7.02446 6.25366 6.99926 6.2682C6.96976 6.28523 6.94086 6.3029 6.91257 6.32118C6.6955 6.46207 6.50747 6.64392 6.35944 6.85578C6.32713 6.9022 6.29651 6.95036 6.26771 7.00023C6.19895 7.11934 6.14382 7.24258 6.10186 7.36815C6.03578 7.56675 6 7.7792 6 8C6 8.30131 6.06663 8.58706 6.18596 8.84331C6.35816 9.2131 6.6401 9.52147 6.98992 9.72656Z" fill="black"/>
</g>
<defs>
<clipPath id="clip0_915_10206">
<rect width="16" height="16" fill="white"/>
</clipPath>
</defs>
</svg>
