<svg width="16" height="16" viewBox="0 0 16 16" fill="none" xmlns="http://www.w3.org/2000/svg">
<path d="M7.13578 1.67549C6.12671 0.782423 4.80409 0.326977 3.4591 0.409426L2.96162 0.439922L2.68647 0.855501C1.98433 1.916 1.70715 3.19885 1.90435 4.44984C1.31942 5.2497 0.96582 6.19786 0.96582 7.23028C0.96582 8.4979 1.49845 9.63685 2.33681 10.5315C2.80612 11.0324 3.37334 11.4602 4.00682 11.803L4.03351 11.8174C4.12306 11.8654 4.214 11.9117 4.30626 11.9564C4.28853 12.0926 4.27948 12.2307 4.27948 12.3698V13.1001H3.49961C3.44438 13.1001 3.39961 13.0553 3.39961 13.0001C3.39961 11.9508 2.54895 11.1001 1.49961 11.1001H0.0996094V12.9001H1.49961C1.55484 12.9001 1.59961 12.9449 1.59961 13.0001C1.59961 14.0494 2.45027 14.9001 3.49961 14.9001H4.27948V15.7139H6.27948V12.3698C6.27948 12.2941 6.28659 12.2194 6.30036 12.1466C6.32149 12.0347 6.35835 11.9269 6.40946 11.8261L6.93056 10.7984L5.8398 10.4272C5.53278 10.3227 5.2445 10.1972 4.97813 10.0545L4.9579 10.0436C4.49594 9.79351 4.10499 9.49354 3.79623 9.16403C3.2478 8.57874 2.96582 7.91182 2.96582 7.23028C2.96582 6.57894 3.22298 5.94258 3.72289 5.37709L4.05303 5.00365L3.90435 4.27355C3.7764 3.6452 3.84859 2.99715 4.10369 2.41805C4.73276 2.48667 5.33009 2.74818 5.81028 3.17317L6.54385 3.82242L7.00231 3.75638C7.32421 3.71001 7.65776 3.68557 8 3.68557C8.37706 3.68557 8.74355 3.71524 9.09552 3.7712L9.56177 3.84533L10.3212 3.17324C10.8013 2.74825 11.3987 2.48675 12.0277 2.41813C12.2828 2.99722 12.355 3.64528 12.2271 4.27363L12.0574 5.10662L12.3603 5.47462C12.8051 6.01506 13.0342 6.61508 13.0342 7.23028C13.0342 8.28016 12.3466 9.33618 11.0454 10.0418C10.7796 10.186 10.4916 10.3128 10.1846 10.4188L9.06117 10.8065L9.63528 11.8471C9.70177 11.9676 9.74733 12.0991 9.76946 12.2359C9.77965 12.2989 9.78488 12.3631 9.78488 12.4279V15.7139H11.7849V12.4279C11.7849 12.2603 11.7717 12.0942 11.7461 11.9308C11.8315 11.8886 11.9158 11.845 11.9989 11.7999C13.7406 10.8554 15.0342 9.22014 15.0342 7.23028C15.0342 6.26235 14.7231 5.36726 14.2012 4.59944C14.4457 3.30162 14.1751 1.95838 13.445 0.855575L13.1698 0.439996L12.6723 0.4095C11.3273 0.327051 10.0047 0.782497 8.99564 1.67557L8.93046 1.73326C8.62566 1.70177 8.31505 1.68557 8 1.68557C7.7257 1.68557 7.45477 1.69785 7.18812 1.72181L7.13578 1.67549Z" fill="black"/>
</svg>
