<svg width="24" height="24" viewBox="0 0 24 24" fill="none" xmlns="http://www.w3.org/2000/svg">
<path d="M12.6123 3.98242C12.6123 2.04943 14.1793 0.482422 16.1123 0.482422H17.1623V1.53242C17.1623 3.46542 15.5953 5.03242 13.6623 5.03242H12.6123V3.98242ZM17.0599 5.05669C15.7093 4.95866 14.5171 5.40626 13.7241 5.70396L13.7228 5.70445C13.6167 5.74429 13.531 5.77824 13.4538 5.80881C13.3344 5.85608 13.2352 5.89533 13.1122 5.93606C12.9354 5.99457 12.824 6.01311 12.7503 6.01311C12.5464 6.01311 12.342 5.93461 11.9502 5.78416C11.8815 5.75777 11.807 5.72918 11.7258 5.6984C10.957 5.40715 10.0019 5.06648 8.94533 5.10375C6.7695 5.18051 4.79698 6.37596 3.67999 8.23091C2.32322 10.4798 2.32305 13.2102 3.01002 15.6567C3.69817 18.1074 5.11363 20.4244 6.81665 21.9482C7.48581 22.5469 8.36405 23.0731 9.45096 23.0414L9.46425 23.0409C10.2315 23.0083 10.9274 22.7581 11.4674 22.564C11.5 22.5522 11.532 22.5407 11.5635 22.5295C12.1651 22.3142 12.6009 22.1744 13.0492 22.1744C13.4899 22.1744 13.917 22.32 14.5395 22.543L14.5772 22.5565C15.1393 22.758 15.8841 23.025 16.7181 23.0072C18.4976 22.977 19.8003 21.7422 20.6709 20.513C21.5637 19.2524 22.1785 17.7557 22.5421 16.715L22.8559 15.817L21.9746 15.4588C20.5786 14.8913 19.6619 13.6193 19.6449 12.1381C19.6298 10.8885 20.3932 9.68861 21.5473 9.00393L22.4846 8.44782L21.85 7.56169C20.7015 5.95785 18.8722 5.17559 17.0599 5.05669Z" fill="black" fill-opacity="0.9" style="fill:black;fill-opacity:0.9;"/>
</svg>
