<svg width="25" height="24" viewBox="0 0 25 24" fill="none" xmlns="http://www.w3.org/2000/svg">
    <path fill-rule="evenodd" clip-rule="evenodd"
        d="M17.501 7.71394C17.6479 7.71394 17.7943 7.71723 17.9402 7.72373C16.9237 4.59379 13.5304 2.29395 9.50098 2.29395C4.66848 2.29395 0.750977 5.60188 0.750977 9.68242C0.750977 11.9053 1.91349 13.8989 3.75315 15.2533L3.40097 17.9649L6.23857 16.5403C7.08698 16.8283 8.00117 17.0073 8.95684 17.0568C8.82239 16.5205 8.75098 15.9584 8.75098 15.3749C8.75098 10.9242 12.9067 7.71394 17.501 7.71394ZM6.75096 8.04394C7.30325 8.04394 7.75096 7.59623 7.75096 7.04394C7.75096 6.49166 7.30325 6.04394 6.75096 6.04394C6.19868 6.04394 5.75096 6.49166 5.75096 7.04394C5.75096 7.59623 6.19868 8.04394 6.75096 8.04394ZM12.251 8.05127C12.8032 8.05127 13.251 7.60355 13.251 7.05127C13.251 6.49898 12.8032 6.05127 12.251 6.05127C11.6987 6.05127 11.251 6.49898 11.251 7.05127C11.251 7.60355 11.6987 8.05127 12.251 8.05127Z"
        fill="black" />
    <path fill-rule="evenodd" clip-rule="evenodd"
        d="M24.751 15.3749C24.751 17.0774 23.9384 18.6185 22.6249 19.7336V22.5064L20.1874 21.0991C19.3566 21.3809 18.4501 21.5359 17.501 21.5359C13.4969 21.5359 10.251 18.7775 10.251 15.3749C10.251 11.9723 13.4969 9.21394 17.501 9.21394C21.505 9.21394 24.751 11.9723 24.751 15.3749ZM14.061 13.3719C14.061 13.9242 14.5087 14.3719 15.061 14.3719C15.6133 14.3719 16.061 13.9242 16.061 13.3719C16.061 12.8196 15.6133 12.3719 15.061 12.3719C14.5087 12.3719 14.061 12.8196 14.061 13.3719ZM18.941 13.3719C18.941 13.9242 19.3887 14.3719 19.941 14.3719C20.4933 14.3719 20.941 13.9242 20.941 13.3719C20.941 12.8196 20.4933 12.3719 19.941 12.3719C19.3887 12.3719 18.941 12.8196 18.941 13.3719Z"
        fill="black" />
</svg>