<svg width="24" height="24" viewBox="0 0 24 24" fill="none" xmlns="http://www.w3.org/2000/svg">
<g id="logo-figma">
<g id="fill1">
<path d="M12 1.5H15.5C17.433 1.5 19 3.067 19 5C19 6.933 17.433 8.5 15.5 8.5H12V1.5Z" fill="white"/>
<path d="M5 5C5 3.067 6.567 1.5 8.5 1.5H12V8.5H8.5C6.567 8.5 5 6.933 5 5Z" fill="white"/>
<path d="M5 12C5 10.067 6.567 8.5 8.5 8.5H12V15.5H8.5C6.567 15.5 5 13.933 5 12Z" fill="white"/>
<path d="M5 19C5 17.067 6.567 15.5 8.5 15.5H12V19C12 20.933 10.433 22.5 8.5 22.5C6.567 22.5 5 20.933 5 19Z" fill="white"/>
</g>
<path id="fill2" d="M19 12C19 13.933 17.433 15.5 15.5 15.5C13.567 15.5 12 13.933 12 12C12 10.067 13.567 8.5 15.5 8.5C17.433 8.5 19 10.067 19 12Z" fill="white"/>
<path id="stroke1" d="M12 1.5V8.5M12 1.5H15.5C17.433 1.5 19 3.067 19 5C19 6.933 17.433 8.5 15.5 8.5M12 1.5H8.5C6.567 1.5 5 3.067 5 5C5 6.933 6.567 8.5 8.5 8.5M12 8.5H15.5M12 8.5H8.5M12 8.5V15.5M15.5 8.5C13.567 8.5 12 10.067 12 12C12 13.933 13.567 15.5 15.5 15.5C17.433 15.5 19 13.933 19 12C19 10.067 17.433 8.5 15.5 8.5ZM8.5 8.5C6.567 8.5 5 10.067 5 12C5 13.933 6.567 15.5 8.5 15.5M12 15.5H8.5M12 15.5V19C12 20.933 10.433 22.5 8.5 22.5C6.567 22.5 5 20.933 5 19C5 17.067 6.567 15.5 8.5 15.5" stroke="black" stroke-width="2"/>
</g>
</svg>
