<svg width="24" height="24" viewBox="0 0 24 24" fill="none" xmlns="http://www.w3.org/2000/svg">
<path d="M11.25 1.04199C5.17617 1.04199 0.25 6.09175 0.25 12.3201C0.25 17.3031 3.4015 21.5305 7.77308 23.022C8.32217 23.1264 8.5 22.7767 8.5 22.4797V20.3801C5.44017 21.0625 4.80308 19.0493 4.80308 19.0493C4.30258 17.7458 3.58117 17.399 3.58117 17.399C2.58292 16.6988 3.65725 16.7138 3.65725 16.7138C4.76183 16.7928 5.343 17.8764 5.343 17.8764C6.32383 19.6001 7.91608 19.102 8.544 18.8134C8.64208 18.0851 8.92717 17.5869 9.2425 17.3059C6.79958 17.0193 4.23108 16.0522 4.23108 11.7317C4.23108 10.4996 4.661 9.49398 5.36408 8.70451C5.25042 8.41974 4.87367 7.27219 5.47133 5.71958C5.47133 5.71958 6.39533 5.41695 8.49725 6.87558C9.3745 6.62558 10.315 6.50058 11.25 6.49589C12.185 6.50058 13.1264 6.62558 14.0055 6.87558C16.1056 5.41695 17.0278 5.71958 17.0278 5.71958C17.6263 7.27313 17.2496 8.42068 17.1359 8.70451C17.8417 9.49398 18.268 10.5005 18.268 11.7317C18.268 16.0635 15.6949 17.0174 13.2456 17.2965C13.6397 17.6461 14 18.3322 14 19.3849V22.4797C14 22.7796 14.176 23.132 14.7342 23.0211C19.1022 21.5277 22.25 17.3012 22.25 12.3201C22.25 6.09175 17.3248 1.04199 11.25 1.04199Z" fill="black" fill-opacity="0.9" style="fill:black;fill-opacity:0.9;"/>
</svg>
