<svg width="16" height="16" viewBox="0 0 16 16" fill="none" xmlns="http://www.w3.org/2000/svg">
<path d="M5.5998 4.1998C5.5998 4.69686 5.19686 5.0998 4.6998 5.0998C4.20275 5.0998 3.7998 4.69686 3.7998 4.1998C3.7998 3.70275 4.20275 3.2998 4.6998 3.2998C5.19686 3.2998 5.5998 3.70275 5.5998 4.1998Z" fill="black"/>
<path d="M8.30039 5.0998C8.79745 5.0998 9.20039 4.69686 9.20039 4.1998C9.20039 3.70275 8.79745 3.2998 8.30039 3.2998C7.80333 3.2998 7.40039 3.70275 7.40039 4.1998C7.40039 4.69686 7.80333 5.0998 8.30039 5.0998Z" fill="black"/>
<path d="M9.8 9.4C9.8 9.89706 9.39706 10.3 8.9 10.3C8.40294 10.3 8 9.89706 8 9.4C8 8.90294 8.40294 8.5 8.9 8.5C9.39706 8.5 9.8 8.90294 9.8 9.4Z" fill="black"/>
<path d="M12.1002 10.3C12.5973 10.3 13.0002 9.89706 13.0002 9.4C13.0002 8.90294 12.5973 8.5 12.1002 8.5C11.6031 8.5 11.2002 8.90294 11.2002 9.4C11.2002 9.89706 11.6031 10.3 12.1002 10.3Z" fill="black"/>
<path fill-rule="evenodd" clip-rule="evenodd" d="M1.83436 12.5377C1.53315 12.6762 1.19756 12.428 1.24176 12.0995L1.55622 9.762C0.585904 8.72793 0 7.38576 0 5.91898C0 2.65002 2.91015 0 6.5 0C10.0709 0 12.9693 2.62212 12.9998 5.86728C14.7807 6.69622 16 8.38328 16 10.3297C16 11.5705 15.5044 12.706 14.6837 13.581L14.9331 15.4353C14.9777 15.767 14.639 16.0175 14.3349 15.8777L12.4541 15.0127C11.8469 15.2229 11.1882 15.338 10.5 15.338C7.99316 15.338 5.87804 13.8108 5.21545 11.7224C4.86296 11.658 4.52077 11.5677 4.19139 11.4538L1.83436 12.5377ZM5.0269 9.83117C5.30165 7.29915 7.64718 5.32129 10.5 5.32129C10.7215 5.32129 10.9399 5.33321 11.1545 5.35639C10.8474 3.4586 9.01226 1.8 6.5 1.8C3.74193 1.8 1.8 3.79904 1.8 5.91898C1.8 6.89027 2.1847 7.80123 2.86884 8.53032L3.45421 9.15416L3.35994 9.8549L4.0965 9.51618L4.78005 9.75273C4.86117 9.78081 4.94348 9.80698 5.0269 9.83117ZM12.8159 13.1979L12.7857 12.9733L13.3709 12.3494C13.9056 11.7795 14.2 11.0752 14.2 10.3297C14.2 8.71264 12.7058 7.12129 10.5 7.12129C8.29422 7.12129 6.8 8.71264 6.8 10.3297C6.8 11.9467 8.29422 13.538 10.5 13.538C10.9869 13.538 11.4466 13.4567 11.8652 13.3118L12.5489 13.0751L12.8159 13.1979Z" fill="black"/>
</svg>
