<svg width="24" height="24" viewBox="0 0 24 24" fill="none" xmlns="http://www.w3.org/2000/svg">
<path d="M12.0001 1C18.0753 1 23.0001 5.92487 23.0001 12C23.0001 18.0751 18.0753 23 12.0001 23C5.92499 23 1.00012 18.0751 1.00012 12C1.00012 5.92487 5.92499 1 12.0001 1ZM5.1606 6.14988L7.38329 9.9997L7.59554 9.63209C7.79536 9.26115 8.04067 8.91833 8.32401 8.61112C8.57675 8.33627 8.85643 8.0943 9.1565 7.88698C9.82042 7.42706 10.6011 7.12374 11.445 7.03048C11.6663 7.00549 11.8897 6.99519 12.1136 6.99999H19.4846C17.87 4.58802 15.1205 3 12.0001 3C9.26301 3 6.81127 4.22185 5.1606 6.14988ZM3.92812 8.01517C3.33401 9.21635 3.00012 10.5692 3.00012 12C3.00012 16.4091 6.17073 20.0778 10.3563 20.8502L12.5793 17H12.0827C11.95 17.002 11.8176 16.9987 11.6857 16.9902C9.91114 16.88 8.38728 15.8442 7.59116 14.3597L3.92812 8.01517ZM12.5903 20.981C17.2857 20.677 21.0001 16.7723 21.0001 12C21.0001 10.9481 20.8197 9.93833 20.488 8.99999H16.0437L16.2835 9.41532C16.3885 9.58957 16.4824 9.76962 16.565 9.95433C16.8616 10.6138 17.0036 11.3106 17.0029 11.9997C17.0036 12.6892 16.8614 13.3864 16.5645 14.0463C16.482 14.2305 16.3883 14.4101 16.2836 14.584L12.5903 20.981ZM9.40403 13.4997C9.93639 14.4218 10.8843 14.9544 11.8747 14.9974C11.9164 14.9991 11.9583 15 12.0004 15H12.0431C12.5396 14.9937 13.0415 14.8638 13.5021 14.5978C13.9572 14.335 14.3174 13.971 14.5707 13.5507L14.6002 13.4997C14.6523 13.4094 14.6992 13.3176 14.7409 13.2246C14.9126 12.8399 15.0024 12.4216 15.0026 11.9985C15.0021 11.5769 14.9125 11.1602 14.7417 10.7767C14.6998 10.683 14.6526 10.5906 14.6002 10.4997L14.5706 10.4485C14.3173 10.0283 13.9572 9.66432 13.5021 9.4016C13.0512 9.14127 12.5608 9.0113 12.0746 8.99999H12.0004C11.882 8.99999 11.7652 9.00684 11.6504 9.02018C10.7431 9.12799 9.89606 9.64747 9.40404 10.4997L9.34968 10.5938C9.12672 11.0132 9.00039 11.4919 9.00039 12C9.00039 12.5053 9.12535 12.9815 9.34605 13.3993L9.40403 13.4997Z" fill="black" fill-opacity="0.9" style="fill:black;fill-opacity:0.9;"/>
</svg>
