<svg width="16" height="16" viewBox="0 0 16 16" fill="none" xmlns="http://www.w3.org/2000/svg">
<path d="M6 8.50024C6 9.05249 5.55228 9.50024 5 9.50024C4.44772 9.50024 4 9.05249 4 8.50024C4 7.948 4.44772 7.50024 5 7.50024C5.55228 7.50024 6 7.948 6 8.50024Z" fill="#1A1A1A"/>
<path d="M11 9.50024C11.5523 9.50024 12 9.05249 12 8.50024C12 7.948 11.5523 7.50024 11 7.50024C10.4477 7.50024 10 7.948 10 8.50024C10 9.05249 10.4477 9.50024 11 9.50024Z" fill="#1A1A1A"/>
<path fill-rule="evenodd" clip-rule="evenodd" d="M16 11.0002C16 8.89648 15.188 6.98242 13.8602 5.55432L15.4144 4.00012L14.0002 2.58594L12.3202 4.26587C11.0742 3.46484 9.59134 3.00024 8 3.00024C6.40866 3.00024 4.92584 3.46484 3.67981 4.26587L1.99985 2.58594L0.585632 4.00012L2.1398 5.55432C0.812042 6.98242 0 8.89648 0 11.0002V13.0002H16V11.0002ZM14 11.0002C14 7.68652 11.3137 5.00024 8 5.00024C4.68628 5.00024 2 7.68652 2 11.0002H14Z" fill="#1A1A1A"/>
</svg>
