<svg width="16" height="16" viewBox="0 0 16 16" fill="none" xmlns="http://www.w3.org/2000/svg">
<path d="M5.34101 7.31389C5.61303 7.00343 5.90178 6.69471 6.20618 6.39031L6.21573 6.38077H9.82136C9.61419 5.57584 8.8835 4.98109 8.01391 4.98109C7.92742 4.98109 7.8423 4.98697 7.75893 4.99836C8.13148 4.70069 8.50405 4.42796 8.87221 4.182C9.99838 4.54437 10.8133 5.60067 10.8133 6.84733V7.31389H5.34101Z" fill="black" fill-opacity="0.9"/>
<path fill-rule="evenodd" clip-rule="evenodd" d="M3.74372 14.9996C3.02134 15.0093 2.28332 14.8198 1.73174 14.2683C1.18016 13.7167 0.990659 12.9787 1.00035 12.2563C1.00999 11.538 1.21364 10.757 1.53993 9.97391C1.58589 9.86359 1.63467 9.75234 1.68618 9.64027C1.55291 9.12028 1.48205 8.57528 1.48205 8.01373C1.48205 4.40629 4.40646 1.48188 8.01391 1.48188C8.5755 1.48188 9.12054 1.55276 9.64057 1.68605C9.75254 1.63458 9.86369 1.58585 9.97391 1.53993C10.757 1.21364 11.538 1.00999 12.2563 1.00035C12.9787 0.990659 13.7167 1.18016 14.2683 1.73174C14.8198 2.28332 15.0093 3.02134 14.9996 3.74372C14.99 4.46198 14.7864 5.243 14.4601 6.02609C14.418 6.12698 14.3736 6.22866 14.327 6.33102C14.4697 6.86789 14.5458 7.43193 14.5458 8.01373C14.5458 8.35498 14.5196 8.69041 14.469 9.01805L14.4079 9.41342H6.20646C6.41363 10.2184 7.14431 10.8131 8.01391 10.8131C8.62418 10.8131 9.16601 10.5207 9.50728 10.0663L9.64726 9.87998H14.3144L14.045 10.5261C13.061 12.8857 10.7318 14.5456 8.01391 14.5456C7.43215 14.5456 6.86815 14.4695 6.33132 14.3268C6.22886 14.3736 6.12708 14.418 6.02609 14.4601C5.243 14.7864 4.46198 14.99 3.74372 14.9996ZM5.03857 13.8301C3.88539 14.1954 2.93355 14.1504 2.39156 13.6084C1.11613 12.333 2.59318 8.7881 5.69064 5.69064C8.7881 2.59318 12.333 1.11613 13.6084 2.39156C14.1504 2.93351 14.1954 3.88522 13.8302 5.03826C13.367 4.13463 12.6994 3.35308 11.8885 2.75462C11.535 2.83943 11.1581 2.9676 10.7648 3.13627C12.4649 4.09723 13.6126 5.92145 13.6126 8.01373C13.6126 8.17093 13.6062 8.32653 13.5935 8.4803H5.21454V8.94686C5.21454 10.4929 6.46787 11.7462 8.01391 11.7462C8.84327 11.7462 9.58841 11.3852 10.1004 10.8131H12.8637C11.8954 12.4871 10.0856 13.6125 8.01391 13.6125C5.88026 13.6125 4.02537 12.4189 3.08047 10.6631C2.90313 11.0414 2.76124 11.4064 2.6572 11.7525C3.26722 12.6249 4.08492 13.3413 5.03857 13.8301ZM8.28136 2.42128C7.19765 3.09209 6.08316 3.97849 5.03082 5.03082C3.97858 6.08307 3.09224 7.19746 2.42145 8.28109C2.41728 8.1925 2.41517 8.10336 2.41517 8.01373C2.41517 4.92164 4.92181 2.415 8.01391 2.415C8.10357 2.415 8.19273 2.41711 8.28136 2.42128Z" fill="black" fill-opacity="0.9"/>
</svg>
