<svg width="16" height="16" viewBox="0 0 16 16" fill="none" xmlns="http://www.w3.org/2000/svg">
<path d="M11.8409 9.11904H15.4994C15.5275 8.87541 15.5388 8.62646 15.5388 8.37198C15.5388 7.1781 15.205 6.05828 14.6225 5.09395C15.225 3.55651 15.2036 2.25164 14.3969 1.47179C13.6298 0.738429 11.5717 0.857479 9.24503 1.84681C9.07294 1.83431 8.89917 1.82788 8.72376 1.82788C5.53033 1.82788 2.85097 3.93809 2.11042 6.78141C3.11218 5.54985 4.16609 4.65693 5.57397 4.00667C5.44595 4.12186 4.69903 4.8349 4.57339 4.95562C0.860727 8.51954 -0.310059 13.1751 0.949691 14.385C1.90728 15.3043 3.64267 15.149 5.63605 14.2116C6.56296 14.6649 7.61211 14.9205 8.72366 14.9205C11.7169 14.9205 14.2535 13.0704 15.1724 10.4938H11.4858C10.9785 11.3924 9.98644 12.004 8.84779 12.004C7.70915 12.004 6.71695 11.3924 6.20968 10.4938C5.98418 10.0879 5.85454 9.62241 5.85454 9.12975V9.11904H11.8409ZM5.86003 7.39234C5.94459 5.94713 7.19601 4.79415 8.72366 4.79415C10.2513 4.79415 11.5027 5.9471 11.5872 7.39234H5.86003ZM14.3635 2.19854C14.8831 2.70274 14.8701 3.63039 14.4257 4.78834C13.6642 3.67355 12.5578 2.7951 11.2517 2.29352C12.6482 1.7185 13.7843 1.64233 14.3635 2.19854ZM1.91073 14.1555C1.24767 13.5186 1.44754 12.1819 2.30173 10.5714C2.83345 12.0042 3.8695 13.2069 5.20516 13.9817C3.72617 14.6264 2.51561 14.7359 1.91073 14.1555Z" fill="black" fill-opacity="0.9"/>
</svg>
