<svg width="24" height="24" viewBox="0 0 24 24" fill="none" xmlns="http://www.w3.org/2000/svg">
<g id="logo-twitter">
<path id="stroke1" d="M22.582 4.80078C22.0586 5.22266 21.1055 5.67969 20.4999 5.81771C19.6895 4.14975 17.979 3 16 3C13.2386 3 11 5.23858 11 8L11 8.99997C7.27005 8.99997 3.93758 7.29821 1.73663 4.62874C1.26128 5.82662 1 7.13272 1 8.49986C1 12.9338 3.74829 16.7258 7.63432 18.2654C6.21468 19.2539 4.58031 19.9554 2.81523 20.286C4.62138 21.3743 6.73756 22.0004 8.99999 22.0004C15.6274 22.0004 21 16.6274 21 10V8.83057C21.707 7.96875 22.1546 7.36842 22.6037 6.71189" stroke="black" stroke-width="2" stroke-linecap="square"/>
</g>
</svg>
