<svg width="24" height="24" viewBox="0 0 24 24" fill="none" xmlns="http://www.w3.org/2000/svg">
    <path
        d="M17.5847 5.08937C18.217 5.74795 18.7419 6.49037 19.1237 7.28066C19.5896 8.22657 19.8487 9.21963 19.8928 10.2599C19.7116 10.1966 19.5219 10.1496 19.3249 10.1209C17.6624 9.87846 16.1182 11.0297 15.8758 12.6922C15.8315 12.9961 15.8337 13.2962 15.8772 13.585L15.8455 13.5802C14.183 13.3378 12.6388 14.489 12.3964 16.1515C12.2475 17.1729 12.6246 18.1497 13.3231 18.8073C12.6647 19.0154 11.9712 19.1649 11.2619 19.243C10.8205 19.2908 10.3791 19.3149 9.94957 19.3149C9.53203 19.3149 9.11448 19.2908 8.69693 19.243C8.05271 19.1712 7.44429 19.0634 6.83585 18.8838L3.99654 20.3207C3.99654 20.3207 3.72529 20.4523 3.55512 20.4523C3.13758 20.4523 2.85357 20.1671 2.85357 19.748C2.85357 19.5009 2.92189 19.1449 2.98248 18.9077C3.04308 18.6705 3.37618 17.2552 3.37618 17.2552C2.64845 16.6686 1.81334 15.7106 1.32422 14.9682C0.453338 13.663 0 12.1662 0 10.6574C0 9.48394 0.262458 8.34638 0.787376 7.2687C1.18106 6.46641 1.70599 5.73599 2.33827 5.0774C3.94881 3.41297 6.21551 2.34726 8.69693 2.07185C9.1264 2.02395 9.54395 2 9.94957 2C10.3791 2 10.8205 2.02395 11.2619 2.07185C13.7314 2.34726 15.9742 3.42495 17.5847 5.08937Z"
        fill="black" />
    <path
        d="M21.4267 15.1116L21.4506 15.1355C21.546 15.2673 21.546 15.4589 21.4148 15.5905C21.2836 15.7224 21.0807 15.7224 20.9494 15.5905C20.9137 15.5427 20.866 15.4948 20.8182 15.4468C20.186 14.8122 19.4105 14.4171 18.5873 14.2614C18.5754 14.2614 18.5605 14.2584 18.5456 14.2555C18.5306 14.2525 18.5157 14.2495 18.5038 14.2495C18.48 14.2495 18.4442 14.2495 18.4203 14.2375C18.1698 14.1776 17.9431 14.0579 17.7522 13.8663C17.2154 13.3274 17.2154 12.4413 17.7522 11.9025C18.2891 11.3637 19.1719 11.3637 19.7087 11.9025C19.8877 12.0701 20.0069 12.2857 20.0666 12.5132L20.1024 12.6569C20.1024 12.6736 20.105 12.6928 20.1078 12.7134C20.111 12.7373 20.1144 12.7629 20.1144 12.7886C20.2694 13.5909 20.6632 14.3572 21.2836 14.9799L21.3789 15.0757C21.3849 15.0817 21.3938 15.0876 21.4027 15.0935C21.4117 15.0995 21.4207 15.1056 21.4267 15.1116Z"
        fill="black" />
    <path
        d="M20.3763 19.5301L20.4002 19.5062C20.4061 19.5002 20.412 19.4913 20.4179 19.4824C20.4239 19.4734 20.43 19.4644 20.4359 19.4584L20.5314 19.3625C21.1517 18.7399 21.9152 18.3447 22.7146 18.1891C22.7401 18.1891 22.7657 18.1857 22.7894 18.1824C22.81 18.1797 22.8292 18.1771 22.8458 18.1771L22.9889 18.1412C23.2156 18.0813 23.4304 17.9615 23.5974 17.7819C24.1342 17.243 24.1342 16.357 23.5974 15.8182C23.0606 15.2793 22.1777 15.2793 21.6409 15.8182C21.45 16.0097 21.3308 16.2372 21.2711 16.4887C21.2591 16.5126 21.2591 16.5485 21.2591 16.5724C21.2591 16.5845 21.2561 16.5995 21.2531 16.6145C21.2502 16.6295 21.2472 16.6444 21.2472 16.6563C21.0921 17.4826 20.6984 18.2608 20.0662 18.8954L20.0644 18.8972C20.0172 18.9446 19.9701 18.9918 19.9229 19.0273C19.7917 19.159 19.7917 19.3625 19.9229 19.4942C20.0662 19.626 20.2571 19.626 20.3763 19.5301Z"
        fill="black" />
    <path
        d="M16.0096 18.4523L16.0335 18.4762C16.0395 18.4823 16.0485 18.4883 16.0575 18.4944C16.0664 18.5003 16.0752 18.5062 16.0811 18.5121L16.1766 18.6079C16.7969 19.2306 17.1906 19.9969 17.3457 20.7992C17.3457 20.8249 17.3491 20.8506 17.3523 20.8745C17.355 20.8951 17.3576 20.9144 17.3576 20.931L17.3935 21.0746C17.4531 21.3022 17.5724 21.5177 17.7514 21.6853C18.2882 22.2242 19.171 22.2242 19.7078 21.6853C20.2447 21.1464 20.2447 20.2605 19.7078 19.7216C19.5171 19.5299 19.2904 19.4103 19.0398 19.3503C19.0159 19.3384 18.9801 19.3384 18.9562 19.3384C18.9444 19.3384 18.9295 19.3354 18.9146 19.3324C18.8997 19.3294 18.8848 19.3264 18.8728 19.3264C18.0497 19.1708 17.2742 18.7756 16.6419 18.141C16.5941 18.093 16.5465 18.0451 16.5107 17.9973C16.3795 17.8656 16.1766 17.8656 16.0453 17.9973C15.9022 18.129 15.9022 18.3325 16.0096 18.4523Z"
        fill="black" />
    <path
        d="M17.0715 14.0699L17.0476 14.0939C17.0418 14.0998 17.0359 14.1087 17.03 14.1176C17.024 14.1266 17.0179 14.1357 17.0119 14.1418L16.9164 14.2376C16.2961 14.8603 15.5326 15.2555 14.7333 15.411C14.7077 15.411 14.6821 15.4145 14.6584 15.4177C14.6378 15.4205 14.6186 15.4231 14.602 15.4231L14.4589 15.459C14.2322 15.5188 14.0175 15.6386 13.8504 15.8182C13.3136 16.357 13.3136 17.2431 13.8504 17.782C14.3873 18.3209 15.2701 18.3209 15.8069 17.782C15.9978 17.5903 16.1172 17.3629 16.1768 17.1114C16.1887 17.0875 16.1887 17.0516 16.1887 17.0275C16.1887 17.0156 16.1917 17.0006 16.1947 16.9857C16.1976 16.9707 16.2006 16.9558 16.2006 16.9438C16.3557 16.1175 16.7494 15.3392 17.3816 14.7046L17.3836 14.7026C17.4307 14.6554 17.4778 14.6083 17.5249 14.5728C17.6561 14.4411 17.6561 14.2376 17.5249 14.1059C17.3937 13.9622 17.2028 13.9622 17.0715 14.0699Z"
        fill="black" />
</svg>