<svg width="16" height="16" viewBox="0 0 16 16" fill="none" xmlns="http://www.w3.org/2000/svg">
<path fill-rule="evenodd" clip-rule="evenodd" d="M0 6.34211C0 3.65964 2.58916 1.48486 5.78309 1.48486C8.66826 1.48486 10.9816 3.25946 11.4171 5.58C11.3917 5.57876 11.3709 5.57763 11.3525 5.57662C11.2954 5.5735 11.2605 5.5716 11.1808 5.5716C8.26779 5.5716 5.90654 7.55512 5.90654 10.0016C5.90654 10.4142 5.97492 10.8131 6.10069 11.1921C5.9955 11.1968 5.88973 11.1997 5.78309 11.1997C5.12312 11.1997 4.48605 11.1046 3.89534 10.9334C3.84158 10.9168 3.78464 10.908 3.72538 10.908C3.61425 10.908 3.51355 10.942 3.41851 10.9972L2.15218 11.734C2.11697 11.7546 2.08292 11.7701 2.0409 11.7701C1.93441 11.7701 1.8482 11.6833 1.8482 11.5759C1.8482 11.5396 1.85893 11.5035 1.86943 11.4681C1.87284 11.4566 1.87622 11.4452 1.87921 11.4339C1.88541 11.4105 2.00066 10.9771 2.09479 10.6232L2.13972 10.4542C2.15102 10.4128 2.16015 10.3735 2.16015 10.3305C2.16015 10.1996 2.09611 10.0842 1.99816 10.0137C0.779067 9.1234 0 7.80593 0 6.34211ZM3.17162 4.78789C3.17162 5.16837 3.47777 5.47698 3.85564 5.47698C4.23293 5.47698 4.53908 5.16837 4.53908 4.78789C4.53908 4.40727 4.23293 4.0988 3.85564 4.0988C3.47777 4.0988 3.17162 4.40727 3.17162 4.78789ZM7.02711 4.78789C7.02711 5.16837 7.33326 5.47684 7.71084 5.47684C8.08842 5.47684 8.39457 5.16837 8.39457 4.78789C8.39457 4.40727 8.08842 4.0988 7.71084 4.0988C7.33326 4.0988 7.02711 4.40727 7.02711 4.78789Z" fill="black" fill-opacity="0.9"/>
<path fill-rule="evenodd" clip-rule="evenodd" d="M16 10.0015C16 11.2212 15.3509 12.319 14.3349 13.0611C14.2532 13.1198 14.1999 13.2163 14.1999 13.325C14.1999 13.3607 14.2076 13.3938 14.2169 13.4281C14.2981 13.7331 14.428 14.2217 14.434 14.2446C14.4366 14.2544 14.4395 14.2643 14.4425 14.2743C14.4511 14.3033 14.46 14.3331 14.46 14.3631C14.46 14.4523 14.3881 14.5249 14.2993 14.5249C14.2644 14.5249 14.2358 14.5116 14.2063 14.4948L13.1515 13.8807C13.0721 13.8345 12.9881 13.8061 12.8956 13.8061C12.8462 13.8061 12.7987 13.8138 12.7539 13.8276C12.2616 13.9701 11.7306 14.0494 11.1807 14.0494C8.51925 14.0494 6.36142 12.2371 6.36142 10.0015C6.36142 7.76586 8.51925 5.95388 11.1807 5.95388C13.8425 5.95388 16 7.76586 16 10.0015ZM8.9726 8.70634C8.9726 9.04117 9.2421 9.31255 9.57433 9.31255C9.9067 9.31255 10.176 9.04117 10.176 8.70634C10.176 8.37135 9.9067 8.09983 9.57433 8.09983C9.2421 8.09983 8.9726 8.37135 8.9726 8.70634ZM12.1858 8.70634C12.1858 9.04117 12.4549 9.31255 12.7872 9.31255C13.1196 9.31255 13.389 9.04117 13.389 8.70634C13.389 8.37135 13.1196 8.09983 12.7872 8.09983C12.4549 8.09983 12.1858 8.37135 12.1858 8.70634Z" fill="black" fill-opacity="0.9"/>
</svg>
