<svg width="24" height="24" viewBox="0 0 24 24" fill="none" xmlns="http://www.w3.org/2000/svg">
    <path
        d="M2.74684 17.9507L2.76601 17.991L2.80336 18.048C2.97806 18.3146 3.16753 18.5732 3.37035 18.8221C5.38509 21.3672 8.5018 23 11.9999 23C18.075 23 22.9999 18.0751 22.9999 12C22.9999 9.52124 22.18 7.23398 20.7966 5.3946C19.857 4.11252 18.5953 2.97926 16.9457 2.17191C15.4589 1.42222 13.7787 1 11.9999 1C5.92475 1 0.999878 5.92487 0.999878 12C0.999878 14.1925 1.64134 16.2352 2.74684 17.9507ZM3.42067 9.27224C4.57604 5.63519 7.98022 3 11.9999 3C13.0629 3 14.083 3.18431 15.0297 3.52273C14.9524 3.73025 14.8353 3.83032 14.6339 3.88347L14.6269 3.88533C13.6389 4.15368 12.668 4.40496 11.6965 4.58985L11.6911 4.59089C9.58245 5.00416 7.57799 5.74968 5.79364 7.11436C4.92848 7.68395 4.09955 8.40374 3.42067 9.27224ZM4.9443 17.588C4.78665 17.3892 4.63723 17.1836 4.49655 16.9717C3.57904 14.9875 3.61882 13.3574 4.11386 12.0518C4.62831 10.695 5.67751 9.5792 6.92 8.76741L6.9524 8.74624L6.98307 8.72263C7.16461 8.58286 7.34945 8.45041 7.53755 8.3249C6.79051 10.276 6.96563 12.5282 8.24649 14.4565C9.7736 16.7555 12.489 17.8527 15.0824 17.5082C13.5844 19.1722 11.1906 20.2445 9.11327 20.0064C7.56268 19.8287 6.03323 18.9118 4.9443 17.588ZM20.3496 8.63473C20.769 9.67432 20.9999 10.8102 20.9999 12C20.9999 16.1811 18.1487 19.6963 14.2846 20.7074C15.3951 20.0468 16.3719 19.1799 17.0991 18.1982L17.0998 18.1972C18.4148 16.4174 19.0971 14.4041 19.4134 12.3044C19.5548 11.3625 19.725 10.4265 19.9151 9.48653C19.985 9.14328 20.1303 8.85647 20.3496 8.63473ZM16.8286 4.40366C17.752 4.9919 18.561 5.74391 19.2146 6.61879C19.2712 6.69688 19.3263 6.7757 19.38 6.85519C19.292 6.91161 19.2082 6.97365 19.1294 7.03993L19.1228 7.04554L19.1162 7.05126C18.4753 7.60982 18.1083 8.33598 17.9552 9.08784L17.955 9.08913C17.7598 10.0544 17.5832 11.024 17.4357 12.0065C17.2821 13.0263 17.0364 13.9915 16.6697 14.8945C14.4032 16.2155 11.3725 15.5479 9.91244 13.3499C8.43902 11.1317 9.01534 8.29911 11.2099 6.74673C11.4929 6.67539 11.7808 6.6114 12.0734 6.55401C13.1227 6.35418 14.1535 6.08634 15.148 5.81626C15.9022 5.61612 16.4992 5.12934 16.8286 4.40366Z"
        fill="black" />
</svg>