<svg xmlns="http://www.w3.org/2000/svg" xmlns:xlink="http://www.w3.org/1999/xlink" width="16" height="16"
    viewBox="0 0 16 16">
    <g fill="none">
        <path fill-rule="evenodd" clip-rule="evenodd"
            d="M8.54272 1.95011L8.54265 1.95011C7.97344 1.90887 7.5174 1.95599 7.16177 2.03716L9.68908 3.99922L10.1938 2.51587C9.84335 2.28104 9.28281 2.00367 8.54272 1.95011ZM9.48351 5.02318L5.77175 2.14159C5.58787 1.99888 5.59886 1.716 5.79542 1.59144C6.25109 1.30223 7.15314 0.912105 8.6102 1.01766C9.91128 1.11181 10.7778 1.74851 11.1206 2.05081C11.2229 2.14074 11.2606 2.28345 11.2166 2.41222L10.424 4.74156C10.2904 5.13338 9.81068 5.27693 9.48351 5.02318Z"
            fill="currentColor"></path>
        <path fill-rule="evenodd" clip-rule="evenodd"
            d="M2.06675 10.9654C1.915 11.0672 1.84652 11.2547 1.89555 11.4307C2.03674 11.9374 2.45733 12.9916 3.65104 13.9509C4.84476 14.9102 6.25701 15.0136 6.86063 14.9988C7.04112 14.9946 7.19837 14.876 7.2529 14.7037L9.6323 7.18201C9.80391 6.63904 9.1948 6.18347 8.72179 6.50098L2.06675 10.9654ZM6.47746 14.0553L8.45428 7.80621L2.91532 11.522C3.09612 11.9586 3.47135 12.6072 4.23666 13.2222C4.99926 13.835 5.89482 14.015 6.47746 14.0553Z"
            fill="currentColor"></path>
        <path fill-rule="evenodd" clip-rule="evenodd"
            d="M2.17114 5.87737L2.17098 5.87779C1.93535 6.49078 1.90916 7.17553 1.95175 7.73628L7.59553 5.53533L3.69523 3.99027C3.27841 4.25933 2.56746 4.84486 2.17114 5.87737ZM3.80581 3.0285C3.68915 2.98248 3.55853 2.99008 3.44821 3.05004C3.00775 3.28943 1.87998 4.02703 1.29834 5.54235C0.849426 6.71019 1.00752 8.00173 1.13095 8.63336C1.17153 8.83982 1.38964 8.95889 1.58578 8.88247L8.72481 6.0984C9.2346 5.89954 9.23671 5.17967 8.72777 4.97828L3.80581 3.0285Z"
            fill="currentColor"></path>
        <path fill-rule="evenodd" clip-rule="evenodd"
            d="M14.396 8.418C14.6022 8.55775 14.8846 8.43446 14.9205 8.18789C15.0152 7.53515 15.0972 6.39898 14.7189 5.54189C14.2146 4.39981 13.3587 3.69556 12.9524 3.4093C12.8239 3.31895 12.6506 3.32824 12.5327 3.43252L10.7311 5.02848C10.4369 5.28899 10.4674 5.75637 10.7928 5.97719L14.396 8.418ZM12.779 4.46332L11.6723 5.44372L14.0647 7.06435C14.0597 6.65338 14.0058 6.2416 13.8637 5.91952M12.779 4.46332C13.1309 4.77427 13.5727 5.2606 13.8637 5.91952Z"
            fill="currentColor"></path>
        <path fill-rule="evenodd" clip-rule="evenodd"
            d="M10.3613 13.818C10.9525 13.6717 11.6644 13.3896 12.2265 12.8532C12.9188 12.1928 13.2248 11.4231 13.3523 10.9723L10.8797 7.92423L10.3825 13.5759L10.3613 13.818ZM9.36174 14.5107C9.36175 14.5107 9.36174 14.5108 9.36174 14.5107C9.36159 14.5125 9.36187 14.5143 9.36174 14.5161C9.36053 14.5329 9.36055 14.5494 9.36174 14.5657C9.36187 14.5674 9.36201 14.5692 9.36216 14.5709C9.37851 14.7551 9.54405 14.8966 9.73583 14.876C10.4185 14.803 11.821 14.5323 12.8719 13.5296C13.8948 12.5538 14.2275 11.3953 14.3243 10.9342C14.3505 10.8097 14.3192 10.6801 14.2389 10.5813L11.0889 6.69818C10.7478 6.27766 10.0677 6.48538 10.0203 7.02455L9.36174 14.5107Z"
            fill="currentColor"></path>
    </g>
</svg>