<svg width="16" height="16" viewBox="0 0 16 16" fill="none" xmlns="http://www.w3.org/2000/svg">
<path d="M14.0726 5.4325C13.9796 5.5048 12.3478 6.424 12.3478 8.4689C12.3478 10.834 14.4237 11.6706 14.4857 11.6912C14.4754 11.7428 14.1552 12.8376 13.3909 13.953C12.7093 14.9342 11.9966 15.9153 10.9122 15.9153C9.82777 15.9153 9.54887 15.2853 8.29917 15.2853C7.08047 15.2853 6.64667 15.936 5.65517 15.936C4.66367 15.936 3.97167 15.0271 3.17647 13.9117C2.25727 12.6 1.51367 10.5654 1.51367 8.6341C1.51367 5.5357 3.52767 3.8935 5.51057 3.8935C6.56407 3.8935 7.44187 4.5855 8.10287 4.5855C8.73287 4.5855 9.71407 3.8522 10.9121 3.8522C11.3666 3.8523 12.9985 3.8937 14.0726 5.4325V5.4325ZM10.3442 2.5407C10.8399 1.952 11.1911 1.1361 11.1911 0.3202C11.1911 0.2066 11.1808 0.093 11.1601 0C10.3545 0.031 9.39397 0.537101 8.81557 1.2084C8.36117 1.7248 7.93767 2.5407 7.93767 3.367C7.93767 3.4909 7.95837 3.6149 7.96867 3.6562C8.02027 3.6665 8.10297 3.6769 8.18557 3.6769C8.90857 3.6768 9.81737 3.1914 10.3442 2.5407V2.5407Z" fill="black" fill-opacity="0.9"/>
</svg>
