<svg width="24" height="24" viewBox="0 0 24 24" fill="none" xmlns="http://www.w3.org/2000/svg">
    <path
        d="M14.4278 6.19381C13.7553 6.61696 13.0685 7.10139 12.3793 7.64322C13.2221 7.77978 13.9367 8.11824 14.4677 8.53471H11.3036C10.8228 8.95404 10.3439 9.40038 9.87086 9.87242C9.65081 10.092 9.43636 10.3129 9.22765 10.5347H17.7321L17.3511 9.25032C16.9646 7.94745 15.8594 6.84176 14.4278 6.19381Z"
        fill="black" />
    <path
        d="M8.32597 22.2805C9.46834 22.6987 10.7022 22.9269 11.9893 22.9269C15.4689 22.9269 18.5712 21.2579 20.5133 18.6674C20.7893 18.3068 21.0255 17.9398 21.2438 17.5613C21.3554 17.3747 21.4522 17.1924 21.5443 17.0083L22.2679 15.5611H14.9538L14.6885 15.7577C13.9462 16.3079 13.0168 16.6343 12.0001 16.6343C10.9232 16.6343 10.0918 16.2685 9.47033 15.683C9.09256 15.3271 8.77581 14.8735 8.53398 14.3395L19.7209 14.2343H22.6479V12.2684C22.6479 11.5375 22.5771 10.8268 22.4347 10.1267L22.4344 10.1253C22.3439 9.68346 22.226 9.25156 22.0826 8.83142C22.5982 7.58337 22.9059 6.37101 22.9281 5.27554C22.9519 4.10827 22.6487 2.99049 21.8292 2.17104C21.0506 1.39236 19.9968 1.08168 18.8915 1.0753C17.7924 1.06895 16.5717 1.35925 15.3186 1.86135C15.191 1.9125 15.0625 1.96604 14.9333 2.02194C13.9983 1.75362 13.0106 1.60986 11.9893 1.60986C6.1034 1.60986 1.33081 6.38246 1.33081 12.2684C1.33081 13.3713 1.49839 14.4352 1.80948 15.4359C1.33738 16.6476 1.06676 17.8263 1.07387 18.8908C1.08124 19.9958 1.39219 21.0492 2.16944 21.8275C2.98518 22.6499 4.10548 22.9517 5.27156 22.9281C6.21942 22.9088 7.25571 22.6764 8.32597 22.2805ZM8.80018 8.80162C11.2503 6.35667 13.8584 4.60099 16.0625 3.71787C17.1663 3.27558 18.1222 3.07088 18.88 3.07526C19.6316 3.07961 20.1152 3.2854 20.415 3.58525C20.7331 3.90336 20.9451 4.42217 20.9286 5.2349C20.9221 5.55078 20.8808 5.89826 20.803 6.27395C20.2884 5.5193 19.6794 4.83398 18.9931 4.23509C18.4371 4.33388 17.8132 4.51619 17.1332 4.78867C16.9808 4.84971 16.8265 4.91493 16.6705 4.98425C18.5962 6.22459 19.9996 8.20712 20.4749 10.5257C20.5878 11.081 20.6457 11.6468 20.6478 12.2343L19.7162 12.2342L7.66144 12.3476C7.17666 12.9613 6.73766 13.5735 6.34714 14.1757C6.68067 15.3145 7.25937 16.3478 8.09885 17.1387C9.10058 18.0825 10.4262 18.6343 12.0001 18.6343C13.3286 18.6343 14.5685 18.2424 15.5988 17.5611H18.842C17.2598 19.613 14.7744 20.9269 11.9893 20.9269C8.99412 20.9269 6.35373 19.4054 4.799 17.0933L4.78485 17.1285C4.42552 18.0271 4.2236 18.8281 4.16359 19.5042C4.63724 20.0162 5.1605 20.4816 5.72573 20.8929C5.55327 20.9135 5.38821 20.9253 5.23098 20.9285C4.41517 20.945 3.89962 20.7322 3.58867 20.4183L3.58533 20.4149C3.28526 20.1149 3.07885 19.6303 3.07382 18.8775C3.06876 18.1187 3.27263 17.1619 3.71417 16.0577C4.59583 13.853 6.35099 11.2456 8.80018 8.80162ZM3.33241 12.4364C3.33135 12.3805 3.33081 12.3245 3.33081 12.2684C3.33081 7.48703 7.20797 3.60986 11.9893 3.60986C11.9965 3.60986 12.0037 3.60987 12.0109 3.60989C10.4626 4.61468 8.88602 5.89054 7.38748 7.3859C5.74917 9.02071 4.3754 10.7508 3.33241 12.4364Z"
        fill="black" />
</svg>