<svg width="16" height="16" viewBox="0 0 16 16" fill="none" xmlns="http://www.w3.org/2000/svg">
<g clip-path="url(#clip0_915_10214)">
<path fill-rule="evenodd" clip-rule="evenodd" d="M7.99961 0.418457L15.3996 5.35179V10.6485L7.99961 15.5818L0.599609 10.6485V5.35179L7.99961 0.418457ZM2.39961 7.51512V8.48512L3.12711 8.00012L2.39961 7.51512ZM4.74961 9.08179L3.12211 10.1668L7.09961 12.8185V10.6485L4.74961 9.08179ZM8.89961 10.6485V12.8185L12.8771 10.1668L11.2496 9.08179L8.89961 10.6485ZM12.8721 8.00012L13.5996 8.48512V7.51512L12.8721 8.00012ZM12.8771 5.83346L11.2496 6.91846L8.89961 5.35179V3.18179L12.8771 5.83346ZM7.09961 3.18179V5.35179L4.74961 6.91846L3.12211 5.83346L7.09961 3.18179ZM7.99961 6.91512L6.37211 8.00012L7.99961 9.08512L9.62711 8.00012L7.99961 6.91512Z" fill="black"/>
</g>
<defs>
<clipPath id="clip0_915_10214">
<rect width="16" height="16" fill="white"/>
</clipPath>
</defs>
</svg>
