<svg width="24" height="24" viewBox="0 0 24 24" fill="none" xmlns="http://www.w3.org/2000/svg">
<g id="logo-qq">
<path id="fill1" d="M20.2145 14.6548C20.0273 14.0523 19.7714 13.3498 19.513 12.675L18.5692 10.3156C18.5692 10.2884 18.5818 9.82435 18.5818 9.58475C18.5818 5.55233 16.6781 1.50052 11.9971 1.5C7.3161 1.49948 5.41184 5.55233 5.41184 9.58475C5.41184 9.82383 5.42389 10.2884 5.42442 10.3156L4.48067 12.675C4.22167 13.3498 3.96633 14.0523 3.77916 14.6548C2.88784 17.5279 3.17568 18.717 3.39589 18.7443C3.86776 18.8015 5.23567 16.581 5.23567 16.581C5.23567 17.8666 5.89734 19.5444 7.32921 20.7561C6.7939 20.9212 6.13747 21.1755 5.71541 21.4864C5.33633 21.7664 5.38352 22.0516 5.45325 22.168C5.75368 22.6745 10.6009 22.4915 12.0002 22.3337C13.3996 22.491 18.2468 22.6745 18.5467 22.168C18.6148 22.0527 18.662 21.7674 18.2845 21.4864C17.8651 21.175 17.2055 20.9207 16.6697 20.7555C18.1015 19.5444 18.7632 17.8666 18.7632 16.581C18.7632 16.581 20.1306 18.8015 20.603 18.7443C20.8195 18.7181 21.1089 17.529 20.2145 14.6548Z" fill="white"/>
<path id="stroke1" d="M20.2145 14.6548C20.0273 14.0523 19.7714 13.3498 19.513 12.675L18.5692 10.3156C18.5692 10.2884 18.5818 9.82435 18.5818 9.58475C18.5818 5.55233 16.6781 1.50052 11.9971 1.5C7.3161 1.49948 5.41184 5.55233 5.41184 9.58475C5.41184 9.82383 5.42389 10.2884 5.42442 10.3156L4.48067 12.675C4.22167 13.3498 3.96633 14.0523 3.77916 14.6548C2.88784 17.5279 3.17568 18.717 3.39589 18.7443C3.86776 18.8015 5.23567 16.581 5.23567 16.581C5.23567 17.8666 5.89734 19.5444 7.32921 20.7561C6.7939 20.9212 6.13747 21.1755 5.71541 21.4864C5.33633 21.7664 5.38352 22.0516 5.45325 22.168C5.75368 22.6745 10.6009 22.4915 12.0002 22.3337C13.3996 22.491 18.2468 22.6745 18.5467 22.168C18.6148 22.0527 18.662 21.7674 18.2845 21.4864C17.8651 21.175 17.2055 20.9207 16.6697 20.7555C18.1015 19.5444 18.7632 17.8666 18.7632 16.581C18.7632 16.581 20.1306 18.8015 20.603 18.7443C20.8195 18.7181 21.1089 17.529 20.2145 14.6548Z" stroke="black" stroke-width="2"/>
</g>
</svg>
