<svg width="24" height="24" viewBox="0 0 24 24" fill="none" xmlns="http://www.w3.org/2000/svg">
    <path
        d="M11.2556 23.0459C17.3307 23.0459 22.2556 18.121 22.2556 12.0459C22.2556 11.0048 22.111 9.99746 21.8407 9.04291H15.297L15.5368 9.45825C15.6417 9.63249 15.7357 9.81254 15.8183 9.99725C16.1149 10.6568 16.2569 11.3535 16.2562 12.0426C16.2569 12.7322 16.1147 13.4293 15.8178 14.0892C15.7353 14.2734 15.6416 14.4531 15.5368 14.6269L10.6845 23.0313C10.8737 23.041 11.0641 23.0459 11.2556 23.0459Z"
        fill="black" />
    <path
        d="M8.55896 22.7129L11.8326 17.0429L11.336 17.0429C11.2033 17.0449 11.0709 17.0416 10.939 17.0332C9.16442 16.923 7.64056 15.8871 6.84444 14.4027L2.02665 6.05802C0.9064 7.7811 0.255615 9.8375 0.255615 12.0459C0.255615 17.1907 3.78754 21.5105 8.55896 22.7129Z"
        fill="black" />
    <path
        d="M3.36706 4.37968C5.36576 2.32338 8.1615 1.0459 11.2556 1.0459C15.5291 1.0459 19.2334 3.48286 21.0547 7.04291H11.3669C11.143 7.03811 10.9196 7.04842 10.6983 7.0734C9.85435 7.16667 9.07369 7.46998 8.40978 7.92991C8.10971 8.13723 7.83002 8.37919 7.57728 8.65404C7.29395 8.96126 7.04864 9.30407 6.84881 9.67501L6.63657 10.0426L3.36706 4.37968Z"
        fill="black" />
    <path
        d="M9.75597 14.6435C8.32109 13.8151 7.82946 11.9803 8.65789 10.5454C9.48632 9.11055 11.3211 8.61892 12.756 9.44735C14.1908 10.2758 14.6825 12.1105 13.854 13.5454C13.0256 14.9803 11.1908 15.4719 9.75597 14.6435Z"
        fill="black" />
</svg>