<svg width="16" height="16" viewBox="0 0 16 16" fill="none" xmlns="http://www.w3.org/2000/svg">
<path fill-rule="evenodd" clip-rule="evenodd" d="M8.8524 5.92176C8.6564 5.98937 8.38301 6.07115 8.08998 6.07115C7.79959 6.07115 7.53375 5.99705 7.33296 5.92911C7.17681 5.87626 7.00734 5.80771 6.86212 5.74897C6.82338 5.7333 6.78637 5.71833 6.7518 5.70454C6.37933 5.55598 6.09695 5.466 5.82302 5.466C4.63617 5.466 3.22773 6.44749 3.22773 8.71164C3.22773 10.1991 3.81094 11.7987 4.51687 12.8075C4.87209 13.3057 5.14542 13.6701 5.41246 13.9171C5.66373 14.1496 5.82358 14.1971 5.94947 14.1971C6.17225 14.1971 6.31924 14.1365 6.68054 13.9837C7.04744 13.8285 7.54416 13.6281 8.26164 13.6281C8.99309 13.6281 9.46279 13.8238 9.81787 13.9785C10.1342 14.1163 10.2785 14.179 10.5467 14.179C10.719 14.179 10.9041 14.1102 11.1524 13.8812C11.4167 13.6375 11.668 13.2916 11.9735 12.8519C12.2325 12.4735 12.427 12.0943 12.5636 11.7853C12.4119 11.6765 12.2514 11.5464 12.0922 11.3932C11.4966 10.8195 10.9021 9.89764 10.9021 8.56718C10.9021 7.28886 11.4778 6.38883 11.988 5.84306C11.4139 5.45056 10.7988 5.42995 10.5466 5.42988M8.8524 5.92176C8.99111 5.87392 9.15113 5.81052 9.29451 5.75371ZM9.29451 5.75371C9.35211 5.73089 9.40703 5.70914 9.4568 5.68988ZM9.4568 5.68988C9.85348 5.53639 10.199 5.42992 10.5466 5.42988ZM8.80726 4.01116C9.23918 3.84404 9.84666 3.62988 10.5466 3.62988C10.9989 3.62998 12.8394 3.66451 14.0485 5.39672L14.5378 6.09771L13.8629 6.62239C13.844 6.63707 13.8172 6.65567 13.7842 6.67852C13.4892 6.88302 12.7021 7.42873 12.7021 8.56718C12.7021 9.30499 13.0153 9.7831 13.341 10.0968C13.6141 10.3599 13.8844 10.4931 13.9514 10.5262C13.9701 10.5354 13.973 10.5368 13.9555 10.531L14.7099 10.7816L14.5543 11.5612C14.5318 11.674 14.4313 11.9911 14.2696 12.3748C14.0981 12.7817 13.8337 13.3216 13.4567 13.8717L13.4535 13.8765C13.1637 14.2937 12.8057 14.8051 12.3728 15.2044C11.9234 15.6189 11.3227 15.979 10.5467 15.979C9.89885 15.979 9.45817 15.786 9.14478 15.6487C9.12917 15.6419 9.11388 15.6352 9.09889 15.6287C8.82173 15.5079 8.62305 15.4281 8.26164 15.4281C7.91337 15.4281 7.68753 15.5122 7.38155 15.6416C7.36026 15.6506 7.33821 15.66 7.31538 15.6698C7.00412 15.8029 6.54974 15.9971 5.94947 15.9971C5.20829 15.9971 4.63204 15.6473 4.19011 15.2385C3.76451 14.8447 3.38814 14.325 3.04902 13.8494L3.04478 13.8434C2.14394 12.5579 1.42773 10.6006 1.42773 8.71164C1.42773 5.55671 3.54178 3.666 5.82302 3.666C6.47036 3.666 7.03245 3.87859 7.41862 4.03261C7.47408 4.05473 7.52446 4.07508 7.57105 4.09389C7.70519 4.14807 7.8079 4.18955 7.90995 4.22409C8.02347 4.2625 8.07458 4.2696 8.08694 4.27088C8.09364 4.26955 8.14407 4.26202 8.26545 4.22015C8.36517 4.18575 8.46189 4.14737 8.58291 4.09935C8.64897 4.07313 8.72227 4.04404 8.80726 4.01116ZM10.963 0.012207L11.0083 0.215723C11.0314 0.319342 11.0414 0.437658 11.0414 0.550054C11.0414 1.33048 10.7081 2.09859 10.2435 2.65107C9.98971 2.964 9.64897 3.23228 9.28811 3.42305C8.92811 3.61336 8.53107 3.73543 8.16311 3.73548C8.07284 3.73548 7.98404 3.72444 7.92446 3.71254L7.76915 3.68154L7.73083 3.52787C7.71707 3.47272 7.69629 3.34397 7.69629 3.21447C7.69629 2.4145 8.10122 1.64516 8.52547 1.16261C9.06943 0.531867 9.97086 0.0503852 10.7547 0.0202242L10.963 0.012207Z" fill="black"/>
</svg>
