<svg width="17" height="16" viewBox="0 0 17 16" fill="none" xmlns="http://www.w3.org/2000/svg">
<path d="M3.63487 11.2862L3.49234 12.3457L4.58266 11.8443L5.26619 12.0808C5.87819 12.2926 6.54762 12.4105 7.25366 12.4105C7.53706 12.4105 7.81333 12.3921 8.08149 12.3569C8.20163 12.98 8.45031 13.5574 8.79887 14.0603C8.30094 14.1587 7.78394 14.2105 7.25366 14.2105C6.34643 14.2105 5.4781 14.0589 4.67758 13.7819L1.93272 15.0441C1.64628 15.1759 1.32713 14.9399 1.36917 14.6274L1.73688 11.8941C0.653926 10.7401 0 9.24222 0 7.60526C0 3.95728 3.24757 1 7.25366 1C11.2104 1 14.4271 3.88481 14.5058 7.47066C13.9477 7.19227 13.3235 7.02644 12.6632 7.0029C12.3322 4.7478 10.1708 2.8 7.25366 2.8C4.07936 2.8 1.8 5.1063 1.8 7.60526C1.8 8.7467 2.25269 9.81334 3.04943 10.6624L3.63487 11.2862Z" fill="black" fill-opacity="0.9"/>
<path d="M11.852 8.24417C11.4921 8.60423 11.4921 9.18805 11.852 9.54811C11.9789 9.675 12.1337 9.75685 12.2965 9.79439C12.3148 9.79866 12.3332 9.80219 12.3516 9.80528C12.3701 9.80837 12.3887 9.81102 12.4072 9.81294C12.9529 9.91466 13.4743 10.1762 13.8964 10.5983C13.9268 10.6286 13.9563 10.6598 13.9851 10.6912C14.0714 10.7773 14.2108 10.7773 14.2971 10.6912C14.3774 10.6106 14.3826 10.4833 14.3124 10.3968C14.3077 10.3907 14.3025 10.385 14.2971 10.3794C14.2873 10.3697 14.277 10.3614 14.2661 10.3539C14.2447 10.3337 14.2235 10.3133 14.2024 10.2922C13.7896 9.87962 13.5304 9.37191 13.424 8.83961C13.4222 8.80959 13.419 8.7797 13.4141 8.75011C13.409 8.71743 13.4019 8.6849 13.3932 8.65266C13.3523 8.5031 13.2734 8.36179 13.1559 8.24417C12.7959 7.88411 12.212 7.88411 11.852 8.24417Z" fill="black" fill-opacity="0.9"/>
<path d="M14.4526 10.8515C14.8127 10.4914 15.3967 10.4914 15.7566 10.8515C16.1166 11.2115 16.1166 11.7953 15.7566 12.1554C15.6393 12.2727 15.4978 12.3516 15.3481 12.3926C15.3159 12.4012 15.2835 12.4085 15.2506 12.4135C15.2211 12.4185 15.1912 12.4217 15.1613 12.4236C14.6288 12.5297 14.1211 12.7891 13.7085 13.2017C13.6875 13.2228 13.667 13.2441 13.647 13.2655C13.6393 13.2764 13.6311 13.2867 13.6215 13.2962C13.6158 13.3018 13.6099 13.3071 13.6041 13.3119C13.5174 13.3819 13.3901 13.3768 13.3097 13.2962C13.2235 13.2101 13.2233 13.0703 13.3096 12.9843C13.3409 12.9558 13.372 12.9263 13.4023 12.8958C13.8245 12.4738 14.0861 11.9523 14.1878 11.4066C14.1897 11.3882 14.1925 11.3696 14.1955 11.3511C14.1986 11.3327 14.2022 11.3143 14.2064 11.296C14.2439 11.1331 14.3257 10.9783 14.4526 10.8515Z" fill="black" fill-opacity="0.9"/>
<path d="M10.7045 12.3091C10.6239 12.3895 10.6189 12.5168 10.6889 12.6034C10.6936 12.6094 10.6988 12.6152 10.7045 12.6209C10.7141 12.6305 10.7246 12.6387 10.7353 12.6464C10.7568 12.6662 10.7781 12.6871 10.799 12.7079C11.2117 13.1207 11.471 13.6284 11.5775 14.1607C11.5792 14.1905 11.5825 14.2204 11.5875 14.2502C11.5926 14.2827 11.5995 14.3152 11.6082 14.3475C11.649 14.4972 11.7281 14.6383 11.8455 14.756C12.2056 15.116 12.7894 15.116 13.1493 14.756C13.5094 14.3959 13.5094 13.8121 13.1493 13.452C13.0224 13.3251 12.8676 13.2433 12.7048 13.2057C12.6867 13.2016 12.6683 13.1979 12.6499 13.1948C12.6315 13.1918 12.6129 13.1893 12.5941 13.1872C12.0485 13.0856 11.527 12.8239 11.1051 12.4019C11.0746 12.3715 11.045 12.3405 11.0165 12.309C10.9733 12.2658 10.9168 12.2445 10.8604 12.2445C10.8039 12.2445 10.7475 12.266 10.7045 12.3091Z" fill="black" fill-opacity="0.9"/>
<path d="M10.8135 11.5935C10.8115 11.6121 10.809 11.6306 10.8059 11.6493C10.8029 11.6677 10.7993 11.6861 10.7951 11.7044C10.7576 11.867 10.6756 12.0219 10.5487 12.1489C10.1886 12.509 9.60483 12.509 9.24477 12.1489C8.88456 11.7887 8.88456 11.2049 9.24477 10.8448C9.36224 10.7274 9.5037 10.6485 9.65341 10.6077C9.68535 10.5988 9.71789 10.5918 9.75057 10.5866C9.78045 10.5818 9.81033 10.5785 9.84007 10.5768C10.3725 10.4703 10.8804 10.211 11.2928 9.79849C11.3139 9.77729 11.3343 9.75624 11.3545 9.7346C11.362 9.72386 11.3704 9.71355 11.38 9.70384C11.3856 9.69825 11.3913 9.69324 11.3974 9.68838C11.4838 9.61817 11.6112 9.62332 11.6918 9.70384C11.7779 9.78995 11.778 9.92965 11.6919 10.0158C11.6604 10.0445 11.6293 10.0741 11.5989 10.1044C11.177 10.5264 10.9154 11.0481 10.8135 11.5935Z" fill="black" fill-opacity="0.9"/>
</svg>
