<svg width="16" height="16" viewBox="0 0 16 16" fill="none" xmlns="http://www.w3.org/2000/svg">
<path d="M13.4763 9.77042C13.3516 9.3686 13.1814 8.89989 13.0085 8.45074L12.3787 6.87895C12.3787 6.8603 12.3873 6.55085 12.3873 6.39113C12.3873 3.70171 11.1177 1 7.99644 1C4.87517 1 3.606 3.70171 3.606 6.39022C3.606 6.54994 3.61419 6.85939 3.61464 6.87804L2.98438 8.44983C2.81191 8.89989 2.64172 9.3686 2.51658 9.76951C1.92136 11.6849 2.1143 12.4776 2.26129 12.4953C2.57619 12.5336 3.48996 11.0532 3.48996 11.0532C3.48996 11.9106 3.93137 13.0291 4.88609 13.8369C4.52887 13.947 4.09155 14.1163 3.80987 14.3238C3.55731 14.5108 3.58871 14.701 3.63421 14.7788C3.83444 15.116 7.06629 14.9941 7.99917 14.889C8.93251 14.9941 12.1644 15.1165 12.3641 14.7788C12.4096 14.7019 12.4415 14.5117 12.1885 14.3238C11.9072 14.1163 11.469 13.947 11.1118 13.8369C12.0674 13.0291 12.5079 11.9106 12.5079 11.0532C12.5079 11.0532 13.4181 12.5336 13.7343 12.4953C13.879 12.4785 14.072 11.6858 13.4763 9.77042Z" fill="black" fill-opacity="0.9"/>
</svg>
