<svg width="24" height="24" viewBox="0 0 24 24" fill="none" xmlns="http://www.w3.org/2000/svg">
    <path
        d="M9.37892 22.3012L8.78923 22.5324C7.46624 23.1017 6.17592 23.4436 5.01766 23.4671C3.85158 23.4908 2.73127 23.1889 1.91553 22.3665C1.13829 21.5882 0.827338 20.5348 0.819961 19.4299C0.812618 18.33 1.10174 17.1083 1.60324 15.8542C2.60768 13.3424 4.53886 10.5142 7.13357 7.92496C9.72731 5.33673 12.5548 3.40607 15.0647 2.40041C16.3178 1.89831 17.5385 1.60801 18.6376 1.61436C19.7429 1.62075 20.7966 1.93142 21.5753 2.7101C22.3948 3.52955 22.698 4.64733 22.6742 5.8146C22.6506 6.97649 22.3059 8.26988 21.7327 9.59788L21.7288 9.60682L21.2647 10.654C21.3533 11.1968 21.3976 11.7481 21.3976 12.3126V13.7784H18.9659L7.06404 13.8905C7.33789 14.7766 7.78353 15.5318 8.37716 16.0911C9.09367 16.7662 10.0487 17.1784 11.2498 17.1784C12.3752 17.1784 13.4087 16.8167 14.2359 16.2036L14.3686 16.1053H20.7085L20.3467 16.8289C20.2578 17.0067 20.1665 17.1784 20.0623 17.3522C19.8513 17.7185 19.6259 18.0684 19.3644 18.4097C17.5133 20.8801 14.5564 22.4711 11.239 22.4711C10.6037 22.4711 9.98197 22.4128 9.37892 22.3012ZM12.1892 6.26915C10.981 7.11378 9.74473 8.14478 8.54628 9.34068C8.30116 9.58527 8.063 9.8315 7.83196 10.0788L16.312 10.0788L16.1215 9.43658C15.6806 7.95054 14.1185 6.68715 12.1892 6.26915ZM2.95892 18.1987C2.86278 18.6462 2.8175 19.054 2.81992 19.4165C2.82494 20.1694 3.03136 20.6539 3.33142 20.954L3.33476 20.9574C3.64571 21.2713 4.16126 21.4841 4.97707 21.4675C5.40026 21.4589 5.8802 21.3879 6.40822 21.2509C5.03815 20.5088 3.85785 19.4608 2.95892 18.1987ZM20.3055 7.72527C20.543 6.98866 20.6633 6.33201 20.6746 5.77396C20.6912 4.96124 20.4792 4.44243 20.1611 4.12432C19.8613 3.82446 19.3777 3.61867 18.626 3.61433C18.1318 3.61147 17.5533 3.69755 16.9045 3.88047C18.3408 4.84765 19.5169 6.17189 20.3055 7.72527Z"
        fill="black" />
    <path
        d="M6.07039 6.86082C3.95232 8.97438 2.25932 11.2551 1.13961 13.4146C1.10055 13.0526 1.08051 12.6849 1.08051 12.3126C1.08051 6.70279 5.62924 2.15405 11.239 2.15405C11.545 2.15405 11.8478 2.16759 12.1469 2.1941C10.1325 3.30874 8.0312 4.90418 6.07039 6.86082Z"
        fill="black" />
</svg>