<svg width="24" height="24" viewBox="0 0 24 24" fill="none" xmlns="http://www.w3.org/2000/svg">
    <path
        d="M12 1C18.0751 1 23 5.92487 23 12C23 18.0751 18.0751 23 12 23C5.92487 23 1 18.0751 1 12C1 5.92487 5.92487 1 12 1ZM15.5195 16.4902C15.4298 16.4904 15.3402 16.5301 15.2803 16.5898C15.1403 16.7198 15.1198 16.9301 15.2998 17.1201L15.3701 17.1904C15.8099 17.6303 16.1097 18.18 16.2197 18.7598C16.2197 18.7798 16.2598 18.9902 16.2598 18.9902C16.3098 19.1802 16.4098 19.3603 16.5498 19.4902C16.7598 19.7002 17.0601 19.8301 17.3701 19.8301C17.6701 19.83 17.96 19.7099 18.1699 19.5C18.6099 19.06 18.6099 18.3396 18.1699 17.8896C18.02 17.7398 17.8296 17.6298 17.6396 17.5898C17.5868 17.5782 17.4944 17.5604 17.4902 17.5596C16.8803 17.4496 16.3201 17.1501 15.8701 16.7002C15.8401 16.6702 15.7995 16.6298 15.7695 16.5898C15.7104 16.5157 15.6094 16.4902 15.5195 16.4902ZM11 4.75C8.88258 4.75 6.73582 5.52082 5.25 7.05957C4.11121 8.24581 3.5 9.71906 3.5 11.2402C3.50004 12.3001 3.8 13.3599 4.37988 14.2998C4.8495 14.9955 5.37274 15.6714 6.04004 16.1904L5.65625 17.8145C5.53941 18.3109 6.05656 18.7177 6.51172 18.4873L8.63965 17.4102C9.17067 17.5761 9.71962 17.6436 10.2695 17.71C10.8538 17.7587 11.3928 17.7475 11.9697 17.6797L12.3496 17.6299C12.5384 17.6008 12.7275 17.562 12.9141 17.5176C12.8254 17.4508 12.7397 17.3793 12.6602 17.2998C12.2731 16.9127 12.0519 16.4208 11.9941 15.9131L11.7402 15.9502C11.1199 16.0167 10.5079 15.9802 9.88965 15.9102C9.46089 15.853 9.05184 15.7251 8.63965 15.5996L7.62012 16.0996L7.84961 15.4297L7.11035 14.8301C6.59688 14.4289 6.19275 13.8965 5.83008 13.3604C5.43008 12.7104 5.21973 11.98 5.21973 11.25C5.21973 10.1705 5.67577 9.13096 6.48047 8.28027C7.63804 7.08239 9.33372 6.5 10.9805 6.5C12.5194 6.5001 14.0878 7.01253 15.2197 8.08008C15.5847 8.44506 15.9267 8.83053 16.1699 9.29004C16.3469 9.64404 16.5077 10.0116 16.5938 10.3965C16.8352 10.3141 17.0895 10.2696 17.3496 10.2695C17.7209 10.2695 18.0813 10.357 18.4053 10.5205C18.3303 9.80374 18.0748 9.11923 17.7402 8.48047C17.4113 7.85912 16.9642 7.32456 16.4697 6.83008C15.0022 5.44891 12.9989 4.75 11 4.75ZM20.3701 14.5195C20.0703 14.5195 19.7803 14.6398 19.5703 14.8496C19.4203 14.9996 19.3095 15.1899 19.2695 15.3799C19.2612 15.4296 19.2402 15.5303 19.2402 15.5303C19.1202 16.1502 18.8298 16.7102 18.3799 17.1602C18.34 17.1901 18.3095 17.2298 18.2695 17.2598C18.1297 17.3897 18.1298 17.61 18.2695 17.75C18.3395 17.81 18.4403 17.8496 18.5303 17.8496H18.54C18.61 17.8496 18.6898 17.8297 18.7998 17.7197L18.8701 17.6504C19.3101 17.2104 19.8604 16.9098 20.4404 16.7998C20.4627 16.7993 20.667 16.7603 20.6699 16.7598C20.8699 16.6998 21.0399 16.6 21.1699 16.46C21.6099 16.02 21.6099 15.2896 21.1699 14.8496C20.96 14.6398 20.67 14.5196 20.3701 14.5195ZM16.1602 13.4502C16.0802 13.4502 15.9996 13.4798 15.8896 13.5898L15.8203 13.6602C15.3803 14.1001 14.83 14.3998 14.25 14.5098C14.23 14.5098 14.0195 14.5498 14.0195 14.5498C13.8197 14.6098 13.6494 14.7097 13.5195 14.8496C13.0797 15.2895 13.0798 16.0199 13.5195 16.46C13.7295 16.6699 14.0299 16.7998 14.3398 16.7998C14.6398 16.7998 14.9297 16.6797 15.1396 16.4697C15.2895 16.3099 15.3896 16.1303 15.4297 15.9404C15.4588 15.8919 15.4599 15.7863 15.46 15.7803C15.57 15.1703 15.8703 14.6004 16.3203 14.1504C16.3503 14.1204 16.3799 14.0896 16.4199 14.0596C16.5661 13.9449 16.5498 13.7003 16.4199 13.5703C16.35 13.4904 16.2601 13.4502 16.1602 13.4502ZM17.3398 11.4805C17.04 11.4805 16.75 11.5998 16.54 11.8096C16.1 12.2496 16.1001 12.9699 16.54 13.4199C16.69 13.5699 16.8803 13.6797 17.0703 13.7197C17.1237 13.7261 17.2143 13.7487 17.2197 13.75C17.8297 13.87 18.3898 14.1604 18.8398 14.6104C18.8698 14.6403 18.9105 14.6798 18.9404 14.7197C19.0199 14.8004 19.1005 14.8203 19.1904 14.8203C19.2902 14.8202 19.35 14.7798 19.4199 14.71C19.5398 14.5801 19.56 14.3903 19.4004 14.1904L19.3203 14.1104C18.8803 13.6704 18.5797 13.12 18.4697 12.54C18.4697 12.52 18.4297 12.3096 18.4297 12.3096C18.3796 12.1197 18.2795 11.9395 18.1396 11.8096C17.9297 11.5998 17.6397 11.4805 17.3398 11.4805Z"
        fill="black" />
</svg>