<svg width="16" height="16" viewBox="0 0 16 16" fill="none" xmlns="http://www.w3.org/2000/svg">
<path fill-rule="evenodd" clip-rule="evenodd" d="M2.77886 6.16C2.77886 3.087 4.28866 0 8.0002 0C11.7117 0 13.2215 3.087 13.2215 6.16C13.2215 6.343 13.2111 6.1958 13.2111 6.2178L13.9603 8.0138C14.1653 8.5278 14.3682 9.0628 14.517 9.5218C15.2246 11.7118 14.9946 12.6178 14.8208 12.6388C14.8156 12.6398 14.8104 12.6398 14.8063 12.6398C14.4181 12.6398 13.362 10.9898 13.362 10.9898C13.362 11.9698 12.8366 13.2478 11.7013 14.1708C12.1269 14.2968 12.6472 14.4908 12.9822 14.7288C13.2829 14.9408 13.2455 15.1588 13.1914 15.2468C13.0738 15.4378 12.078 15.4998 10.9667 15.4998C9.82528 15.4998 8.56313 15.4338 8.0002 15.3728C7.43832 15.4338 6.17513 15.4998 5.03367 15.4998C3.92239 15.4998 2.92765 15.4378 2.81008 15.2468C2.75493 15.1588 2.71747 14.9408 3.01818 14.7288C3.35323 14.4908 3.87349 14.2978 4.29802 14.1718C3.16281 13.2478 2.63839 11.9698 2.63839 10.9898C2.63839 10.9898 1.58226 12.6398 1.19414 12.6398C1.18894 12.6398 1.18478 12.6398 1.17958 12.6388C1.00477 12.6178 0.775853 11.7118 1.48341 9.5218C1.6322 9.0628 1.83511 8.5278 2.03905 8.0138L2.78926 6.2178C2.78822 6.1958 2.77886 6.343 2.77886 6.16ZM11.2828 5.15951C11.2828 3.41705 9.81307 2.00451 8 2.00451C6.18693 2.00451 4.71715 3.41705 4.71715 5.15951V6.20484C4.68485 6.26815 4.65363 6.33036 4.62368 6.39124C3.60587 8.46529 3.70136 9.3931 3.87142 9.43727C3.87643 9.43896 3.88055 9.43951 3.8857 9.44021C3.997 9.45524 4.27415 9.37511 4.71715 9.1998V10.3448C4.71715 12.0873 6.18693 13.4998 8 13.4998C9.81307 13.4998 11.2828 12.0873 11.2828 10.3448V9.1998C11.7258 9.37511 12.003 9.45524 12.1143 9.44021C12.1194 9.43951 12.1236 9.43896 12.1286 9.43727C12.2986 9.3931 12.3941 8.46529 11.3763 6.39124C11.3464 6.33036 11.3152 6.26815 11.2828 6.20484V5.15951Z" fill="black"/>
</svg>
