<svg width="16" height="16" viewBox="0 0 16 16" fill="none" xmlns="http://www.w3.org/2000/svg">
<path d="M11.2529 3.95905C11.623 4.34224 11.9247 4.77013 12.149 5.23125C12.4506 5.85106 12.6036 6.50835 12.6036 7.18432C12.6036 7.29806 12.5985 7.41153 12.5897 7.52475C12.5862 7.5206 12.5827 7.51641 12.5792 7.51223C12.5706 7.50189 12.562 7.49158 12.5524 7.48186C12.2833 7.21292 11.8727 7.17569 11.5621 7.36581C11.5626 7.35453 11.5632 7.34324 11.5638 7.33195C11.566 7.2882 11.5682 7.2444 11.5682 7.20068C11.5682 6.66962 11.4476 6.15259 11.2098 5.66365C11.0305 5.2954 10.7886 4.95239 10.4908 4.64429C9.72201 3.84918 8.63902 3.33615 7.44127 3.2C7.22372 3.17527 7.00861 3.16278 6.80201 3.16278C6.6052 3.16278 6.39924 3.17437 6.18993 3.19717C4.98651 3.32791 3.89721 3.83823 3.12244 4.63412C2.82336 4.94144 2.58018 5.28381 2.39959 5.65116C2.15783 6.14332 2.0352 6.66459 2.0352 7.20068C2.0352 7.89133 2.24709 8.57464 2.64767 9.1768C2.81782 9.43274 3.0203 9.67141 3.25099 9.89025C3.33317 9.96818 3.41844 10.0438 3.5077 10.1164C3.56579 10.1638 3.62118 10.2067 3.67669 10.2479C3.78579 10.3273 3.85122 10.4565 3.85122 10.5933C3.85122 10.6427 3.84079 10.6869 3.83036 10.7236C3.80575 10.8179 3.77664 10.9291 3.74766 11.0392C3.7385 11.0741 3.72936 11.1089 3.7204 11.1431C3.70378 11.2064 3.68778 11.2673 3.67347 11.322C3.66198 11.3661 3.65166 11.4053 3.64287 11.4387C3.63737 11.4596 3.63247 11.4783 3.62826 11.4944L3.58885 11.6532C3.58885 11.692 3.61924 11.7235 3.6566 11.7235C3.66793 11.7235 3.68043 11.7188 3.70245 11.7059L3.70361 11.7052L4.76612 11.079C4.77326 11.0748 4.7804 11.0713 4.78753 11.0679C4.79212 11.0656 4.7967 11.0634 4.80129 11.061C4.89145 11.0143 4.98058 10.9899 5.07242 10.9899C5.13115 10.9899 5.18873 10.9987 5.24283 11.0161C5.50907 11.0939 5.78458 11.1509 6.06319 11.188C6.07587 11.1897 6.08855 11.1914 6.10123 11.1932C6.13079 11.1973 6.16036 11.2015 6.18993 11.2047C6.39293 11.2271 6.59876 11.2385 6.80201 11.2385C7.00887 11.2385 7.22385 11.2258 7.44127 11.2011C7.79947 11.1604 8.14609 11.0848 8.47789 10.9794C8.44865 11.2853 8.59574 11.5945 8.87989 11.757C8.92755 11.7842 8.97688 11.806 9.02711 11.8226C8.56277 11.9893 8.07357 12.1065 7.56492 12.1644C7.30641 12.1937 7.04957 12.2086 6.80201 12.2086C6.55908 12.2086 6.31307 12.1952 6.07066 12.1685C5.6979 12.1275 5.34407 12.0622 4.98767 11.9599L3.33162 12.7911C3.32536 12.7955 3.31886 12.7992 3.31232 12.8029C3.30931 12.8046 3.30629 12.8063 3.30329 12.8081C3.30166 12.809 3.29994 12.8097 3.29828 12.8106C3.29784 12.8108 3.2974 12.811 3.29698 12.8113C3.23167 12.8488 3.15709 12.8718 3.07646 12.8718C2.84526 12.8718 2.65733 12.6952 2.6344 12.4702C2.6339 12.4648 2.63318 12.4595 2.63247 12.4541C2.63118 12.4445 2.6299 12.435 2.6299 12.4253C2.6299 12.4164 2.63107 12.4078 2.63225 12.3993C2.63298 12.394 2.6337 12.3887 2.63415 12.3834C2.63443 12.3804 2.63471 12.3775 2.63499 12.3745C2.63643 12.359 2.63786 12.3436 2.6411 12.3287C2.64507 12.3108 2.65148 12.294 2.65792 12.2771C2.65858 12.2753 2.65925 12.2736 2.65991 12.2719L2.83392 10.9028V10.902C2.44841 10.5602 2.02954 10.075 1.77334 9.6897C1.2674 8.92911 1 8.0629 1 7.18432C1 6.50204 1.1556 5.8396 1.46215 5.21554C1.68795 4.75571 1.99102 4.32872 2.36301 3.94643C3.30535 2.97833 4.62238 2.35826 6.07156 2.20087C6.32054 2.17369 6.56617 2.16003 6.80201 2.16003C7.04931 2.16003 7.30589 2.17498 7.56492 2.20434C9.00753 2.36831 10.3172 2.9916 11.2529 3.95905Z" fill="black" fill-opacity="0.9"/>
<path d="M11.3472 9.0505C11.0323 8.73544 11.0323 8.2246 11.3472 7.90955C11.6622 7.59449 12.1731 7.59449 12.4881 7.90955C12.5909 8.01246 12.66 8.13611 12.6958 8.26698C12.7034 8.29519 12.7095 8.32365 12.7141 8.35225C12.7183 8.37814 12.7211 8.40428 12.7227 8.43056C12.8158 8.89632 13.0426 9.34057 13.4038 9.70161C13.4222 9.72002 13.4408 9.73793 13.4596 9.75557C13.4691 9.76214 13.4781 9.76936 13.4866 9.77786C13.4914 9.78275 13.4959 9.78778 13.5 9.79306C13.5615 9.86879 13.557 9.98021 13.4866 10.0507C13.4111 10.126 13.2892 10.126 13.2137 10.0507C13.1884 10.0232 13.1627 9.99592 13.136 9.96939C12.7667 9.60011 12.3105 9.37122 11.833 9.28222C11.8168 9.28054 11.8006 9.27822 11.7843 9.27552C11.7682 9.27281 11.7521 9.26972 11.7362 9.26599C11.5937 9.23314 11.4582 9.16153 11.3472 9.0505Z" fill="black" fill-opacity="0.9"/>
<path d="M14.7637 10.1909C14.4488 9.87587 13.9378 9.87587 13.6228 10.1909C13.5117 10.302 13.4401 10.4373 13.4073 10.5799C13.4037 10.5959 13.4004 10.612 13.3977 10.6281C13.3952 10.6443 13.3927 10.6605 13.391 10.6766C13.302 11.1541 13.0731 11.6105 12.7037 11.9798C12.6772 12.0064 12.65 12.0322 12.6226 12.0572L12.6227 12.0574C12.5472 12.1327 12.5472 12.2548 12.6227 12.3301C12.693 12.4006 12.8045 12.4051 12.8803 12.3438C12.8853 12.3396 12.8905 12.335 12.8955 12.3301C12.9039 12.3217 12.9111 12.3127 12.9178 12.3032C12.9353 12.2845 12.9532 12.2658 12.9716 12.2474C13.3327 11.8864 13.7769 11.6594 14.2428 11.5666C14.269 11.5649 14.2951 11.5621 14.321 11.5577C14.3497 11.5533 14.3781 11.547 14.4063 11.5394C14.5373 11.5036 14.6611 11.4345 14.7637 11.3319C15.0788 11.0168 15.0788 10.506 14.7637 10.1909Z" fill="black" fill-opacity="0.9"/>
<path d="M10.3432 11.4664C10.2726 11.5367 10.2682 11.6481 10.3295 11.7239C10.3336 11.7291 10.3381 11.7342 10.3432 11.7392C10.3515 11.7476 10.3607 11.7548 10.3701 11.7615C10.3889 11.7789 10.4076 11.7971 10.4259 11.8153C10.7869 12.1765 11.0139 12.6207 11.107 13.0865C11.1085 13.1126 11.1114 13.1388 11.1157 13.1648C11.1202 13.1933 11.1263 13.2217 11.1339 13.2499C11.1696 13.3809 11.2387 13.5044 11.3415 13.6074C11.6566 13.9224 12.1674 13.9224 12.4824 13.6074C12.7974 13.2923 12.7974 12.7815 12.4824 12.4664C12.3713 12.3554 12.2358 12.2838 12.0934 12.2509C12.0775 12.2473 12.0614 12.2441 12.0453 12.2414C12.0292 12.2387 12.013 12.2365 11.9965 12.2347C11.5192 12.1458 11.0628 11.9168 10.6936 11.5475C10.667 11.521 10.6411 11.4938 10.6161 11.4662L10.616 11.4664C10.5782 11.4286 10.5289 11.4098 10.4796 11.4098C10.4301 11.4098 10.3808 11.4286 10.3432 11.4664Z" fill="black" fill-opacity="0.9"/>
<path d="M10.4318 10.889C10.4345 10.8727 10.4367 10.8565 10.4385 10.8402C10.5277 10.363 10.7566 9.90652 11.1257 9.53723C11.1524 9.5107 11.1796 9.48481 11.2071 9.45969L11.207 9.45956C11.2823 9.38421 11.2823 9.26211 11.207 9.18676C11.1365 9.1163 11.025 9.11179 10.9494 9.17323C10.9441 9.17748 10.9391 9.18186 10.9342 9.18676C10.9258 9.19526 10.9185 9.20427 10.9119 9.21368C10.8943 9.23261 10.8763 9.25103 10.8579 9.26958C10.497 9.63049 10.0526 9.85744 9.58675 9.95057C9.56074 9.95211 9.53459 9.95495 9.50844 9.9592C9.47985 9.96371 9.45138 9.96989 9.42343 9.97762C9.29244 10.0133 9.16865 10.0823 9.06587 10.1851C8.75068 10.5002 8.75068 11.011 9.06587 11.3262C9.38092 11.6413 9.89176 11.6413 10.2068 11.3262C10.3178 11.215 10.3896 11.0795 10.4224 10.9372C10.426 10.9212 10.4293 10.9051 10.4318 10.889Z" fill="black" fill-opacity="0.9"/>
</svg>
