<svg width="24" height="24" viewBox="0 0 24 24" fill="none" xmlns="http://www.w3.org/2000/svg">
<path d="M12 4C10.3431 4 8.99996 5.34315 8.99996 7C8.99996 8.23747 9.78205 9.49825 10.738 10.5439C11.1936 11.0421 11.6522 11.4519 12 11.7388C12.3478 11.4519 12.8064 11.0422 13.2619 10.544C14.2178 9.49845 15 8.23767 15 7C15 5.34315 13.6568 4 12 4ZM11.9999 14.2136L11.4329 13.8237L11.4309 13.8223L11.4269 13.8195L11.4146 13.811L11.3736 13.7819C11.3391 13.7573 11.2907 13.7222 11.2303 13.6772C11.1097 13.5872 10.9407 13.4572 10.7395 13.2916C10.3385 12.9616 9.80179 12.4839 9.26191 11.8934C8.21786 10.7514 6.99996 9.01215 6.99996 7C6.99996 4.23858 9.23853 2 12 2C14.7614 2 17 4.23858 17 7C17 9.01233 15.7821 10.7515 14.738 11.8935C14.1981 12.484 13.6613 12.9617 13.2604 13.2917C13.0591 13.4573 12.8902 13.5873 12.7695 13.6772C12.7092 13.7222 12.6607 13.7573 12.6263 13.7819L12.5852 13.811L12.573 13.8196L12.569 13.8223L12.5676 13.8233L11.9999 14.2136ZM12 7.25C12.138 7.25 12.25 7.13807 12.25 7C12.25 6.86193 12.138 6.75 12 6.75C11.8619 6.75 11.75 6.86193 11.75 7C11.75 7.13807 11.8619 7.25 12 7.25ZM10.25 7C10.25 6.0335 11.0335 5.25 12 5.25C12.9665 5.25 13.75 6.0335 13.75 7C13.75 7.9665 12.9665 8.75 12 8.75C11.0335 8.75 10.25 7.9665 10.25 7ZM3.10491 10H6.99996V12H4.895L4.11722 19H19.8827L19.1049 12H17V10H20.895L22.1172 21H1.88269L3.10491 10Z" fill="black" fill-opacity="0.9" style="fill:black;fill-opacity:0.9;"/>
</svg>
