<svg width="24" height="24" viewBox="0 0 24 24" fill="none" xmlns="http://www.w3.org/2000/svg">
    <path
        d="M9 1.84229L15.0744 5.38567L22 2.49999V10.5H20V5.49999L16 7.16665V10.5H14V7.07436L10 4.74103V16.9256L11.8677 18.0151L10.8599 19.7426L8.92563 18.6143L2 21.5V5.92562L9 1.84229ZM8 16.8333V4.74103L4 7.07436V18.5L8 16.8333ZM17.25 13.5C18.7688 13.5 20 14.7312 20 16.25C20 17.0086 19.6929 17.6954 19.1961 18.1929C19.1935 18.1956 19.1908 18.1982 19.1882 18.2009C18.691 18.6948 18.0062 19 17.25 19C15.7312 19 14.5 17.7688 14.5 16.25C14.5 14.7312 15.7312 13.5 17.25 13.5ZM21.2419 18.8253C21.7216 18.0834 22 17.1992 22 16.25C22 13.6266 19.8734 11.5 17.25 11.5C14.6266 11.5 12.5 13.6266 12.5 16.25C12.5 18.8733 14.6266 21 17.25 21C18.2004 21 19.0857 20.7208 19.8282 20.2401L21.4983 21.9142L22.9142 20.5017L21.2419 18.8253Z"
        fill="black" />
</svg>