<svg width="24" height="24" viewBox="0 0 24 24" fill="none" xmlns="http://www.w3.org/2000/svg">
<g id="map-connection">
<path id="fill2" d="M9 6C9 7.65685 7.65685 9 6 9C4.34315 9 3 7.65685 3 6C3 4.34315 4.34315 3 6 3C7.65685 3 9 4.34315 9 6Z" fill="white"/>
<path id="stroke1" d="M9 6C11.7664 6 15.4483 6 18.0009 6C19.6578 6 21 7.34315 21 9C21 10.6569 19.6569 12 18 12H6C4.34315 12 3 13.3431 3 15C3 16.6569 4.34315 18 6 18H18M9 6C9 7.65685 7.65685 9 6 9C4.34315 9 3 7.65685 3 6C3 4.34315 4.34315 3 6 3C7.65685 3 9 4.34315 9 6ZM20 18L18 19.5V16.5L20 18Z" stroke="black" stroke-width="2" stroke-linecap="square"/>
</g>
</svg>
