<svg width="24" height="24" viewBox="0 0 24 24" fill="none" xmlns="http://www.w3.org/2000/svg">
<g id="map-information">
<path id="fill1" d="M12 13C12 13 16 10.25 16 7C16 4.79086 14.2091 3 12 3C9.79086 3 8 4.79086 8 7C8 10.2496 12 13 12 13Z" fill="white"/>
<path id="fill2" d="M12.75 7C12.75 7.41421 12.4142 7.75 12 7.75C11.5858 7.75 11.25 7.41421 11.25 7C11.25 6.58579 11.5858 6.25 12 6.25C12.4142 6.25 12.75 6.58579 12.75 7Z" fill="white"/>
<g id="stroke1">
<path d="M12 13C12 13 16 10.25 16 7C16 4.79086 14.2091 3 12 3C9.79086 3 8 4.79086 8 7C8 10.2496 12 13 12 13Z" stroke="black" stroke-width="2" stroke-linecap="square"/>
<path d="M12.75 7C12.75 7.41421 12.4142 7.75 12 7.75C11.5858 7.75 11.25 7.41421 11.25 7C11.25 6.58579 11.5858 6.25 12 6.25C12.4142 6.25 12.75 6.58579 12.75 7Z" stroke="black" stroke-width="2" stroke-linecap="square"/>
</g>
<path id="stroke2" d="M6 11H3V21H21V11H18M3.50488 20.4492L8.5 15M20.3651 11.6349L14.1542 17.8458M13 17L16.1309 20.5781" stroke="black" stroke-width="2" stroke-linecap="square"/>
</g>
</svg>
