<svg width="24" height="24" viewBox="0 0 24 24" fill="none" xmlns="http://www.w3.org/2000/svg">
    <g id="map-bubble">
        <path id="fill1" d="M3 6.5V20L9 17.5L15 21L21 17.5V4L15 6.5L9 3L3 6.5Z" fill="white" />
        <g id="fill2">
            <path
                d="M14.75 10.25C14.75 10.6642 14.4142 11 14 11C13.5858 11 13.25 10.6642 13.25 10.25C13.25 9.83579 13.5858 9.5 14 9.5C14.4142 9.5 14.75 9.83579 14.75 10.25Z"
                fill="white" />
            <path
                d="M17.25 14.75C17.25 15.1642 16.9142 15.5 16.5 15.5C16.0858 15.5 15.75 15.1642 15.75 14.75C15.75 14.3358 16.0858 14 16.5 14C16.9142 14 17.25 14.3358 17.25 14.75Z"
                fill="white" />
            <path
                d="M8.25 9.25C8.25 9.66421 7.91421 10 7.5 10C7.08579 10 6.75 9.66421 6.75 9.25C6.75 8.83579 7.08579 8.5 7.5 8.5C7.91421 8.5 8.25 8.83579 8.25 9.25Z"
                fill="white" />
            <path
                d="M10.75 13.75C10.75 14.1642 10.4142 14.5 10 14.5C9.58579 14.5 9.25 14.1642 9.25 13.75C9.25 13.3358 9.58579 13 10 13C10.4142 13 10.75 13.3358 10.75 13.75Z"
                fill="white" />
        </g>
        <path id="stroke1" d="M3 6.5V20L9 17.5L15 21L21 17.5V4L15 6.5L9 3L3 6.5Z" stroke="black" stroke-width="2" />
        <g id="stroke2">
            <path
                d="M14.75 10.25C14.75 10.6642 14.4142 11 14 11C13.5858 11 13.25 10.6642 13.25 10.25C13.25 9.83579 13.5858 9.5 14 9.5C14.4142 9.5 14.75 9.83579 14.75 10.25Z"
                stroke="black" stroke-width="2" />
            <path
                d="M17.25 14.75C17.25 15.1642 16.9142 15.5 16.5 15.5C16.0858 15.5 15.75 15.1642 15.75 14.75C15.75 14.3358 16.0858 14 16.5 14C16.9142 14 17.25 14.3358 17.25 14.75Z"
                stroke="black" stroke-width="2" />
            <path
                d="M8.25 9.25C8.25 9.66421 7.91421 10 7.5 10C7.08579 10 6.75 9.66421 6.75 9.25C6.75 8.83579 7.08579 8.5 7.5 8.5C7.91421 8.5 8.25 8.83579 8.25 9.25Z"
                stroke="black" stroke-width="2" />
            <path
                d="M10.75 13.75C10.75 14.1642 10.4142 14.5 10 14.5C9.58579 14.5 9.25 14.1642 9.25 13.75C9.25 13.3358 9.58579 13 10 13C10.4142 13 10.75 13.3358 10.75 13.75Z"
                stroke="black" stroke-width="2" />
        </g>
    </g>
</svg>