<svg width="24" height="24" viewBox="0 0 24 24" fill="none" xmlns="http://www.w3.org/2000/svg">
<path d="M6 4C4.89543 4 4 4.89543 4 6C4 7.10457 4.89543 8 6 8C7.10457 8 8 7.10457 8 6C8 4.89543 7.10457 4 6 4ZM2 6C2 3.79086 3.79086 2 6 2C7.86384 2 9.42994 3.27477 9.87398 5H18.0009C20.2104 5 22 6.79125 22 9C22 11.2091 20.2091 13 18 13H6C4.89543 13 4 13.8954 4 15C4 16.1046 4.89543 17 6 17H17V14.5L21.6667 18L17 21.5V19H6C3.79086 19 2 17.2091 2 15C2 12.7909 3.79086 11 6 11H18C19.1046 11 20 10.1046 20 9C20 7.89504 19.1051 7 18.0009 7H9.87398C9.42994 8.72523 7.86384 10 6 10C3.79086 10 2 8.20914 2 6Z" fill="black" fill-opacity="0.9" style="fill:black;fill-opacity:0.9;"/>
</svg>
