<svg width="24" height="24" viewBox="0 0 24 24" fill="none" xmlns="http://www.w3.org/2000/svg">
<g id="map-double">
<path id="fill1" d="M7.5 10.125V20.25L12 18.375L16.5 21L21 18.375V8.25L16.5 10.125L12 7.5L7.5 10.125Z" fill="white"/>
<path id="fill2" d="M12 7.5L7.5 10.125V13.875L3 15.75V5.625L7.5 3L12 5.625L16.5 3.75L16.5 10.125L12 7.5Z" fill="white"/>
<path id="stroke2" d="M12 7.5L7.5 10.125V13.875L3 15.75V5.625L7.5 3L12 5.625L16.5 3.75L16.5 10.125L12 7.5Z" stroke="black" stroke-width="2"/>
<path id="stroke1" d="M12 17.625V8.25M16.5 10.9V20.25M7.5 20.25V10.125L12 7.5L16.5 10.125L21 8.25V18.375L16.5 21L12 18.375L7.5 20.25Z" stroke="black" stroke-width="2" stroke-linecap="square"/>
</g>
</svg>
