<svg width="24" height="24" viewBox="0 0 24 24" fill="none" xmlns="http://www.w3.org/2000/svg">
    <g id="markup">
        <path id="fill1"
            d="M22 12C22 15.5058 20.1959 18.5903 17.4654 20.3757C17.3131 20.4753 17.1579 20.5708 17 20.6622C15.5291 21.513 13.8214 22 12 22C10.1786 22 8.47087 21.513 7 20.6622C6.84207 20.5708 6.68687 20.4753 6.53456 20.3757C3.8041 18.5903 2 15.5058 2 12C2 6.47715 6.47715 2 12 2C17.5228 2 22 6.47715 22 12Z"
            fill="white" />
        <g id="fill2">
            <path d="M7 20.6622C8.47087 21.513 10.1786 22 12 22C13.8214 22 15.5291 21.513 17 20.6622L15 13H9L7 20.6622Z"
                fill="white" />
            <path d="M10.9999 9V13H12.9999V9L11.9999 8L10.9999 9Z" fill="white" />
        </g>
        <path id="stroke2"
            d="M7.0006 20.6622C8.47146 21.513 10.1792 22 12.0006 22C13.822 22 15.5297 21.513 17.0006 20.6622M7.0006 20.6622C6.84267 20.5708 6.68747 20.4753 6.53516 20.3757M7.0006 20.6622L9.0006 13H15.0006L17.0006 20.6622M17.466 20.3757C17.3137 20.4753 17.1585 20.5708 17.0006 20.6622M11.0005 13V9L12.0005 8L13.0005 9V13"
            stroke="black" stroke-width="2" />
        <path id="stroke1"
            d="M22 12C22 15.5058 20.1959 18.5903 17.4654 20.3757C17.3131 20.4753 17.1579 20.5708 17 20.6622C15.5291 21.513 13.8214 22 12 22C10.1786 22 8.47087 21.513 7 20.6622C6.84207 20.5708 6.68687 20.4753 6.53456 20.3757C3.8041 18.5903 2 15.5058 2 12C2 6.47715 6.47715 2 12 2C17.5228 2 22 6.47715 22 12Z"
            stroke="black" stroke-width="2" />
    </g>
</svg>