<svg width="24" height="24" viewBox="0 0 24 24" fill="none" xmlns="http://www.w3.org/2000/svg">
<g id="meat-pepper" clip-path="url(#clip0_2332_2994)">
<path id="fill1" d="M2.36711 15.3995C2.3671 11.3997 7.37432 1.01774 12.7002 3.04999C15.5 3.99992 15.9998 6.44429 16 7.99967C17.5554 7.99982 19.8489 9.17352 20.9497 11.2995C23.5707 16.3615 12.3671 21.3999 8.36712 21.3999C6.15274 21.5302 5.14603 20.2899 4.95145 18.8154C3.47691 18.6208 2.23685 17.6138 2.36711 15.3995Z" fill="white"/>
<path id="stroke1" d="M15.9997 9.64955V7.99966M15.9997 7.99966C15.9996 6.44428 15.4997 3.9999 12.6999 3.04998C7.37405 1.01773 2.36683 11.3997 2.36683 15.3995C2.23658 17.6138 3.47664 18.6208 4.95118 18.8154C5.14575 20.2899 6.15247 21.5302 8.36684 21.3999C12.3668 21.3999 23.5704 16.3615 20.9494 11.2994C19.8486 9.17351 17.5551 7.99981 15.9997 7.99966ZM16.4498 7.30801C17.1606 6.40682 18.4252 5.39353 19.9997 4.99979" stroke="black" stroke-width="2" stroke-linecap="square"/>
</g>
<defs>
<clipPath id="clip0_2332_2994">
<rect width="24" height="24" fill="white"/>
</clipPath>
</defs>
</svg>
