<svg width="24" height="24" viewBox="0 0 24 24" fill="none" xmlns="http://www.w3.org/2000/svg">
    <path
        d="M21.2127 5.72729L20.2426 5.96989C19.2438 6.21967 18.3943 6.76981 17.7867 7.3337C18.2562 7.50052 18.7246 7.72602 19.1708 8.00158C20.2068 8.64142 21.1923 9.59314 21.8377 10.8396C22.6958 12.497 22.38 14.1429 21.4986 15.5453C20.6419 16.9084 19.2228 18.1086 17.6782 19.0916C16.1192 20.0839 14.3551 20.9037 12.7203 21.4772C11.1189 22.039 9.55814 22.3939 8.39671 22.3999C7.10189 22.4703 6.03248 22.1445 5.24772 21.4658C4.66933 20.9656 4.30769 20.3272 4.10985 19.657C3.43956 19.4591 2.80127 19.0974 2.30108 18.5189C1.62245 17.7341 1.29679 16.6647 1.36721 15.3699C1.37314 14.2053 1.72798 12.6924 2.29408 11.1518C2.87165 9.57992 3.69927 7.89743 4.70757 6.40333C5.70912 4.91921 6.9293 3.56097 8.3146 2.70819C9.71854 1.84394 11.3505 1.47163 13.039 2.10895C15.1554 2.83302 16.1724 4.27726 16.6383 5.67794C17.4605 4.96724 18.5279 4.33712 19.7574 4.02964L20.7275 3.78704L21.2127 5.72729ZM17 9.17842L17 10.6496L15 10.6496L15 7.99977C15 7.9998 15 7.99973 15 7.99977C14.9998 6.60746 14.5685 4.73987 12.3789 3.99697L12.3612 3.99095L12.3437 3.98428C11.3755 3.61484 10.3909 3.77859 9.36305 4.41135C8.31159 5.05862 7.28136 6.1648 6.36538 7.52211C5.45613 8.86943 4.69908 10.4054 4.17137 11.8416C3.63699 13.2959 3.36713 14.5681 3.36713 15.3995L3.36713 15.4289L3.36541 15.4582C3.31208 16.3647 3.54154 16.8957 3.81393 17.2108C4.09483 17.5356 4.52527 17.7505 5.0823 17.824L5.84256 17.9243L5.94288 18.6845C6.0164 19.2416 6.23122 19.6722 6.55604 19.9531C6.871 20.2255 7.40196 20.455 8.30842 20.4017L8.33776 20.3999H8.36714C9.20271 20.3999 10.5295 20.1263 12.0582 19.59C13.5672 19.0606 15.1902 18.3044 16.6044 17.4043C18.0331 16.495 19.1734 15.4864 19.8053 14.4811C20.4123 13.5151 20.5141 12.633 20.0617 11.7593C19.6063 10.8798 18.8946 10.1817 18.1198 9.7032C17.737 9.46672 17.3549 9.2937 17 9.17842Z"
        fill="black" />
</svg>