<svg width="24" height="24" viewBox="0 0 24 24" fill="none" xmlns="http://www.w3.org/2000/svg">
<g id="member">
<path id="stroke1" d="M16 20V19C16 16.7909 14.2091 15 12 15H5C2.79086 15 1 16.7909 1 19V20M12.5 7C12.5 9.20914 10.7091 11 8.5 11C6.29086 11 4.5 9.20914 4.5 7C4.5 4.79086 6.29086 3 8.5 3C10.7091 3 12.5 4.79086 12.5 7Z" stroke="black" stroke-width="2" stroke-linecap="square"/>
<path id="stroke2" d="M15.5 11C17.7091 11 19.5 9.20914 19.5 7C19.5 4.79086 17.7091 3 15.5 3M23 20V19C23 16.7909 21.2091 15 19 15" stroke="black" stroke-width="2" stroke-linecap="square"/>
</g>
</svg>
