<svg width="24" height="24" viewBox="0 0 24 24" fill="none" xmlns="http://www.w3.org/2000/svg">
<g id="microphone">
<g id="fill1">
<path d="M6 7C6 4.23858 8.23858 2 11 2H13C15.7614 2 18 4.23858 18 7V13C18 13.3425 17.9656 13.6769 17.9 14C17.4367 16.2822 15.419 18 13 18C12.219 18 11.781 18 11 18C8.58104 18 6.56329 16.2822 6.10002 14C6.03443 13.6769 6 13.3425 6 13V7Z" fill="white"/>
<path d="M6 7C6 4.23858 8.23858 2 11 2H13C15.7614 2 18 4.23858 18 7V13C18 13.3425 17.9656 13.6769 17.9 14C17.4367 16.2822 15.419 18 13 18C12.219 18 11.781 18 11 18C8.58104 18 6.56329 16.2822 6.10002 14C6.03443 13.6769 6 13.3425 6 13V7Z" fill="white"/>
<path d="M6 7C6 4.23858 8.23858 2 11 2H13C15.7614 2 18 4.23858 18 7V13C18 13.3425 17.9656 13.6769 17.9 14C17.4367 16.2822 15.419 18 13 18C12.219 18 11.781 18 11 18C8.58104 18 6.56329 16.2822 6.10002 14C6.03443 13.6769 6 13.3425 6 13V7Z" fill="white"/>
</g>
<path id="stroke1" d="M12 18V21M7 21H17M6.5 14H9M6.5 7H9M6.5 10.5H9M15 14H17.5M15 7H17.5M15 10.5H17.5M6 7V13C6 13.3425 6.03443 13.6769 6.10002 14C6.56329 16.2822 8.58104 18 11 18C11.781 18 12.219 18 13 18C15.419 18 17.4367 16.2822 17.9 14C17.9656 13.6769 18 13.3425 18 13V7C18 4.23858 15.7614 2 13 2H11C8.23858 2 6 4.23858 6 7Z" stroke="black" stroke-width="2" stroke-linecap="square"/>
</g>
</svg>
