<svg width="16" height="16" viewBox="0 0 16 16" fill="none" xmlns="http://www.w3.org/2000/svg">
<path d="M7.50024 1H8.50024V15H7.50024V1Z" fill="black" fill-opacity="0.9"/>
<path d="M14.7196 12.4367C14.7504 12.6777 14.6034 12.906 14.3712 12.9777C14.2991 13 14.1963 13 13.9907 13H10.6501C10.5106 13 10.4409 13 10.3834 12.9862C10.2006 12.9423 10.0578 12.7995 10.0139 12.6167C10.0001 12.5592 10.0001 12.4895 10.0001 12.35V5.0008C10.0001 4.47031 10.0001 4.20506 10.041 4.11027C10.1768 3.79537 10.5821 3.70757 10.8361 3.93804C10.9126 4.00742 11.0223 4.24889 11.2418 4.73183L14.5824 12.081C14.6675 12.2682 14.71 12.3618 14.7196 12.4367ZM11.0001 12H13.4471L11.0001 6.61661V12Z" fill="black" fill-opacity="0.9"/>
<path d="M1.62907 12.9777C1.70117 13 1.80398 13 2.00959 13H5.35014C5.48959 13 5.55932 13 5.61686 12.9862C5.79969 12.9423 5.94243 12.7995 5.98633 12.6167C6.00014 12.5592 6.00014 12.4895 6.00014 12.35V5.0008C6.00014 4.47031 6.00014 4.20506 5.95925 4.11027C5.82341 3.79537 5.4181 3.70757 5.16413 3.93804C5.08768 4.00742 4.97792 4.24889 4.7584 4.73183L1.41786 12.081C1.33277 12.2682 1.29023 12.3618 1.28067 12.4367C1.24989 12.6777 1.39688 12.906 1.62907 12.9777ZM5.00014 6.61661V12H2.55315L5.00014 6.61661Z" fill="black" fill-opacity="0.9"/>
</svg>
