<svg width="24" height="24" viewBox="0 0 24 24" fill="none" xmlns="http://www.w3.org/2000/svg">
<g id="mobile-shortcut">
<path id="stroke1" d="M19 19V22H5V2H19V5M12 18H12.0039V18.0039H12V18Z" stroke="black" stroke-width="2" stroke-linecap="square"/>
<g id="stroke2">
<path d="M16.0571 13.0566L15.7058 12.3509L15 11.9996L15.7058 11.6483L16.0571 10.9425L16.4084 11.6483L17.1141 11.9996L16.4084 12.3509L16.0571 13.0566Z" stroke="black" stroke-width="2" stroke-linecap="square"/>
<path d="M21.1052 8.39056L21.1403 8.46108L21.2108 8.49618L21.1403 8.53128L21.1052 8.60179L21.0701 8.53128L20.9996 8.49618L21.0701 8.46108L21.1052 8.39056Z" stroke="black" stroke-width="2" stroke-linecap="square"/>
<path d="M21.1052 15.4003L21.1403 15.4708L21.2108 15.5059L21.1403 15.541L21.1052 15.6116L21.0701 15.541L20.9996 15.5059L21.0701 15.4708L21.1052 15.4003Z" stroke="black" stroke-width="2" stroke-linecap="square"/>
</g>
</g>
</svg>
