<svg width="24" height="24" viewBox="0 0 24 24" fill="none" xmlns="http://www.w3.org/2000/svg">
<g id="money">
<path id="fill1" d="M21.5002 11V21H2.5002L2.5002 11L21.5002 11Z" fill="white"/>
<g id="fill2">
<path d="M11.9996 13.5C13.3803 13.5 14.4996 14.6193 14.4996 16C14.4996 17.3807 13.3803 18.5 11.9996 18.5C10.6189 18.5 9.49961 17.3807 9.49961 16C9.49961 14.6193 10.6189 13.5 11.9996 13.5Z" fill="white"/>
<path d="M17.1357 6.29148L19.0003 5.66995L20.8239 11.0033H3.0021L2.99902 11.0043L14.1461 2.09998L17.1357 6.29148Z" fill="white"/>
</g>
<path id="stroke2" d="M21 11.0033H20.8243L19.0007 5.66992L3.35369 11.0033L3 10.9999M2.5 11.0043H2.99942L14.1465 2.09998L16.9636 6.04956" stroke="black" stroke-width="2" stroke-linecap="square"/>
<g id="stroke1">
<path d="M14.5 16C14.5 17.3807 13.3807 18.5 12 18.5C10.6193 18.5 9.5 17.3807 9.5 16C9.5 14.6193 10.6193 13.5 12 13.5C13.3807 13.5 14.5 14.6193 14.5 16Z" stroke="black" stroke-width="2" stroke-linecap="square"/>
<path d="M21.5002 11V21H2.5002L2.5002 11L21.5002 11Z" stroke="black" stroke-width="2" stroke-linecap="square"/>
<path d="M2.5 11L4.5 11C4.5 12.1046 3.60457 13 2.5 13L2.5 11Z" stroke="black" stroke-width="2" stroke-linecap="square"/>
<path d="M21.5005 11H19.5C19.5 12.1048 20.3956 13.0005 21.5005 13.0005V11Z" stroke="black" stroke-width="2" stroke-linecap="square"/>
<path d="M2.5 21H4.50195C4.50195 19.8944 3.60565 18.998 2.5 18.998L2.5 21Z" stroke="black" stroke-width="2" stroke-linecap="square"/>
<path d="M21.5 21H19.5C19.5 19.8954 20.3954 19 21.5 19V21Z" stroke="black" stroke-width="2" stroke-linecap="square"/>
</g>
</g>
</svg>
