<svg width="16" height="16" viewBox="0 0 16 16" fill="none" xmlns="http://www.w3.org/2000/svg">
<path fill-rule="evenodd" clip-rule="evenodd" d="M8 16C12.4183 16 16 12.4183 16 8C16 3.58172 12.4183 -3.13124e-07 8 -6.99382e-07C3.58172 -1.08564e-06 1.08564e-06 3.58172 6.99382e-07 8C3.13124e-07 12.4183 3.58172 16 8 16ZM8 2C11.309 2 14 4.691 14 8C14 11.309 11.309 14 8 14C4.691 14 2 11.309 2 8C2 4.691 4.691 2 8 2ZM4.5 5.75L4.5 7.75L7 7.75L7 8.75L4.5 8.75L4.5 10.75L7 10.75L7 12.5L9 12.5L9 10.75L11.5 10.75L11.5 8.75L9 8.75L9 7.75L11.5 7.75L11.5 5.75L10.1642 5.75L11.2071 4.70711L9.79289 3.29289L8 5.08579L6.20711 3.29289L4.79289 4.70711L5.83579 5.75L4.5 5.75Z" fill="black"/>
</svg>
