<svg width="24" height="24" viewBox="0 0 24 24" fill="none" xmlns="http://www.w3.org/2000/svg">
    <path
        d="M6 1.58594L10 5.58594V7.68236C10.8994 6.3296 12.3332 5.36275 14 5.08311V3.50015H16V5.08311C18.5125 5.50463 20.4955 7.48765 20.917 10.0002H22V22.0002H2V5.58594L6 1.58594ZM18.874 10.0002C18.4299 8.27492 16.8638 7.00015 15 7.00015C13.1362 7.00015 11.5701 8.27492 11.126 10.0002H18.874ZM10 12.0002V20.0002H12V14.0002H18V20.0002H20V12.0002H10ZM16 20.0002V16.0002H14V20.0002H16ZM8 20.0002V6.41436L6 4.41436L4 6.41437V20.0002H8ZM7.00391 8.00015V10.0041H5V8.00406H5.00391V8.00015H7.00391Z"
        fill="black" />
</svg>