<svg width="24" height="24" viewBox="0 0 24 24" fill="none" xmlns="http://www.w3.org/2000/svg">
    <path
        d="M1.08569 12L5.49991 7.5858L6.91412 9.00002L4.91412 11L10.9999 11L10.9999 4.91424L8.99991 6.91425L7.58569 5.50003L11.9999 1.08582L16.4141 5.50003L14.9999 6.91424L12.9999 4.91424L12.9999 11L19.0857 11L17.0857 9.00003L18.4999 7.58582L22.9141 12L18.4999 16.4142L17.0857 15L19.0857 13L12.9999 13L12.9999 19.0858L14.9999 17.0858L16.4141 18.5L11.9999 22.9142L7.58569 18.5L8.9999 17.0858L10.9999 19.0858L10.9999 13L4.91412 13L6.91412 15L5.49991 16.4142L1.08569 12Z"
        fill="black" />
</svg>