<svg width="24" height="24" viewBox="0 0 24 24" fill="none" xmlns="http://www.w3.org/2000/svg">
    <path
        d="M12.3077 3.10196C12.9869 4.77944 14.6308 5.99995 16.4992 5.99995C17.6558 5.99995 18.6966 5.59514 19.4836 4.90858C19.4218 4.83955 19.3582 4.77235 19.2929 4.70706C17.6671 3.08126 14.9123 2.54865 12.3077 3.10196ZM20.5357 6.63273C19.4205 7.50446 18.0144 7.99995 16.4992 7.99995C13.7097 7.99995 11.3379 6.17352 10.4033 3.72183C9.56069 4.10262 8.81003 4.60418 8.20715 5.20706C7.82592 5.58829 7.65643 5.92693 7.60643 6.24232C7.55615 6.55949 7.60698 6.97776 7.89448 7.55274C7.99078 7.74535 8.23417 8.07227 8.63071 8.50697C9.0097 8.92243 9.47192 9.37585 9.94166 9.81314L9.95475 9.82532L14.1747 14.0452L14.1868 14.0583C14.2584 14.1352 14.3329 14.2141 14.4093 14.294C15.3367 11.822 17.7041 9.99995 20.5001 9.99995C20.7014 9.99995 20.9008 10.0091 21.0979 10.0271C21.1347 8.83017 20.9475 7.65487 20.5357 6.63273ZM20.8306 12.0119C20.7216 12.004 20.6113 11.9999 20.5001 11.9999C18.289 11.9999 16.4114 13.6926 16.0522 15.8502C16.2134 15.9747 16.334 16.0489 16.4472 16.1055L16.4684 16.1161C17.0343 16.399 17.4468 16.447 17.7606 16.3956C18.0743 16.3442 18.4125 16.1733 18.7929 15.7928C19.7721 14.8137 20.4724 13.489 20.8306 12.0119ZM12.0691 14.7681L9.23189 11.9309C9.02807 12.1142 8.78852 12.3262 8.52363 12.5545C7.69414 13.2695 6.58717 14.1694 5.54026 14.8415L5.52753 14.8497L5.51455 14.8574C5.48085 14.8777 5.44601 14.8984 5.4102 14.9198C4.85623 15.2502 4.06967 15.7194 3.67968 16.3916C3.50038 16.7007 3.42004 17.0344 3.50759 17.4416C3.6008 17.8753 3.90688 18.4926 4.70715 19.2928C5.50741 20.0931 6.12473 20.3992 6.55836 20.4924C6.96562 20.5799 7.29929 20.4996 7.60835 20.3203C8.2806 19.9303 8.74977 19.1437 9.0802 18.5898C9.10156 18.554 9.12234 18.5191 9.14256 18.4854L9.15034 18.4725L9.15852 18.4597C9.83058 17.4128 10.7305 16.3059 11.4454 15.4764C11.6738 15.2115 11.8858 14.9719 12.0691 14.7681ZM7.80011 10.5285C7.57403 10.303 7.35523 10.0764 7.15313 9.85484C6.74074 9.40277 6.33404 8.904 6.10562 8.44717C5.68601 7.60794 5.49869 6.76436 5.6311 5.92916C5.7638 5.09217 6.19786 4.38792 6.79294 3.79284C7.87903 2.70675 9.27349 1.92192 10.7615 1.44566C14.084 0.382269 18.1928 0.778496 20.7071 3.29284C21.0555 3.64117 21.3626 4.02223 21.6304 4.42762C22.9381 6.40754 23.319 8.97929 22.9906 11.3445C22.6835 13.5553 21.7464 15.6678 20.2071 17.2071C19.6162 17.798 18.9161 18.233 18.0839 18.3693C17.2517 18.5057 16.4105 18.3232 15.574 17.9049V17.9049L15.5528 17.8944C15.1337 17.6848 14.7718 17.4087 14.3324 17.0146C14.0695 16.7788 13.7703 16.4927 13.4739 16.1972C13.3188 16.3707 13.1451 16.5678 12.9604 16.7821C12.2681 17.5852 11.4451 18.6025 10.85 19.527C10.8322 19.5569 10.8119 19.5917 10.789 19.6308C10.4915 20.1402 9.76719 21.3801 8.61196 22.0503C7.93487 22.4431 7.09736 22.6539 6.13805 22.4477C5.20509 22.2472 4.26043 21.6745 3.29293 20.707C2.32543 19.7395 1.75279 18.7949 1.55225 17.8619C1.34604 16.9026 1.55692 16.0651 1.94972 15.388C2.61991 14.2328 3.85978 13.5085 4.36918 13.2109C4.40828 13.1881 4.44307 13.1678 4.47297 13.15C5.39745 12.5549 6.41476 11.7319 7.21786 11.0396C7.4311 10.8558 7.62722 10.683 7.80011 10.5285Z"
        fill="black" />
</svg>