<svg width="24" height="24" viewBox="0 0 24 24" fill="none" xmlns="http://www.w3.org/2000/svg">
<g id="mushroom">
<path id="fill1" d="M7.49965 4.49993C6.52334 5.47624 6.29254 6.58573 6.99965 7.99994C7.32437 8.64938 8.30002 9.6508 9.26007 10.5445L13.4547 14.7392C14.9803 16.378 17.2607 18.7388 19.4996 16.4999C20.861 15.1386 21.7176 13.2384 21.9997 11.207C22.365 8.57632 21.7625 5.76281 19.9996 3.99993C16.8755 0.875737 10.6238 1.37574 7.49965 4.49993Z" fill="white"/>
<g id="fill2">
<path d="M5.00078 13.9994C6.97566 12.7316 9.26102 10.5445 9.26102 10.5445L13.4556 14.7392C13.4556 14.7392 11.2686 17.0245 10.0008 18.9994C9.42555 19.9581 7.53631 23.5349 4.00077 19.9994C0.465238 16.4639 4.04208 14.5746 5.00078 13.9994Z" fill="white"/>
<path d="M11.067 2.3983C11.5372 4.95842 13.8038 7.00018 16.4998 7.00018C18.2385 7.00018 19.7887 6.23855 20.7966 4.97897C20.5639 4.62663 20.2989 4.29837 20.0007 4.00018C17.8323 1.83175 14.1572 1.40925 11.067 2.3983Z" fill="white"/>
<path d="M16.0218 17.0107L16.0006 17.0001C15.6968 16.8482 15.4115 16.6388 15.0006 16.2703C15.1714 13.3865 17.574 11.0001 20.5006 11.0001C21.0207 11.0001 21.5238 11.0723 22.0006 11.2072C21.7185 13.2386 20.8619 15.1388 19.5006 16.5001C18.5292 17.4716 17.4242 17.7119 16.0218 17.0107Z" fill="white"/>
</g>
<path id="stroke2" d="M11.0664 2.39844C11.5367 4.95856 13.8032 7.00032 16.4993 7.00032C18.2379 7.00032 19.7881 6.23869 20.796 4.97911M22.0001 11.2073C21.5232 11.0724 21.0201 11.0003 20.5001 11.0003C17.5734 11.0003 15.1708 13.3867 15 16.2705" stroke="black" stroke-width="2"/>
<g id="stroke1">
<path d="M4.9998 13.9994C6.97468 12.7316 9.26004 10.5445 9.26004 10.5445L13.4547 14.7392C13.4547 14.7392 11.2676 17.0245 9.9998 18.9994C9.42457 19.9581 7.53533 23.5349 3.9998 19.9994C0.464262 16.4639 4.0411 14.5746 4.9998 13.9994Z" stroke="black" stroke-width="2"/>
<path d="M7.49962 4.49993C6.52331 5.47624 6.29252 6.58573 6.99962 7.99994C7.32434 8.64938 8.2998 9.65132 9.25986 10.5451L13.4545 14.7397C14.9801 16.3785 17.2607 18.7388 19.4996 16.4999C20.8609 15.1386 21.7175 13.2384 21.9996 11.207C22.365 8.57632 21.7625 5.76281 19.9996 3.99993C16.8754 0.875737 10.6238 1.37574 7.49962 4.49993Z" stroke="black" stroke-width="2"/>
</g>
</g>
</svg>
