<svg width="24" height="24" viewBox="0 0 24 24" fill="none" xmlns="http://www.w3.org/2000/svg">
<g id="notification-error">
<g id="fill1">
<path d="M3 19H21V16L19 13V8C19 4.13401 15.866 1 12 1C8.13401 1 5 4.13401 5 8V13L3 16V19Z" fill="white"/>
<path d="M12 22.5C13.933 22.5 15.5 20.933 15.5 19H8.5C8.5 20.933 10.067 22.5 12 22.5Z" fill="white"/>
</g>
<g id="stroke1">
<path d="M3 19H21V16L19 13V8C19 4.13401 15.866 1 12 1C8.13401 1 5 4.13401 5 8V13L3 16V19Z" stroke="black" stroke-width="2" stroke-linecap="square"/>
<path d="M12 22.5C13.933 22.5 15.5 20.933 15.5 19H8.5C8.5 20.933 10.067 22.5 12 22.5Z" stroke="black" stroke-width="2" stroke-linecap="square"/>
</g>
<path id="stroke2" d="M12 7V11M12 14.5H12.0039V14.5039H12V14.5Z" stroke="black" stroke-width="2" stroke-linecap="square"/>
</g>
</svg>
