<svg width="16" height="16" viewBox="0 0 16 16" fill="none" xmlns="http://www.w3.org/2000/svg">
<path fill-rule="evenodd" clip-rule="evenodd" d="M9 1.59268V0.5H7V1.59268C4.50398 2.06144 2.61538 4.25248 2.61538 6.88462V11.2918L1.5 12.3751V14.0001H6.06305C6.1087 14.1775 6.17807 14.3453 6.26756 14.5C6.61337 15.0978 7.25972 15.5 8 15.5C8.74028 15.5 9.38663 15.0978 9.73244 14.5C9.82193 14.3453 9.8913 14.1775 9.93695 14.0001H14.5V12.3751L13.3846 11.2918V6.88461C13.3846 4.25248 11.496 2.06144 9 1.59268ZM11.3846 12.0001V6.88461C11.3846 5.01534 9.86927 3.5 8 3.5C6.13073 3.5 4.61538 5.01535 4.61538 6.88462V12.0001H11.3846Z" fill="black"/>
</svg>
