<svg width="24" height="24" viewBox="0 0 24 24" fill="none" xmlns="http://www.w3.org/2000/svg">
<g id="nut" clip-path="url(#clip0_2332_3024)">
<path id="fill1" d="M4.50041 19.4997C7.6246 22.6239 13.0449 20.8547 16.9501 16.9495L15.5359 15.5352L15.5359 12.7068L12.7075 12.7068L7.05063 7.04996C3.14539 10.9552 1.37621 16.3755 4.50041 19.4997Z" fill="white"/>
<path id="fill2" d="M7.75734 4.92918C10.5625 2.12399 15.4912 3.9969 17.6093 6.29557C20.0049 8.51297 21.8958 13.4181 19.0711 16.2429L17.6568 17.6571L16.9497 16.95L15.5355 15.5358L15.5355 12.7074L12.7071 12.7074L7.05023 7.0505L6.34313 6.3434L7.75734 4.92918Z" fill="white"/>
<path id="stroke1" d="M6.70955 7.3999C3.04464 11.2734 1.46814 16.4676 4.49998 19.4995C7.53393 22.5334 12.7332 20.9526 16.6076 17.2822" stroke="black" stroke-width="2" stroke-linecap="square"/>
<path id="stroke2" d="M17.5996 6.28696C17.5562 6.24691 17.6287 6.31567 17.6146 6.30172M17.5996 6.28696C17.6027 6.28982 17.6058 6.2927 17.6089 6.29557M17.5996 6.28696C17.5646 6.25471 17.605 6.29285 17.6146 6.30172M17.6146 6.30172C17.6127 6.29967 17.6108 6.29762 17.6089 6.29557M17.6146 6.30172C17.6169 6.30386 17.6173 6.30444 17.6146 6.30172ZM17.6146 6.30172C18.2072 5.5781 19.0679 4.29516 19.4996 3M17.6146 6.30172C17.2366 6.76325 16.793 7.20664 16.2422 7.75736M17.6089 6.29557C15.4909 3.9969 10.5622 2.12399 7.75699 4.92918L6.34277 6.3434L12.7066 12.7068H15.5351V15.5352L17.6565 17.6571L19.0707 16.2429C21.8955 13.4181 20.0046 8.51297 17.6089 6.29557Z" stroke="black" stroke-width="2" stroke-linecap="square"/>
</g>
<defs>
<clipPath id="clip0_2332_3024">
<rect width="24" height="24" fill="white"/>
</clipPath>
</defs>
</svg>
