<svg width="24" height="24" viewBox="0 0 24 24" fill="none" xmlns="http://www.w3.org/2000/svg">
    <path
        d="M6.49816 5H7.99816C11.6594 5 14.064 6.46441 15.5769 8.50988C16.5862 9.87454 17.1697 11.4572 17.5099 12.9403C18.2405 12.3858 19.0141 11.9854 19.6781 11.7022C20.2613 11.4535 20.785 11.2848 21.1647 11.1777C21.3551 11.124 21.5108 11.0854 21.6215 11.0597C22.1499 10.937 22.688 10.8506 23.2207 10.7485L21.8452 19.0013L2.21741 18.9996L0.717285 13.001H1.99816C3.01956 13.001 3.89623 13.1059 4.59397 13.2373L3.67246 10.0117H4.99816C6.29447 10.0117 7.55243 10.2432 8.5018 10.4787C8.1222 9.16244 7.65293 7.77145 7.07508 6.38462L6.49816 5ZM9.08594 12.7231C8.84559 12.6455 8.52699 12.5495 8.15319 12.4535C7.62799 12.3185 7.00714 12.1867 6.34986 12.1028L7.7518 17.0006L9.87615 17.0013C9.85298 16.8283 9.82609 16.6367 9.79508 16.4282C9.65486 15.4857 9.43079 14.201 9.08594 12.7231ZM11.8931 17.0014L15.9796 17.0001C15.9611 16.4209 15.9247 15.7096 15.8552 15.1175C15.6451 13.3269 15.1377 11.2795 13.9689 9.69917C13.0417 8.44553 11.6581 7.42832 9.50442 7.10655C10.0963 8.72036 10.5524 10.2958 10.9022 11.7196C11.3371 13.4903 11.6094 15.0324 11.7733 16.1339C11.8225 16.4643 11.8619 16.7553 11.8931 17.0014ZM17.9806 17.0001L20.1511 17.0008L20.7469 13.4257C20.6544 13.4619 20.5595 13.5006 20.4626 13.5419C19.5685 13.9232 18.5902 14.4945 17.885 15.3054C17.9361 15.8726 17.9638 16.4686 17.9789 16.9472C17.9795 16.965 17.98 16.9826 17.9806 17.0001ZM5.67109 17.0002L5.22546 15.446C5.08911 15.4043 4.92147 15.3573 4.72471 15.3099C4.34869 15.2194 3.86741 15.1275 3.29573 15.0678L3.77891 16.9999L5.67109 17.0002Z"
        fill="black" />
</svg>