<svg width="24" height="24" viewBox="0 0 24 24" fill="none" xmlns="http://www.w3.org/2000/svg">
    <path
        d="M2 4.00488H3H14H15V6.00488H14H3H2V4.00488ZM2 11.0049H3H14H15V13.0049H14H3H2V11.0049ZM3 18.0049H2V20.0049H3H12H13V18.0049H12H3ZM19 21.4191L19.7071 20.712L22.7071 17.712L23.4142 17.0049L22 15.5907L21.2929 16.2978L20 17.5907V15.831V14.7875V5.00488V4.00488H18V5.00488V14.7875V15.831V17.5907L16.7071 16.2978L16 15.5907L14.5858 17.0049L15.2929 17.712L18.2929 20.712L19 21.4191Z"
        fill="black" />
</svg>