<svg viewBox="0 0 1024 1024" version="1.1" xmlns="http://www.w3.org/2000/svg"><path fill-opacity=".9" fill-rule="evenodd" d="M223.296 544.91774912L331.64675328 653.2548352C344.14353024 665.7516096 344.14353024 686.0128896 331.64675328 698.5096704 319.14997568 711.0064448 298.88869632 711.0064448 286.39191872 698.5096704L150.62741696 562.74516608C148.48981056 560.60755904 146.71784704 558.2427712 145.31152704 555.7285216 134.42703616 546.05164928 128.00123584 532.02119168 128 517.09877824L128 505.43906816C128.00251968 489.43546368 135.32199424 475.14115712 146.7951296 465.72024448 147.97218304 464.16683328 149.22061632 462.6616352 150.62741696 461.25483392L286.39191872 325.49033216C298.88869632 312.99355456 319.14997568 312.99355456 331.64675328 325.49033216 344.14353024 337.98710912 344.14353024 358.24838848 331.64675328 370.74516608L223.36 478.93374912 224 480 224.064 480 480 480 480 96 544 96 544 480 799.8993344 480 800.6033344 479.08225088 692.2525824 370.74516608C679.755808 358.24838848 679.755808 337.98710912 692.2525824 325.49033216 704.7493632 312.99355456 725.0106368 312.99355456 737.5074176 325.49033216L873.2719168 461.25483392C875.4095232 463.39244096 877.1814912 465.7572288 878.587808 468.2714784 889.4723008 477.94835072 895.8980992 491.97880832 895.8993344 506.90122176L895.8993344 518.56093184C895.8968192 534.56453632 888.577344 548.85884288 877.1042048 558.27975552 875.9271552 559.83316672 874.67872 561.3383648 873.2719168 562.74516608L737.5074176 698.5096704C725.0106368 711.0064448 704.7493632 711.0064448 692.2525824 698.5096704 679.755808 686.0128896 679.755808 665.7516096 692.2525824 653.2548352L800.5393344 545.06625088 799.8993344 544 544 544 544 928 480 928 480 544 223.936 544 223.296 544.91774912Z"/></svg>