<svg width="24" height="24" viewBox="0 0 24 24" fill="none" xmlns="http://www.w3.org/2000/svg">
<g id="outbox">
<path id="fill1" d="M3 21L21 21L21 15.5L15.7092 15.5C15.1159 16.9659 13.6787 18 12 18C10.3213 18 8.88415 16.9659 8.29076 15.5L3 15.5L3 21Z" fill="white"/>
<path id="stroke1" d="M21 21V3L3 3L3 21M21 21H3M21 21L21 15.5H15.7092C15.1159 16.9659 13.6787 18 12 18C10.3213 18 8.88415 16.9659 8.29076 15.5H3L3 21" stroke="black" stroke-width="2" stroke-linecap="square"/>
<path id="stroke2" d="M9 9.5L12 6.5L15 9.5M12 13V7.25" stroke="black" stroke-width="2" stroke-linecap="square"/>
</g>
</svg>
