<svg width="24" height="24" viewBox="0 0 24 24" fill="none" xmlns="http://www.w3.org/2000/svg">
    <g id="palace-1">
        <path id="fill1" d="M3 21V10H7V9C7 6.23858 9.23858 4 12 4C14.7614 4 17 6.23858 17 9V10H21V21H3Z" fill="white" />
        <g id="fill2">
            <path d="M6 21V17C6 15.8954 6.89543 15 8 15C9.10457 15 10 15.8954 10 17V21H6Z" fill="white" />
            <path d="M14 21V17C14 15.8954 14.8954 15 16 15C17.1046 15 18 15.8954 18 17V21H14Z" fill="white" />
        </g>
        <g id="stroke2">
            <path d="M11.998 6.99805H12.002V7.00195H11.998V6.99805Z" stroke="black" stroke-width="2"
                stroke-linecap="square" />
            <path d="M6 21V17C6 15.8954 6.89543 15 8 15C9.10457 15 10 15.8954 10 17V21H6Z" stroke="black"
                stroke-width="2" stroke-linecap="square" />
            <path d="M14 21V17C14 15.8954 14.8954 15 16 15C17.1046 15 18 15.8954 18 17V21H14Z" stroke="black"
                stroke-width="2" stroke-linecap="square" />
        </g>
        <path id="stroke1"
            d="M7 10V9C7 6.23858 9.23858 4 12 4M7 10H17M7 10H3V21H21V10H17M17 10V9C17 6.23858 14.7614 4 12 4M12 4L12.002 3"
            stroke="black" stroke-width="2" stroke-linecap="square" />
    </g>
</svg>