<svg width="24" height="24" viewBox="0 0 24 24" fill="none" xmlns="http://www.w3.org/2000/svg">
<g id="palace-4">
<path id="fill1" d="M21 5.5V21H3V5.5L6 3L9 5.5V10H15V5.5L18 3L21 5.5Z" fill="white"/>
<path id="fill2" d="M10 21V17C10 15.8954 10.8954 15 12 15C13.1046 15 14 15.8954 14 17V21H10Z" fill="white"/>
<path id="stroke2" d="M10 21V17C10 15.8954 10.8954 15 12 15C13.1046 15 14 15.8954 14 17V21H10Z" stroke="black" stroke-width="2" stroke-linecap="square"/>
<path id="stroke1" d="M3 10V21H21V10M3 10V5.5L6 3L9 5.5V10M3 10H9M21 10V5.5L18 3L15 5.5V10M21 10H15M9 10H15" stroke="black" stroke-width="2" stroke-linecap="square"/>
</g>
</svg>
