<svg width="24" height="24" viewBox="0 0 24 24" fill="none" xmlns="http://www.w3.org/2000/svg">
    <g id="palace-2">
        <path id="fill1" d="M3 21V10H7V9C7 6.23858 9.23858 4 12 4C14.7614 4 17 6.23858 17 9V10H21V21H3Z" fill="white" />
        <path id="fill2" d="M9 21V18.3541C9 16.2985 10.1614 14.4193 12 13.5C13.8386 14.4193 15 16.2985 15 18.3541V21H9Z"
            fill="white" />
        <g id="stroke2">
            <path d="M11.998 6.99805H12.002V7.00195H11.998V6.99805Z" stroke="black" stroke-width="2"
                stroke-linecap="square" />
            <path d="M9 21V18.3541C9 16.2985 10.1614 14.4193 12 13.5C13.8386 14.4193 15 16.2985 15 18.3541V21H9Z"
                stroke="black" stroke-width="2" stroke-linecap="square" />
        </g>
        <path id="stroke1"
            d="M7 10V9C7 6.23858 9.23858 4 12 4M7 10H17M7 10H3M17 10V9C17 6.23858 14.7614 4 12 4M17 10H21M3 10V21H21V10M3 10V4M21 10V4M12 4L12.002 3"
            stroke="black" stroke-width="2" stroke-linecap="square" />
    </g>
</svg>