<svg width="24" height="24" viewBox="0 0 24 24" fill="none" xmlns="http://www.w3.org/2000/svg">
<g id="palette-1">
<g id="fill1">
<path d="M15.8889 6.9375C15.8889 9.11212 14.1477 10.875 12 10.875C9.8522 10.875 8.11108 9.11212 8.11108 6.9375C8.11108 4.76288 9.8522 3 12 3C14.1477 3 15.8889 4.76288 15.8889 6.9375Z" fill="white"/>
<path d="M9.77778 17.0625C9.77778 19.2371 8.03666 21 5.88889 21C3.74111 21 2 19.2371 2 17.0625C2 14.8879 3.74111 13.125 5.88889 13.125C8.03666 13.125 9.77778 14.8879 9.77778 17.0625Z" fill="white"/>
<path d="M21.9999 17.0625C21.9999 19.2371 20.2588 21 18.1111 21C15.9633 21 14.2222 19.2371 14.2222 17.0625C14.2222 14.8879 15.9633 13.125 18.1111 13.125C20.2588 13.125 21.9999 14.8879 21.9999 17.0625Z" fill="white"/>
</g>
<g id="stroke1">
<path d="M15.8889 6.9375C15.8889 9.11212 14.1477 10.875 12 10.875C9.8522 10.875 8.11108 9.11212 8.11108 6.9375C8.11108 4.76288 9.8522 3 12 3C14.1477 3 15.8889 4.76288 15.8889 6.9375Z" stroke="black" stroke-width="2"/>
<path d="M9.77778 17.0625C9.77778 19.2371 8.03666 21 5.88889 21C3.74111 21 2 19.2371 2 17.0625C2 14.8879 3.74111 13.125 5.88889 13.125C8.03666 13.125 9.77778 14.8879 9.77778 17.0625Z" stroke="black" stroke-width="2"/>
<path d="M21.9999 17.0625C21.9999 19.2371 20.2588 21 18.1111 21C15.9633 21 14.2222 19.2371 14.2222 17.0625C14.2222 14.8879 15.9633 13.125 18.1111 13.125C20.2588 13.125 21.9999 14.8879 21.9999 17.0625Z" stroke="black" stroke-width="2"/>
</g>
</g>
</svg>
