<svg width="24" height="24" viewBox="0 0 24 24" fill="none" xmlns="http://www.w3.org/2000/svg">
    <path
        d="M3.15601 1L20.8441 1L20.4579 2.28706L20.4574 2.28891L20.4548 2.29765L20.4435 2.33618C20.4334 2.37108 20.4182 2.42417 20.3985 2.49424C20.3593 2.6344 20.3026 2.84237 20.2342 3.10842C20.0973 3.6408 19.914 4.40419 19.7306 5.32112C19.3625 7.16163 19 9.59072 19 12C19 14.4093 19.3625 16.8384 19.7306 18.6789C19.914 19.5958 20.0973 20.3592 20.2342 20.8916C20.3026 21.1576 20.3593 21.3656 20.3985 21.5058C20.4182 21.5758 20.4334 21.6289 20.4435 21.6638L20.4548 21.7023L20.4574 21.7111L20.4579 21.7127L20.8441 23L3.15601 23L3.54212 21.7129L3.54268 21.7111L3.54527 21.7023L3.55654 21.6638C3.56667 21.6289 3.58191 21.5758 3.60153 21.5058C3.64077 21.3656 3.69751 21.1576 3.76592 20.8916C3.90282 20.3592 4.08607 19.5958 4.26946 18.6789C4.63756 16.8384 5.00004 14.4093 5.00004 12C5.00004 9.59072 4.63756 7.16163 4.26946 5.32112C4.08607 4.40419 3.90282 3.6408 3.76592 3.10842C3.69751 2.84237 3.64077 2.6344 3.60153 2.49424C3.58191 2.42417 3.56667 2.37108 3.55654 2.33618L3.54527 2.29765L3.54268 2.28891L3.54221 2.28735L3.15601 1ZM5.80098 3C5.92881 3.51879 6.07975 4.17457 6.23062 4.92888C6.61251 6.83837 7.00004 9.40928 7.00004 12C7.00004 14.5907 6.61251 17.1616 6.23062 19.0711C6.07975 19.8254 5.92881 20.4812 5.80098 21L18.1991 21C18.0713 20.4812 17.9203 19.8254 17.7695 19.0711C17.3876 17.1616 17 14.5907 17 12C17 9.40928 17.3876 6.83837 17.7695 4.92888C17.9203 4.17457 18.0713 3.51879 18.1991 3L5.80098 3Z"
        fill="black" />
</svg>