<svg width="24" height="24" viewBox="0 0 24 24" fill="none" xmlns="http://www.w3.org/2000/svg">
<g id="pantone">
<path id="fill1" d="M22 10.333L22 19.9997L2 19.9997L2 10.333L3.35294 10.333L20.8235 10.333L22 10.333Z" fill="white"/>
<g id="fill2">
<path d="M20.8245 10.3333L19.0009 5L3.35389 10.3333L20.8245 10.3333Z" fill="white"/>
<path d="M14.1465 1.43164L2.99942 10.3359L3.35389 10.3333L17.1433 5.63318L14.1465 1.43164Z" fill="white"/>
</g>
<path id="stroke2" d="M3.35389 10.3333L20.8245 10.3333L19.0009 5L3.35389 10.3333ZM3.35389 10.3333L17.1433 5.63318L14.1465 1.43164L2.99942 10.3359M3.35389 10.3333L2.99942 10.3359M2.99942 10.3359H2.5" stroke="black" stroke-width="2"/>
<g id="stroke1">
<path d="M6.28516 15.1641H6.28906V15.168H6.28516V15.1641Z" stroke="black" stroke-width="2" stroke-linecap="square"/>
<path d="M22 10.333V19.9997L2 19.9997L2 10.333L22 10.333Z" stroke="black" stroke-width="2" stroke-linecap="square"/>
</g>
</g>
</svg>
