<svg width="16" height="16" viewBox="0 0 16 16" fill="none" xmlns="http://www.w3.org/2000/svg">
<path fill-rule="evenodd" clip-rule="evenodd" d="M16 8C16 12.4183 12.4183 16 8 16C3.58172 16 3.13124e-07 12.4183 6.99382e-07 8C1.08564e-06 3.58172 3.58172 -1.08564e-06 8 -6.99382e-07C12.4183 -3.13124e-07 16 3.58172 16 8ZM14 8C14 4.691 11.309 2 8 2C4.691 2 2 4.691 2 8C2 11.309 4.691 14 8 14C11.309 14 14 11.309 14 8ZM5 11L7 11L7 5L5 5L5 11ZM11 11L9 11L9 5L11 5L11 11Z" fill="black" fill-opacity="0.9"/>
</svg>
