<svg width="24" height="24" viewBox="0 0 24 24" fill="none" xmlns="http://www.w3.org/2000/svg">
<g id="pea">
<path id="fill1" d="M10.2684 19.9998C15.7912 19.9998 20.2684 15.5227 20.2684 9.99981C20.2684 8.64157 19.9976 7.34657 19.507 6.16586L13.499 9.63463L8.30365 12.6341L2.33057 16.0827C4.15844 18.4644 7.03409 19.9998 10.2684 19.9998Z" fill="white"/>
<path id="fill2" d="M22.1607 4.63379L7.89483 12.8702C5.23529 11.9185 3.06019 9.94851 1.83936 7.42993L22.1607 4.63379Z" fill="white"/>
<path id="stroke2" d="M22.1607 4.63379L7.89483 12.8702C5.23529 11.9185 3.06019 9.94851 1.83936 7.42993L22.1607 4.63379Z" stroke="black" stroke-width="2" stroke-linecap="square"/>
<path id="stroke1" d="M19.507 6.16667L22.1607 4.63379L19.507 6.16586L13.499 9.63463M8.30365 12.6341L13.499 9.63463M8.30365 12.6341L9.80365 15.2322M8.30365 12.6341L2.33057 16.0827C4.15844 18.4644 7.0341 19.9998 10.2684 19.9998C15.7912 19.9998 20.2684 15.5227 20.2684 9.99982C20.2684 8.69282 20.0176 7.44439 19.5616 6.3M13.499 9.63463L14.999 12.2327" stroke="black" stroke-width="2" stroke-linecap="square"/>
</g>
</svg>
