<svg width="24" height="24" viewBox="0 0 24 24" fill="none" xmlns="http://www.w3.org/2000/svg">
<path d="M3.94774 8.21808C5.01546 9.78975 6.53031 11.0332 8.3081 11.7654L17.7391 6.32034L3.94774 8.21808ZM6.2228 12.9693C4.15592 11.7953 2.48102 10.0132 1.44025 7.86606L0.8396 6.62693L22.5241 3.64307L23.1605 5.49974L21.236 6.61093C21.5816 7.67937 21.7681 8.81857 21.7681 9.99976C21.7681 16.0749 16.8433 20.9998 10.7681 20.9998C7.20986 20.9998 4.04603 19.3091 2.03704 16.6915L1.34274 15.7868L6.2228 12.9693ZM8.4374 14.0001L4.38197 16.3415C6.01331 17.9844 8.27199 18.9998 10.7681 18.9998C15.7387 18.9998 19.7681 14.9703 19.7681 9.99976C19.7681 9.18188 19.6593 8.39056 19.4556 7.63891L15.3649 10.0008L16.8648 12.5987L15.1327 13.5987L13.6329 11.0009L10.1697 13.0005L11.6695 15.5982L9.9374 16.5982L8.4374 14.0001Z" fill="black" fill-opacity="0.9" style="fill:black;fill-opacity:0.9;"/>
</svg>
