<svg width="24" height="24" viewBox="0 0 24 24" fill="none" xmlns="http://www.w3.org/2000/svg">
<path d="M9.00008 0.999512H10.0001C11.1954 0.999512 12.05 1.63238 12.6157 2.36338C13.0795 1.64558 13.8299 0.999512 15.0001 0.999512H16.0001V2.99951H15.0001C14.6478 2.99951 14.3455 3.20937 14.0837 3.86593C14.0385 3.97935 13.999 4.09668 13.9646 4.21497C15.1771 4.08625 16.721 4.38052 18.3706 5.32246C21.3335 7.01433 22.9944 11.1119 21.3605 15.3475C20.5044 17.567 18.3969 19.2776 16.6765 20.3874C15.7928 20.9575 14.9601 21.401 14.3486 21.7022C14.0422 21.8531 13.7896 21.9691 13.6117 22.0481C13.5618 22.0703 13.5178 22.0896 13.48 22.1059C13.1863 22.3572 12.8724 22.6018 12.5417 22.8268L12.1044 23.1242L11.6124 22.9302C5.77501 20.6282 3.00768 17.318 2.2316 14.0205C1.46806 10.7763 2.69192 7.74 4.44717 6.14793C6.6083 4.18771 9.27611 3.83176 11.4103 4.23325C11.3593 4.11787 11.3021 4.00359 11.2383 3.89315C10.8882 3.28681 10.4748 2.99951 10.0001 2.99951H9.00008V0.999512ZM15.2894 6.25625C16.9646 7.8643 17.7156 9.99074 17.8869 12.0397C18.0588 14.0949 17.6596 16.1703 16.9635 17.7248C18.086 16.8264 19.0531 15.772 19.4945 14.6277C20.8022 11.2377 19.4136 8.22115 17.3789 7.05925C16.5716 6.5983 15.8705 6.36097 15.2894 6.25625ZM14.6036 17.8521C15.4006 16.7677 16.0877 14.5237 15.8939 12.2064C15.7047 9.94422 14.6972 7.78428 12.318 6.59093C10.6328 5.83416 7.87407 5.73977 5.79084 7.62933C4.56548 8.74077 3.58427 11.0379 4.17841 13.5623C4.74161 15.9553 6.77839 18.7444 11.84 20.864C11.991 20.7463 12.1394 20.6229 12.2845 20.4955C13.1654 19.7218 13.9394 18.8176 14.6036 17.8521Z" fill="black" fill-opacity="0.9" style="fill:black;fill-opacity:0.9;"/>
</svg>
