<svg width="24" height="24" viewBox="0 0 24 24" fill="none" xmlns="http://www.w3.org/2000/svg">
<g id="peach">
<g id="fill1">
<path d="M5.11893 6.88912C7.56899 4.66684 10.7873 4.79921 12.7474 5.68811C13.4492 5.11132 15.3758 4.76446 17.8747 6.19134C20.3735 7.61823 21.8982 11.1753 20.4274 14.9881C18.9567 18.801 12.9443 21.2474 12.9443 21.2474C12.6405 21.5142 12.3171 21.7705 11.9791 22.0004C0.708806 17.5559 2.13832 9.59263 5.11893 6.88912Z" fill="white"/>
<path d="M12.7474 5.68811C12.7481 5.66366 12.7484 5.63842 12.7483 5.61232C12.7477 5.63983 12.7474 5.66512 12.7474 5.68811Z" fill="white"/>
</g>
<path id="stroke1" d="M5.11893 6.88912L4.44709 6.14842L4.44709 6.14842L5.11893 6.88912ZM11.9791 22.0004L11.6123 22.9307L12.1043 23.1247L12.5416 22.8272L11.9791 22.0004ZM15.4092 18.4448L14.6035 17.8526L14.5888 17.8725L14.5752 17.8931L15.4092 18.4448ZM10 1H9V3H10V1ZM15 3H16V1H15V3ZM12.7474 5.68811L13.1604 4.77739C10.924 3.76314 7.25719 3.59957 4.44709 6.14842L5.11893 6.88912L5.79077 7.62981C7.88078 5.73411 10.6507 5.83529 12.3344 6.59884L12.7474 5.68811ZM5.11893 6.88912L4.44709 6.14842C2.69184 7.74049 1.46799 10.7768 2.23153 14.021C3.0076 17.3185 5.77493 20.6287 11.6123 22.9307L11.9791 22.0004L12.346 21.0701C6.91302 18.9276 4.75994 16.034 4.17833 13.5628C3.5842 11.0384 4.5654 8.74126 5.79077 7.62981L5.11893 6.88912ZM11.9791 22.0004L12.5416 22.8272C12.9194 22.5703 13.2753 22.2876 13.6042 21.9987L12.9443 21.2474L12.2844 20.496C12.0058 20.7407 11.7149 20.9708 11.4167 21.1736L11.9791 22.0004ZM12.9443 21.2474L13.6042 21.9987C14.3909 21.3078 15.0472 20.5602 15.5034 19.9919C15.7328 19.7061 15.9148 19.4618 16.0406 19.287C16.1036 19.1996 16.1527 19.1294 16.1868 19.0798C16.2038 19.0551 16.2171 19.0355 16.2266 19.0214C16.2313 19.0144 16.2351 19.0088 16.2379 19.0046C16.2393 19.0026 16.2404 19.0008 16.2413 18.9995C16.2418 18.9988 16.2422 18.9982 16.2425 18.9977C16.2426 18.9975 16.2428 18.9973 16.2429 18.9971C16.243 18.997 16.2431 18.9968 16.2431 18.9968C16.2432 18.9967 16.2433 18.9965 15.4092 18.4448C14.5752 17.8931 14.5753 17.893 14.5753 17.8929C14.5754 17.8929 14.5754 17.8928 14.5755 17.8927C14.5755 17.8926 14.5756 17.8925 14.5756 17.8925C14.5757 17.8923 14.5757 17.8923 14.5757 17.8924C14.5756 17.8925 14.5753 17.893 14.5747 17.8938C14.5736 17.8955 14.5715 17.8986 14.5685 17.903C14.5625 17.9119 14.5528 17.9263 14.5395 17.9456C14.5128 17.9843 14.4719 18.043 14.4177 18.1182C14.3092 18.2689 14.1483 18.4851 13.9438 18.7399C13.5321 19.2527 12.9559 19.9063 12.2844 20.496L12.9443 21.2474ZM15.4092 18.4448L16.215 19.0371C17.3465 17.4976 18.1136 14.7513 17.8869 12.0402C17.656 9.27919 16.3726 6.37747 13.1935 4.7931L12.7474 5.68811L12.3014 6.58313C14.6924 7.77474 15.7042 9.93945 15.8938 12.2069C16.0876 14.5242 15.4005 16.7682 14.6035 17.8526L15.4092 18.4448ZM12.7474 5.68811L13.3824 6.46065C13.6407 6.24837 15.0789 5.74644 17.3788 7.05974L17.8747 6.19134L18.3705 5.32295C15.6728 3.78247 13.2577 3.97427 12.1124 4.91558L12.7474 5.68811ZM17.8747 6.19134L17.3788 7.05974C19.4136 8.22164 20.8021 11.2382 19.4944 14.6282L20.4274 14.9881L21.3604 15.348C22.9943 11.1124 21.3334 7.01482 18.3705 5.32295L17.8747 6.19134ZM20.4274 14.9881L19.4944 14.6282C18.8798 16.2217 17.2457 17.6406 15.5923 18.7072C14.789 19.2254 14.0268 19.6317 13.4649 19.9084C13.1847 20.0465 12.9561 20.1514 12.7994 20.221C12.7211 20.2558 12.6609 20.2817 12.6214 20.2985C12.6016 20.3069 12.587 20.313 12.5779 20.3168C12.5734 20.3187 12.5702 20.32 12.5684 20.3207C12.5676 20.3211 12.567 20.3213 12.5669 20.3213C12.5668 20.3214 12.5668 20.3214 12.5669 20.3213C12.5669 20.3213 12.5671 20.3213 12.5671 20.3212C12.5672 20.3212 12.5674 20.3211 12.9443 21.2474C13.3212 22.1736 13.3214 22.1735 13.3217 22.1734C13.3218 22.1734 13.3221 22.1733 13.3223 22.1732C13.3228 22.173 13.3233 22.1728 13.324 22.1725C13.3253 22.172 13.3269 22.1713 13.3289 22.1705C13.333 22.1688 13.3384 22.1665 13.3453 22.1637C13.359 22.158 13.3784 22.1499 13.403 22.1394C13.4523 22.1185 13.5227 22.0882 13.6117 22.0486C13.7895 21.9696 14.0422 21.8535 14.3486 21.7026C14.96 21.4015 15.7927 20.958 16.6764 20.3879C18.3969 19.2781 20.5043 17.5675 21.3604 15.348L20.4274 14.9881ZM12.7474 5.68811L13.747 5.71732C13.7481 5.68043 13.7485 5.64339 13.7482 5.60622L12.7483 5.61232L11.7483 5.61843C11.7484 5.63344 11.7482 5.6469 11.7478 5.65891L12.7474 5.68811ZM12.7483 5.61232L13.7482 5.60622C13.7438 4.88437 13.4998 3.81085 12.9702 2.89361C12.4363 1.96881 11.4789 1 10 1V2V3C10.4747 3 10.8881 3.2873 11.2382 3.89364C11.5927 4.50753 11.746 5.24017 11.7483 5.61843L12.7483 5.61232ZM12.7474 5.68811H13.7474C13.7474 5.67263 13.7476 5.65431 13.748 5.63317L12.7483 5.61232L11.7485 5.59147C11.7478 5.62535 11.7474 5.65761 11.7474 5.68811H12.7474ZM12.7483 5.61232L13.748 5.63317C13.7554 5.27828 13.8273 4.50941 14.0836 3.86642C14.3454 3.20986 14.6477 3 15 3V2V1C13.4167 1 12.6017 2.18287 12.2258 3.12576C11.8445 4.08222 11.7583 5.1195 11.7485 5.59148L12.7483 5.61232Z" fill="black"/>
</g>
</svg>
