<svg width="24" height="24" viewBox="0 0 24 24" fill="none" xmlns="http://www.w3.org/2000/svg">
<g id="pear" clip-path="url(#clip0_2332_2966)">
<path id="fill1" d="M3.38634 9.20448C4.32464 8.26618 5.43761 7.99636 7.00026 7.99986C9.53784 8.00555 11.0003 5.99986 11.0003 5.99986C13.5672 3.43291 16.1541 3.29961 18.3544 5.49986C20.5546 7.70011 20.5672 10.4329 18.0003 12.9999C18.0003 12.9999 15.9946 14.4623 16.0003 16.9999C16.0038 18.5625 15.7339 19.6755 14.7956 20.6138C12.7906 22.6188 9.51543 22.594 7.53516 20.6138C6.66834 19.7469 6.08091 19.1591 5.97935 18.0207C4.84102 17.9192 4.25315 17.3318 3.38634 16.4649C1.40607 14.4847 1.38132 11.2095 3.38634 9.20448Z" fill="white"/>
<path id="stroke1" d="M7.00002 7.99986L7.00227 6.99986L7.00227 6.99986L7.00002 7.99986ZM5.97911 18.0207L6.97516 17.9319C6.93215 17.4498 6.55006 17.0677 6.06798 17.0247L5.97911 18.0207ZM11 5.99986L10.2929 5.29275L10.2379 5.3478L10.192 5.4107L11 5.99986ZM16 16.9999L15 17.0021L15 17.0021L16 16.9999ZM18 12.9999L18.5892 13.8079L18.6521 13.762L18.7071 13.707L18 12.9999ZM20.8761 3.42866L21.3233 2.53423L19.5345 1.6398L19.0873 2.53423L20.8761 3.42866ZM16.163 6.42315L15.4559 7.13026L16.8701 8.54447L17.5772 7.83736L16.163 6.42315ZM7.00002 7.99986L7.00227 6.99986C5.31608 6.99608 3.88658 7.28979 2.67899 8.49738L3.3861 9.20448L4.0932 9.91159C4.76223 9.24256 5.55866 8.99663 6.99778 8.99986L7.00002 7.99986ZM3.3861 9.20448L2.67899 8.49738C0.28032 10.896 0.311336 14.8044 2.67899 17.172L3.3861 16.4649L4.0932 15.7578C2.50033 14.1649 2.48184 11.523 4.0932 9.91159L3.3861 9.20448ZM3.3861 16.4649L2.67899 17.172C3.52263 18.0157 4.34631 18.879 5.89025 19.0168L5.97911 18.0207L6.06798 17.0247C5.33527 16.9593 4.9832 16.6478 4.0932 15.7578L3.3861 16.4649ZM18.3541 5.49986L19.0612 4.79275C17.8106 3.54217 16.3472 2.8625 14.751 2.96418C13.1823 3.06412 11.6784 3.90731 10.2929 5.29275L11 5.99986L11.7071 6.70697C12.8886 5.52545 13.9616 5.01852 14.8782 4.96014C15.7672 4.9035 16.6973 5.2573 17.647 6.20697L18.3541 5.49986ZM7.00002 7.99986L6.99778 8.99986C8.54133 9.00332 9.7451 8.3935 10.543 7.80841C10.943 7.51506 11.2504 7.22146 11.4603 6.99824C11.5657 6.88621 11.6477 6.79065 11.7056 6.71996C11.7346 6.68458 11.7577 6.6553 11.7748 6.63317C11.7833 6.62209 11.7904 6.6128 11.7959 6.6054C11.7987 6.6017 11.8011 6.59848 11.8031 6.59574C11.8041 6.59437 11.805 6.59313 11.8059 6.59201C11.8063 6.59145 11.8067 6.59092 11.807 6.59042C11.8072 6.59017 11.8075 6.58982 11.8075 6.58969C11.8078 6.58935 11.808 6.58902 11 5.99986C10.192 5.4107 10.1922 5.41038 10.1925 5.41007C10.1925 5.40998 10.1928 5.40967 10.1929 5.40949C10.1932 5.40911 10.1934 5.40876 10.1937 5.40845C10.1941 5.40781 10.1945 5.40729 10.1948 5.40689C10.1954 5.40608 10.1957 5.40573 10.1956 5.40583C10.1954 5.40602 10.194 5.40799 10.1912 5.4116C10.1856 5.41885 10.1748 5.43266 10.1588 5.4521C10.1269 5.49108 10.0748 5.55217 10.0034 5.62808C9.85982 5.78075 9.64304 5.98822 9.36026 6.19558C8.79252 6.61192 7.99629 7.00209 7.00227 6.99986L7.00002 7.99986ZM16 16.9999L15 17.0021C15.0033 18.4412 14.7573 19.2376 14.0883 19.9067L14.7954 20.6138L15.5025 21.3209C16.7101 20.1133 17.0038 18.6838 17 16.9976L16 16.9999ZM14.7954 20.6138L14.0883 19.9067C12.4769 21.518 9.83491 21.4995 8.24203 19.9067L7.53492 20.6138L6.82782 21.3209C9.19547 23.6885 13.1038 23.7195 15.5025 21.3209L14.7954 20.6138ZM7.53492 20.6138L8.24203 19.9067C7.35204 19.0167 7.04053 18.6646 6.97516 17.9319L5.97911 18.0207L4.98307 18.1096C5.12081 19.6536 5.98417 20.4772 6.82782 21.3209L7.53492 20.6138ZM18.3541 5.49986L17.647 6.20697C18.5989 7.15882 18.9968 8.13714 18.9653 9.07899C18.9335 10.0327 18.4553 11.1304 17.2929 12.2928L18 12.9999L18.7071 13.707C20.1117 12.3024 20.9107 10.7502 20.9642 9.1457C21.0182 7.52935 20.3096 6.04115 19.0612 4.79275L18.3541 5.49986ZM16 16.9999L17 16.9976C16.9978 16.0036 17.388 15.2074 17.8043 14.6396C18.0117 14.3568 18.2191 14.1401 18.3718 13.9965C18.4477 13.9251 18.5088 13.873 18.5478 13.841C18.5672 13.8251 18.581 13.8143 18.5883 13.8087C18.5919 13.8059 18.5939 13.8044 18.5941 13.8043C18.5941 13.8042 18.5938 13.8045 18.593 13.8051C18.5926 13.8054 18.5921 13.8058 18.5914 13.8062C18.5911 13.8065 18.5908 13.8067 18.5904 13.807C18.5902 13.8071 18.5899 13.8074 18.5898 13.8074C18.5895 13.8076 18.5892 13.8079 18 12.9999C17.4109 12.1918 17.4105 12.1921 17.4102 12.1923C17.4101 12.1924 17.4097 12.1927 17.4095 12.1929C17.409 12.1932 17.4084 12.1936 17.4079 12.194C17.4068 12.1949 17.4055 12.1958 17.4041 12.1968C17.4014 12.1988 17.3982 12.2012 17.3945 12.204C17.3871 12.2095 17.3778 12.2166 17.3667 12.2251C17.3446 12.2422 17.3153 12.2653 17.2799 12.2943C17.2092 12.3522 17.1137 12.4342 17.0016 12.5396C16.7784 12.7495 16.4848 13.0569 16.1915 13.4569C15.6064 14.2548 14.9966 15.4586 15 17.0021L16 16.9999ZM19.9817 2.98145L19.0873 2.53423C18.4127 3.88334 17.573 5.01313 16.163 6.42315L16.8701 7.13026L17.5772 7.83736C19.1008 6.31371 20.0838 5.01321 20.8761 3.42866L19.9817 2.98145Z" fill="black"/>
</g>
<defs>
<clipPath id="clip0_2332_2966">
<rect width="24" height="24" fill="white"/>
</clipPath>
</defs>
</svg>
