<svg width="24" height="24" viewBox="0 0 24 24" fill="none" xmlns="http://www.w3.org/2000/svg">
<g id="pen-brush">
<path id="fill1" d="M21.5 7.00049L17 2.50049L6 13.5L10.5 18L21.5 7.00049Z" fill="white"/>
<path id="fill2" d="M2.99902 21.0007L2.99962 17.3287C2.99971 16.7984 3.21041 16.2898 3.58541 15.9148L5.99976 13.5L10.4998 18L8.08554 20.4149C7.71047 20.79 7.20176 21.0007 6.67132 21.0007H2.99902Z" fill="white"/>
<path id="stroke1" d="M10.4998 18L5.99976 13.5M2.99962 17.3287L2.99902 21.0007H6.67132C7.20176 21.0007 7.71047 20.79 8.08554 20.4149L21.4998 7.00049L16.9998 2.50049L3.58541 15.9148C3.21041 16.2898 2.99971 16.7984 2.99962 17.3287Z" stroke="black" stroke-width="2" stroke-linecap="square"/>
</g>
</svg>
