<svg width="24" height="24" viewBox="0 0 24 24" fill="none" xmlns="http://www.w3.org/2000/svg">
    <path
        d="M16.3625 2.59529L14.6912 5.64567C13.6464 7.5525 11.9467 9.01665 9.90614 9.76748L6.07766 11.1762L5.34026 17.2428L11.0015 11.5815L12.4158 12.9957L6.75467 18.6568L12.8188 17.9194L14.2364 14.0354C14.9708 12.0233 16.3987 10.3391 18.2635 9.28548L21.3155 7.56102L22.2994 9.30229L19.2474 11.0267C17.797 11.8463 16.6864 13.1562 16.1152 14.7211L14.2772 19.7567L2.85107 21.1463L4.23977 9.72135L9.2155 7.89051C10.8026 7.30653 12.1246 6.16775 12.9372 4.68466L14.6085 1.63428L16.3625 2.59529Z"
        fill="black" />
</svg>