<svg width="24" height="24" viewBox="0 0 24 24" fill="none" xmlns="http://www.w3.org/2000/svg">
<g id="pending">
<path id="fill1" d="M12 2C6.47715 2 2 6.47715 2 12C2 17.5228 6.47715 22 12 22C17.5228 22 22 17.5228 22 12C22 6.47715 17.5228 2 12 2Z" fill="white"/>
<path id="stroke1" d="M12 2C6.47715 2 2 6.47715 2 12C2 17.5228 6.47715 22 12 22C17.5228 22 22 17.5228 22 12C22 6.47715 17.5228 2 12 2Z" stroke="black" stroke-width="2" stroke-linecap="square"/>
<g id="stroke2">
<path d="M7 12L7.00391 12L7.00391 12.0039L7 12.0039L7 12Z" stroke="black" stroke-width="2" stroke-linecap="square"/>
<path d="M12 12L12.0039 12V12.0039L12 12.0039V12Z" stroke="black" stroke-width="2" stroke-linecap="square"/>
<path d="M17 12L17.0039 12V12.0039L17 12.0039V12Z" stroke="black" stroke-width="2" stroke-linecap="square"/>
</g>
</g>
</svg>
