<svg width="24" height="24" viewBox="0 0 24 24" fill="none" xmlns="http://www.w3.org/2000/svg">
<g id="personal-information">
<path id="fill1" d="M4 2H15L20 7V22H4V2Z" fill="white"/>
<path id="fill2" d="M14.5 10.5C14.5 11.8807 13.3807 13 12 13C10.6193 13 9.5 11.8807 9.5 10.5C9.5 9.11929 10.6193 8 12 8C13.3807 8 14.5 9.11929 14.5 10.5Z" fill="white"/>
<path id="stroke1" d="M4 2H15L20 7V22H4V2Z" stroke="black" stroke-width="2" stroke-linecap="square"/>
<path id="stroke2" d="M17 19C17 17.3431 15.6569 16 14 16H10C8.34315 16 7 17.3431 7 19M14.5 10.5C14.5 11.8807 13.3807 13 12 13C10.6193 13 9.5 11.8807 9.5 10.5C9.5 9.11929 10.6193 8 12 8C13.3807 8 14.5 9.11929 14.5 10.5Z" stroke="black" stroke-width="2" stroke-linecap="square"/>
</g>
</svg>
