<svg width="16" height="16" viewBox="0 0 16 16" fill="none" xmlns="http://www.w3.org/2000/svg">
<path fill-rule="evenodd" clip-rule="evenodd" d="M0.5 3H4L5.5 1H10.5L12 3L15.5 3L15.5 15H0.5V3ZM5 5L6.5 3H9.5L11 5L13.5 5L13.5 13H2.5L2.5 5H5ZM10 8.5C10 9.60457 9.10457 10.5 8 10.5C6.89543 10.5 6 9.60457 6 8.5C6 7.39543 6.89543 6.5 8 6.5C9.10457 6.5 10 7.39543 10 8.5ZM12 8.5C12 10.7091 10.2091 12.5 8 12.5C5.79086 12.5 4 10.7091 4 8.5C4 6.29086 5.79086 4.5 8 4.5C10.2091 4.5 12 6.29086 12 8.5Z" fill="black"/>
</svg>
