<svg width="24" height="24" viewBox="0 0 24 24" fill="none" xmlns="http://www.w3.org/2000/svg">
    <path
        d="M3.16121 3L21.4193 3V5L15.8097 5C15.6077 7.20472 15.4369 10.1368 15.395 12.7413C15.371 14.2305 15.3895 15.5919 15.4651 16.6404C15.503 17.1665 15.5538 17.5914 15.6148 17.9046C15.6703 18.1893 15.7177 18.2882 15.7145 18.2898C15.7144 18.2899 15.7147 18.2899 15.7145 18.2898C16.3551 19.0997 18.2593 19.6002 20.298 17.5913L21.0103 16.8894L22.4141 18.314L21.7018 19.0159C19.1118 21.568 15.7131 21.5909 14.1074 19.4814C13.8448 19.1364 13.7243 18.6596 13.6517 18.2869C13.569 17.8626 13.511 17.3488 13.4703 16.7842C13.3886 15.6514 13.3708 14.2237 13.3952 12.7091C13.4368 10.1278 13.602 7.23447 13.8015 5L10.3353 5C10.1724 7.46269 9.72007 10.6919 8.81604 13.5424C8.30288 15.1605 7.62795 16.7092 6.73956 17.9328C5.85044 19.1574 4.68751 20.1345 3.19327 20.429L2.21215 20.6224L1.82544 18.6601L2.80657 18.4668C3.63492 18.3035 4.40746 17.7407 5.12117 16.7577C5.83561 15.7737 6.43083 14.4475 6.90961 12.9378C7.73699 10.329 8.16817 7.32969 8.33075 5L3.16121 5L3.16121 3ZM15.7145 18.2898C15.7094 18.2833 15.7039 18.2766 15.6989 18.2701C15.7076 18.2816 15.7129 18.2887 15.7145 18.2898Z"
        fill="black" />
</svg>