<svg width="16" height="16" viewBox="0 0 16 16" fill="none" xmlns="http://www.w3.org/2000/svg">
<path fill-rule="evenodd" clip-rule="evenodd" d="M10.7284 1.70711L10.0213 1L9.31418 1.70711L5.99274 5.02855L2.75411 5.67627L0.921875 6.04272L2.24312 7.36396L4.71821 9.83906L1.1828 13.3745V14.7887H2.59701L6.13243 11.2533L8.60708 13.7279L9.92832 15.0492L10.2948 13.2169L10.9425 9.97829L14.2639 6.65685L14.971 5.94975L14.2639 5.24264L10.7284 1.70711ZM7.19286 6.65685L10.0213 3.82843L12.1426 5.94975L9.31418 8.77817L9.10009 8.99227L9.04071 9.28917L8.70005 10.9925L4.97857 7.27099L6.68187 6.93033L6.97877 6.87095L7.19286 6.65685Z" fill="black"/>
</svg>
