<svg width="16" height="16" viewBox="0 0 16 16" fill="none" xmlns="http://www.w3.org/2000/svg">
<g opacity="0.9">
<path fill-rule="evenodd" clip-rule="evenodd" d="M8 1.5C11.5899 1.5 14.5 4.41015 14.5 8C14.5 11.5899 11.5899 14.5 8 14.5C4.41015 14.5 1.5 11.5899 1.5 8C1.5 4.41015 4.41015 1.5 8 1.5ZM8 2.42857C4.92299 2.42857 2.42857 4.92299 2.42857 8C2.42857 11.077 4.92299 13.5714 8 13.5714C11.077 13.5714 13.5714 11.077 13.5714 8C13.5714 4.92299 11.077 2.42857 8 2.42857ZM6.39961 10.5669L10.8 8L6.39961 5.43311V10.5669Z" fill="black" fill-opacity="0.9"/>
</g>
</svg>
