<svg viewBox="0 0 1024 1024" version="1.1" xmlns="http://www.w3.org/2000/svg"><path  fill-opacity=".9" fill-rule="evenodd" d="M512 96C741.7536 96 928 282.2496 928 512 928 741.7536 741.7536 928 512 928 282.2496 928 96 741.7536 96 512 96 282.2496 282.2496 96 512 96ZM512.00896 155.42848C315.07968 155.42848 155.43744 315.07136 155.43744 512 155.43744 708.928 315.07968 868.5696 512.00896 868.5696 708.9408 868.5696 868.5824 708.928 868.5824 512 868.5824 315.07136 708.9408 155.42848 512.00896 155.42848ZM755.2 512L371.2 736V288L755.2 512ZM628.288 511.99936L435.2 399.35936V624.57536L628.288 511.99936Z" clip-rule="evenodd" opacity=".9"/></svg>