<svg width="16" height="16" viewBox="0 0 16 16" fill="none" xmlns="http://www.w3.org/2000/svg">
<path fill-rule="evenodd" clip-rule="evenodd" d="M8 16C12.4183 16 16 12.4183 16 8C16 3.58172 12.4183 -3.13124e-07 8 -6.99382e-07C3.58172 -1.08564e-06 1.08564e-06 3.58172 6.99382e-07 8C3.13124e-07 12.4183 3.58172 16 8 16ZM8 2C11.309 2 14 4.691 14 8C14 11.309 11.309 14 8 14C4.691 14 2 11.309 2 8C2 4.691 4.691 2 8 2ZM5.75 11.4641L11.75 8L5.75 4.5359L5.75 11.4641Z" fill="black" fill-opacity="0.9"/>
</svg>
