<svg width="24" height="24" viewBox="0 0 24 24" fill="none" xmlns="http://www.w3.org/2000/svg">
<g id="popsicle">
<path id="fill1" d="M20.3388 12.1469C22.6819 9.80379 22.6819 6.0048 20.3388 3.66166C17.9957 1.31851 14.1967 1.31851 11.8535 3.66166C11.8535 3.66166 12.2071 7.13642 16.0962 7.9043C19.9852 8.67217 20.3388 12.1469 20.3388 12.1469Z" fill="white"/>
<path id="fill2" d="M2.66098 18.5102C1.87993 19.2912 1.87993 20.5576 2.66098 21.3386C3.44203 22.1197 4.70836 22.1197 5.48941 21.3386L9.3785 17.4495L6.55007 14.6211L2.66098 18.5102Z" fill="white"/>
<path id="stroke2" d="M2.66098 18.5102C1.87993 19.2912 1.87993 20.5576 2.66098 21.3386C3.44203 22.1197 4.70836 22.1197 5.48941 21.3386L9.3785 17.4495L6.55007 14.6211L2.66098 18.5102Z" stroke="black" stroke-width="2" stroke-linecap="square"/>
<path id="stroke1" d="M20.3388 12.1469C22.6819 9.80379 22.6819 6.0048 20.3388 3.66166C17.9957 1.31851 14.1967 1.31851 11.8535 3.66166M20.3388 12.1469C20.3388 12.1469 19.9852 8.67217 16.0962 7.9043C12.2071 7.13642 11.8535 3.66166 11.8535 3.66166M20.3388 12.1469L12.207 20.2787L3.72168 11.7934L11.8535 3.66166" stroke="black" stroke-width="2"/>
</g>
</svg>
