<svg width="24" height="24" viewBox="0 0 24 24" fill="none" xmlns="http://www.w3.org/2000/svg">
<g id="portrait">
<path id="fill2" d="M12 12.5C10.6193 12.5 9.5 11.3807 9.5 10C9.5 8.61929 10.6193 7.5 12 7.5C13.3807 7.5 14.5 8.61929 14.5 10C14.5 11.3807 13.3807 12.5 12 12.5Z" fill="white"/>
<path id="stroke1" d="M8 3H3V8M16 3H21V8M8 21H3V16M16 21H21V16" stroke="black" stroke-width="2" stroke-linecap="square"/>
<path id="stroke2" d="M12 12.5C10.6193 12.5 9.5 11.3807 9.5 10C9.5 8.61929 10.6193 7.5 12 7.5C13.3807 7.5 14.5 8.61929 14.5 10C14.5 11.3807 13.3807 12.5 12 12.5ZM12 12.5C9.79086 12.5 8 14.2909 8 16.5M12 12.5C14.2091 12.5 16 14.2909 16 16.5" stroke="black" stroke-width="2" stroke-linecap="square"/>
</g>
</svg>
