<svg width="24" height="24" viewBox="0 0 24 24" fill="none" xmlns="http://www.w3.org/2000/svg">
    <path
        d="M13.0001 2V12H11.0001V2H13.0001ZM16.7807 3.72791L17.589 4.31676C19.9575 6.04242 21.5001 8.84092 21.5001 11.9996C21.5001 17.2463 17.2468 21.4996 12.0001 21.4996C6.75342 21.4996 2.50012 17.2463 2.50012 11.9996C2.50012 8.84092 4.0427 6.04242 6.41127 4.31676L7.21951 3.72791L8.39722 5.34438L7.58898 5.93324C5.71487 7.29865 4.50012 9.50721 4.50012 11.9996C4.50012 16.1417 7.85799 19.4996 12.0001 19.4996C16.1423 19.4996 19.5001 16.1417 19.5001 11.9996C19.5001 9.50721 18.2854 7.29865 16.4113 5.93324L15.603 5.34438L16.7807 3.72791Z"
        fill="black" />
</svg>