<svg width="16" height="16" viewBox="0 0 16 16" fill="none" xmlns="http://www.w3.org/2000/svg">
<path fill-rule="evenodd" clip-rule="evenodd" d="M7 1V8H9V1H7ZM3.5 8.0001C3.5 6.40511 4.32906 5.0031 5.58449 4.20253L4.50914 2.51622C2.70206 3.66858 1.5 5.69363 1.5 8.0001C1.5 11.5899 4.41015 14.5001 8 14.5001C11.5899 14.5001 14.5 11.5899 14.5 8.0001C14.5 5.69363 13.2979 3.66858 11.4909 2.51622L10.4155 4.20253C11.6709 5.0031 12.5 6.40512 12.5 8.0001C12.5 10.4854 10.4853 12.5001 8 12.5001C5.51472 12.5001 3.5 10.4854 3.5 8.0001Z" fill="black"/>
</svg>
