<svg viewBox="0 0 1024 1024" version="1.1" xmlns="http://www.w3.org/2000/svg"><path  fill-rule="evenodd" d="M480 96V320H544V96H480ZM398.86272 353.60832L172.5888 127.33376 127.33376 172.5888 353.60832 398.86272 398.86272 353.60832ZM625.13728 353.60832L851.4112 127.33376 896.6656 172.5888 670.3936 398.86272 625.13728 353.60832ZM576 512C576 547.34656 547.34656 576 512 576 488.31104 576 467.62816 563.1296 456.56192 544H96V480H456.56192C467.62816 460.8704 488.31104 448 512 448 547.34656 448 576 476.65408 576 512ZM353.60832 625.13728L127.33376 851.4112 172.5888 896.6656 398.86272 670.3936 353.60832 625.13728ZM670.3936 625.13728L896.6656 851.4112 851.4112 896.6656 625.13728 670.3936 670.3936 625.13728ZM928 480H704V544H928V480ZM480 928V704H544V928H480Z" clip-rule="evenodd" opacity=".9"/></svg>