<svg width="16" height="16" viewBox="0 0 16 16" fill="none" xmlns="http://www.w3.org/2000/svg">
<path d="M9 4.64494V1H7V4.64494C7.31686 4.55064 7.65252 4.5 8 4.5C8.34749 4.5 8.68315 4.55064 9 4.64494Z" fill="black"/>
<path d="M14.3644 3.05044L11.0795 6.33532C10.7558 5.73764 10.2631 5.24483 9.66552 4.92091L12.9502 1.63623L14.3644 3.05044Z" fill="black"/>
<path d="M9.66488 11.0794L12.9495 14.364L14.3637 12.9498L11.0792 9.66532C10.7553 10.2629 10.2625 10.7556 9.66488 11.0794Z" fill="black"/>
<path d="M4.92092 9.66551C5.24484 10.2631 5.73765 10.7558 6.33532 11.0795L3.05071 14.3642L1.63649 12.9499L4.92092 9.66551Z" fill="black"/>
<path d="M7 15V11.3551C7.31686 11.4494 7.65252 11.5 8 11.5C8.34749 11.5 8.68315 11.4494 9 11.3551V15H7Z" fill="black"/>
<path d="M3.04996 1.63608L6.33469 4.92081C5.73709 5.24469 5.24438 5.73747 4.92058 6.33512L1.63575 3.05029L3.04996 1.63608Z" fill="black"/>
<path d="M6.26757 7L1 7.00002L1 9.00002L6.26757 9C6.61338 9.5978 7.25972 10 8 10C9.10457 10 10 9.10457 10 8C10 6.89543 9.10457 6 8 6C7.25972 6 6.61338 6.4022 6.26757 7Z" fill="black"/>
<path d="M11.3551 9H15V7H11.3551C11.4494 7.31685 11.5 7.65251 11.5 8C11.5 8.34749 11.4494 8.68315 11.3551 9Z" fill="black"/>
</svg>
