<svg width="24" height="24" viewBox="0 0 24 24" fill="none" xmlns="http://www.w3.org/2000/svg">
<g id="print">
<path id="fill1" d="M22.5 8L1.5 8L1.5 17H6L6 15L18 15V17L22.5 17V8Z" fill="white"/>
<g id="fill2">
<path d="M19 3V8L5 8L5 3L19 3Z" fill="white"/>
<path d="M18 15V21L6 21L6 15H18Z" fill="white"/>
</g>
<g id="stroke2">
<path d="M19 3V8L5 8L5 3L19 3Z" stroke="black" stroke-width="2" stroke-linecap="square"/>
<path d="M18 15V21L6 21V15H18Z" stroke="black" stroke-width="2" stroke-linecap="square"/>
</g>
<g id="stroke1">
<path d="M18 11.5H18.0039V11.4961H18V11.5Z" stroke="black" stroke-width="2" stroke-linecap="square"/>
<path d="M22.5 8H1.5V17H6V15H18V17H22.5V8Z" stroke="black" stroke-width="2" stroke-linecap="square"/>
</g>
</g>
</svg>
