<svg width="24" height="24" viewBox="0 0 24 24" fill="none" xmlns="http://www.w3.org/2000/svg">
<path d="M11.2779 1.11328L11.8326 1.94533C12.3002 2.64682 12.5807 3.3501 12.7488 4.03536C14.402 4.19293 15.6331 4.8426 16.3132 5.26837C17.0212 5.02066 17.9083 4.97082 18.7474 5.14427C19.9259 5.3879 21.1713 6.1024 21.8953 7.55363C22.3599 8.48483 22.4957 9.7942 22.4579 11.1042C22.4191 12.4514 22.1914 13.9489 21.8107 15.3504C21.4324 16.7432 20.8866 18.1019 20.1776 19.1368C19.492 20.1378 18.4922 21.0589 17.1693 21.0589H15.2812C15.052 21.2775 14.7596 21.4752 14.3793 21.6312C13.7845 21.875 13.0157 22 12.0044 22C10.993 22 10.2242 21.875 9.62944 21.6312C9.24911 21.4752 8.9567 21.2775 8.72751 21.0589H6.36987C5.1012 21.0589 4.19092 20.0512 3.60419 19.0946C2.9739 18.0669 2.47718 16.718 2.1299 15.3312C1.78051 13.9359 1.56768 12.4431 1.53592 11.099C1.50505 9.79321 1.64038 8.48419 2.10462 7.55363C2.82911 6.10142 4.07754 5.38751 5.25742 5.14418C6.09759 4.97091 6.98647 5.02061 7.69535 5.26846C8.29495 4.89307 9.32299 4.34355 10.691 4.11077C10.5701 3.75457 10.4021 3.40512 10.1685 3.05473L9.61376 2.22268L11.2779 1.11328ZM10.991 6.08802C9.86814 6.28539 9.04901 6.77007 8.58281 7.07658C7.87721 8.8697 7.89248 11.5101 8.29646 14.0425C8.50379 15.3422 8.80477 16.5591 9.12489 17.5356C9.45808 18.5519 9.7755 19.193 9.96865 19.435L10.0197 19.505C10.073 19.5851 10.1544 19.6848 10.3882 19.7807C10.6543 19.8898 11.1375 20 12.0044 20C12.8712 20 13.3544 19.8898 13.6205 19.7807C13.8543 19.6848 13.9357 19.5851 13.989 19.505L14.04 19.435C14.2332 19.193 14.5506 18.5519 14.8838 17.5356C15.2039 16.5591 15.5049 15.3422 15.7122 14.0425C16.1162 11.5101 16.1315 8.86969 15.4259 7.07657C14.9563 6.76784 14.1286 6.27834 12.9932 6.08377C13.0104 6.75577 13.0005 7.37087 13.0005 8.00003H11.0005C11.0005 7.36293 11.0099 6.72492 10.991 6.08802ZM17.5271 7.04887C18.1762 9.26372 18.0628 12.0038 17.6873 14.3576C17.4642 15.7559 17.1391 17.0762 16.7843 18.1586C16.682 18.4706 16.5739 18.7733 16.4611 19.0589H17.1693C17.4898 19.0589 17.9667 18.8255 18.5276 18.0066C19.0652 17.2217 19.536 16.0951 19.8807 14.8261C20.223 13.5659 20.4248 12.2251 20.4588 11.0466C20.4938 9.83089 20.3454 8.92703 20.1057 8.44646C19.7028 7.63887 19.0326 7.24551 18.3425 7.10286C18.0434 7.04103 17.7653 7.03082 17.5271 7.04887ZM6.48157 7.04901C6.24217 7.03077 5.96242 7.04087 5.66139 7.10296C4.96824 7.24591 4.29668 7.63985 3.89427 8.44646C3.6542 8.92767 3.50652 9.83188 3.53536 11.0518C3.56329 12.2335 3.75287 13.5789 4.07 14.8454C4.38925 16.1203 4.82318 17.2567 5.30906 18.0489C5.8385 18.9121 6.22992 19.0589 6.36987 19.0589H7.54757C7.43475 18.7733 7.32669 18.4706 7.22442 18.1586C6.86958 17.0762 6.54451 15.7559 6.32143 14.3576C5.94596 12.0039 5.83252 9.26384 6.48157 7.04901Z" fill="black" fill-opacity="0.9" style="fill:black;fill-opacity:0.9;"/>
</svg>
