<svg width="24" height="24" viewBox="0 0 24 24" fill="none" xmlns="http://www.w3.org/2000/svg">
    <g id="qrcode">
        <g id="fill1">
            <path d="M3 14H10V21H3V14Z" fill="white" />
            <path d="M3 3H10V10H3V3Z" fill="white" />
            <path d="M14 3H21V10H14V3Z" fill="white" />
        </g>
        <g id="stroke1">
            <path d="M3 14H10V21H3V14Z" stroke="black" stroke-width="2" />
            <path d="M3 3H10V10H3V3Z" stroke="black" stroke-width="2" />
            <path d="M14 3H21V10H14V3Z" stroke="black" stroke-width="2" />
            <path d="M6.5 6.5H6.50391V6.50391H6.5V6.5Z" stroke="black" stroke-width="2" />
            <path d="M6.5 17.5H6.50391V17.5039H6.5V17.5Z" stroke="black" stroke-width="2" />
            <path d="M17.5 6.5H17.5039V6.50391H17.5V6.5Z" stroke="black" stroke-width="2" />
        </g>
        <g id="stroke2">
            <path d="M13.9961 13.9961H14V14H13.9961V13.9961Z" stroke="black" stroke-width="2" />
            <path d="M16.9961 16.9961H17V17H16.9961V16.9961Z" stroke="black" stroke-width="2" />
            <path d="M18.9961 18.9961H19V19H18.9961V18.9961Z" stroke="black" stroke-width="2" />
            <path d="M20.9961 13.9961H21V14H20.9961V13.9961Z" stroke="black" stroke-width="2" />
            <path d="M20.9961 20.9961H21V21H20.9961V20.9961Z" stroke="black" stroke-width="2" />
            <path d="M13.9961 20.9961H14V21H13.9961V20.9961Z" stroke="black" stroke-width="2" />
        </g>
    </g>
</svg>