<svg width="24" height="24" viewBox="0 0 24 24" fill="none" xmlns="http://www.w3.org/2000/svg">
<path d="M1.99988 2H10.9999V11H1.99988V2ZM3.99988 4V9H8.99988V4H3.99988ZM12.9999 2H21.9999V11H12.9999V2ZM14.9999 4V9H19.9999V4H14.9999ZM5.49988 5.5H7.50378V7.50391H5.49988V5.5ZM16.4999 5.5H18.5038V7.50391H16.4999V5.5ZM12.996 12.9961H14.9999V15H12.996V12.9961ZM19.996 12.9961H21.9999V15H19.996V12.9961ZM1.99988 13H10.9999V22H1.99988V13ZM3.99988 15V20H8.99988V15H3.99988ZM15.996 15.9961H17.9999V17.9961H19.9999V19.9961H21.9999V22H19.996V20H17.996V18H15.996V15.9961ZM5.49988 16.5H7.50378V18.5039H5.49988V16.5ZM12.996 19.9961H14.9999V22H12.996V19.9961Z" fill="black" fill-opacity="0.9" style="fill:black;fill-opacity:0.9;"/>
</svg>
