<svg width="24" height="24" viewBox="0 0 24 24" fill="none" xmlns="http://www.w3.org/2000/svg">
<g id="radar">
<path id="stroke1" d="M20.0879 6.11787C21.2905 7.76854 22 9.80141 22 12C22 17.5228 17.5228 22 12 22C6.47715 22 2 17.5228 2 12C2 6.47715 6.47715 2 12 2V11M12 11C11.4477 11 11 11.4477 11 12C11 12.5523 11.4477 13 12 13C12.5523 13 13 12.5523 13 12C13 11.7801 12.929 11.5769 12.8088 11.4118C12.627 11.1622 12.3324 11 12 11ZM12 6.5C8.96243 6.5 6.5 8.96243 6.5 12C6.5 15.0376 8.96243 17.5 12 17.5C15.0376 17.5 17.5 15.0376 17.5 12C17.5 10.7908 17.1098 9.6727 16.4484 8.76483" stroke="black" stroke-width="2" stroke-linecap="square"/>
</g>
</svg>
