<svg width="24" height="24" viewBox="0 0 24 24" fill="none" xmlns="http://www.w3.org/2000/svg">
<path d="M16.3889 1.9541L16.3889 6.19675L19.9999 2.58582L21.4141 4.00003L17.8032 7.61096L22.0458 7.61096V9.61096L17.5453 9.61096C18.157 10.4259 18.879 11.5421 19.0968 12.5933C19.736 15.1926 18.4635 18.4644 15.1631 20.5063C12.4187 22.2042 8.30516 23.0537 2.65479 22.1807L1.93103 22.0689L1.81921 21.3451C1.34925 18.3033 1.37374 15.7137 1.75904 13.5423C2.42546 9.78659 4.17561 7.28111 6.27306 5.93003C7.9208 4.86863 9.80919 4.51065 11.4065 4.90307C12.4578 5.1209 13.574 5.84292 14.3889 6.4546L14.3889 1.9541L16.3889 1.9541ZM14.6818 9.31817L14.6692 9.30608C14.6533 9.29087 14.6288 9.26755 14.5965 9.23721C14.5318 9.17647 14.4359 9.0878 14.3148 8.97964C14.0718 8.76264 13.7312 8.47067 13.3404 8.16976C12.512 7.5319 11.6237 6.98603 10.99 6.85929L10.9665 6.85458L10.9431 6.84873C10.2491 6.67484 9.38179 6.72 8.48813 7.04584L10.9141 9.51155L9.4884 10.9142L6.70976 8.09002C5.48248 9.12488 4.374 10.829 3.82646 13.3892L6.9141 16.5069L5.49306 17.9143L3.49938 15.9012C3.4263 17.2054 3.47863 18.6707 3.69159 20.3082C7.8187 20.8439 10.8515 20.3499 12.9758 19.4033L10.0857 16.4958L11.5041 15.0859L14.7602 18.3614C16.9346 16.7178 17.5207 14.5317 17.1512 13.0568L17.1453 13.0335L17.1406 13.0099C17.0139 12.3762 16.468 11.4879 15.8301 10.6595C15.5292 10.2687 15.2373 9.92813 15.0203 9.68513C14.9121 9.56402 14.8234 9.46811 14.7627 9.40339C14.7324 9.37106 14.709 9.34658 14.6938 9.33071L14.6818 9.31817Z" fill="black" fill-opacity="0.9" style="fill:black;fill-opacity:0.9;"/>
</svg>
