<svg width="24" height="24" viewBox="0 0 24 24" fill="none" xmlns="http://www.w3.org/2000/svg">
<g id="radio-1">
<path id="fill1" d="M22 7V21C22 21 7.10211 21 2 21L2 7L22 7Z" fill="white"/>
<path id="fill2" d="M12 14C12 15.6569 10.6569 17 9 17C7.34315 17 6 15.6569 6 14C6 12.3431 7.34315 11 9 11C10.6569 11 12 12.3431 12 14Z" fill="white"/>
<path id="stroke1" d="M12 2L2 7V21C7.10211 21 22 21 22 21V7H2.8" stroke="black" stroke-width="2" stroke-linecap="square"/>
<path id="stroke2" d="M16 12H18M16 16H18M12 14C12 15.6569 10.6569 17 9 17C7.34315 17 6 15.6569 6 14C6 12.3431 7.34315 11 9 11C10.6569 11 12 12.3431 12 14Z" stroke="black" stroke-width="2" stroke-linecap="square"/>
</g>
</svg>
