<svg width="24" height="24" viewBox="0 0 24 24" fill="none" xmlns="http://www.w3.org/2000/svg">
    <g id="radish">
        <path id="fill1"
            d="M16.3001 18.3089C19.4821 15.127 18.775 11.5914 15.593 8.40945C12.411 5.22747 8.87539 4.52028 5.69341 7.70226C3.14783 10.2478 1.80441 14.4199 2.86507 21.1374C9.58259 22.198 13.7545 20.8545 16.3001 18.3089Z"
            fill="white" />
        <path id="stroke1"
            d="M7.10758 6.99534L9.58245 9.47021M11.7038 16.5412L14.5323 19.3697M3.21849 14.42L5.33981 16.5413M15.9998 8.00022L19.9999 4.00025M20.9998 8.5H16.4998M15.4998 7.5V3M15.593 8.40953C18.775 11.5915 19.4821 15.127 16.3001 18.309C13.7545 20.8546 9.58259 22.1981 2.86507 21.1375C1.80441 14.4199 3.14783 10.2479 5.69341 7.70234C8.87539 4.52036 12.411 5.22755 15.593 8.40953Z"
            stroke="black" stroke-width="2" stroke-linecap="square" />
    </g>
</svg>