<svg width="24" height="24" viewBox="0 0 24 24" fill="none" xmlns="http://www.w3.org/2000/svg">
<g id="radish">
<path id="fill1" d="M2.80797 21.1924C2.35164 18.2389 2.38134 15.7616 2.74415 13.717C3.37053 10.187 4.98983 7.94646 6.81508 6.77071C8.27509 5.83023 9.89247 5.55444 11.1867 5.87871C12.9544 6.23227 15.3894 8.61096 15.3894 8.61096C15.3894 8.61096 17.7681 11.046 18.1217 12.8137C18.6498 14.9213 17.6456 17.7948 14.6374 19.6559C12.1515 21.1939 8.29715 22.0405 2.80797 21.1924Z" fill="white"/>
<path id="stroke1" d="M6.81508 6.77071L7.35661 7.61139L7.35661 7.61139L6.81508 6.77071ZM16.3894 2.9541V1.9541H14.3894V2.9541H16.3894ZM21.0463 9.61096L22.0463 9.61096L22.0463 7.61096L21.0463 7.61096L21.0463 9.61096ZM11.1867 5.87871L10.9436 6.84873L10.9669 6.85458L10.9905 6.85929L11.1867 5.87871ZM2.80797 21.1924L1.8197 21.3451L1.93152 22.0689L2.65528 22.1807L2.80797 21.1924ZM18.1217 12.8137L17.1411 13.0099L17.1458 13.0335L17.1517 13.0568L18.1217 12.8137ZM2.74415 13.717L1.75953 13.5423L2.74415 13.717ZM14.6374 19.6559L15.1635 20.5063L14.6374 19.6559ZM20.7075 4.70714L21.4146 4.00003L20.0004 2.58582L19.2933 3.29292L20.7075 4.70714ZM8.78757 10.2014L9.4889 10.9142L10.9146 9.51154L10.2132 8.79871L8.78757 10.2014ZM12.2096 15.7951L11.5046 15.0859L10.0862 16.4959L10.7912 17.2051L12.2096 15.7951ZM4.78987 17.2037L5.49355 17.9142L6.91459 16.5069L6.21091 15.7964L4.78987 17.2037ZM15.3894 8.61096H16.3894V2.9541H15.3894H14.3894V8.61096H15.3894ZM21.0463 8.61096L21.0463 7.61096L15.3894 7.61096L15.3894 8.61096L15.3894 9.61096L21.0463 9.61096L21.0463 8.61096ZM11.1867 5.87871L10.9905 6.85929C11.6242 6.98603 12.5125 7.5319 13.3409 8.16976C13.7317 8.47068 14.0723 8.76264 14.3153 8.97964C14.4364 9.0878 14.5323 9.17647 14.597 9.23721C14.6293 9.26755 14.6538 9.29087 14.6697 9.30608C14.6776 9.31369 14.6834 9.31926 14.6869 9.32268C14.6887 9.32438 14.6899 9.32555 14.6905 9.32616C14.6908 9.32646 14.691 9.32662 14.691 9.32665C14.691 9.32666 14.691 9.32664 14.6909 9.32658C14.6909 9.32655 14.6908 9.32647 14.6908 9.32646C14.6907 9.32638 14.6907 9.32629 15.3894 8.61096C16.0882 7.89562 16.0881 7.89552 16.088 7.8954C16.0879 7.89535 16.0878 7.89522 16.0877 7.89512C16.0875 7.89492 16.0873 7.89468 16.087 7.8944C16.0864 7.89384 16.0857 7.89315 16.0848 7.89231C16.0831 7.89062 16.0808 7.88837 16.0779 7.88557C16.0721 7.87996 16.064 7.87214 16.0536 7.86223C16.033 7.84243 16.0034 7.81429 15.9657 7.77891C15.8904 7.70818 15.7822 7.60825 15.6474 7.48788C15.3786 7.24784 15 6.92303 14.561 6.58508C13.73 5.94521 12.5169 5.12496 11.3828 4.89813L11.1867 5.87871ZM18.1217 12.8137L19.1023 12.6176C18.8754 11.4835 18.0552 10.2704 17.4153 9.43936C17.0774 9.00044 16.7526 8.62177 16.5125 8.35297C16.3921 8.21818 16.2922 8.11004 16.2215 8.03468C16.1861 7.99698 16.158 7.96742 16.1382 7.94676C16.1283 7.93643 16.1204 7.92832 16.1148 7.92252C16.112 7.91963 16.1098 7.91731 16.1081 7.91558C16.1072 7.91471 16.1066 7.914 16.106 7.91343C16.1057 7.91314 16.1055 7.9129 16.1053 7.91269C16.1052 7.91258 16.105 7.91245 16.105 7.9124C16.1049 7.91228 16.1048 7.91217 15.3894 8.61096C14.6741 9.30974 14.674 9.30965 14.6739 9.30957C14.6739 9.30955 14.6738 9.30948 14.6738 9.30945C14.6738 9.30939 14.6737 9.30936 14.6737 9.30937C14.6738 9.3094 14.6739 9.30957 14.6742 9.30988C14.6748 9.3105 14.676 9.3117 14.6777 9.31347C14.6811 9.31699 14.6867 9.32277 14.6943 9.33071C14.7095 9.34658 14.7328 9.37106 14.7632 9.40339C14.8239 9.46811 14.9126 9.56402 15.0208 9.68513C15.2378 9.92813 15.5297 10.2687 15.8306 10.6595C16.4685 11.4879 17.0144 12.3762 17.1411 13.0099L18.1217 12.8137ZM11.1867 5.87871L11.4297 4.9087C9.82759 4.50727 7.9291 4.86359 6.27355 5.93003L6.81508 6.77071L7.35661 7.61139C8.62108 6.79687 9.95735 6.60161 10.9436 6.84873L11.1867 5.87871ZM6.81508 6.77071L6.27355 5.93003C4.1761 7.28111 2.42595 9.78659 1.75953 13.5423L2.74415 13.717L3.72876 13.8917C4.3151 10.5873 5.80356 8.6118 7.35661 7.61139L6.81508 6.77071ZM2.74415 13.717L1.75953 13.5423C1.37423 15.7137 1.34973 18.3033 1.8197 21.3451L2.80797 21.1924L3.79624 21.0397C3.35355 18.1744 3.38845 15.8096 3.72876 13.8917L2.74415 13.717ZM18.1217 12.8137L17.1517 13.0568C17.5556 14.6691 16.8176 17.1311 14.1113 18.8055L14.6374 19.6559L15.1635 20.5063C18.4736 18.4584 19.7439 15.1736 19.0917 12.5707L18.1217 12.8137ZM14.6374 19.6559L14.1113 18.8055C11.8839 20.1835 8.28865 21.0273 2.96066 20.2042L2.80797 21.1924L2.65528 22.1807C8.30565 23.0537 12.4192 22.2042 15.1635 20.5063L14.6374 19.6559ZM15.8505 8.1499L16.5576 8.85701L20.7075 4.70714L20.0004 4.00003L19.2933 3.29292L15.1434 7.44279L15.8505 8.1499ZM6.98292 6.94129L6.27009 7.64262L8.78757 10.2014L9.5004 9.50004L10.2132 8.79871L7.69575 6.23995L6.98292 6.94129ZM11.5004 16.5001L10.7912 17.2051L13.7321 20.1637L14.4413 19.4587L15.1506 18.7537L12.2096 15.7951L11.5004 16.5001ZM2.91641 13.8909L2.20589 14.5946L4.78987 17.2037L5.50039 16.5L6.21091 15.7964L3.62693 13.1873L2.91641 13.8909Z" fill="black"/>
</g>
</svg>
