<svg width="24" height="24" viewBox="0 0 24 24" fill="none" xmlns="http://www.w3.org/2000/svg">
    <g id="radish">
        <path id="fill1"
            d="M2.80748 21.1924C2.35115 18.2389 2.38085 15.7616 2.74366 13.717C3.37004 10.187 4.98934 7.94646 6.81459 6.77071C8.2746 5.83023 9.89198 5.55444 11.1862 5.87871C12.9539 6.23227 15.389 8.61096 15.389 8.61096C15.389 8.61096 17.7676 11.046 18.1212 12.8137C18.6493 14.9213 17.6451 17.7948 14.6369 19.6559C12.1511 21.1939 8.29666 22.0405 2.80748 21.1924Z"
            fill="white" />
        <path id="stroke1"
            d="M6.81459 6.77071L7.35612 7.61139L7.35612 7.61139L6.81459 6.77071ZM16.389 2.9541V1.9541H14.389V2.9541H16.389ZM21.0458 9.61096L22.0458 9.61096L22.0458 7.61096L21.0458 7.61096L21.0458 9.61096ZM11.1862 5.87871L10.9431 6.84873L10.9665 6.85458L10.99 6.85929L11.1862 5.87871ZM2.80748 21.1924L1.81921 21.3451L1.93103 22.0689L2.65479 22.1807L2.80748 21.1924ZM18.1212 12.8137L17.1406 13.0099L17.1453 13.0335L17.1512 13.0568L18.1212 12.8137ZM2.74366 13.717L1.75904 13.5423L2.74366 13.717ZM14.6369 19.6559L15.1631 20.5063L14.6369 19.6559ZM20.707 4.70714L21.4141 4.00003L19.9999 2.58582L19.2928 3.29292L20.707 4.70714ZM8.78708 10.2014L9.48841 10.9142L10.9141 9.51154L10.2127 8.79871L8.78708 10.2014ZM12.2091 15.7951L11.5041 15.0859L10.0857 16.4959L10.7907 17.2051L12.2091 15.7951ZM4.78938 17.2037L5.49306 17.9142L6.9141 16.5069L6.21042 15.7964L4.78938 17.2037ZM15.389 8.61096H16.389V2.9541H15.389H14.389V8.61096H15.389ZM21.0458 8.61096L21.0458 7.61096L15.389 7.61096L15.389 8.61096L15.389 9.61096L21.0458 9.61096L21.0458 8.61096ZM11.1862 5.87871L10.99 6.85929C11.6237 6.98603 12.512 7.5319 13.3404 8.16976C13.7312 8.47068 14.0718 8.76264 14.3148 8.97964C14.4359 9.0878 14.5318 9.17647 14.5965 9.23721C14.6288 9.26755 14.6533 9.29087 14.6692 9.30608C14.6771 9.31369 14.6829 9.31926 14.6864 9.32268C14.6882 9.32438 14.6894 9.32555 14.69 9.32616C14.6903 9.32646 14.6905 9.32662 14.6905 9.32665C14.6905 9.32666 14.6905 9.32664 14.6905 9.32658C14.6904 9.32655 14.6904 9.32647 14.6903 9.32646C14.6903 9.32638 14.6902 9.32629 15.389 8.61096C16.0877 7.89562 16.0876 7.89552 16.0875 7.8954C16.0875 7.89535 16.0873 7.89522 16.0872 7.89512C16.087 7.89492 16.0868 7.89468 16.0865 7.8944C16.0859 7.89384 16.0852 7.89315 16.0843 7.89231C16.0826 7.89062 16.0803 7.88837 16.0774 7.88557C16.0716 7.87996 16.0635 7.87214 16.0531 7.86223C16.0325 7.84243 16.0029 7.81429 15.9652 7.77891C15.8899 7.70818 15.7817 7.60825 15.6469 7.48788C15.3781 7.24784 14.9995 6.92303 14.5606 6.58508C13.7295 5.94521 12.5164 5.12496 11.3823 4.89813L11.1862 5.87871ZM18.1212 12.8137L19.1018 12.6176C18.875 11.4835 18.0547 10.2704 17.4148 9.43936C17.0769 9.00044 16.7521 8.62177 16.512 8.35297C16.3917 8.21818 16.2917 8.11004 16.221 8.03468C16.1856 7.99698 16.1575 7.96742 16.1377 7.94676C16.1278 7.93643 16.1199 7.92832 16.1143 7.92252C16.1115 7.91963 16.1093 7.91731 16.1076 7.91558C16.1068 7.91471 16.1061 7.914 16.1055 7.91343C16.1052 7.91314 16.105 7.9129 16.1048 7.91269C16.1047 7.91258 16.1046 7.91245 16.1045 7.9124C16.1044 7.91228 16.1043 7.91217 15.389 8.61096C14.6736 9.30974 14.6735 9.30965 14.6734 9.30957C14.6734 9.30955 14.6734 9.30948 14.6733 9.30945C14.6733 9.30939 14.6732 9.30936 14.6733 9.30937C14.6733 9.3094 14.6734 9.30957 14.6738 9.30988C14.6744 9.3105 14.6755 9.3117 14.6772 9.31347C14.6806 9.31699 14.6862 9.32277 14.6938 9.33071C14.709 9.34658 14.7324 9.37106 14.7627 9.40339C14.8234 9.46811 14.9121 9.56402 15.0203 9.68513C15.2373 9.92813 15.5292 10.2687 15.8301 10.6595C16.468 11.4879 17.0139 12.3762 17.1406 13.0099L18.1212 12.8137ZM11.1862 5.87871L11.4292 4.9087C9.82711 4.50727 7.92861 4.86359 6.27306 5.93003L6.81459 6.77071L7.35612 7.61139C8.6206 6.79687 9.95686 6.60161 10.9431 6.84873L11.1862 5.87871ZM6.81459 6.77071L6.27306 5.93003C4.17561 7.28111 2.42546 9.78659 1.75904 13.5423L2.74366 13.717L3.72828 13.8917C4.31462 10.5873 5.80307 8.6118 7.35612 7.61139L6.81459 6.77071ZM2.74366 13.717L1.75904 13.5423C1.37374 15.7137 1.34925 18.3033 1.81921 21.3451L2.80748 21.1924L3.79576 21.0397C3.35306 18.1744 3.38796 15.8096 3.72828 13.8917L2.74366 13.717ZM18.1212 12.8137L17.1512 13.0568C17.5552 14.6691 16.8171 17.1311 14.1108 18.8055L14.6369 19.6559L15.1631 20.5063C18.4731 18.4584 19.7434 15.1736 19.0912 12.5707L18.1212 12.8137ZM14.6369 19.6559L14.1108 18.8055C11.8834 20.1835 8.28816 21.0273 2.96017 20.2042L2.80748 21.1924L2.65479 22.1807C8.30516 23.0537 12.4187 22.2042 15.1631 20.5063L14.6369 19.6559ZM15.85 8.1499L16.5571 8.85701L20.707 4.70714L19.9999 4.00003L19.2928 3.29292L15.1429 7.4428L15.85 8.1499ZM6.98243 6.94129L6.2696 7.64262L8.78708 10.2014L9.49991 9.50004L10.2127 8.79871L7.69526 6.23995L6.98243 6.94129ZM11.4999 16.5001L10.7907 17.2051L13.7316 20.1637L14.4409 19.4587L15.1501 18.7537L12.2091 15.7951L11.4999 16.5001ZM2.91592 13.8909L2.2054 14.5946L4.78938 17.2037L5.4999 16.5L6.21042 15.7964L3.62644 13.1873L2.91592 13.8909Z"
            fill="black" />
    </g>
</svg>