<svg viewBox="0 0 1024 1024" version="1.1" xmlns="http://www.w3.org/2000/svg"><g  fill-rule="evenodd"><path d="M512 938.6666666666666C276.35850666666664 938.6666666666666 85.33333333333333 747.6414933333333 85.33333333333333 512 85.33333333333333 276.35850666666664 276.35850666666664 85.33333333333333 512 85.33333333333333 629.8424533333333 85.33333333333333 736.5267157333333 133.10722474666665 813.7415637333334 210.34378368L770.6204117333333 253.42230954666664C704.4374570666666 187.22848810666667 613.0000768 146.28571434666665 512 146.28571434666665 310.02157738666665 146.28571434666665 146.28571434666665 310.02157738666665 146.28571434666665 512 146.28571434666665 713.9784234666665 310.02157738666665 877.7142869333334 512 877.7142869333334 713.9641898666666 877.7142869333334 877.6912085333333 714.0014976 877.7142826666666 512.0427007999999L938.6666666666666 512 938.6666666666666 512C938.6666666666666 747.6414933333333 747.6414933333333 938.6666666666666 512 938.6666666666666Z"/><path d="M661.5061195585104 293.9289349413316L843.9178322140602 281.1734654141733 831.1623627166647 98.76175318425085z"/></g></svg>