<svg width="16" height="16" viewBox="0 0 16 16" fill="none" xmlns="http://www.w3.org/2000/svg">
<path fill-rule="evenodd" clip-rule="evenodd" d="M2.59101 7C3.06126 4.43988 5.30425 2.5 8.00032 2.5C9.9311 2.5 11.6295 3.49489 12.6109 5L10.5 5L10.5 7L13.4096 7L14.5 7L15.4342 7L15.5 7L15.5 6L15.5 1.5L13.5 1.5L13.5 2.90059C12.1303 1.42403 10.1732 0.499999 8.00032 0.499999C4.19724 0.5 1.0553 3.33064 0.566406 7L2.59101 7ZM13.4096 9C12.9394 11.5601 10.6964 13.5 8.00032 13.5C6.06954 13.5 4.37114 12.5051 3.38979 11L5.5 11L5.5 9L2.59101 9L0.566406 9L0.499999 9L0.5 10L0.5 14.5L2.5 14.5L2.5 13.0987C3.86976 14.5757 5.8271 15.5 8.00032 15.5C11.8034 15.5 14.9453 12.6694 15.4342 9L13.4096 9Z" fill="black" fill-opacity="0.9"/>
</svg>
