<svg width="24" height="24" viewBox="0 0 24 24" fill="none" xmlns="http://www.w3.org/2000/svg">
    <path
        d="M20.5001 5.83468C18.5922 3.20865 15.4964 1.5 12.0001 1.5C6.57377 1.5 2.10994 5.61542 1.55754 10.896L1.45349 11.8905L3.44264 12.0986L3.54668 11.104C3.99367 6.83125 7.60851 3.5 12.0001 3.5C15.0408 3.5 17.7103 5.09688 19.2128 7.5H15.5001V9.5H22.5001V2.5H20.5001V5.83468ZM20.5576 11.9014L20.4535 12.896C20.0065 17.1687 16.3917 20.5 12.0001 20.5C8.9594 20.5 6.28993 18.9031 4.78739 16.5H8.5001V14.5H1.5001V21.5H3.5001V18.1653C5.40805 20.7914 8.50379 22.5 12.0001 22.5C17.4264 22.5 21.8903 18.3846 22.4427 13.104L22.5467 12.1095L20.5576 11.9014Z"
        fill="black" />
</svg>