<svg width="24" height="24" viewBox="0 0 24 24" fill="none" xmlns="http://www.w3.org/2000/svg">
    <path
        d="M12.0038 3C8.46651 3 5.35733 4.83591 3.57817 7.61157L3.03852 8.45347L1.35474 7.37418L1.89438 6.53229C4.02574 3.20715 7.75672 1 12.0038 1C16.251 1 19.9819 3.20715 22.1133 6.53229L22.653 7.37418L20.9692 8.45347L20.4295 7.61157C18.6504 4.83591 15.5412 3 12.0038 3ZM11.9925 6.98828C10.2243 6.98828 8.66975 7.90531 7.77934 9.29443L7.2397 10.1363L5.55591 9.05704L6.09555 8.21515C7.33816 6.27656 9.51456 4.98828 11.9925 4.98828C14.4704 4.98828 16.6468 6.27656 17.8894 8.21515L18.4291 9.05704L16.7453 10.1363L16.2056 9.29443C15.3152 7.90531 13.7606 6.98828 11.9925 6.98828ZM4.99994 11H18.9999V23H16.9999V13H6.99994V23H4.99994V11ZM10.9999 15H13.0039V17.0039H10.9999V15Z"
        fill="black" />
</svg>