<svg width="24" height="24" viewBox="0 0 24 24" fill="none" xmlns="http://www.w3.org/2000/svg">
    <g id="rice">
        <path id="fill1" d="M3 11H21V12C21 16.9706 16.9706 21 12 21C7.02944 21 3 16.9706 3 12V11Z" fill="white" />
        <path id="fill2"
            d="M20 11L4 11C4 9.99104 4.18678 8.712 4.52766 7.45268C5.38744 4.2763 8.70931 3 12 3C15.2933 3 18.6138 4.27771 19.4735 7.45682C19.8136 8.7148 20 9.99214 20 11Z"
            fill="white" />
        <g id="stroke2">
            <path
                d="M20 11L4 11C4 9.99104 4.18678 8.712 4.52766 7.45268C5.38744 4.2763 8.70931 3 12 3C15.2933 3 18.6138 4.27771 19.4735 7.45682C19.8136 8.7148 20 9.99214 20 11Z"
                stroke="black" stroke-width="2" stroke-linecap="square" />
            <path d="M8.99805 7.99805H9.00195V8.00195H8.99805V7.99805Z" stroke="black" stroke-width="2"
                stroke-linecap="square" />
            <path d="M11.998 5.99805H12.002V6.00195H11.998V5.99805Z" stroke="black" stroke-width="2"
                stroke-linecap="square" />
            <path d="M14.998 7.99805H15.002V8.00195H14.998V7.99805Z" stroke="black" stroke-width="2"
                stroke-linecap="square" />
        </g>
        <path id="stroke1" d="M3 11H21V12C21 16.9706 16.9706 21 12 21C7.02944 21 3 16.9706 3 12V11Z" stroke="black"
            stroke-width="2" stroke-linecap="square" />
    </g>
</svg>