<svg width="24" height="24" viewBox="0 0 24 24" fill="none" xmlns="http://www.w3.org/2000/svg">
<g id="rice-ball">
<path id="fill1" d="M16 21.8103C14.7791 21.9256 13.4087 21.9965 12 22C10.5913 21.9965 9.22084 21.9256 8 21.8103V14H16L16 21.8103Z" fill="white"/>
<path id="fill2" d="M9.748 3.08604C6.67525 6.37422 2.96423 12.6201 2.0911 17.2918C1.82845 18.6971 2.09109 19.8286 3.44233 20.8433C3.94531 21.221 5.70943 21.5938 8.00005 21.8102V14H16.0001V21.8102C18.2906 21.5938 20.0547 21.221 20.5577 20.8433C21.9089 19.8286 22.1715 18.6971 21.9089 17.2918C21.0358 12.6201 17.3248 6.37422 14.252 3.08604C13.5754 2.36202 12.7877 2.00001 12 2C11.2123 2.00001 10.4246 2.36202 9.748 3.08604Z" fill="white"/>
<path id="stroke1" d="M16.0001 21.8102V14H8.00005V21.8102M2.0911 17.2918C2.96423 12.6201 6.67525 6.37422 9.748 3.08604C10.4246 2.36202 11.2123 2.00001 12 2C12.7877 2.00001 13.5754 2.36202 14.252 3.08604C17.3248 6.37422 21.0358 12.6201 21.9089 17.2918C22.1715 18.6971 21.9089 19.8286 20.5577 20.8433C19.7866 21.4223 16.0519 21.9899 12 22C7.9481 21.9899 4.21339 21.4223 3.44233 20.8433C2.09109 19.8286 1.82845 18.6971 2.0911 17.2918Z" stroke="black" stroke-width="2"/>
<g id="stroke2">
<path d="M9.2959 10.1865H9.29942V10.1905H9.2959V10.1865Z" stroke="black" stroke-width="2"/>
<path d="M11.998 6.12793H12.0016V6.13189H11.998V6.12793Z" stroke="black" stroke-width="2"/>
<path d="M14.7007 10.1875H14.7042V10.1915H14.7007V10.1875Z" stroke="black" stroke-width="2"/>
</g>
</g>
</svg>
