<svg width="24" height="24" viewBox="0 0 24 24" fill="none" xmlns="http://www.w3.org/2000/svg">
    <g id="rocket">
        <path id="fill1"
            d="M5.63574 12.7062L11.2926 18.3631L19.5561 10.0996C21.0563 8.59932 21.8992 6.56449 21.8992 4.44275V2.09961H19.5561C17.4343 2.09961 15.3995 2.94246 13.8992 4.44275L5.63574 12.7062Z"
            fill="white" />
        <g id="fill2">
            <path d="M17.6569 18.3632L16.9498 12.7063L11.293 18.3632L14.4749 21.5451L17.6569 18.3632Z" fill="white" />
            <path d="M5.63608 6.34229L11.2929 7.04939L5.63608 12.7062L2.4541 9.52427L5.63608 6.34229Z" fill="white" />
        </g>
        <path id="stroke2"
            d="M4.22191 16.9489L2.10059 19.0702M7.05003 19.7773L4.92871 21.8987M17.6569 18.3632L16.9498 12.7063L11.293 18.3632L14.4749 21.5451L17.6569 18.3632ZM5.63608 6.34229L11.2929 7.04939L5.63608 12.7062L2.4541 9.52427L5.63608 6.34229Z"
            stroke="black" stroke-width="2" stroke-linecap="square" />
        <path id="stroke1"
            d="M11.2926 7.04936L5.63574 12.7062M5.63574 12.7062L11.2926 18.3631M5.63574 12.7062L13.8992 4.44275C15.3995 2.94246 17.4343 2.09961 19.5561 2.09961H21.8992V4.44275C21.8992 6.56449 21.0563 8.59932 19.5561 10.0996L11.2926 18.3631M16.9494 12.7062L11.2926 18.3631"
            stroke="black" stroke-width="2" stroke-linecap="square" />
    </g>
</svg>