<svg width="24" height="24" viewBox="0 0 24 24" fill="none" xmlns="http://www.w3.org/2000/svg">
<path d="M19.5565 3.09961H20.8996V4.44275C20.8996 6.29927 20.1621 8.07975 18.8494 9.3925L11.293 16.9489L7.05036 12.7062L14.6067 5.14986C15.9195 3.83711 17.6999 3.09961 19.5565 3.09961ZM18.0028 13.0675L20.2636 10.8067C21.9514 9.11889 22.8996 6.8297 22.8996 4.44275V1.09961H19.5565C17.1695 1.09961 14.8803 2.04782 13.1925 3.73565L10.9317 5.99642L5.27488 5.28931L1.03995 9.52423L14.475 22.9593L18.7099 18.7243L18.0028 13.0675ZM16.2112 14.8591L16.604 18.0018L14.475 20.1308L12.7072 18.3631L16.2112 14.8591ZM9.14012 7.78803L5.63615 11.292L3.86838 9.52423L5.99742 7.39519L9.14012 7.78803ZM5.63615 16.9489L2.10061 20.4844L0.686401 19.0702L4.22194 15.5346L5.63615 16.9489ZM8.46458 19.7773L4.92904 23.3128L3.51483 21.8986L7.05036 18.3631L8.46458 19.7773Z" fill="black" fill-opacity="0.9" style="fill:black;fill-opacity:0.9;"/>
</svg>
