<svg width="16" height="16" viewBox="0 0 16 16" fill="none" xmlns="http://www.w3.org/2000/svg">
<path fill-rule="evenodd" clip-rule="evenodd" d="M9.58564 2L10.2927 2.70711L11.0856 3.5L6.24985 3.5C3.35035 3.5 0.99985 5.8505 0.99985 8.75C0.99985 11.6495 3.35035 14 6.24985 14L11.4998 14L12.4998 14L12.4998 12L11.4998 12L6.24985 12C4.45492 12 2.99985 10.5449 2.99985 8.75C2.99985 6.95507 4.45492 5.5 6.24985 5.5L11.0856 5.5L10.2927 6.29289L9.58564 7L10.9998 8.41421L11.707 7.70711L14.207 5.20711L14.9141 4.5L14.207 3.79289L11.707 1.29289L10.9998 0.585786L9.58564 2Z" fill="black" fill-opacity="0.9"/>
</svg>
