<svg width="24" height="24" viewBox="0 0 24 24" fill="none" xmlns="http://www.w3.org/2000/svg">
<g clip-path="url(#clip0_100396_60236)">
<path d="M5.19783 24.0007H10.8022L11.2466 22.0007H13.7534L14.1978 24.0007H19.8022L20.434 21.1572C24.0847 18.0964 25.1245 12.7683 22.6602 8.50001C22.4344 8.10888 22.1872 7.73949 21.9204 7.39223C21.9728 7.10219 22 6.80394 22 6.5C22 3.73858 19.7614 1.5 17 1.5C15.3588 1.5 13.9034 2.29111 12.9927 3.50941C11.6485 3.59414 10.2922 3.91208 8.98813 4.46363L8.06712 4.85317L8.8462 6.69519L9.76721 6.30564C10.5261 5.98467 11.3018 5.75925 12.0761 5.6272C12.0261 5.91085 12 6.20254 12 6.5C12 9.26142 14.2386 11.5 17 11.5C18.6122 11.5 20.045 10.7373 20.959 9.55389C22.94 13.046 22.0078 17.409 18.9199 19.8097L18.6356 20.0307L18.1978 22.0007H15.8022L15.3577 20.0007H9.64227L9.19783 22.0007H6.80217L6.13342 18.9913L5.63197 18.7989C4.56752 18.3905 3.0689 17.5282 2 16.5697V12.0005L3.06619 12.0004L5.11269 8.5899L4.44457 6.91943C5.25089 7.02412 6.1802 7.42068 7.0463 8.37328L7.71902 9.11318L9.19882 7.76775L8.5261 7.02785C6.63283 4.94549 4.35664 4.6583 2.7735 5.02645L1.63894 5.29028L2.8873 8.4115L1.93381 10.0005L0 10.0007V17.4164L0.294702 17.7096C1.44434 18.8534 3.09003 19.8695 4.4102 20.4564L5.19783 24.0007ZM5.5 13H7.5039V10.9961H5.5V13ZM17 9.5C15.3431 9.5 14 8.15685 14 6.5C14 5.94817 14.1481 5.43396 14.406 4.99165C14.9275 4.09735 15.8946 3.5 17 3.5C18.6569 3.5 20 4.84315 20 6.5C20 6.79888 19.9566 7.08587 19.8764 7.3559C19.5079 8.59669 18.3582 9.5 17 9.5Z" fill="black" fill-opacity="0.9" style="fill:black;fill-opacity:0.9;"/>
</g>
<defs>
<clipPath id="clip0_100396_60236">
<rect width="24" height="24" fill="white" style="fill:white;fill-opacity:1;"/>
</clipPath>
</defs>
</svg>
