<svg width="24" height="24" viewBox="0 0 24 24" fill="none" xmlns="http://www.w3.org/2000/svg">
<g id="saving-pot" clip-path="url(#clip0_2332_3688)">
<path id="fill2" d="M21 4.99927C21 2.79013 19.2091 0.999268 17 0.999268C14.7909 0.999268 13 2.79013 13 4.99927C13 7.20841 14.7909 8.99927 17 8.99927C19.2091 8.99927 21 7.2084 21 4.99927Z" fill="white"/>
<path id="stroke1" d="M7.78621 6.19987C6.1612 4.41257 4.26719 4.20508 3 4.49976L4 7.00001L2.5 9.49976L1 9.4999V15.5C2.18712 16.6811 4 17.7431 5.27374 18.2319L6 21.5H10L10.4444 19.5H14.5556L15 21.5H19L19.5337 19.0985C23.0264 16.3831 24.0687 11.4388 21.7942 7.49931C21.6224 7.20169 21.4371 6.91857 21.2396 6.65M9.37769 3.88394C10.578 3.37624 11.8221 3.08514 13.05 3.00709M17 0.999268C19.2091 0.999268 21 2.79013 21 4.99927C21 7.2084 19.2091 8.99927 17 8.99927C14.7909 8.99927 13 7.20841 13 4.99927C13 2.79013 14.7909 0.999268 17 0.999268Z" stroke="black" stroke-width="2" stroke-linecap="square"/>
<path id="stroke2" d="M6.5 10.4993H6.50391V10.4954H6.5V10.4993Z" stroke="black" stroke-width="2" stroke-linecap="square"/>
</g>
<defs>
<clipPath id="clip0_2332_3688">
<rect width="24" height="24" fill="white" transform="matrix(1 0 0 -1 0 24)"/>
</clipPath>
</defs>
</svg>
