<svg width="24" height="24" viewBox="0 0 24 24" fill="none" xmlns="http://www.w3.org/2000/svg">
<g id="screen-4k">
<path id="fill1" d="M22 4L22 20L2 20L2 4L14 4L18 4L22 4Z" fill="white"/>
<path id="stroke1" d="M22 4V20L2 20L2 4L22 4Z" stroke="black" stroke-width="2"/>
<path id="stroke2" d="M10 15V12.4286M10 12.4286V9M10 12.4286H7C6.44772 12.4286 6 11.9809 6 11.4286V9M17 15V14.4015C17 14.2393 16.9213 14.0871 16.7889 13.9934L14 12.0195V11.9805L16.7889 10.0066C16.9213 9.91286 17 9.7607 17 9.59846V9M14 15V9" stroke="black" stroke-width="2" stroke-linecap="square"/>
</g>
</svg>
