<svg width="24" height="24" viewBox="0 0 24 24" fill="none" xmlns="http://www.w3.org/2000/svg">
    <path
        d="M15.0963 5.90381C12.5579 3.3654 8.4423 3.3654 5.90389 5.90381C4.63364 7.17406 3.99923 8.83721 4.00009 10.5034L4.0006 11.5034L2.0006 11.5044L2.00009 10.5044C1.99896 8.32916 2.82902 6.15025 4.48968 4.48959C7.80914 1.17014 13.191 1.17014 16.5105 4.48959C19.5907 7.56982 19.8127 12.4259 17.1764 15.7621L22.5209 21.1066L21.1067 22.5208L15.7622 17.1763C14.2234 18.392 12.3606 19 10.5001 19H9.50009V17H10.5001C12.1651 17 13.8269 16.3656 15.0963 15.0962C17.6347 12.5578 17.6347 8.44221 15.0963 5.90381ZM1.67166 13.2574L4.50009 16.0858L7.32851 13.2574L8.74273 14.6716L5.9143 17.5L8.74273 20.3284L7.32851 21.7426L4.50009 18.9142L1.67166 21.7426L0.257446 20.3284L3.08587 17.5L0.257446 14.6716L1.67166 13.2574Z"
        fill="black" />
</svg>