<svg viewBox="0 0 1024 1024" version="1.1" xmlns="http://www.w3.org/2000/svg"><path  fill-rule="evenodd" d="M448 128C624.7311189333333 128 768 271.26888106666667 768 448 768 530.2779605333333 736.9477674666666 605.3032831999999 685.9233087999999 661.9959594666666L897.2940842666667 873.3725823999999 852.0392490666666 918.6274176 638.5478933333333 705.1077610666666C585.3165824 744.6235285333333 519.388224 768 448 768 271.26888106666667 768 128 624.7311189333333 128 448 128 271.26888106666667 271.26888106666667 128 448 128ZM448 192C306.615104 192 192 306.615104 192 448 192 589.384896 306.615104 704 448 704 589.384896 704 704 589.384896 704 448 704 306.615104 589.384896 192 448 192Z"/></svg>