<svg width="16" height="16" viewBox="0 0 16 16" fill="none" xmlns="http://www.w3.org/2000/svg">
<path fill-rule="evenodd" clip-rule="evenodd" d="M3 2H13V8.77024C13 9.79104 12.4809 10.7418 11.6223 11.2938L8 13.6224L4.37773 11.2938C3.51906 10.7418 3 9.79103 3 8.77024V2ZM3.29621 12.9761L8 16L12.7038 12.9761C14.1349 12.0561 15 10.4716 15 8.77024V2V0H13H3H1V2V8.77024C1 10.4716 1.8651 12.0561 3.29621 12.9761ZM8.20666 9.20711L7.49949 9.91428L6.79238 9.20704L4.29283 6.70704L5.70717 5.29296L7.49962 7.08572L10.5353 4.04999L11.9496 5.46421L8.20666 9.20711Z" fill="black"/>
</svg>
