<svg width="24" height="24" viewBox="0 0 24 24" fill="none" xmlns="http://www.w3.org/2000/svg">
<g clip-path="url(#clip0_100396_60218)">
<path d="M21.2185 4.31723C22.9546 6.39826 24 9.07837 24 12C24 14.9533 22.9321 17.6587 21.163 19.7488L22.4142 21L21 22.4142L12.518 13.9323C12.3528 13.9765 12.1792 14 12 14C10.8954 14 10 13.1046 10 12C10 11.8209 10.0236 11.6472 10.0677 11.482L7.82829 9.24253C7.30442 10.0331 7 10.9805 7 12C7 13.2186 7.43464 14.333 8.15844 15.2006L8.79903 15.9685L7.26327 17.2497L6.62268 16.4818C5.61009 15.268 5 13.704 5 12C5 10.4281 5.519 8.97617 6.39368 7.80793L4.25703 5.67128C3.72069 6.32661 3.2661 7.05097 2.90861 7.8287C2.3256 9.09708 2 10.5092 2 12C2 13.4909 2.3256 14.903 2.90861 16.1714C3.27938 16.978 3.75461 17.7272 4.31723 18.4016L4.95783 19.1695L3.42207 20.4507L2.78147 19.6828C2.10705 18.8744 1.53672 17.9755 1.09139 17.0066C0.390386 15.4816 -7.80246e-08 13.785 0 12C7.80247e-08 10.215 0.390387 8.51849 1.09139 6.99341C1.54886 5.99815 2.13825 5.07667 2.83696 4.2512L1.58579 3.00003L3 1.58582L11.482 10.0678C11.6472 10.0236 11.8208 10 12 10C13.1046 10 14 10.8955 14 12C14 12.1792 13.9764 12.3528 13.9323 12.5181L16.1717 14.7575C16.6956 13.9669 17 13.0195 17 12C17 10.7815 16.5654 9.66703 15.8416 8.79942L15.201 8.03154L16.7367 6.75035L17.3773 7.51823C18.3899 8.73201 19 10.2961 19 12C19 13.5719 18.481 15.0239 17.6063 16.1921L19.743 18.3288C21.1543 16.6044 22 14.4017 22 12C22 9.56374 21.13 7.33327 19.6828 5.59842L19.0422 4.83054L20.5779 3.54935L21.2185 4.31723Z" fill="black" fill-opacity="0.9" style="fill:black;fill-opacity:0.9;"/>
</g>
<defs>
<clipPath id="clip0_100396_60218">
<rect width="24" height="24" fill="white" style="fill:white;fill-opacity:1;"/>
</clipPath>
</defs>
</svg>
