<svg width="24" height="24" viewBox="0 0 24 24" fill="none" xmlns="http://www.w3.org/2000/svg">
    <path
        d="M5.63604 4.22269L4.92893 4.92979C3.11819 6.74053 2 9.23916 2 12.0009C2 14.7626 3.11819 17.2612 4.92893 19.0719L5.63604 19.779L4.22183 21.1932L3.51472 20.4861C1.34424 18.3157 0 15.3143 0 12.0009C0 8.68743 1.34424 5.68606 3.51472 3.51558L4.22183 2.80847L5.63604 4.22269ZM19.7773 2.80847L20.4845 3.51558C22.6549 5.68606 23.9992 8.68743 23.9992 12.0009C23.9992 15.3143 22.6549 18.3157 20.4845 20.4861L19.7773 21.1932L18.3631 19.779L19.0702 19.0719C20.881 17.2612 21.9992 14.7626 21.9992 12.0009C21.9992 9.23916 20.881 6.74053 19.0702 4.92979L18.3631 4.22269L19.7773 2.80847ZM8.46447 7.05081L7.75736 7.75792C6.67048 8.8448 6 10.3434 6 12.0006C6 13.6577 6.67048 15.1563 7.75736 16.2432L8.46447 16.9503L7.05025 18.3645L6.34315 17.6574C4.89653 16.2108 4 14.2094 4 12.0006C4 9.7917 4.89653 7.79032 6.34315 6.3437L7.05025 5.6366L8.46447 7.05081ZM16.9492 5.6366L17.6563 6.3437C19.1029 7.79032 19.9995 9.7917 19.9995 12.0006C19.9995 14.2094 19.1029 16.2108 17.6563 17.6574L16.9492 18.3645L15.535 16.9503L16.2421 16.2432C17.329 15.1563 17.9995 13.6577 17.9995 12.0006C17.9995 10.3434 17.329 8.8448 16.2421 7.75792L15.535 7.05081L16.9492 5.6366ZM12 10C10.8954 10 10 10.8955 10 12C10 13.1046 10.8954 14 12 14C13.1046 14 14 13.1046 14 12C14 10.8955 13.1046 10 12 10ZM8 12C8 9.79089 9.79086 8.00003 12 8.00003C14.2091 8.00003 16 9.79089 16 12C16 13.8639 14.7252 15.43 13 15.874V20.779H11V15.874C9.27477 15.43 8 13.8639 8 12Z"
        fill="black" />
</svg>