<svg width="24" height="24" viewBox="0 0 24 24" fill="none" xmlns="http://www.w3.org/2000/svg">
<g id="sensors-2">
<path id="stroke1" d="M4.92893 4.92871C3.11929 6.73835 2 9.23835 2 11.9998C2 14.7613 3.11933 17.2613 4.92904 19.071M7.75736 7.75684C6.67157 8.84262 6 10.3426 6 11.9995C6 13.6564 6.67162 15.1564 7.75747 16.2422M12 10V14M16.2423 7.75684C17.3281 8.84262 17.9997 10.3426 17.9997 11.9995C17.9997 13.6564 17.328 15.1564 16.2422 16.2422M19.0714 4.92871C20.881 6.73835 22.0003 9.23835 22.0003 11.9998C22.0003 14.7613 20.881 17.2613 19.0713 19.071" stroke="black" stroke-width="2" stroke-linecap="square"/>
</g>
</svg>
