<svg width="24" height="24" viewBox="0 0 24 24" fill="none" xmlns="http://www.w3.org/2000/svg">
<g id="service">
<g id="fill1">
<path d="M3 12H7V18H5C3.89543 18 3 17.1734 3 16.1538V12Z" fill="white"/>
<path d="M21 12H17V18H19C20.1046 18 21 17.1734 21 16.1538V12Z" fill="white"/>
</g>
<path id="fill2" d="M10.25 21.5C10.25 21.0858 10.5858 20.75 11 20.75H13C13.4142 20.75 13.75 21.0858 13.75 21.5C13.75 21.9142 13.4142 22.25 13 22.25H11C10.5858 22.25 10.25 21.9142 10.25 21.5Z" fill="white"/>
<path id="stroke1" d="M21 12V11C21 6.02944 16.9706 2 12 2C7.02944 2 3 6.02944 3 11V12M21 12H17V18H19C20.1046 18 21 17.1734 21 16.1538V12ZM3 12H7V18H5M3 12V16.1538C3 17.1734 3.89543 18 5 18M10.25 21.5H8C6.34315 21.5 5 20.1569 5 18.5V18M10.25 21.5C10.25 21.9142 10.5858 22.25 11 22.25H13C13.4142 22.25 13.75 21.9142 13.75 21.5C13.75 21.0858 13.4142 20.75 13 20.75H11C10.5858 20.75 10.25 21.0858 10.25 21.5Z" stroke="black" stroke-width="2"/>
</g>
</svg>
