<svg width="24" height="24" viewBox="0 0 24 24" fill="none" xmlns="http://www.w3.org/2000/svg">
<path d="M2 10.9998C2 5.47691 6.47715 0.999756 12 0.999756C17.5228 0.999756 22 5.47691 22 10.9998V16.1536C22 17.7993 20.58 18.9998 19 18.9998H16V10.9998H20C20 6.58148 16.4183 2.99976 12 2.99976C7.58172 2.99976 4 6.58148 4 10.9998H8V18.9998H6.06301C6.28503 19.8624 7.06808 20.4998 8 20.4998H9.56367C9.87991 20.0464 10.4053 19.7498 11 19.7498H13C13.9665 19.7498 14.75 20.5333 14.75 21.4998C14.75 22.4663 13.9665 23.2498 13 23.2498H11C10.4053 23.2498 9.87991 22.9531 9.56367 22.4998H8C5.90559 22.4998 4.18714 20.8901 4.0143 18.8404C2.87438 18.4622 2 17.445 2 16.1536V10.9998ZM6 16.9998V12.9998H4V16.1536C4 16.5471 4.37084 16.9998 5 16.9998H6ZM20 12.9998H18V16.9998H19C19.6292 16.9998 20 16.5471 20 16.1536V12.9998Z" fill="black" fill-opacity="0.9" style="fill:black;fill-opacity:0.9;"/>
</svg>
