<svg width="24" height="24" viewBox="0 0 24 24" fill="none" xmlns="http://www.w3.org/2000/svg">
<g id="setting-1">
<path id="fill1" fill-rule="evenodd" clip-rule="evenodd" d="M9.40811 4.95996L10.0001 2H14.0001L14.5921 4.95996C15.4027 5.25851 16.1475 5.69306 16.7989 6.23595L19.6604 5.26796L21.6604 8.73206L19.3922 10.7254C19.4632 11.1396 19.5001 11.5655 19.5001 12C19.5001 12.4345 19.4632 12.8604 19.3922 13.2747L21.6604 15.268L19.6604 18.7321L16.7989 17.7641C16.1475 18.3069 15.4027 18.7415 14.5921 19.04L14.0001 22H10.0001L9.40811 19.04C8.5975 18.7415 7.85268 18.3069 7.20131 17.7641L4.33984 18.7321L2.33984 15.268L4.60798 13.2747C4.53705 12.8604 4.5001 12.4345 4.5001 12C4.5001 11.5655 4.53705 11.1396 4.60797 10.7254L2.33984 8.73206L4.33984 5.26796L7.20129 6.23595C7.85266 5.69306 8.59749 5.25851 9.40811 4.95996Z" fill="white"/>
<path id="fill2" d="M16 12C16 14.2091 14.2091 16 12 16C9.79086 16 8 14.2091 8 12C8 9.79086 9.79086 8 12 8C14.2091 8 16 9.79086 16 12Z" fill="white"/>
<path id="stroke1" fill-rule="evenodd" clip-rule="evenodd" d="M9.40811 4.95996L10.0001 2H14.0001L14.5921 4.95996C15.4027 5.25851 16.1475 5.69306 16.7989 6.23595L19.6604 5.26796L21.6604 8.73206L19.3922 10.7254C19.4632 11.1396 19.5001 11.5655 19.5001 12C19.5001 12.4345 19.4632 12.8604 19.3922 13.2747L21.6604 15.268L19.6604 18.7321L16.7989 17.7641C16.1475 18.3069 15.4027 18.7415 14.5921 19.04L14.0001 22H10.0001L9.40811 19.04C8.5975 18.7415 7.85268 18.3069 7.20131 17.7641L4.33984 18.7321L2.33984 15.268L4.60798 13.2747C4.53705 12.8604 4.5001 12.4345 4.5001 12C4.5001 11.5655 4.53705 11.1396 4.60797 10.7254L2.33984 8.73206L4.33984 5.26796L7.20129 6.23595C7.85266 5.69306 8.59749 5.25851 9.40811 4.95996Z" stroke="black" stroke-width="2" stroke-linecap="square"/>
<path id="stroke2" d="M16 12C16 14.2091 14.2091 16 12 16C9.79086 16 8 14.2091 8 12C8 9.79086 9.79086 8 12 8C14.2091 8 16 9.79086 16 12Z" stroke="black" stroke-width="2" stroke-linecap="square"/>
</g>
</svg>
