<svg width="16" height="16" viewBox="0 0 16 16" fill="none" xmlns="http://www.w3.org/2000/svg">
<rect width="16" height="16" fill="white"/>
<path fill-rule="evenodd" clip-rule="evenodd" d="M8.50006 0.467386L8.00006 0.178711L7.50006 0.467386L1.72656 3.80072L1.22656 4.08939V4.66674V11.3334V11.9108L1.72656 12.1994L7.50006 15.5328L8.00006 15.8214L8.50006 15.5328L14.2736 12.1994L14.7736 11.9108V11.3334V4.66674V4.08939L14.2736 3.80072L8.50006 0.467386ZM3.22656 10.7561V5.24409L8.00006 2.48811L12.7736 5.24409V10.7561L8.00006 13.512L3.22656 10.7561ZM6.3334 8.00008C6.3334 7.0796 7.07959 6.33341 8.00006 6.33341C8.92054 6.33341 9.66673 7.0796 9.66673 8.00008C9.66673 8.92055 8.92054 9.66674 8.00006 9.66674C7.07959 9.66674 6.3334 8.92055 6.3334 8.00008ZM8.00006 4.33341C5.97502 4.33341 4.3334 5.97503 4.3334 8.00008C4.3334 10.0251 5.97502 11.6667 8.00006 11.6667C10.0251 11.6667 11.6667 10.0251 11.6667 8.00008C11.6667 5.97503 10.0251 4.33341 8.00006 4.33341Z" fill="black"/>
</svg>
