<svg width="24" height="24" viewBox="0 0 24 24" fill="none" xmlns="http://www.w3.org/2000/svg">
<path d="M9.18034 1H14.82L15.4674 4.23728C16.0064 4.47836 16.5155 4.77378 16.9877 5.11643L20.1165 4.05799L22.9363 8.94203L20.4553 11.1224C20.485 11.4112 20.5001 11.704 20.5001 12C20.5001 12.2961 20.485 12.5888 20.4553 12.8776L22.9363 15.058L20.1165 19.942L16.9877 18.8836C16.5155 19.2262 16.0064 19.5216 15.4674 19.7627L14.82 23H9.18034L8.53289 19.7627C7.99387 19.5216 7.4848 19.2262 7.01262 18.8836L3.88377 19.942L1.06396 15.058L3.54498 12.8776C3.51532 12.5888 3.50015 12.2961 3.50015 12C3.50015 11.704 3.51532 11.4112 3.54498 11.1224L1.06397 8.94203L3.88377 4.05799L7.0126 5.11643C7.48479 4.77378 7.99386 4.47836 8.53289 4.23728L9.18034 1ZM10.82 3L10.279 5.70491L9.75376 5.89834C9.05211 6.15676 8.40662 6.53319 7.84158 7.00413L7.41138 7.36268L4.79602 6.47793L3.61582 8.52209L5.688 10.3432L5.59368 10.8941C5.53226 11.2529 5.50015 11.6223 5.50015 12C5.50015 12.3777 5.53226 12.7471 5.59368 13.1059L5.68801 13.6568L3.61582 15.4779L4.79602 17.5221L7.41139 16.6373L7.84159 16.9959C8.40663 17.4668 9.05211 17.8432 9.75376 18.1017L10.279 18.2951L10.82 21H13.1803L13.7213 18.2951L14.2465 18.1017C14.9482 17.8432 15.5937 17.4668 16.1587 16.9959L16.5889 16.6373L19.2043 17.5221L20.3845 15.4779L18.3123 13.6568L18.4066 13.1059C18.468 12.7471 18.5001 12.3777 18.5001 12C18.5001 11.6223 18.468 11.2529 18.4066 10.8941L18.3123 10.3432L20.3845 8.52209L19.2043 6.47793L16.5889 7.36267L16.1587 7.00413C15.5937 6.53319 14.9482 6.15676 14.2465 5.89834L13.7213 5.70491L13.1803 3H10.82ZM12 9C10.3432 9 9.00005 10.3431 9.00005 12C9.00005 13.6569 10.3432 15 12 15C13.6569 15 15 13.6569 15 12C15 10.3431 13.6569 9 12 9ZM7.00005 12C7.00005 9.23858 9.23862 7 12 7C14.7615 7 17 9.23858 17 12C17 14.7614 14.7615 17 12 17C9.23862 17 7.00005 14.7614 7.00005 12Z" fill="black" fill-opacity="0.9" style="fill:black;fill-opacity:0.9;"/>
</svg>
