<svg width="24" height="24" viewBox="0 0 24 24" fill="none" xmlns="http://www.w3.org/2000/svg">
    <path
        d="M12 0.845337L21.6602 6.42269V17.5774L12 23.1547L2.33972 17.5774V6.42269L12 0.845337ZM12 3.15474L4.33972 7.57739V16.4227L12 20.8453L19.6602 16.4227V7.57739L12 3.15474ZM12 9.00004C10.3431 9.00004 8.99998 10.3432 8.99998 12C8.99998 13.6569 10.3431 15 12 15C13.6568 15 15 13.6569 15 12C15 10.3432 13.6568 9.00004 12 9.00004ZM6.99998 12C6.99998 9.23861 9.23855 7.00004 12 7.00004C14.7614 7.00004 17 9.23861 17 12C17 14.7615 14.7614 17 12 17C9.23855 17 6.99998 14.7615 6.99998 12Z"
        fill="black" />
</svg>