<svg width="24" height="24" viewBox="0 0 24 24" fill="none" xmlns="http://www.w3.org/2000/svg">
<g id="setting">
<path id="fill1" fill-rule="evenodd" clip-rule="evenodd" d="M20.6604 7L12.0001 2L3.33984 7V17L12.0001 22L20.6604 17V7ZM12 16C14.2091 16 16 14.2091 16 12C16 9.79086 14.2091 8 12 8C9.79086 8 8 9.79086 8 12C8 14.2091 9.79086 16 12 16Z" fill="white"/>
<path id="fill2" d="M16 12C16 14.2091 14.2091 16 12 16C9.79086 16 8 14.2091 8 12C8 9.79086 9.79086 8 12 8C14.2091 8 16 9.79086 16 12Z" fill="white"/>
<path id="stroke1" d="M12.0001 2L20.6604 7V17L12.0001 22L3.33984 17V7L12.0001 2Z" stroke="black" stroke-width="2" stroke-linecap="square"/>
<path id="stroke2" d="M16 12C16 14.2091 14.2091 16 12 16C9.79086 16 8 14.2091 8 12C8 9.79086 9.79086 8 12 8C14.2091 8 16 9.79086 16 12Z" stroke="black" stroke-width="2" stroke-linecap="square"/>
</g>
</svg>
