<svg viewBox="0 0 1024 1024" version="1.1" xmlns="http://www.w3.org/2000/svg"><path fill-opacity=".9" fill-rule="evenodd" d="M736 64C824.3655616 64 896 135.63444032 896 224 896 312.36555968 824.3655616 384 736 384 689.7118144 384 648.0145472 364.34395584 618.799696 332.92337536L438.28904512 424.98063296C444.57138048 442.13635584 448 460.66777984 448 480 448 503.99560576 442.71774656 526.75747456 433.25261184 547.18623552L600.12979328 651.464704C628.38155008 606.1527776 678.6694976 576 736 576 824.3655616 576 896 647.6344384 896 736 896 824.3655616 824.3655616 896 736 896 647.6344384 896 576 824.3655616 576 736 576 728.130464 576.56813824 720.3936256 577.66563584 712.828256L395.15868352 598.81682176C366.79349568 624.4151104 329.21677056 640 288 640 199.63444032 640 128 568.36555968 128 480 128 391.63444032 199.63444032 320 288 320 333.91766336 320 375.31761536 339.34262272 404.49634176 370.3243552L585.38537216 278.12192448C579.31025408 261.21802816 576 242.99558976 576 224 576 135.63444032 647.6344384 64 736 64ZM736 640C701.561216 640 671.3579264 658.134272 654.4180864 685.3748352L654.5654912 685.4441472 640.192 731.712 640 736C640 785.9005504 678.0728384 826.9087168 726.75456 831.5605376L736 832C789.0193344 832 832 789.0193344 832 736 832 682.9806656 789.0193344 640 736 640ZM288 384C234.98066432 384 192 426.98066432 192 480 192 533.01933568 234.98066432 576 288 576 341.01933568 576 384 533.01933568 384 480 384 426.98066432 341.01933568 384 288 384ZM736 128C682.9806656 128 640 170.98066432 640 224 640 277.01933568 682.9806656 320 736 320 789.0193344 320 832 277.01933568 832 224 832 170.98066432 789.0193344 128 736 128Z"/></svg>