<svg width="24" height="24" viewBox="0 0 24 24" fill="none" xmlns="http://www.w3.org/2000/svg">
<g id="share">
<g id="fill1">
<path d="M19.4907 7.09662C20.9256 6.2682 21.4172 4.43343 20.5888 2.99855C19.7604 1.56367 17.9256 1.07204 16.4907 1.90047C15.0559 2.7289 14.5642 4.56367 15.3927 5.99855C16.2211 7.43342 18.0559 7.92505 19.4907 7.09662Z" fill="white"/>
<path d="M16.4907 22.0986C17.9256 22.927 19.7604 22.4354 20.5888 21.0005C21.4172 19.5656 20.9256 17.7309 19.4907 16.9024C18.0559 16.074 16.2211 16.5656 15.3927 18.0005C14.5642 19.4354 15.0559 21.2701 16.4907 22.0986Z" fill="white"/>
<path d="M6.5005 14.5966C7.93538 13.7682 8.42701 11.9334 7.59858 10.4985C6.77015 9.06367 4.93538 8.57204 3.5005 9.40047C2.06562 10.2289 1.574 12.0637 2.40242 13.4985C3.23085 14.9334 5.06562 15.4251 6.5005 14.5966Z" fill="white"/>
<path d="M3.5005 14.5985C4.93538 15.4269 6.77015 14.9353 7.59858 13.5004C8.42701 12.0655 7.93538 10.2308 6.5005 9.40233C5.06562 8.5739 3.23085 9.06553 2.40242 10.5004C1.574 11.9353 2.06562 13.7701 3.5005 14.5985Z" fill="white"/>
</g>
<path id="stroke1" d="M7.59863 13.501L15.3929 18.001M7.59863 10.499L15.3929 5.99902M15.3927 5.99855C14.5642 4.56367 15.0559 2.7289 16.4907 1.90047C17.9256 1.07204 19.7604 1.56367 20.5888 2.99855C21.4172 4.43343 20.9256 6.2682 19.4907 7.09662C18.0559 7.92505 16.2211 7.43342 15.3927 5.99855ZM15.3927 18.0005C16.2211 16.5656 18.0559 16.074 19.4907 16.9024C20.9256 17.7309 21.4172 19.5656 20.5888 21.0005C19.7604 22.4354 17.9256 22.927 16.4907 22.0986C15.0559 21.2701 14.5642 19.4354 15.3927 18.0005ZM7.59858 10.4985C8.42701 11.9334 7.93538 13.7682 6.5005 14.5966C5.06562 15.4251 3.23085 14.9334 2.40242 13.4985C1.574 12.0637 2.06562 10.2289 3.5005 9.40047C4.93538 8.57204 6.77015 9.06367 7.59858 10.4985ZM7.59858 13.5004C6.77015 14.9353 4.93538 15.4269 3.5005 14.5985C2.06562 13.7701 1.574 11.9353 2.40242 10.5004C3.23085 9.06553 5.06562 8.5739 6.5005 9.40233C7.93538 10.2308 8.42701 12.0655 7.59858 13.5004Z" stroke="black" stroke-width="2" stroke-linecap="square"/>
</g>
</svg>
