<svg width="16" height="16" viewBox="0 0 16 16" fill="none" xmlns="http://www.w3.org/2000/svg">
<path fill-rule="evenodd" clip-rule="evenodd" d="M11 3.5C11 2.94772 11.4477 2.5 12 2.5C12.5523 2.5 13 2.94772 13 3.5C13 4.05228 12.5523 4.5 12 4.5C11.4477 4.5 11 4.05228 11 3.5ZM12 0.5C10.3431 0.5 9 1.84315 9 3.5C9 3.53284 9.00053 3.56555 9.00157 3.59813L5.39947 5.67781C4.88218 5.25419 4.22078 5 3.5 5C1.84315 5 0.5 6.34315 0.5 8C0.5 9.65685 1.84315 11 3.5 11C4.22075 11 4.88214 10.7458 5.39942 10.3222L9.00157 12.4019C9.00053 12.4345 9 12.4672 9 12.5C9 14.1569 10.3431 15.5 12 15.5C13.6569 15.5 15 14.1569 15 12.5C15 10.8431 13.6569 9.5 12 9.5C11.1011 9.5 10.2946 9.89533 9.74475 10.5216L6.43749 8.61216C6.47847 8.41453 6.5 8.20978 6.5 8C6.5 7.79024 6.47847 7.58551 6.43751 7.3879L9.74478 5.47844C10.2946 6.10469 11.1011 6.5 12 6.5C13.6569 6.5 15 5.15685 15 3.5C15 1.84315 13.6569 0.5 12 0.5ZM2.5 8C2.5 7.44772 2.94772 7 3.5 7C4.05228 7 4.5 7.44772 4.5 8C4.5 8.55228 4.05228 9 3.5 9C2.94772 9 2.5 8.55228 2.5 8ZM12 11.5C11.4477 11.5 11 11.9477 11 12.5C11 13.0523 11.4477 13.5 12 13.5C12.5523 13.5 13 13.0523 13 12.5C13 11.9477 12.5523 11.5 12 11.5Z" fill="black"/>
</svg>
