<svg width="24" height="24" viewBox="0 0 24 24" fill="none" xmlns="http://www.w3.org/2000/svg">
<path d="M15.9908 1.0351C17.904 -0.069468 20.3503 0.586032 21.4549 2.4992C22.5595 4.41237 21.904 6.85874 19.9908 7.9633C18.3767 8.89522 16.383 8.57429 15.1358 7.30222L8.85539 10.9282C8.95382 11.2816 9.00151 11.6421 9.00109 12.0001C9.00151 12.3581 8.95382 12.7187 8.85539 13.072L15.1358 16.698C16.383 15.426 18.3767 15.105 19.9908 16.037C21.904 17.1415 22.5595 19.5879 21.4549 21.5011C20.3503 23.4142 17.904 24.0697 15.9908 22.9652C14.3767 22.0332 13.6578 20.1462 14.1358 18.4301L7.85539 14.8041C6.60823 16.0761 4.61456 16.3971 3.00042 15.4652C2.14307 14.9702 1.53829 14.2057 1.23128 13.3405C1.07488 12.9026 0.999441 12.4494 0.999757 12.0001C0.999441 11.5508 1.07491 11.0975 1.23137 10.6595C1.5384 9.79441 2.14315 9.03005 3.00042 8.5351C4.61456 7.60318 6.60823 7.92412 7.85539 9.19619L14.1358 5.57017C13.6578 3.85406 14.3767 1.96702 15.9908 1.0351ZM19.7229 3.4992C19.1706 2.54262 17.9474 2.21487 16.9908 2.76715C16.0342 3.31944 15.7065 4.54262 16.2588 5.4992C16.811 6.45579 18.0342 6.78354 18.9908 6.23125C19.9474 5.67897 20.2751 4.45579 19.7229 3.4992ZM3.07083 12.5271C3.11516 12.6887 3.18067 12.8473 3.26837 12.9992C3.82066 13.9558 5.04384 14.2835 6.00042 13.7313C6.64118 13.3613 6.99979 12.6904 7.00076 12.0001C6.99979 11.3099 6.64118 10.6389 6.00042 10.269C5.04384 9.71672 3.82066 10.0445 3.26837 11.0011C3.08636 11.3163 2.99993 11.6605 3.00009 12.0001C3.00017 12.1787 3.02419 12.3559 3.07083 12.5271ZM18.9908 17.769C18.0342 17.2167 16.811 17.5445 16.2588 18.5011C15.7065 19.4576 16.0342 20.6808 16.9908 21.2331C17.9474 21.7854 19.1706 21.4576 19.7229 20.5011C20.2751 19.5445 19.9474 18.3213 18.9908 17.769Z" fill="black" fill-opacity="0.9" style="fill:black;fill-opacity:0.9;"/>
</svg>
