<svg width="24" height="24" viewBox="0 0 24 24" fill="none" xmlns="http://www.w3.org/2000/svg">
<g id="shield-error">
<path id="fill1" fill-rule="evenodd" clip-rule="evenodd" d="M3 4.65L3 12C3 19.35 12 22.5 12 22.5C12 22.5 21 19.35 21 12L21 4.65L12 1.5L3 4.65Z" fill="white"/>
<path id="stroke1" fill-rule="evenodd" clip-rule="evenodd" d="M3 4.65L3 12C3 19.35 12 22.5 12 22.5C12 22.5 21 19.35 21 12L21 4.65L12 1.5L3 4.65Z" stroke="black" stroke-width="2" stroke-linecap="square"/>
<path id="stroke2" d="M12 15.5L12 11M12 7.5L11.9961 7.5L11.9961 7.49609L12 7.49609L12 7.5Z" stroke="black" stroke-width="2" stroke-linecap="square"/>
</g>
</svg>
