<svg width="24" height="24" viewBox="0 0 24 24" fill="none" xmlns="http://www.w3.org/2000/svg">
    <path
        d="M12 21.4281C12.0029 21.4269 12.0058 21.4257 12.0087 21.4245C12.2374 21.3312 12.569 21.1881 12.9691 20.9936C13.7718 20.6034 14.8367 20.0126 15.8958 19.2095C18.0335 17.5884 20 15.223 20 12V5.35951L12 2.55951L4 5.35952L4 12C4 15.223 5.96649 17.5884 8.10424 19.2095C9.16325 20.0126 10.2282 20.6034 11.0309 20.9936C11.431 21.1881 11.7626 21.3312 11.9913 21.4245C11.9942 21.4257 11.9971 21.4269 12 21.4281ZM6.89576 20.8031C4.53351 19.0117 2 16.1271 2 12L2 3.94055L12 0.440552L22 3.94055V12C22 16.1271 19.4665 19.0117 17.1042 20.8031C15.9133 21.7063 14.7282 22.3623 13.8434 22.7924C13.3998 23.008 13.0283 23.1685 12.7648 23.2761C12.5127 23.379 12.2569 23.4696 12 23.5595C11.7431 23.4696 11.4873 23.379 11.2352 23.2761C10.9717 23.1685 10.6002 23.008 10.1566 22.7924C9.27184 22.3623 8.08675 21.7063 6.89576 20.8031ZM11 16.5V10H13V16.5H11ZM13 8.50003H10.9961L10.9961 6.49613H13L13 8.50003Z"
        fill="black" />
</svg>