<svg width="24" height="24" viewBox="0 0 24 24" fill="none" xmlns="http://www.w3.org/2000/svg">
<g id="shop-5">
<path id="fill1" d="M20.7432 5.23047C20.9131 5.74027 21.0349 6.28384 20.8916 6.80176C20.7557 7.29287 20.4982 7.73344 20.1533 8.08887L20 8.23633V21H4V8.23633L3.8877 8.12988C3.33963 7.58631 3 6.8329 3 6L4 3H20L20.7432 5.23047Z" fill="white"/>
<path id="fill2" d="M15 14H9V21H15V14Z" fill="white"/>
<path id="stroke2" d="M15 14H9V21H15V14Z" stroke="black" stroke-width="2"/>
<path id="stroke1" d="M3 20H2V22H3V20ZM21 22H22V20H21V22ZM3 6L2.05132 5.68377L2 5.83772V6H3ZM4 3V2H3.27924L3.05132 2.68377L4 3ZM20 3L20.9487 2.68377L20.7208 2H20V3ZM20.7434 5.23025L21.6921 4.91402L21.6921 4.91402L20.7434 5.23025ZM4 8.23611L3.33309 8.98124L4 8.23611ZM20 8.23611L20.6669 8.98124L20.6669 8.98124L20 8.23611ZM20.8917 6.80167L19.9279 6.53505L19.9279 6.53505L20.8917 6.80167ZM4 21V20H3V21V22H4V21ZM4 8.5H3V21H4H5V8.5H4ZM21 21V20H20V21V22H21V21ZM20 8.5H19V21H20H21V8.5H20ZM20 21V20H4V21V22H20V21ZM9 3H8V6H9H10V3H9ZM9 6H8C8 7.10457 7.10457 8 6 8V9V10C8.20914 10 10 8.20914 10 6H9ZM3 6L3.94868 6.31623L4.94868 3.31623L4 3L3.05132 2.68377L2.05132 5.68377L3 6ZM4 3V4H9V3V2H4V3ZM15 3H14V6H15H16V3H15ZM9 3V4H15V3V2H9V3ZM12 9V8C10.8954 8 10 7.10457 10 6H9H8C8 8.20914 9.79086 10 12 10V9ZM12 9V10C14.2091 10 16 8.20914 16 6H15H14C14 7.10457 13.1046 8 12 8V9ZM15 3V4H20V3V2H15V3ZM18 9V8C16.8954 8 16 7.10457 16 6H15H14C14 8.20914 15.7909 10 18 10V9ZM20 3L19.0513 3.31623L19.7947 5.54648L20.7434 5.23025L21.6921 4.91402L20.9487 2.68377L20 3ZM6 9V8C5.48712 8 5.02142 7.80826 4.66691 7.49097L4 8.23611L3.33309 8.98124C4.0401 9.61403 4.97617 10 6 10V9ZM4 8.23611L4.66691 7.49097C4.25615 7.12333 4 6.59224 4 6H3H2C2 7.18476 2.51635 8.25024 3.33309 8.98124L4 8.23611ZM18 9V10C19.0238 10 19.9599 9.61403 20.6669 8.98124L20 8.23611L19.3331 7.49097C18.9786 7.80826 18.5129 8 18 8V9ZM20 8.23611L20.6669 8.98124C21.2282 8.47887 21.6479 7.81875 21.8555 7.06828L20.8917 6.80167L19.9279 6.53505C19.8249 6.90744 19.6157 7.23801 19.3331 7.49097L20 8.23611ZM20.7434 5.23025L19.7947 5.54648C19.9537 6.02326 19.987 6.32154 19.9279 6.53505L20.8917 6.80167L21.8555 7.06828C22.083 6.24588 21.8731 5.45691 21.6921 4.91402L20.7434 5.23025Z" fill="black"/>
</g>
</svg>
