<svg width="24" height="24" viewBox="0 0 24 24" fill="none" xmlns="http://www.w3.org/2000/svg">
<g id="shop-1">
<path id="fill1" d="M21 3H3V21H21V3Z" fill="white"/>
<g id="fill2">
<path d="M9 6V3H3V6C3 7.65685 4.34315 9 6 9C7.65685 9 9 7.65685 9 6Z" fill="white"/>
<path d="M9 6V3H15V6C15 7.65685 13.6569 9 12 9C10.3431 9 9 7.65685 9 6Z" fill="white"/>
<path d="M15 6V3H21V6C21 7.65686 19.6569 9 18 9C16.3431 9 15 7.65685 15 6Z" fill="white"/>
<path d="M15 14H9V21H15V14Z" fill="white"/>
</g>
<path id="stroke2" d="M9 3V6M9 3H3V6C3 7.65685 4.34315 9 6 9C7.65685 9 9 7.65685 9 6M9 3H15M9 6C9 7.65685 10.3431 9 12 9C13.6569 9 15 7.65685 15 6M15 3V6M15 3H21V6C21 7.65686 19.6569 9 18 9C16.3431 9 15 7.65685 15 6M9 14H15V21H9V14Z" stroke="black" stroke-width="2"/>
<path id="stroke1" d="M21 3H3V21H21V3Z" stroke="black" stroke-width="2"/>
</g>
</svg>
