<svg viewBox="0 0 1024 1024" version="1.1" xmlns="http://www.w3.org/2000/svg"><path fill-opacity=".9" fill-rule="evenodd" d="M776.5039488 128C811.1287488 128 841.8112576 145.87240896 852.4900288 172.26151488L956.0844736 428.26151488C969.690624 461.8846912 946.7004544 497.97888192 904.7345024 508.88014656 901.8558272 509.62792448 898.9305792 510.24296384 895.9731456 510.72344256 895.994784 511.13038336 896 511.56468416 896 512L896 832C896 867.3462208 861.6154688 896 819.2 896L204.8 896C162.3845312 896 128 867.3462208 128 832L128 512 128.0652544 510.74584768C91.52386944 504.86599872 64 479.0082784 64 448 64 440.82209728 65.50710464 433.69533376 68.45822464 426.91804096L179.93146304 170.91804096C191.1226528 145.21730112 221.37940032 128 255.35329088 128L776.5039488 128ZM407.48667392 520.78416192C378.8976032 547.44841024 340.461696 563.83463104 298.19858176 563.83463104 253.385744 563.83463104 216.96825408 547.37504896 191.95605312 525.56974208L192 832 832.0192192 832 832.1466112 531.46130496C805.2386432 553.78286144 766.5339712 566.11634496 721.6875776 566.11634496 680.2556544 566.11634496 642.5018816 550.36832512 614.08544832 524.53148096 586.56203968 547.0676352 551.37974208 560.54614528 513.0493696 560.54614528 472.6009952 560.54614528 435.65821056 545.5369312 407.48667392 520.78416192ZM896 448L787.8784768 192 244.28540416 192 128 448 212.9511872 448.02396608C228.94048 478.80681152 261.11387584 499.83463104 298.19858176 499.83463104 325.168544 499.83463104 349.54092928 488.71308288 366.97975104 470.80597504L367.30664064 470.63476544C374.87695296 461.64322944 386.4965472 447.02726208 402.16542208 426.78686336 419.96669696 442.4024128 430.94463808 456.15648576 444.9189984 467.6809888L444.83382464 467.95204928C461.84918144 485.33093504 485.53394816 496.19180288 511.75765056 496.537632L513.0493696 496.54614528 518.59119744 496.22686336 519.104 496.192 513.0493696 496.54614528 519.232 496.192 519.744 496.192 521.152 496.064 521.088 496.128 523.28385728 496.00702528C543.46019584 493.86881472 561.77111872 485.48036992 576.24382464 472.81449408 589.78436864 461.28666048 602.41593536 446.02665664 614.03224192 426.78686336 626.79594176 445.33678912 639.23979456 460.36160576 651.3638016 471.86131456L655.104 475.136 655.488 475.456 656.704 476.544 656.768 476.608 660.1281984 479.69682624C663.8083904 482.80002816 667.728128 485.62864192 671.8557056 488.15202048 679.2162496 492.80440064 686.4086848 496.08027456 693.4772608 497.99112384 693.813888 498.00412032 694.14976 498.10535168 694.4864064 498.20478208 695.4261824 498.491904 696.356704 498.70330944 697.2850688 498.89086912 705.061376 501.02711296 713.2472768 502.11634496 721.6875776 502.11634496 761.114208 502.11634496 793.912256 480.78478272 808.1379008 448.0449184L831.8462144 448.03343296C831.8436096 447.99323584 831.8409728 447.9531232 831.8383104 447.91309504L866.56 447.936 871.9352 447.97014464 896 448Z"/></svg>