<svg width="24" height="24" viewBox="0 0 24 24" fill="none" xmlns="http://www.w3.org/2000/svg">
    <path
        d="M20.7809 8.13243C22.1181 6.79523 22.1181 4.62721 20.7809 3.29001C19.4437 1.9528 17.2757 1.95281 15.9385 3.29002L14.1903 5.03826L12.9047 3.75266L11.4904 5.16687L12.776 6.45248L2.07178 17.1569L2.07178 21.9993H6.91421L17.6185 11.2949L18.904 12.5805L20.3183 11.1663L19.0327 9.88069L20.7809 8.13243ZM16.2043 9.88069L6.08578 19.9993H4.07178L4.07178 17.9853L14.1903 7.86669L16.2043 9.88069ZM15.6045 6.45247L17.3527 4.70423C17.9088 4.14807 18.8105 4.14807 19.3667 4.70422C19.9229 5.26037 19.9229 6.16207 19.3667 6.71822L17.6185 8.46647L15.6045 6.45247Z"
        fill="black" />
</svg>