<svg width="24" height="24" viewBox="0 0 24 24" fill="none" xmlns="http://www.w3.org/2000/svg">
<g id="slice" clip-path="url(#clip0_2332_2301)">
<path id="fill1" d="M2.5 20.5L13 10V17V18.5C13 19.6046 12.1046 20.5 11 20.5H2.5Z" fill="white"/>
<path id="fill2" d="M13 17L22.25 7.75C23.2165 6.7835 23.2165 5.2165 22.25 4.25C21.2835 3.2835 19.7165 3.2835 18.75 4.25L13 10L13 17Z" fill="white"/>
<path id="stroke1" d="M13 17.0003L22.25 7.75026C23.2165 6.78377 23.2165 5.21676 22.25 4.25026C21.2835 3.28377 19.7165 3.28377 18.75 4.25026L13 10.0003M13 17.0003V10.0003M13 17.0003L13 18.5003C13 19.6048 12.1046 20.5003 11 20.5003H2.5L13 10.0003" stroke="black" stroke-width="2"/>
</g>
<defs>
<clipPath id="clip0_2332_2301">
<rect width="24" height="24" fill="white"/>
</clipPath>
</defs>
</svg>
