<svg width="16" height="16" viewBox="0 0 16 16" fill="none" xmlns="http://www.w3.org/2000/svg">
<path fill-rule="evenodd" clip-rule="evenodd" d="M3.63044 6.5H3H2V9.5H3H3.63044L4.14692 9.86154L6 11.1587V4.84131L4.14692 6.13846L3.63044 6.5ZM6 2.4L3 4.5H2H0V6.5V9.5V11.5H2H3L6 13.6L8 15V12.5587V3.44131V1L6 2.4ZM13.5056 5.61491C13.1797 4.86279 12.7033 4.18541 12.1055 3.62455L13.474 2.16606C14.271 2.91387 14.9063 3.81705 15.3408 4.81988C15.7752 5.82271 15.9996 6.90391 16 7.9968C16.0004 9.08969 15.7769 10.1711 15.3433 11.1742C14.9097 12.1774 14.2751 13.0811 13.4787 13.8296L12.109 12.3722C12.7063 11.8108 13.1823 11.1331 13.5075 10.3807C13.8327 9.6283 14.0003 8.81726 14 7.9976C13.9997 7.17794 13.8314 6.36703 13.5056 5.61491ZM8.78382 5.51533C9.1494 5.82936 9.44618 6.2155 9.65558 6.64956C9.86498 7.08363 9.98248 7.55626 10.0007 8.03784C10.019 8.51943 9.93754 8.9996 9.76157 9.44825C9.5856 9.89691 9.31887 10.3044 8.9781 10.6452L10.3923 12.0594C10.9278 11.5239 11.347 10.8835 11.6235 10.1785C11.9 9.47348 12.0279 8.71894 11.9993 7.96216C11.9706 7.20538 11.786 6.46267 11.4569 5.78057C11.1279 5.09847 10.6615 4.49167 10.087 3.9982L8.78382 5.51533Z" fill="black"/>
</svg>
