<svg width="24" height="24" viewBox="0 0 24 24" fill="none" xmlns="http://www.w3.org/2000/svg">
<path d="M15.0001 1.29053V22.71L5.73703 17.5003L1.00013 17.5003L1.00012 6.50025H5.73703L15.0001 1.29053ZM4.99894 8.50025H3.00012L3.00012 15.5003L4.99894 15.5003L4.99894 8.50025ZM6.99894 15.9154L13.0001 19.2905V4.70998L6.99894 8.08514V15.9154ZM20.9793 6.98204L21.5819 7.78005C22.5 8.99571 22.9964 10.4777 22.9959 12.001C22.9953 13.5244 22.4979 15.006 21.579 16.2211L20.9758 17.0186L19.3806 15.8122L19.9838 15.0146C20.6402 14.1468 20.9955 13.0885 20.9959 12.0004C20.9963 10.9122 20.6417 9.85368 19.9859 8.98535L19.3832 8.18734L20.9793 6.98204ZM18.1865 9.09117L18.7892 9.88918C19.2482 10.497 19.4964 11.238 19.4962 11.9997C19.4959 12.7614 19.2472 13.5022 18.7877 14.1097L18.1845 14.9073L16.5893 13.7009L17.1925 12.9033C17.3895 12.6429 17.4961 12.3254 17.4962 11.999C17.4963 11.6725 17.3899 11.355 17.1932 11.0945L16.5905 10.2965L18.1865 9.09117Z" fill="black" fill-opacity="0.9" style="fill:black;fill-opacity:0.9;"/>
</svg>
