<svg width="24" height="24" viewBox="0 0 24 24" fill="none" xmlns="http://www.w3.org/2000/svg">
<g id="sun-rising">
<path id="stroke1" d="M4.92969 8.34195L5.63679 9.04905L7.05101 7.63484L6.3439 6.92773L4.92969 8.34195ZM5.63679 6.22063L4.92969 5.51352L3.51547 6.92773L4.22258 7.63484L5.63679 6.22063ZM13 4V3H11V4H13ZM11 5V6H13V5H11ZM19.7775 7.63484L20.4846 6.92773L19.0704 5.51352L18.3633 6.22063L19.7775 7.63484ZM17.6562 6.92774L16.9491 7.63484L18.3633 9.04906L19.0704 8.34195L17.6562 6.92774ZM22 15H23V13H22V15ZM21 13H20V15H21V13ZM3 15H4V13H3V15ZM2 13H1V15H2V13ZM7 14H8C8 11.7909 9.79086 10 12 10V9V8C8.68629 8 6 10.6863 6 14H7ZM12 9V10C14.2091 10 16 11.7909 16 14H17H18C18 10.6863 15.3137 8 12 8V9ZM7 15H8V14H7H6V15H7ZM17 15H18V14H17H16V15H17ZM5.63679 7.63484L6.3439 6.92773L5.63679 6.22063L4.92969 6.92773L4.22258 7.63484L4.92969 8.34195L5.63679 7.63484ZM12 4H11V5H12H13V4H12ZM19.0704 6.92773L18.3633 6.22063L17.6562 6.92774L18.3633 7.63484L19.0704 8.34195L19.7775 7.63484L19.0704 6.92773ZM22 14V13H21V14V15H22V14ZM3 14V13H2V14V15H3V14Z" fill="black"/>
<path id="stroke2" d="M22 19H15L12 17L9 19H2" stroke="black" stroke-width="2" stroke-linecap="square"/>
</g>
</svg>
