<svg width="24" height="24" viewBox="0 0 24 24" fill="none" xmlns="http://www.w3.org/2000/svg">
<g id="sunny">
<path id="fill1" d="M17 12C17 14.7614 14.7614 17 12 17C9.23858 17 7 14.7614 7 12C7 9.23858 9.23858 7 12 7C14.7614 7 17 9.23858 17 12Z" fill="white"/>
<path id="stroke1" d="M17 12C17 14.7614 14.7614 17 12 17C9.23858 17 7 14.7614 7 12C7 9.23858 9.23858 7 12 7C14.7614 7 17 9.23858 17 12Z" stroke="black" stroke-width="2"/>
<path id="stroke2" d="M12 21V22M12 2V3M3 12H2M22 12H21M5.63603 18.3635L4.92892 19.0706M19.0711 4.92848L18.364 5.63559M5.63601 5.63563L4.9289 4.92852M19.071 19.0707L18.3639 18.3636" stroke="black" stroke-width="2" stroke-linecap="square"/>
</g>
</svg>
