<svg width="24" height="24" viewBox="0 0 24 24" fill="none" xmlns="http://www.w3.org/2000/svg">
    <g id="support">
        <g id="fill1">
            <path
                d="M4.92893 4.92969C1.02369 8.83493 1.02369 15.1666 4.92893 19.0718L9.17157 14.8292C7.60948 13.2671 7.60948 10.7344 9.17157 9.17233L4.92893 4.92969Z"
                fill="white" />
            <path
                d="M19.0711 19.0718C22.9763 15.1666 22.9763 8.83493 19.0711 4.92969L14.8284 9.17233C16.3905 10.7344 16.3905 13.2671 14.8284 14.8292L19.0711 19.0718Z"
                fill="white" />
        </g>
        <g id="fill2">
            <path
                d="M4.92871 19.0711C8.83396 22.9763 15.1656 22.9763 19.0708 19.0711L14.8282 14.8284C13.2661 16.3905 10.7335 16.3905 9.17135 14.8284L4.92871 19.0711Z"
                fill="white" />
            <path
                d="M19.0708 4.92893C15.1656 1.02369 8.83395 1.02369 4.92871 4.92893L9.17135 9.17157C10.7335 7.60948 13.2661 7.60948 14.8282 9.17157L19.0708 4.92893Z"
                fill="white" />
        </g>
        <g id="stroke2">
            <path
                d="M4.92871 19.0711C8.83396 22.9763 15.1656 22.9763 19.0708 19.0711L14.8282 14.8284C13.2661 16.3905 10.7335 16.3905 9.17135 14.8284L4.92871 19.0711Z"
                stroke="black" stroke-width="2" />
            <path
                d="M19.0708 4.92893C15.1656 1.02369 8.83395 1.02369 4.92871 4.92893L9.17135 9.17157C10.7335 7.60948 13.2661 7.60948 14.8282 9.17157L19.0708 4.92893Z"
                stroke="black" stroke-width="2" />
        </g>
        <g id="stroke1">
            <path
                d="M4.92893 4.92969C1.02369 8.83493 1.02369 15.1666 4.92893 19.0718L9.17157 14.8292C7.60948 13.2671 7.60948 10.7344 9.17157 9.17233L4.92893 4.92969Z"
                stroke="black" stroke-width="2" />
            <path
                d="M19.0711 19.0718C22.9763 15.1666 22.9763 8.83493 19.0711 4.92969L14.8284 9.17233C16.3905 10.7344 16.3905 13.2671 14.8284 14.8292L19.0711 19.0718Z"
                stroke="black" stroke-width="2" />
        </g>
    </g>
</svg>