<svg width="24" height="24" viewBox="0 0 24 24" fill="none" xmlns="http://www.w3.org/2000/svg">
<g id="surprised-1">
<path id="fill1" d="M22 12C22 17.5228 17.5228 22 12 22C6.47715 22 2 17.5228 2 12C2 6.47715 6.47715 2 12 2C17.5228 2 22 6.47715 22 12Z" fill="white"/>
<path id="fill2" d="M14 15.5C14 16.8807 13.1046 18 12 18C10.8954 18 10 16.8807 10 15.5C10 14.1193 10.8954 13 12 13C13.1046 13 14 14.1193 14 15.5Z" fill="white"/>
<path id="stroke1" d="M22 12C22 17.5228 17.5228 22 12 22C6.47715 22 2 17.5228 2 12C2 6.47715 6.47715 2 12 2C17.5228 2 22 6.47715 22 12Z" stroke="black" stroke-width="2"/>
<path id="stroke2" d="M16 9V11M8 9V11M14 15.5C14 16.8807 13.1046 18 12 18C10.8954 18 10 16.8807 10 15.5C10 14.1193 10.8954 13 12 13C13.1046 13 14 14.1193 14 15.5Z" stroke="black" stroke-width="2" stroke-linecap="square"/>
</g>
</svg>
