<svg viewBox="0 0 1024 1024" version="1.1" xmlns="http://www.w3.org/2000/svg"><path fill-opacity=".9" fill-rule="evenodd" d="M128 608L128.01414656 607.2550528 128.01414656 607.2550528 128.07851648 606.54879168C128.11752448 605.6501152 128.19421184 604.75276992 128.27110272 603.81568064 128.40980736 602.75358912 128.60059328 601.70787136 128.87106048 600.71602112 129.02597632 600.04501312 129.20276736 599.37803136 129.37218048 598.70062592 129.68148032 597.6805984 130.04034048 596.68212096 130.47568704 595.69761856 130.8099552 594.88959424 131.17874496 594.0924864 131.55229888 593.33180608 132.04394368 592.38023104 132.58193152 591.45648576 133.17740992 590.55596672L133.17740992 590.55596672 134.72 588.37871872 137.42081024 585.31767936 135.14042816 587.8510592 135.14042816 587.8510592 135.45543232 587.46677824 136.53438656 586.24283904 138.24283904 584.53438656C139.11035968 583.72965056 140.02258048 582.97243136 140.97961408 582.24177664 141.54975296 581.81770112 142.1308 581.41504576 142.71318528 581.06645184 143.48073152 580.57279616 144.27075072 580.11105344 145.08536128 579.64920704 146.0962848 579.1142048 147.12984448 578.63715648 148.16918592 578.25814784 148.67288064 578.05761152 149.1828704 577.8695008 149.71771072 577.65088384 151.02229568 577.20710592 152.34983168 576.84991808 153.65714624 576.62857024L153.65714624 576.62857024 156.544 576.15471872 156.78304128 576.15968896 160 576 896 576 896 640 237.376 640.043264 431.57723136 834.219264 386.32239744 879.4740992 137.24138368 630.40472064 137.24138368 630.40472064C135.90841536 629.12588928 134.85353664 627.86052864 133.95184512 626.47355904 133.78612928 626.24074944 133.62390272 626.00621888 133.41044992 625.8103488 132.66851648 624.70488576 131.99369664 623.55060224 131.44871744 622.31948608 131.13840896 621.70233536 130.8493376 621.07723648 130.528576 620.48855616 130.03435072 619.32370496 129.60716864 618.1235232 129.30549248 616.84808256 129.17566208 616.3982528 129.05588736 615.94613504 128.891808 615.53341824 128.3088544 613.11758656 128 610.59486144 128 608L128.16246912 610.65493952 128.16246912 610.65493952 128.256 611.80271872 128.064 609.37071872 128 608ZM637.88251072 108.50671872L886.784096 357.40830528C894.4210176 365.04522496 897.3909312 375.58185024 895.6589376 385.47254912 895.5538496 386.18831744 895.425056 386.89638208 895.2587392 387.58270912L895.2587392 387.58270912 894.977888 388.83791936C891.4067712 402.612288 878.891232 412.78383808 864 412.78383808L864 412.78383808 128 412.78383808 128 348.78383808 787.664064 348.76271872 592.6276768 153.76155264 637.88251072 108.50671872Z"/></svg>