<svg width="24" height="24" viewBox="0 0 24 24" fill="none" xmlns="http://www.w3.org/2000/svg">
<g id="swear-1">
<path id="fill1" d="M22 12C22 17.5228 17.5228 22 12 22C6.47715 22 2 17.5228 2 12C2 6.47715 6.47715 2 12 2C17.5228 2 22 6.47715 22 12Z" fill="white"/>
<path id="fill2" d="M9 17C9.34387 15.2748 10.5566 14 12 14C13.4434 14 14.6561 15.2748 15 17H9Z" fill="white"/>
<path id="stroke1" d="M22 12C22 17.5228 17.5228 22 12 22C6.47715 22 2 17.5228 2 12C2 6.47715 6.47715 2 12 2C17.5228 2 22 6.47715 22 12Z" stroke="black" stroke-width="2" stroke-linecap="square"/>
<path id="stroke2" d="M16.8668 9.5L15.1348 10.5M8.86682 10.5L7.13477 9.5M12 14C10.5566 14 9.34387 15.2748 9 17H15C14.6561 15.2748 13.4434 14 12 14Z" stroke="black" stroke-width="2" stroke-linecap="square"/>
</g>
</svg>
