<svg width="24" height="24" viewBox="0 0 24 24" fill="none" xmlns="http://www.w3.org/2000/svg">
<path d="M13.2723 1V3.65018L19.8855 7.53907V15.2847L22.3503 16.58L21.4199 18.3504L18.9129 17.0329L13.2723 20.3498V23H11.2723V20.3498L5.58313 17.0044L2.46275 18.3082L1.69165 16.4629L4.65898 15.223V7.53907L11.2723 3.65018V1H13.2723ZM12.2723 5.38231L7.63181 8.11109L12.2726 10.8399L16.9128 8.11113L12.2723 5.38231ZM17.8855 9.85928L13.2726 12.572L13.2723 18.0296L17.8855 15.3168V9.85928ZM11.2723 18.0297L11.2726 12.572L6.65898 9.85919V15.3168L11.2723 18.0297Z" fill="black" fill-opacity="0.9" style="fill:black;fill-opacity:0.9;"/>
</svg>
