<svg width="24" height="24" viewBox="0 0 24 24" fill="none" xmlns="http://www.w3.org/2000/svg">
<g id="system-3">
<g id="fill1">
<path d="M16.9229 21H21V16.9229C21 15.3113 19.6888 14 18.0771 14H14V18.0772C14 19.6887 15.3112 21 16.9229 21Z" fill="white"/>
<path d="M7.07713 21H3V16.9229C3 15.3113 4.31124 14 5.92287 14H10V18.0772C10 19.6887 8.68876 21 7.07713 21Z" fill="white"/>
<path d="M16.9229 3H21V7.07705C21 8.68873 19.6888 10 18.0771 10H14V5.92277C14 4.31127 15.3112 3 16.9229 3Z" fill="white"/>
<path d="M7.07713 3H3V7.07705C3 8.68873 4.31124 10 5.92287 10H10V5.92277C10 4.31127 8.68876 3 7.07713 3Z" fill="white"/>
</g>
<g id="stroke1">
<path d="M16.9229 21H21V16.9229C21 15.3113 19.6888 14 18.0771 14H14V18.0772C14 19.6887 15.3112 21 16.9229 21Z" stroke="black" stroke-width="2"/>
<path d="M7.07713 21H3V16.9229C3 15.3113 4.31124 14 5.92287 14H10V18.0772C10 19.6887 8.68876 21 7.07713 21Z" stroke="black" stroke-width="2"/>
<path d="M16.9229 3H21V7.07705C21 8.68873 19.6888 10 18.0771 10H14V5.92277C14 4.31127 15.3112 3 16.9229 3Z" stroke="black" stroke-width="2"/>
<path d="M7.07713 3H3V7.07705C3 8.68873 4.31124 10 5.92287 10H10V5.92277C10 4.31127 8.68876 3 7.07713 3Z" stroke="black" stroke-width="2"/>
</g>
</g>
</svg>
