<svg width="24" height="24" viewBox="0 0 24 24" fill="none" xmlns="http://www.w3.org/2000/svg">
<path d="M1 1H23V10.5H21V3H3V16H11.5V18H1V1ZM2.25 21H11.5V23H2.25V21Z" fill="black"/>
<path fill-rule="evenodd" clip-rule="evenodd" d="M19.4999 12.25V13.626C20.2149 13.81 20.8525 14.1867 21.354 14.6975L22.5466 14.009L23.5466 15.741L22.355 16.429C22.4494 16.7699 22.4999 17.129 22.4999 17.5C22.4999 17.871 22.4494 18.2301 22.355 18.571L23.5466 19.259L22.5466 20.991L21.354 20.3025C20.8525 20.8133 20.2149 21.19 19.4999 21.374V22.75H17.4999V21.374C16.785 21.19 16.1474 20.8133 15.6458 20.3025L14.4533 20.991L13.4533 19.259L14.6449 18.571C14.5504 18.2301 14.4999 17.871 14.4999 17.5C14.4999 17.129 14.5504 16.7699 14.6449 16.429L13.4533 15.741L14.4533 14.009L15.6458 14.6975C16.1474 14.1867 16.785 13.81 17.4999 13.626V12.25H19.4999ZM16.7487 16.5333L16.7852 16.47C17.1351 15.8888 17.7721 15.5 18.4999 15.5C19.2278 15.5 19.8648 15.8888 20.2147 16.47L20.2512 16.5332C20.4097 16.8198 20.4999 17.1493 20.4999 17.5C20.4999 17.8507 20.4097 18.1802 20.2512 18.4668L20.2147 18.53C19.8648 19.1112 19.2278 19.5 18.4999 19.5C17.7721 19.5 17.1351 19.1112 16.7852 18.53L16.7487 18.4667C16.5902 18.1802 16.4999 17.8506 16.4999 17.5C16.4999 17.1494 16.5902 16.8198 16.7487 16.5333Z" fill="black"/>
</svg>
