<svg width="24" height="24" viewBox="0 0 24 24" fill="none" xmlns="http://www.w3.org/2000/svg">
<g id="system-sum">
<g id="stroke1">
<path d="M15.2438 15.404C10.408 20.2398 4.96332 22.6354 3.08273 20.7549C1.20214 18.8743 3.59781 13.4296 8.43361 8.59377C13.2694 3.75797 18.7141 1.3623 20.5947 3.24289C22.4753 5.12348 20.0796 10.5682 15.2438 15.404Z" stroke="black" stroke-width="2"/>
<path d="M8.4341 15.404C13.2699 20.2398 18.7146 22.6354 20.5952 20.7549C22.4758 18.8743 20.0801 13.4296 15.2443 8.59377C10.4085 3.75797 4.96381 1.3623 3.08322 3.24289C1.20263 5.12348 3.5983 10.5682 8.4341 15.404Z" stroke="black" stroke-width="2"/>
</g>
<path id="stroke2" d="M12 12H12.0039V12.0039H12V12Z" stroke="black" stroke-width="2"/>
</g>
</svg>
