<svg width="24" height="24" viewBox="0 0 24 24" fill="none" xmlns="http://www.w3.org/2000/svg">
<g id="table-split">
<path id="fill1" d="M21 7H3V21H21V7Z" fill="white"/>
<path id="fill2" d="M3 3H21V7H3V3Z" fill="white"/>
<path id="stroke1" d="M21 7H12M21 7V21H3V7M21 7V3H3V7M21 7H3M12 7H3M12 7V3" stroke="black" stroke-width="2" stroke-linecap="square"/>
<g id="stroke2">
<path d="M5.99805 13.998H6.00195V14.002H5.99805V13.998Z" stroke="black" stroke-width="2"/>
<path d="M8.99805 13.998H9.00195V14.002H8.99805V13.998Z" stroke="black" stroke-width="2"/>
<path d="M11.998 10.998H12.002V11.002H11.998V10.998Z" stroke="black" stroke-width="2"/>
<path d="M11.998 13.998H12.002V14.002H11.998V13.998Z" stroke="black" stroke-width="2"/>
<path d="M14.998 13.998H15.002V14.002H14.998V13.998Z" stroke="black" stroke-width="2"/>
<path d="M17.998 13.998H18.002V14.002H17.998V13.998Z" stroke="black" stroke-width="2"/>
<path d="M11.998 16.998H12.002V17.002H11.998V16.998Z" stroke="black" stroke-width="2"/>
</g>
</g>
</svg>
