<svg width="24" height="24" viewBox="0 0 24 24" fill="none" xmlns="http://www.w3.org/2000/svg">
    <path
        d="M16.4105 2.99615L14.8682 4.5472C15.3508 4.54298 15.8418 4.58658 16.2822 4.71611C17.8307 5.17157 19.2863 5.97258 20.3475 7.3496C21.4109 8.72948 21.9988 10.5846 22 12.9994C22.0015 16.0115 20.8903 18.3107 19.0045 19.8345C17.1497 21.3332 14.6523 21.9973 12 21.9973C9.34671 21.9973 6.84999 21.3299 4.99588 19.8298C3.11121 18.305 1.9998 16.0065 2 12.9998C2.00016 10.5948 2.56694 8.73845 3.62223 7.35457C4.67724 5.97106 6.13837 5.16753 7.72517 4.71398C7.73693 4.71061 7.74873 4.70731 7.76057 4.70407L4.65671 2.89842C5.52078 2.67115 6.37915 2.40189 7.25539 2.22423C7.40643 2.1936 7.61807 2.15588 7.87079 2.12497C8.36798 2.06417 9.06306 2.02476 9.78233 2.13936C10.4985 2.25346 11.32 2.53394 11.9664 3.18304C12.2085 3.42613 12.411 3.70572 12.5707 4.02127L14.9923 1.58594L16.4105 2.99615ZM12.0019 7.05642C11.8765 7.01956 11.7514 6.98124 11.6252 6.94695C11.5599 6.9292 11.4629 6.90365 11.3412 6.87391C11.0967 6.81419 10.7575 6.73884 10.3786 6.67583C9.57039 6.54148 8.76544 6.49673 8.27482 6.63697C6.97442 7.00866 5.9357 7.61906 5.21259 8.56732C4.48976 9.51522 4.00014 10.9085 4 13C3.99983 15.4701 4.88842 17.1702 6.25384 18.2749C7.64983 19.4044 9.65329 19.9973 12 19.9973C14.3477 19.9973 16.3517 19.4067 17.7475 18.2788C19.1124 17.176 20.0012 15.4764 20 13.0004C19.9989 10.913 19.4952 9.52011 18.7633 8.57044C18.0293 7.61792 16.986 7.00783 15.7178 6.63483C15.2331 6.49227 14.4326 6.53563 13.624 6.67137C13.2455 6.73493 12.9065 6.81116 12.6621 6.87163C12.5404 6.90173 12.4434 6.92762 12.3782 6.94559C12.2521 6.9803 12.1272 7.0191 12.0019 7.05642ZM8 8H10.0039V10.0039H8V8ZM6 11H8.00391V13.0039H6V11ZM8 14H10.0039V16.0039H8V14Z"
        fill="black" />
</svg>