<svg width="24" height="24" viewBox="0 0 24 24" fill="none" xmlns="http://www.w3.org/2000/svg">
    <path
        d="M10.9999 2V7H8.99992V2H10.9999ZM6.99992 3V7H4.99992V3H6.99992ZM14.9999 3V7H12.9999V3H14.9999ZM2.92627 8H20.9999V13C20.9999 15.2091 19.2091 17 16.9999 17H16.0664C15.528 18.2443 14.6194 19.2901 13.4839 20H19.9999V22H2.99992V20H6.50542C4.79692 18.9327 3.60506 17.1027 3.42151 14.9613L3.42089 14.9541L2.92627 8ZM16.5749 15H16.9999C18.1045 15 18.9999 14.1046 18.9999 13V10H16.9313L16.579 14.9541L16.5783 14.9613C16.5772 14.9742 16.5761 14.9871 16.5749 15ZM14.9263 10H5.07358L5.4148 14.7974C5.62211 17.1749 7.61268 19 9.99992 19C12.0581 19 13.8355 17.6205 14.4119 15.711C14.5009 15.4162 14.5566 15.1245 14.585 14.7975L14.9263 10Z"
        fill="black" />
</svg>