<svg width="24" height="24" viewBox="0 0 24 24" fill="none" xmlns="http://www.w3.org/2000/svg">
<g id="thumb-up">
<path id="fill1" d="M8 11L11.5 2.5L11.9932 2.5822C13.4398 2.82329 14.5 4.07486 14.5 5.54138V9H20.8195C21.4375 9 21.9075 9.55487 21.8059 10.1644L20.1393 20.1644C20.0589 20.6466 19.6417 21 19.1529 21H8V11Z" fill="white"/>
<path id="stroke1" d="M3 21V11M8 11V21H19.1529C19.6417 21 20.0589 20.6466 20.1393 20.1644L21.8059 10.1644C21.9075 9.55487 21.4375 9 20.8195 9H14.5V5.54138C14.5 4.07486 13.4398 2.82329 11.9932 2.5822L11.5 2.5L8 11Z" stroke="black" stroke-width="2" stroke-linecap="square"/>
</g>
</svg>
