<svg width="24" height="24" viewBox="0 0 24 24" fill="none" xmlns="http://www.w3.org/2000/svg">
    <path
        d="M13.4451 22.2358L11.7299 21.6641C10.2191 21.1605 9.19999 19.7465 9.19999 18.154V15.7H5.33121C3.49256 15.7 2.08651 14.0611 2.3661 12.2438L3.55071 4.54383C3.77586 3.08034 5.03511 2 6.51582 2H22V13.9H17.1499L13.4451 22.2358ZM17.5 11.9H20V4H17.5V11.9ZM15.5 4H6.51582C6.02225 4 5.6025 4.36011 5.52745 4.84794L4.34284 12.5479C4.24964 13.1537 4.71832 13.7 5.33121 13.7H11.2V18.154C11.2 18.883 11.6649 19.5306 12.3549 19.7642L15.5 12.6878V4Z"
        fill="black" />
</svg>