<svg width="24" height="24" viewBox="0 0 24 24" fill="none" xmlns="http://www.w3.org/2000/svg">
<g id="thumb-down">
<path id="fill1" d="M8 13L11.5 21.5L11.9932 21.4178C13.4398 21.1767 14.5 19.9251 14.5 18.4586V15H20.8195C21.4375 15 21.9075 14.4451 21.8059 13.8356L20.1393 3.8356C20.0589 3.35341 19.6417 3 19.1529 3H8V13Z" fill="white"/>
<path id="stroke1" d="M3 3V13M8 13V3H19.1529C19.6417 3 20.0589 3.35341 20.1393 3.8356L21.8059 13.8356C21.9075 14.4451 21.4375 15 20.8195 15H14.5V18.4586C14.5 19.9251 13.4398 21.1767 11.9932 21.4178L11.5 21.5L8 13Z" stroke="black" stroke-width="2" stroke-linecap="square"/>
</g>
</svg>
