<svg width="24" height="24" viewBox="0 0 24 24" fill="none" xmlns="http://www.w3.org/2000/svg">
<g id="thunderstorm-sunny">
<path id="fill2" d="M15.4994 11.3333C15.4745 11.3333 15.4496 11.3335 15.4248 11.3339C15.071 9.30142 13.4927 7.66862 11.4453 7.16283C12.1108 5.878 13.4526 5 14.9994 5C17.2085 5 18.9994 6.79086 18.9994 9C18.9994 10.1467 18.5169 11.1807 17.7438 11.91C17.0832 11.5432 16.3167 11.3333 15.4994 11.3333Z" fill="white"/>
<path id="stroke2" d="M10.4997 22L13.022 18H9.02148L11.4997 14M15.4248 11.3339C15.4496 11.3335 15.4745 11.3333 15.4994 11.3333C16.3167 11.3333 17.0832 11.5432 17.7438 11.91C18.5169 11.1807 18.9994 10.1467 18.9994 9C18.9994 6.79086 17.2085 5 14.9994 5C13.4526 5 12.1108 5.878 11.4453 7.16283C13.4927 7.66862 15.071 9.30142 15.4248 11.3339ZM15 2L15.0035 2V2.00396L15 2.00396V2ZM19.952 4.04883L19.9545 4.05132L19.9517 4.05412L19.9492 4.05163L19.952 4.04883ZM22.004 9V9.00352H22V9H22.004ZM10.0561 4.05163L10.0536 4.05412L10.0508 4.05132L10.0533 4.04883L10.0561 4.05163Z" stroke="black" stroke-width="2" stroke-linecap="square"/>
<path id="stroke1" d="M4 19.6397C2.81463 19.0724 2 17.8945 2 16.5333C2 14.8867 3.19223 13.5082 4.79079 13.1546C4.73117 12.8451 4.7 12.5261 4.7 12.2C4.7 9.32812 7.11766 7 10.1 7C12.7759 7 14.9972 8.87428 15.4254 11.3339C15.4502 11.3335 15.4751 11.3333 15.5 11.3333C17.9853 11.3333 20 13.2734 20 15.6667C20 17.4438 18.8891 18.9711 17.2995 19.6397" stroke="black" stroke-width="2" stroke-linecap="square"/>
</g>
</svg>
