<svg width="16" height="16" viewBox="0 0 16 16" fill="none" xmlns="http://www.w3.org/2000/svg">
<path d="M10.786 15L10.5 16H5.5L5.214 15H10.786ZM8 0C11.59 0 14.5 2.91 14.5 6.5C14.5 7.508 14.27 8.461 13.859 9.312C13.183 10.714 12.534 12.129 12.108 13.625L12 14H4L3.893 13.625C3.466 12.129 2.818 10.714 2.142 9.312C1.731 8.461 1.5 7.508 1.5 6.5C1.5 2.91 4.41 0 8 0ZM8 2C5.519 2 3.5 4.019 3.5 6.5C3.5 7.181 3.649 7.834 3.943 8.442C4.455 9.504 5.019 10.708 5.473 12H6.999L7 11.8074L8.52297 8H5V6H11.477L9.076 12H10.527C10.917 10.8926 11.3863 9.8498 11.8355 8.90568L12.058 8.442C12.352 7.834 12.5 7.181 12.5 6.5C12.5 4.019 10.482 2 8 2Z" fill="black"/>
</svg>
