<svg width="24" height="24" viewBox="0 0 24 24" fill="none" xmlns="http://www.w3.org/2000/svg">
<path d="M9.50378 1.58594L12.0254 4.12107L14.7368 1.58674L16.1025 3.04788L15.0327 4.04781C15.4616 4.05412 15.8918 4.10142 16.2822 4.21625C17.8307 4.67171 19.2863 5.47275 20.3475 6.8498C21.4109 8.22969 21.9988 10.0848 22 12.4996C22.0013 15.0256 20.8949 17.5658 19.3143 19.3661C17.7575 21.1393 15.5179 22.4199 13.2126 21.8732C12.8574 21.7889 12.6004 21.7128 12.448 21.6676C12.4005 21.6536 12.3631 21.6425 12.3361 21.6351L12.3336 21.6345C12.2577 21.6137 12.2112 21.601 12 21.601C11.7888 21.601 11.7423 21.6137 11.6663 21.6345L11.6639 21.6351C11.6369 21.6425 11.5995 21.6536 11.552 21.6676C11.3996 21.7128 11.1426 21.7889 10.7874 21.8732C8.48948 22.4181 6.25049 21.1342 4.69339 19.3629C3.11154 17.5634 1.99983 15.0244 2 12.5001C2.00016 10.095 2.56694 8.23866 3.62223 6.85477C4.67724 5.47124 6.13836 4.66767 7.72517 4.21412C8.16446 4.08856 8.65416 4.0469 9.13573 4.05194L8.08579 2.99636L9.50378 1.58594ZM11.7176 6.47288L11.7149 6.4721L11.6981 6.4673C11.6824 6.46284 11.6578 6.45595 11.6252 6.44709C11.5599 6.42935 11.4629 6.40379 11.3412 6.37405C11.0967 6.31434 10.7575 6.23898 10.3786 6.17598C10.2294 6.15118 10.0804 6.12944 9.9334 6.11135C11.0834 7.2105 12.9245 7.20871 14.0722 6.10598C13.9244 6.12423 13.7744 6.14628 13.624 6.17151C13.2455 6.23507 12.9065 6.31131 12.6621 6.37177C12.5404 6.40188 12.4434 6.42777 12.3782 6.44573C12.3456 6.45471 12.321 6.46169 12.3053 6.46619L12.2886 6.47104L12.2859 6.47182L12.0019 6.55657L11.7176 6.47288ZM16.3956 6.36604L16.1216 6.76492C14.1351 9.65753 9.86484 9.65752 7.87834 6.76492L7.60074 6.36069C6.61201 6.73861 5.80603 7.28928 5.2126 8.0675C4.48976 9.01542 4.00014 10.4087 4 12.5002C3.99987 14.4724 4.88814 16.5552 6.19552 18.0424C7.52765 19.5578 9.06715 20.2257 10.3259 19.9271C10.6224 19.8568 10.7807 19.8098 10.9265 19.7665C10.9952 19.746 11.0612 19.7264 11.1376 19.7056C11.4124 19.6307 11.6378 19.601 12 19.601C12.3622 19.601 12.5875 19.6307 12.8624 19.7056C12.9388 19.7264 13.0047 19.746 13.0735 19.7665C13.2193 19.8098 13.3776 19.8568 13.6741 19.9271C14.943 20.2281 16.4829 19.5597 17.8114 18.0466C19.1161 16.5605 20.001 14.4769 20 12.5006C19.9989 10.4132 19.4952 9.02031 18.7633 8.07062C18.1645 7.29364 17.36 6.7445 16.3956 6.36604Z" fill="black" fill-opacity="0.9" style="fill:black;fill-opacity:0.9;"/>
</svg>
