<svg width="24" height="24" viewBox="0 0 24 24" fill="none" xmlns="http://www.w3.org/2000/svg">
<path d="M6.53409 1.86567C9.60332 0.617329 13.2576 1.23766 15.7504 3.73042C17.903 5.883 18.6577 8.90005 18.0216 11.6585L23.175 16.8119L21.7608 18.2261L15.7732 12.2386L15.9507 11.6628C16.6387 9.43119 16.0994 6.90788 14.3362 5.14463C12.7094 3.51791 10.434 2.93217 8.34035 3.39146L12.5684 7.6195L7.61865 12.5692L3.3906 8.34121C2.93132 10.4348 3.51706 12.7103 5.14377 14.337C6.90703 16.1003 9.43033 16.6395 11.662 15.9516L12.2377 15.7741L18.2253 21.7616L16.811 23.1758L11.6577 18.0225C8.8992 18.6585 5.88215 17.9038 3.72956 15.7512C1.23681 13.2585 0.616474 9.60417 1.86481 6.53495L2.11863 5.91091L3.79071 5.91288L7.61865 9.74082L9.73997 7.6195L5.91203 3.79156L5.91006 2.11948L6.53409 1.86567ZM15.7504 14.337L20.7001 19.2868L19.2859 20.701L14.3362 15.7512L15.7504 14.337Z" fill="black" fill-opacity="0.9" style="fill:black;fill-opacity:0.9;"/>
</svg>
