<svg viewBox="0 0 1024 1024" version="1.1" xmlns="http://www.w3.org/2000/svg"><path fill-opacity=".9" fill-rule="evenodd" d="M512 64C759.4235648 64 960 264.576432 960 512 960 597.37208832 936.1202624 677.1667648 894.6758976 745.0689152 892.617184 748.8455872 891.2097792 751.3869888 890.3907968 752.7089408L889.7656256 753.6249984 885.312 758.784 882.752 758.784 708.7756864 573.53885056 726.6513408 455.55949824 613.11029568 342.01845056 479.366 363.43358592 592.5030848 476.57067072 476.13351168 592.94024384 362.99642688 479.80315904 342.93819072 614.90435392 455.1223392 727.0884992 572.06083008 708.3529984 706.1778752 843.35824C706.3044736 843.2838912 706.4310272 843.2094656 706.557536 843.134976L751.552 888.064 751.936 887.808 751.552 890.496 736.8500928 899.5725824C670.7635072 937.9955136 593.95146432 960 512 960 264.576432 960 64 759.4235648 64 512 64 264.576432 264.576432 64 512 64ZM512 128C299.922656 128 128 299.922656 128 512 128 724.077344 299.922656 896 512 896 558.89913216 896 603.83455488 887.5923584 645.381248 872.2020992L549.90045824 776.7225088 432.97694848 795.4527808 274.90031744 637.37614912 314.62525376 369.81093056C315.02854528 367.0945824 316.2947392 364.5799488 318.23682496 362.63843072 322.2363776 358.64004608 328.22317568 357.8411264 333.01687872 360.24120768L336.3387584 362.64107392 476.089824 502.43295936 501.93033408 476.59244928 363.19475136 337.78161472C361.28996416 335.87579456 360.03518592 333.41747456 359.60916864 330.75685888 358.67776 324.93991872 361.8229472 319.41158016 366.93675776 317.08357056L370.22441472 316.09409856 635.25837632 273.65686336 794.7737984 433.17228288 776.8534528 551.12716096 871.9431168 646.0782784C887.498016 604.33731456 896 559.1615296 896 512 896 299.922656 724.077344 128 512 128Z"/></svg>