<svg width="16" height="16" viewBox="0 0 16 16" fill="none" xmlns="http://www.w3.org/2000/svg">
<g clip-path="url(#clip0_915_10281)">
<rect width="16" height="16" fill="white"/>
<path fill-rule="evenodd" clip-rule="evenodd" d="M12.0117 1.08491L12.1322 2.41057L10.0329 4.50987L10.74 5.21698L12.8393 3.11767L14.1649 3.23819L14.3977 3.79251C15.2362 5.78957 14.844 8.184 13.2152 9.81283C11.849 11.179 9.94391 11.6751 8.18744 11.3051L4.14121 15.3513L-0.101429 11.1086L3.9448 7.06242C3.57478 5.30594 4.07085 3.40083 5.43703 2.03465C7.06585 0.405829 9.46028 0.0136297 11.4573 0.852159L12.0117 1.08491ZM9.29057 2.42375C8.40613 2.43277 7.52509 2.77501 6.85124 3.44886C5.88055 4.41955 5.59779 5.81977 6.00859 7.04221L6.20599 7.62965L2.727 11.1086L4.14121 12.5229L7.62021 9.04386L8.20764 9.24127C9.43009 9.65206 10.8303 9.3693 11.801 8.39861C12.4748 7.72476 12.8171 6.84372 12.8261 5.95929L10.74 8.0454L7.20445 4.50987L9.29057 2.42375Z" fill="black"/>
</g>
<defs>
<clipPath id="clip0_915_10281">
<rect width="16" height="16" fill="white"/>
</clipPath>
</defs>
</svg>
