<svg width="24" height="24" viewBox="0 0 24 24" fill="none" xmlns="http://www.w3.org/2000/svg">
<g id="tower-3">
<path id="fill1" d="M15 22.0001H9L10.4889 9.59229C11.4122 10.1316 12.5878 10.1316 13.5111 9.59229L15 22.0001Z" fill="white"/>
<path id="fill2" d="M15 7C15 8.65685 13.6569 10 12 10C10.3431 10 9 8.65685 9 7C9 5.34315 10.3431 4 12 4C13.6569 4 15 5.34315 15 7Z" fill="white"/>
<path id="stroke1" d="M12 4C10.3431 4 9 5.34315 9 7C9 8.65685 10.3431 10 12 10C13.6569 10 15 8.65685 15 7C15 5.34315 13.6569 4 12 4ZM12 4V2M13.572 10.1L15 22H9L10.428 10.1" stroke="black" stroke-width="2" stroke-linecap="square"/>
</g>
</svg>
