<svg width="24" height="24" viewBox="0 0 24 24" fill="none" xmlns="http://www.w3.org/2000/svg">
<g id="tower-1">
<path id="fill1" d="M4 22C6.8 19.2 10 11 10 7H14C14 11 17.2 19.2 20 22H15C15 22 14.5006 19 12 19C9.49942 19 9 22 9 22H4Z" fill="white"/>
<path id="fill2" d="M9 3H15V7H9V3Z" fill="white"/>
<path id="stroke1" d="M12 3H9V7H15V3H12ZM12 3V2M21 22H15C15 22 14.5006 19 12 19C9.49942 19 9 22 9 22H3M10 7C10 10.7837 7.1367 18.3256 4.45713 21.5M14.0071 7C14.0071 10.7837 16.8705 18.3256 19.55 21.5" stroke="black" stroke-width="2" stroke-linecap="square"/>
</g>
</svg>
