<svg width="24" height="24" viewBox="0 0 24 24" fill="none" xmlns="http://www.w3.org/2000/svg">
    <g id="town">
        <path id="fill1" d="M3 21V3H7L12 8.5V21H3Z" fill="white" />
        <path id="fill2" d="M21 9V21H12V3H16L21 9Z" fill="white" />
        <path id="stroke1" d="M12 21H3V3H7L12 8.5V21ZM12 21V3H16L21 9V21H12Z" stroke="black" stroke-width="2"
            stroke-linecap="square" />
        <g id="stroke2">
            <path d="M16 8.99805H16.0039V9.00195H16V8.99805Z" stroke="black" stroke-width="2" stroke-linecap="square" />
            <path d="M16 12.998H16.0039V13.002H16V12.998Z" stroke="black" stroke-width="2" stroke-linecap="square" />
            <path d="M16 16.998H16.0039V17.002H16V16.998Z" stroke="black" stroke-width="2" stroke-linecap="square" />
            <path d="M7 8.99805H7.00391V9.00195H7V8.99805Z" stroke="black" stroke-width="2" stroke-linecap="square" />
            <path d="M7 12.998H7.00391V13.002H7V12.998Z" stroke="black" stroke-width="2" stroke-linecap="square" />
            <path d="M7 16.998H7.00391V17.002H7V16.998Z" stroke="black" stroke-width="2" stroke-linecap="square" />
        </g>
    </g>
</svg>