<svg width="16" height="16" viewBox="0 0 16 16" fill="none" xmlns="http://www.w3.org/2000/svg">
<path d="M1.33325 3.33337C1.33325 2.2288 2.22868 1.33337 3.33325 1.33337H4.66659C5.77115 1.33337 6.66658 2.2288 6.66658 3.33337V7.33337H5.33325V5.66671H2.66659V7.33337H1.33325V3.33337ZM2.66659 4.33337H5.33325V3.33337C5.33325 2.96518 5.03477 2.66671 4.66659 2.66671H3.33325C2.96506 2.66671 2.66659 2.96518 2.66659 3.33337V4.33337ZM7.99992 2.33337H11.9999C13.1045 2.33337 13.9999 3.2288 13.9999 4.33337V6.00004H12.6666V4.33337C12.6666 3.96518 12.3681 3.66671 11.9999 3.66671H7.99992V2.33337ZM11.9999 7.66671V8.66671H14.6666V10H13.9587C13.812 11.1759 13.2826 12.2328 12.4991 13.0423C12.9626 13.2301 13.4693 13.3334 13.9999 13.3334H14.6666V14.6667H13.9999C13.0283 14.6667 12.1176 14.4069 11.3333 13.9532C10.5488 14.407 9.63805 14.6667 8.66658 14.6667H7.99992V13.3334H8.66658C9.19738 13.3334 9.70403 13.23 10.1675 13.0422C9.76569 12.6271 9.43081 12.1471 9.18017 11.6194L8.8941 11.0173L10.0985 10.4451L10.3845 11.0473C10.6145 11.5314 10.9386 11.9618 11.3332 12.3149C11.9946 11.7229 12.4579 10.914 12.6113 10H7.99992V8.66671H10.6666V7.66671H11.9999ZM3.99992 8.66671V12.6667C3.99992 13.0349 4.2984 13.3334 4.66659 13.3334H6.33325V14.6667H4.66659C3.56202 14.6667 2.66659 13.7713 2.66659 12.6667V8.66671H3.99992Z" fill="black" fill-opacity="0.9"/>
</svg>
