<svg width="16" height="16" viewBox="0 0 16 16" fill="none" xmlns="http://www.w3.org/2000/svg">
<path d="M4.33339 1.33337V3.00004H1.33339V4.33337H6.30653C5.9584 5.21602 5.48812 6.03754 4.91647 6.77698C4.54688 6.29884 4.21964 5.78634 3.94041 5.24514L3.63472 4.65269L2.44981 5.26405L2.75549 5.8565C3.11085 6.54523 3.53467 7.19278 4.01796 7.79018C3.41506 8.38424 2.73707 8.90247 1.9995 9.32926L1.42247 9.66315L2.09025 10.8172L2.66728 10.4833C3.48744 10.0087 4.24271 9.4343 4.91641 8.77655C5.59021 9.43444 6.34569 10.009 7.16626 10.4836L7.74334 10.8174L8.41094 9.66328L7.83386 9.32948C7.09618 8.90279 6.41802 8.3845 5.81493 7.79022C6.64084 6.76947 7.29317 5.60227 7.72685 4.33337H8.66672V3.00004H5.66672V1.33337H4.33339ZM11.0001 6.10939L7.11217 14.3171L8.31716 14.8879L9.05352 13.3334H12.9466L13.683 14.8879L14.8879 14.3171L11.0001 6.10939ZM12.315 12H9.6851L11.0001 9.22403L12.315 12Z" fill="black" fill-opacity="0.9"/>
</svg>
