<svg width="24" height="24" viewBox="0 0 24 24" fill="none" xmlns="http://www.w3.org/2000/svg">
<g id="tree-round-dot">
<g id="fill1">
<path d="M9 5C9 6.65685 10.3431 8 12 8C13.6569 8 15 6.65686 15 5C15 3.34315 13.6569 2 12 2C10.3431 2 9 3.34315 9 5Z" fill="white"/>
<path d="M16 19C16 20.6569 17.3431 22 19 22C20.6569 22 22 20.6569 22 19C22 17.3431 20.6569 16 19 16C17.3431 16 16 17.3431 16 19Z" fill="white"/>
<path d="M2 19C2 20.6569 3.34315 22 5 22C6.65685 22 8 20.6569 8 19C8 17.3431 6.65685 16 5 16C3.34315 16 2 17.3431 2 19Z" fill="white"/>
</g>
<path id="stroke1" d="M12 12L17 12C18.1046 12 19 12.8954 19 14V16M12 12L7 12C5.89543 12 5 12.8954 5 14L5 16M12 12V8M5 16C6.65685 16 8 17.3431 8 19C8 20.6569 6.65685 22 5 22C3.34315 22 2 20.6569 2 19C2 17.3431 3.34315 16 5 16ZM19 16C20.6569 16 22 17.3431 22 19C22 20.6569 20.6569 22 19 22C17.3431 22 16 20.6569 16 19C16 17.3431 17.3431 16 19 16ZM12 8C10.3431 8 9 6.65685 9 5C9 3.34315 10.3431 2 12 2C13.6569 2 15 3.34315 15 5C15 6.65686 13.6569 8 12 8Z" stroke="black" stroke-width="2" stroke-linecap="square"/>
</g>
</svg>
