<svg width="24" height="24" viewBox="0 0 24 24" fill="none" xmlns="http://www.w3.org/2000/svg">
<g id="tree-round-dot-vertical">
<g id="fill1">
<path d="M19 8C20.6569 8 22 6.65685 22 5C22 3.34315 20.6569 2 19 2C17.3431 2 16 3.34315 16 5C16 6.65685 17.3431 8 19 8Z" fill="white"/>
<path d="M19 22C20.6569 22 22 20.6569 22 19C22 17.3431 20.6569 16 19 16C17.3431 16 16 17.3431 16 19C16 20.6569 17.3431 22 19 22Z" fill="white"/>
<path d="M5 15C6.65685 15 8 13.6569 8 12C8 10.3431 6.65686 9 5 9C3.34315 9 2 10.3431 2 12C2 13.6569 3.34315 15 5 15Z" fill="white"/>
</g>
<path id="stroke1" d="M12 12L12 7C12 5.89543 12.8954 5 14 5H16M12 12L12 17C12 18.1046 12.8954 19 14 19H15.5M12 12L8 12M16 5C16 3.34315 17.3431 2 19 2C20.6569 2 22 3.34315 22 5C22 6.65685 20.6569 8 19 8C17.3431 8 16 6.65685 16 5ZM8 12C8 13.6569 6.65685 15 5 15C3.34315 15 2 13.6569 2 12C2 10.3431 3.34315 9 5 9C6.65686 9 8 10.3431 8 12ZM19 22C20.6569 22 22 20.6569 22 19C22 17.3431 20.6569 16 19 16C17.3431 16 16 17.3431 16 19C16 20.6569 17.3431 22 19 22Z" stroke="black" stroke-width="2" stroke-linecap="square"/>
</g>
</svg>
