<svg width="24" height="24" viewBox="0 0 24 24" fill="none" xmlns="http://www.w3.org/2000/svg">
<g id="uncomfortable">
<path id="fill1" d="M22 12C22 17.5228 17.5228 22 12 22C6.47715 22 2 17.5228 2 12C2 6.47715 6.47715 2 12 2C17.5228 2 22 6.47715 22 12Z" fill="white"/>
<path id="stroke1" d="M22 12C22 17.5228 17.5228 22 12 22C6.47715 22 2 17.5228 2 12C2 6.47715 6.47715 2 12 2C17.5228 2 22 6.47715 22 12Z" stroke="black" stroke-width="2" stroke-linecap="square"/>
<path id="stroke2" d="M16.8668 10.5L15.1348 9.5M8.86682 9.5L7.13477 10.5M7.5 16.5C7.5 15.3954 8.39542 14.5 9.5 14.5C10.0332 14.5 10.5177 14.7087 10.8763 15.0488C11.1352 15.2945 11.4523 15.5 11.8092 15.5H12.1908C12.5477 15.5 12.8648 15.2945 13.1237 15.0488C13.4823 14.7087 13.9668 14.5 14.5 14.5C15.6046 14.5 16.5 15.3954 16.5 16.5" stroke="black" stroke-width="2" stroke-linecap="square"/>
</g>
</svg>
