<svg width="24" height="24" viewBox="0 0 24 24" fill="none" xmlns="http://www.w3.org/2000/svg">
<path d="M8.86139 8.7771C8.68013 8.77666 8.50057 8.81195 8.33296 8.88097C8.16561 8.94988 8.01347 9.05105 7.8852 9.17872L5.70063 11.3633V15.5H11.7145L17.862 13.9631L21.6033 12.3672C21.7015 12.3137 21.7842 12.2355 21.8432 12.1401C21.9062 12.0382 21.9395 11.9208 21.9395 11.801C21.9392 11.7018 21.9162 11.604 21.8721 11.5152C21.828 11.4262 21.7639 11.3485 21.6848 11.2883C21.6057 11.228 21.5138 11.1868 21.4162 11.1679C21.3187 11.1489 21.218 11.1527 21.1221 11.179L21.1022 11.1845L14.3301 12.7421L13.8201 12.7421H10.5732V10.7421H13.82C14.0806 10.7421 14.3305 10.6385 14.5148 10.4543C14.699 10.2701 14.8025 10.0202 14.8025 9.75959C14.8025 9.49902 14.699 9.24912 14.5148 9.06487C14.3305 8.88062 14.0806 8.77711 13.82 8.77711H8.86384L8.86139 8.7771ZM16.7799 10.1264L20.6159 9.24411C21.0016 9.14201 21.4056 9.12845 21.7975 9.20455C22.197 9.28212 22.5732 9.45078 22.8969 9.6974C23.2206 9.94402 23.483 10.262 23.6638 10.6265C23.8447 10.9911 23.939 11.3924 23.9395 11.7994C23.9397 12.291 23.8028 12.7736 23.5444 13.1917C23.2859 13.6099 22.916 13.9477 22.4762 14.1673L22.4494 14.1806L18.5009 15.865L11.9607 17.5H0V9.94908H4.28642L6.47285 7.76264C6.78745 7.44913 7.16077 7.20072 7.57146 7.03161C7.98174 6.86267 8.42128 6.77619 8.86497 6.77711L8.86629 6.77711L8.86384 6.77711H8.86497H13.82C14.611 6.77711 15.3696 7.09133 15.929 7.65066C16.4883 8.20998 16.8025 8.96858 16.8025 9.75959C16.8025 9.88285 16.7949 10.0053 16.7799 10.1264ZM3.70063 11.9491H2V15.5H3.70063V11.9491Z" fill="black" fill-opacity="0.9" style="fill:black;fill-opacity:0.9;"/>
</svg>
