<svg width="24" height="24" viewBox="0 0 24 24" fill="none" xmlns="http://www.w3.org/2000/svg">
    <g id="undertake-delivery">
        <path id="fill1"
            d="M19.7812 14.5553L13.5 16L13.1251 16C13.6223 16 14.0992 15.8024 14.4508 15.4508C14.8025 15.0992 15 14.6223 15 14.125C15 13.6277 14.8025 13.1508 14.4508 12.7992C14.0992 12.4476 13.6223 12.25 13.125 12.25H8.4375C8.14175 12.2493 7.84877 12.3069 7.5753 12.4195C7.30182 12.5321 7.05324 12.6975 6.84375 12.9063L4.5 15.25V20.5H11.25L17.25 19L20.8894 17.4475C21.148 17.3184 21.3656 17.1197 21.5176 16.8738C21.6697 16.6279 21.7501 16.3444 21.75 16.0553C21.7497 15.8159 21.6942 15.5797 21.5878 15.3652C21.4814 15.1507 21.327 14.9636 21.1365 14.8185C20.9461 14.6734 20.7247 14.5741 20.4897 14.5285C20.2546 14.4829 20.0122 14.492 19.7812 14.5553Z"
            fill="white" />
        <g id="fill2">
            <path d="M4.5 15.25V20.5H1V15.25H4.5Z" fill="white" />
            <path d="M16.5 3H12.5V8L14.5 7L16.5 8V3Z" fill="white" />
        </g>
        <path id="stroke1"
            d="M4.5 20.5H11.25L17.25 19L20.8894 17.4475C21.148 17.3184 21.3656 17.1197 21.5176 16.8738C21.6697 16.6279 21.7501 16.3444 21.75 16.0553C21.7497 15.8159 21.6942 15.5797 21.5878 15.3652C21.4814 15.1507 21.327 14.9636 21.1365 14.8185C20.9461 14.6734 20.7247 14.5741 20.4897 14.5285C20.2546 14.4829 20.0122 14.492 19.7813 14.5553L13.5 16L13.1251 16M4.5 20.5V15.25M4.5 20.5H1V15.25H4.5M4.5 15.25L6.84375 12.9063C7.05324 12.6975 7.30182 12.5321 7.5753 12.4195C7.84877 12.3069 8.14175 12.2493 8.4375 12.25L13.125 12.25C14.1605 12.25 15 13.0895 15 14.125C15 15.1605 14.1605 16 13.125 16H11"
            stroke="black" stroke-width="2" stroke-linecap="square" />
        <path id="stroke2" d="M8.5 8.5V3H20.5V10.5M12.5 3H16.5V8L14.5 7L12.5 8V3Z" stroke="black" stroke-width="2"
            stroke-linecap="square" />
    </g>
</svg>