<svg width="24" height="24" viewBox="0 0 24 24" fill="none" xmlns="http://www.w3.org/2000/svg">
    <g id="undertake-transaction">
        <path id="fill1"
            d="M19.7812 14.5553L13.5 16L13.1251 16C13.6223 16 14.0992 15.8024 14.4508 15.4508C14.8025 15.0992 15 14.6223 15 14.125C15 13.6277 14.8025 13.1508 14.4508 12.7992C14.0992 12.4476 13.6223 12.25 13.125 12.25H8.4375C8.14175 12.2493 7.84877 12.3069 7.5753 12.4195C7.30182 12.5321 7.05324 12.6975 6.84375 12.9063L4.5 15.25V20.5H11.25L17.25 19L20.8894 17.4475C21.148 17.3184 21.3656 17.1197 21.5176 16.8738C21.6697 16.6279 21.7501 16.3444 21.75 16.0553C21.7497 15.8159 21.6942 15.5797 21.5878 15.3652C21.4814 15.1507 21.327 14.9636 21.1365 14.8185C20.9461 14.6734 20.7247 14.5741 20.4897 14.5285C20.2546 14.4829 20.0122 14.492 19.7812 14.5553Z"
            fill="white" />
        <g id="fill2">
            <path d="M4.5 15.25V20.5H1V15.25H4.5Z" fill="white" />
            <path fill-rule="evenodd" clip-rule="evenodd"
                d="M18.5 2C20.433 2 22 3.567 22 5.5C22 7.433 20.433 9 18.5 9C17.7564 9 17.0669 8.76809 16.5 8.37266C16.5035 8.37021 16.507 8.36769 16.5104 8.36523C15.9416 8.76515 15.2482 9 14.5 9C12.567 9 11 7.433 11 5.5C11 3.567 12.567 2 14.5 2C15.2482 2 15.9416 2.23481 16.5104 2.63472C16.507 2.63227 16.5035 2.62978 16.5 2.62734C17.0669 2.23191 17.7564 2 18.5 2Z"
                fill="white" />
        </g>
        <path id="stroke1"
            d="M4.5 20.5H11.25L17.25 19L20.8894 17.4475C21.148 17.3184 21.3656 17.1197 21.5176 16.8738C21.6697 16.6279 21.7501 16.3444 21.75 16.0553C21.7497 15.8159 21.6942 15.5797 21.5878 15.3652C21.4814 15.1507 21.327 14.9636 21.1365 14.8185C20.9461 14.6734 20.7247 14.5741 20.4897 14.5285C20.2546 14.4829 20.0122 14.492 19.7813 14.5553L13.5 16L13.1251 16M4.5 20.5V15.25M4.5 20.5H1V15.25H4.5M4.5 15.25L6.84375 12.9063C7.05324 12.6975 7.30182 12.5321 7.5753 12.4195C7.84877 12.3069 8.14175 12.2493 8.4375 12.25L13.125 12.25C14.1605 12.25 15 13.0895 15 14.125C15 15.1605 14.1605 16 13.125 16H11"
            stroke="black" stroke-width="2" stroke-linecap="square" />
        <path id="stroke2"
            d="M17 2.33682C17.4546 2.12085 17.9632 2 18.5 2C20.433 2 22 3.567 22 5.5C22 7.433 20.433 9 18.5 9C17.9632 9 17.4546 8.87915 17 8.66318M14.5 9C12.567 9 11 7.433 11 5.5C11 3.567 12.567 2 14.5 2C16.433 2 18 3.567 18 5.5C18 7.433 16.433 9 14.5 9Z"
            stroke="black" stroke-width="2" stroke-linecap="square" />
    </g>
</svg>