<svg width="24" height="24" viewBox="0 0 24 24" fill="none" xmlns="http://www.w3.org/2000/svg">
<g id="undertake">
<path id="fill1" d="M20.8584 10.2148L14.2171 11.7423L13.8207 11.7423C14.3464 11.7423 14.8506 11.5334 15.2224 11.1617C15.5942 10.7899 15.8031 10.2856 15.8031 9.75983C15.8031 9.23405 15.5942 8.72979 15.2224 8.35801C14.8506 7.98622 14.3464 7.77735 13.8206 7.77735H8.86438C8.55168 7.77658 8.2419 7.83747 7.95275 7.95653C7.66361 8.07559 7.40077 8.25049 7.17927 8.47122L4.70117 10.9493V16.5003H11.8381L18.182 14.9143L22.03 13.2728C22.3035 13.1363 22.5336 12.9262 22.6943 12.6662C22.855 12.4062 22.9401 12.1065 22.94 11.8008C22.9397 11.5476 22.881 11.2979 22.7685 11.0711C22.656 10.8443 22.4927 10.6465 22.2914 10.4931C22.09 10.3396 21.8559 10.2347 21.6074 10.1865C21.3589 10.1382 21.1026 10.1479 20.8584 10.2148Z" fill="white"/>
<path id="fill2" d="M4.70063 10.9492V16.5002H1V10.9492H4.70063Z" fill="white"/>
<path id="stroke1" d="M4.70063 16.5003H11.8375L18.1815 14.9143L22.0295 13.2728C22.303 13.1363 22.533 12.9262 22.6937 12.6662C22.8545 12.4062 22.9396 12.1065 22.9394 11.8008C22.9391 11.5476 22.8805 11.298 22.768 11.0711C22.6555 10.8443 22.4922 10.6465 22.2908 10.4931C22.0894 10.3397 21.8554 10.2347 21.6068 10.1865C21.3583 10.1382 21.102 10.1479 20.8578 10.2148L14.2165 11.7423H13.8201M4.70063 16.5003V10.9493M4.70063 16.5003H1V10.9493H4.70063M4.70063 10.9493L7.17875 8.4712C7.40025 8.2505 7.66305 8.0756 7.9522 7.95655C8.24135 7.83745 8.55115 7.7766 8.86385 7.77735L13.82 7.7775C14.9149 7.7775 15.8025 8.6651 15.8025 9.76C15.8025 10.8549 14.9149 11.7425 13.82 11.7425H11.573" stroke="black" stroke-width="2" stroke-linecap="square"/>
</g>
</svg>
