<svg width="24" height="24" viewBox="0 0 24 24" fill="none" xmlns="http://www.w3.org/2000/svg">
    <path
        d="M17 3.51296C17.21 3.76986 17.446 4.07453 17.681 4.40999C18.4214 5.46654 19 6.61741 19 7.5001C19 8.60467 18.1046 9.5001 17 9.5001C15.8954 9.5001 15 8.60467 15 7.5001C15 6.61727 15.5786 5.46638 16.319 4.4099C16.554 4.07447 16.79 3.76984 17 3.51296ZM17 0.571045L16.2856 1.30032L16.284 1.302L16.2813 1.3048L16.2726 1.31375L16.2429 1.34471C16.2177 1.37105 16.1822 1.40867 16.1377 1.45666C16.0488 1.55257 15.9239 1.6903 15.7749 1.86255C15.4779 2.20593 15.0805 2.69213 14.6811 3.26217C13.9214 4.34632 13 5.94543 13 7.5001C13 9.70924 14.7909 11.5001 17 11.5001C19.2091 11.5001 21 9.70924 21 7.5001C21 5.94557 20.0786 4.34644 19.319 3.26229C18.9195 2.69223 18.5221 2.20601 18.2251 1.86261C18.0762 1.69036 17.9512 1.55262 17.8623 1.4567C17.8179 1.40871 17.7823 1.37109 17.7572 1.34475L17.7274 1.31378L17.7188 1.30483L17.716 1.30203L17.7144 1.30035L17 0.571045ZM8.43505 13.2501C8.27075 13.2497 8.10797 13.2817 7.95605 13.3443C7.80437 13.4067 7.66647 13.4984 7.55021 13.6141L5.5 15.6643V19.5001H11.1269L16.9306 18.0492L20.4625 16.5425C20.5462 16.4964 20.6167 16.4295 20.667 16.3481C20.7212 16.2605 20.7499 16.1596 20.75 16.0566C20.7499 15.9709 20.73 15.8864 20.692 15.8097C20.6539 15.7329 20.5986 15.666 20.5305 15.614C20.4623 15.5621 20.3831 15.5266 20.299 15.5103C20.2149 15.4939 20.1282 15.4972 20.0455 15.5199L20.0256 15.5253L13.6135 17.0001L13.1251 17.0001L12.1251 17.0001L10 17.0001V15.0001H13.125C13.3571 15.0001 13.5796 14.9079 13.7437 14.7438C13.9078 14.5797 14 14.3572 14 14.1251C14 13.893 13.9078 13.6705 13.7437 13.5064C13.5796 13.3423 13.3571 13.2501 13.125 13.2501H8.4375L8.43505 13.2501ZM15.9866 14.4021L19.5394 13.5849C19.9119 13.4865 20.3019 13.4735 20.6803 13.5469C21.0663 13.6219 21.4298 13.7849 21.7426 14.0232C22.0554 14.2615 22.309 14.5687 22.4837 14.921C22.6584 15.2732 22.7495 15.661 22.75 16.0543C22.7502 16.5293 22.618 16.9957 22.3682 17.3997C22.1185 17.8037 21.761 18.1302 21.336 18.3423L21.3093 18.3557L17.5695 19.951L11.3731 21.5001H0V14.2501H4.08579L6.13787 12.198C6.44046 11.8965 6.79953 11.6575 7.19455 11.4949C7.58917 11.3324 8.01193 11.2492 8.43868 11.2501L8.43995 11.2501L8.4375 11.2501H8.43868H13.125C13.8875 11.2501 14.6188 11.553 15.1579 12.0922C15.6971 12.6313 16 13.3626 16 14.1251C16 14.218 15.9955 14.3104 15.9866 14.4021ZM3.5 16.2501H2V19.5001H3.5V16.2501Z"
        fill="black" />
</svg>