<svg width="24" height="24" viewBox="0 0 24 24" fill="none" xmlns="http://www.w3.org/2000/svg">
<path d="M15.056 1.99438L21.9662 2.03388L22.0057 8.9441L20.0057 8.95553L19.9856 5.42872L14.9586 10.4557L13.5444 9.04149L18.5713 4.01451L15.0446 3.99435L15.056 1.99438ZM2 2.00008H12V4.00008H4V10.0001H2V2.00008ZM2 12.0001H6V14.0001H4V16.0001H2V12.0001ZM8 12.0001H12V16.0001H10V14.0001H8V12.0001ZM22 12.0001V22.0001H14V20.0001H20V12.0001H22ZM4 18.0001V20.0001H6V22.0001H2V18.0001H4ZM12 18.0001V22.0001H8V20.0001H10V18.0001H12Z" fill="black" fill-opacity="0.9" style="fill:black;fill-opacity:0.9;"/>
</svg>
