<svg width="24" height="24" viewBox="0 0 24 24" fill="none" xmlns="http://www.w3.org/2000/svg">
<path d="M11.4999 4C9.56688 4 7.99988 5.567 7.99988 7.5C7.99988 9.433 9.56688 11 11.4999 11C13.4329 11 14.9999 9.433 14.9999 7.5C14.9999 5.567 13.4329 4 11.4999 4ZM5.99988 7.5C5.99988 4.46243 8.46231 2 11.4999 2C14.5374 2 16.9999 4.46243 16.9999 7.5C16.9999 10.5376 14.5374 13 11.4999 13C8.46231 13 5.99988 10.5376 5.99988 7.5ZM18.9999 13V17H22.9999V19H18.9999V23H16.9999V19H12.9999V17H16.9999V13H18.9999ZM7.99988 16C5.79074 16 3.99988 17.7909 3.99988 20H12.0507V22H1.99988V20C1.99988 16.6863 4.68617 14 7.99988 14H11.9999V16H7.99988Z" fill="black" fill-opacity="0.9" style="fill:black;fill-opacity:0.9;"/>
</svg>
