<svg width="16" height="16" viewBox="0 0 16 16" fill="none" xmlns="http://www.w3.org/2000/svg">
<g clip-path="url(#clip0_915_10222)">
<path fill-rule="evenodd" clip-rule="evenodd" d="M5 4.5C5 3.67157 5.67157 3 6.5 3C7.32843 3 8 3.67157 8 4.5C8 5.32843 7.32843 6 6.5 6C5.67157 6 5 5.32843 5 4.5ZM6.5 1C4.567 1 3 2.567 3 4.5C3 6.433 4.567 8 6.5 8C8.433 8 10 6.433 10 4.5C10 2.567 8.433 1 6.5 1ZM10.9994 4.5C10.9994 5.62437 10.587 6.65242 9.90527 7.44118C10.0973 7.47976 10.296 7.5 10.4994 7.5C12.1562 7.5 13.4994 6.15685 13.4994 4.5C13.4994 2.84315 12.1562 1.5 10.4994 1.5C10.296 1.5 10.0973 1.52024 9.90527 1.55882C10.587 2.34758 10.9994 3.37563 10.9994 4.5ZM14 14.4998H16V12.9998C16 11.6762 14.8654 10.8046 13.8029 10.3217C13.5002 10.1841 13.1721 10.0621 12.8232 9.95703C13.4789 10.5675 14 11.4012 14 12.4998V14.4998ZM2 12.5C2 12.4429 2.09656 12.0645 3.02472 11.6426C3.8626 11.2617 5.09036 11 6.5 11C7.90964 11 9.1374 11.2617 9.97528 11.6426C10.9034 12.0645 11 12.4429 11 12.5H2ZM6.5 9C4.87207 9 3.34983 9.2979 2.19711 9.82187C1.13466 10.3048 0 11.1764 0 12.5V14.5H13V12.5C13 11.1764 11.8653 10.3048 10.8029 9.82187C9.65017 9.2979 8.12793 9 6.5 9Z" fill="black"/>
</g>
<defs>
<clipPath id="clip0_915_10222">
<rect width="16" height="16" fill="white"/>
</clipPath>
</defs>
</svg>
