<svg width="16" height="16" viewBox="0 0 16 16" fill="none" xmlns="http://www.w3.org/2000/svg">
<path fill-rule="evenodd" clip-rule="evenodd" d="M2 8C2 4.68629 4.68629 2 8 2C11.3137 2 14 4.68629 14 8C14 9.21119 13.6416 10.3383 13.0242 11.2815C12.6455 10.8063 12.0978 10.4623 11.5958 10.2341C10.624 9.79244 9.35178 9.54541 8 9.54541C6.64822 9.54541 5.37597 9.79244 4.40422 10.2341C3.90225 10.4623 3.35448 10.8063 2.97585 11.2815C2.35836 10.3383 2 9.21119 2 8ZM11.5 12.5996V12.874C11.1629 13.1166 10.7999 13.3249 10.4161 13.494C9.67821 13.819 8.86156 14 8 14C7.13844 14 6.3218 13.819 5.58388 13.494C5.20007 13.3249 4.83707 13.1166 4.5 12.874V12.5996C4.50004 12.6009 4.50015 12.6016 4.5004 12.6017C4.50083 12.6018 4.50171 12.5999 4.50344 12.5961C4.52078 12.5579 4.62396 12.3312 5.23182 12.0549C5.88874 11.7563 6.8665 11.5454 8 11.5454C9.1335 11.5454 10.1113 11.7563 10.7682 12.0549C11.376 12.3312 11.4792 12.5579 11.4966 12.5961C11.4983 12.5999 11.4992 12.6018 11.4996 12.6017C11.4999 12.6016 11.5 12.6009 11.5 12.5996ZM8 0C3.58172 0 0 3.58172 0 8C0 10.4603 1.1118 12.6618 2.85676 14.1278C3.43294 14.6118 4.07883 15.0164 4.77761 15.3242C5.76473 15.7591 6.85555 16 8 16C9.14445 16 10.2353 15.7591 11.2224 15.3242C11.9212 15.0164 12.5671 14.6118 13.1432 14.1278C14.8882 12.6618 16 10.4603 16 8C16 3.58172 12.4183 0 8 0ZM6.9541 6.04545C6.9541 5.46807 7.42217 5 7.99956 5C8.57694 5 9.04501 5.46807 9.04501 6.04545C9.04501 6.62284 8.57694 7.09091 7.99956 7.09091C7.42217 7.09091 6.9541 6.62284 6.9541 6.04545ZM7.99956 3C6.3176 3 4.9541 4.3635 4.9541 6.04545C4.9541 7.72741 6.3176 9.09091 7.99956 9.09091C9.68151 9.09091 11.045 7.72741 11.045 6.04545C11.045 4.3635 9.68151 3 7.99956 3Z" fill="black"/>
</svg>
