<svg width="24" height="24" viewBox="0 0 24 24" fill="none" xmlns="http://www.w3.org/2000/svg">
    <path
        d="M11.4999 4C9.56688 4 7.99988 5.567 7.99988 7.5C7.99988 9.433 9.56688 11 11.4999 11C13.4329 11 14.9999 9.433 14.9999 7.5C14.9999 5.567 13.4329 4 11.4999 4ZM5.99988 7.5C5.99988 4.46243 8.46231 2 11.4999 2C14.5374 2 16.9999 4.46243 16.9999 7.5C16.9999 10.5376 14.5374 13 11.4999 13C8.46231 13 5.99988 10.5376 5.99988 7.5ZM18.9831 12.9818L19.5858 13.7798C20.5039 14.9954 21.0003 16.4774 20.9998 18.0008C20.9992 19.5241 20.5018 21.0058 19.5829 22.2208L18.9796 23.0184L17.3845 21.812L17.9877 21.0144C18.6441 20.1465 18.9994 19.0882 18.9998 18.0001C19.0001 16.912 18.6455 15.8534 17.9898 14.9851L17.3871 14.1871L18.9831 12.9818ZM7.99988 16C5.79074 16 3.99988 17.7909 3.99988 20H13.0507V22H1.99988V20C1.99988 16.6863 4.68617 14 7.99988 14H12.9999V16H7.99988ZM16.1904 15.0909L16.7931 15.8889C17.2521 16.4967 17.5003 17.2377 17.5001 17.9994C17.4998 18.7611 17.2511 19.5019 16.7916 20.1094L16.1884 20.907L14.5932 19.7006L15.1964 18.903C15.3933 18.6426 15.4999 18.3251 15.5001 17.9987C15.5002 17.6723 15.3938 17.3547 15.1971 17.0942L14.5944 16.2962L16.1904 15.0909Z"
        fill="black" />
</svg>