<svg width="24" height="24" viewBox="0 0 24 24" fill="none" xmlns="http://www.w3.org/2000/svg">
<g id="usergroup-add">
<path id="fill1" d="M19 8C19 10.2091 17.2091 12 15 12C12.7909 12 11 10.2091 11 8C11 5.79086 12.7909 4 15 4C17.2091 4 19 5.79086 19 8Z" fill="white"/>
<path id="stroke1" d="M9 4C6.79086 4 5 5.79086 5 8C5 10.2091 6.79086 12 9 12C5.68629 12 3 14.6863 3 18V21M14 15H12C9.79086 15 8 16.7909 8 19V21H14M19 8C19 10.2091 17.2091 12 15 12C12.7909 12 11 10.2091 11 8C11 5.79086 12.7909 4 15 4C17.2091 4 19 5.79086 19 8Z" stroke="black" stroke-width="2" stroke-linecap="square"/>
<path id="stroke2" d="M20 15V18M20 18V21M20 18H17M20 18H23" stroke="black" stroke-width="2" stroke-linecap="square"/>
</g>
</svg>
