<svg width="16" height="16" viewBox="0 0 16 16" fill="none" xmlns="http://www.w3.org/2000/svg">
<path fill-rule="evenodd" clip-rule="evenodd" d="M4.40422 11.6887C3.91282 11.9121 3.37754 12.2465 3 12.7062L3 3L13 3L13 12.7062C12.6225 12.2465 12.0872 11.9121 11.5958 11.6887C10.624 11.247 9.35179 11 8 11C6.64822 11 5.37597 11.247 4.40422 11.6887ZM15 3V1H13H3H1V3V13V15H3L13 15H15V13L15 3ZM7 7C7 6.44772 7.44772 6 8 6C8.55229 6 9 6.44772 9 7C9 7.55229 8.55229 8 8 8C7.44772 8 7 7.55229 7 7ZM8 4C6.34315 4 5 5.34315 5 7C5 8.65685 6.34315 10 8 10C9.65685 10 11 8.65685 11 7C11 5.34315 9.65685 4 8 4Z" fill="black"/>
</svg>
