<svg width="24" height="24" viewBox="0 0 24 24" fill="none" xmlns="http://www.w3.org/2000/svg">
<g id="user-checked-1">
<path id="fill1" d="M12.5 7C12.5 9.20914 10.7091 11 8.5 11C6.29086 11 4.5 9.20914 4.5 7C4.5 4.79086 6.29086 3 8.5 3C10.7091 3 12.5 4.79086 12.5 7Z" fill="white"/>
<path id="stroke1" d="M16 20V19C16 16.7909 14.2091 15 12 15H5C2.79086 15 1 16.7909 1 19V20M12.5 7C12.5 9.20914 10.7091 11 8.5 11C6.29086 11 4.5 9.20914 4.5 7C4.5 4.79086 6.29086 3 8.5 3C10.7091 3 12.5 4.79086 12.5 7Z" stroke="black" stroke-width="2" stroke-linecap="square"/>
<path id="stroke2" d="M22.1818 8.43945L17.9392 12.6821L15.8179 10.5608" stroke="black" stroke-width="2" stroke-linecap="square"/>
</g>
</svg>
