<svg width="24" height="24" viewBox="0 0 24 24" fill="none" xmlns="http://www.w3.org/2000/svg">
<g id="user-marked">
<path id="fill1" d="M16 7.5C16 9.98528 13.9853 12 11.5 12C9.01472 12 7 9.98528 7 7.5C7 5.01472 9.01472 3 11.5 3C13.9853 3 16 5.01472 16 7.5Z" fill="white"/>
<path id="fill2" d="M22.25 14.5H15.75V22.0039L19.0035 20.0039L22.25 22.0039V14.5Z" fill="white"/>
<path id="stroke1" d="M11.75 15H8C5.23858 15 3 17.2386 3 20V21H11.75M16 7.5C16 9.98528 13.9853 12 11.5 12C9.01472 12 7 9.98528 7 7.5C7 5.01472 9.01472 3 11.5 3C13.9853 3 16 5.01472 16 7.5Z" stroke="black" stroke-width="2" stroke-linecap="square"/>
<path id="stroke2" d="M22.25 14.5H15.75V22.0039L19.0035 20.0039L22.25 22.0039V14.5Z" stroke="black" stroke-width="2"/>
</g>
</svg>
