<svg width="24" height="24" viewBox="0 0 24 24" fill="none" xmlns="http://www.w3.org/2000/svg">
<g id="usercase-link">
<g id="fill1">
<path d="M8.12132 13.4142C6.94975 14.1953 5.05025 14.1953 3.87868 13.4142C2.70711 12.6332 2.70711 11.3668 3.87868 10.5858C5.05025 9.80474 6.94975 9.80474 8.12132 10.5858C9.29289 11.3668 9.29289 12.6332 8.12132 13.4142Z" fill="white"/>
<path d="M20.1213 13.4142C18.9497 14.1953 17.0503 14.1953 15.8787 13.4142C14.7071 12.6332 14.7071 11.3668 15.8787 10.5858C17.0503 9.80474 18.9497 9.80474 20.1213 10.5858C21.2929 11.3668 21.2929 12.6332 20.1213 13.4142Z" fill="white"/>
</g>
<g id="stroke1">
<path d="M8.12132 13.4142C6.94975 14.1953 5.05025 14.1953 3.87868 13.4142C2.70711 12.6332 2.70711 11.3668 3.87868 10.5858C5.05025 9.80474 6.94975 9.80474 8.12132 10.5858C9.29289 11.3668 9.29289 12.6332 8.12132 13.4142Z" stroke="black" stroke-width="2" stroke-linecap="square"/>
<path d="M11.998 11.9961H12.002V12H11.998V11.9961Z" stroke="black" stroke-width="2" stroke-linecap="square"/>
<path d="M20.1213 13.4142C18.9497 14.1953 17.0503 14.1953 15.8787 13.4142C14.7071 12.6332 14.7071 11.3668 15.8787 10.5858C17.0503 9.80474 18.9497 9.80474 20.1213 10.5858C21.2929 11.3668 21.2929 12.6332 20.1213 13.4142Z" stroke="black" stroke-width="2" stroke-linecap="square"/>
</g>
</g>
</svg>
