<svg viewBox="0 0 1024 1024" version="1.1" xmlns="http://www.w3.org/2000/svg"><path  fill-rule="evenodd" d="M960 512C960 264.57664 759.424 64 512 64 264.57664 64 64 264.57664 64 512 64 640.736 118.30016 756.7936 205.24672 838.5088 285.40608 913.8496 393.31328 960 512 960 535.19616 960 557.98016 958.24 580.22592 954.8352 795.2704 921.9776 960 736.2304 960 512ZM262.44544 803.8656C315.568 849.3248 381.24992 880.544 453.568 891.584 466.71552 893.5872 480.03712 894.9248 493.49184 895.5584L512 896C598.0992 896 677.5808 867.6608 741.6256 819.808 747.8144 815.1808 753.8752 810.3552 759.8016 805.3376L764.224 801.344 763.7632 799.1744C750.0608 747.3536 704.6784 708.5248 649.7792 704.3712L640 704H384C326.30016 704 277.18976 742.3104 261.408 793.9712L259.456 801.216 262.44544 803.8656ZM640 640C716.6144 640 782.7456 684.8768 813.5488 749.7728 865.184 684.3776 896 601.78816 896 512 896 299.92256 724.0768 128 512 128 299.92256 128 128 299.92256 128 512 128 601.78816 158.81664 684.3776 210.44928 749.7728 241.25312 684.8768 307.38624 640 384 640H640ZM512 192C618.0384 192 704 277.9616 704 384 704 490.0384 618.0384 576 512 576 405.9616 576 320 490.0384 320 384 320 277.9616 405.9616 192 512 192ZM512 256C441.30752 256 384 313.30752 384 384 384 454.69248 441.30752 512 512 512 582.69248 512 640 454.69248 640 384 640 313.30752 582.69248 256 512 256Z" clip-rule="evenodd" opacity=".9"/></svg>