<svg width="24" height="24" viewBox="0 0 24 24" fill="none" xmlns="http://www.w3.org/2000/svg">
<g id="user-1">
<path id="fill1" d="M16 7C16 9.20914 14.2091 11 12 11C9.79086 11 8 9.20914 8 7C8 4.79086 9.79086 3 12 3C14.2091 3 16 4.79086 16 7Z" fill="white"/>
<path id="stroke1" d="M19.5 20V19C19.5 16.7909 17.7091 15 15.5 15H8.5C6.29086 15 4.5 16.7909 4.5 19V20M16 7C16 9.20914 14.2091 11 12 11C9.79086 11 8 9.20914 8 7C8 4.79086 9.79086 3 12 3C14.2091 3 16 4.79086 16 7Z" stroke="black" stroke-width="2" stroke-linecap="square"/>
</g>
</svg>
