<svg width="24" height="24" viewBox="0 0 24 24" fill="none" xmlns="http://www.w3.org/2000/svg">
<g id="usergroup">
<g id="fill1">
<path d="M16 8C16 10.2091 14.2091 12 12 12C9.79086 12 8 10.2091 8 8C8 5.79086 9.79086 4 12 4C14.2091 4 16 5.79086 16 8Z" fill="white"/>
<path d="M5 19C5 16.7909 6.79086 15 9 15H15C17.2091 15 19 16.7909 19 19V21H5V19Z" fill="white"/>
</g>
<g id="stroke1">
<path d="M16 8C16 10.2091 14.2091 12 12 12C9.79086 12 8 10.2091 8 8C8 5.79086 9.79086 4 12 4C14.2091 4 16 5.79086 16 8Z" stroke="black" stroke-width="2" stroke-linecap="square"/>
<path d="M5 19C5 16.7909 6.79086 15 9 15H15C17.2091 15 19 16.7909 19 19V21H5V19Z" stroke="black" stroke-width="2" stroke-linecap="square"/>
</g>
<path id="stroke2" d="M7 4C4.79086 4 3 5.79086 3 8C3 10.2091 4.79086 12 7 12C3.68629 12 1 14.6863 1 18V21M23 21V18C23 14.6863 20.3137 12 17 12C19.2091 12 21 10.2091 21 8C21 5.79086 19.2091 4 17 4" stroke="black" stroke-width="2" stroke-linecap="square"/>
</g>
</svg>
