<svg width="24" height="24" viewBox="0 0 24 24" fill="none" xmlns="http://www.w3.org/2000/svg">
<g id="user-locked">
<path id="fill1" d="M16 7.5C16 9.98528 13.9853 12 11.5 12C9.01472 12 7 9.98528 7 7.5C7 5.01472 9.01472 3 11.5 3C13.9853 3 16 5.01472 16 7.5Z" fill="white"/>
<path id="fill2" d="M14.4985 17H21.4985V21.5H14.4985V17Z" fill="white"/>
<path id="stroke1" d="M10.5 15H8C5.23858 15 3 17.2386 3 20V21H10.5508M16 7.5C16 9.98528 13.9853 12 11.5 12C9.01472 12 7 9.98528 7 7.5C7 5.01472 9.01472 3 11.5 3C13.9853 3 16 5.01472 16 7.5Z" stroke="black" stroke-width="2" stroke-linecap="square"/>
<path id="stroke2" d="M15.75 17V15.25C15.75 14.0074 16.7574 13 18 13C19.2426 13 20.25 14.0074 20.25 15.25V17M14.4985 17H21.4985V21.5H14.4985V17Z" stroke="black" stroke-width="2" stroke-linecap="square"/>
</g>
</svg>
