<svg width="24" height="24" viewBox="0 0 24 24" fill="none" xmlns="http://www.w3.org/2000/svg">
<g id="user-talk-1">
<path id="fill1" d="M12.5 7C12.5 9.20914 10.7091 11 8.5 11C6.29086 11 4.5 9.20914 4.5 7C4.5 4.79086 6.29086 3 8.5 3C10.7091 3 12.5 4.79086 12.5 7Z" fill="white"/>
<path id="stroke1" d="M16 20V19C16 16.7909 14.2091 15 12 15H5C2.79086 15 1 16.7909 1 19V20M12.5 7C12.5 9.20914 10.7091 11 8.5 11C6.29086 11 4.5 9.20914 4.5 7C4.5 4.79086 6.29086 3 8.5 3C10.7091 3 12.5 4.79086 12.5 7Z" stroke="black" stroke-width="2" stroke-linecap="square"/>
<path id="stroke2" d="M17.167 11.2468C17.3849 10.8679 17.4996 10.4385 17.4998 10.0014C17.4999 9.56437 17.3855 9.1349 17.1679 8.75586M20.2012 12.9919C20.7241 12.0826 20.9994 11.052 20.9998 10.0031C21.0002 8.9541 20.7255 7.92338 20.2033 7.01367" stroke="black" stroke-width="2" stroke-linecap="square"/>
</g>
</svg>
