<svg width="24" height="24" viewBox="0 0 24 24" fill="none" xmlns="http://www.w3.org/2000/svg">
<g id="user-search">
<g id="fill1">
</g>
<path id="fill2" d="M21.5 17.75C21.5 19.8211 19.8211 21.5 17.75 21.5C15.6789 21.5 14 19.8211 14 17.75C14 15.6789 15.6789 14 17.75 14C19.8211 14 21.5 15.6789 21.5 17.75Z" fill="white"/>
<path id="stroke1" d="M10.5 15H8C5.23858 15 3 17.2386 3 20V21H10.5508M16 7.5C16 9.98528 13.9853 12 11.5 12C9.01472 12 7 9.98528 7 7.5C7 5.01472 9.01472 3 11.5 3C13.9853 3 16 5.01472 16 7.5Z" stroke="black" stroke-width="2" stroke-linecap="square"/>
<path id="stroke2" d="M20.4979 20.5L22 22M21.5 17.75C21.5 19.8211 19.8211 21.5 17.75 21.5C15.6789 21.5 14 19.8211 14 17.75C14 15.6789 15.6789 14 17.75 14C19.8211 14 21.5 15.6789 21.5 17.75Z" stroke="black" stroke-width="2" stroke-linecap="square"/>
</g>
</svg>
