<svg width="16" height="16" viewBox="0 0 16 16" fill="none" xmlns="http://www.w3.org/2000/svg">
<g clip-path="url(#clip0_915_10234)">
<path fill-rule="evenodd" clip-rule="evenodd" d="M7.5 15H1V12.5C1 10.3283 5.05861 9.16262 7.5 9.01585V11.0166C5.49402 11.1466 3.34879 12.0088 3 12.567V13H7.5V15ZM8 8C10.21 8 12 6.21 12 4C12 1.79 10.21 0 8 0C5.79 0 4 1.79 4 4C4 6.21 5.79 8 8 8ZM6 4C6 2.89457 6.89457 2 8 2C9.10543 2 10 2.89457 10 4C10 5.10543 9.10543 6 8 6C6.89457 6 6 5.10543 6 4ZM8.92932 10.3433L10.3435 8.92905L12.4644 11.0499L14.5856 8.92871L15.9998 10.3429L13.8786 12.4641L16.0004 14.5859L14.5862 16.0001L12.4644 13.8783L10.3429 15.9998L8.92871 14.5856L11.0502 12.4641L8.92932 10.3433Z" fill="black" fill-opacity="0.9"/>
</g>
<defs>
<clipPath id="clip0_915_10234">
<rect width="16" height="16" fill="white"/>
</clipPath>
</defs>
</svg>
