<svg width="16" height="16" viewBox="0 0 16 16" fill="none" xmlns="http://www.w3.org/2000/svg">
<g clip-path="url(#clip0_915_10230)">
<path fill-rule="evenodd" clip-rule="evenodd" d="M9.5 3C10.3284 3 11 3.67157 11 4.5C11 5.32843 10.3284 6 9.5 6C8.67157 6 8 5.32843 8 4.5C8 3.67157 8.67157 3 9.5 3ZM13 4.5C13 2.567 11.433 1 9.5 1C7.567 1 6 2.567 6 4.5C6 6.433 7.567 8 9.5 8C11.433 8 13 6.433 13 4.5ZM6.09473 7.44118C5.41298 6.65242 5.00062 5.62437 5.00062 4.5C5.00062 3.37563 5.41298 2.34758 6.09473 1.55882C5.90269 1.52024 5.70402 1.5 5.50062 1.5C3.84377 1.5 2.50062 2.84315 2.50062 4.5C2.50062 6.15685 3.84377 7.5 5.50062 7.5C5.70402 7.5 5.90269 7.47976 6.09473 7.44118ZM-1.14441e-05 14.4998H1.99999V12.4998C1.99999 11.4012 2.52114 10.5675 3.17676 9.95703C2.82791 10.0621 2.49977 10.1841 2.1971 10.3217C1.13465 10.8046 -1.14441e-05 11.6762 -1.14441e-05 12.9998V14.4998ZM9 12.4999H5C5 12.4428 5.09656 12.0643 6.02472 11.6425C6.7619 11.3074 7.80088 11.0645 9 11.0109V9.00928C7.56203 9.0637 6.23095 9.35179 5.19711 9.82172C4.13466 10.3046 3 11.1762 3 12.4999V14.4999H9V12.4999ZM15.9998 13.8413L14.4089 12.2504L16 10.6593L14.5858 9.24512L12.9947 10.8362L11.4037 9.24512L9.98944 10.6593L11.5805 12.2504L9.98959 13.8413L11.4038 15.2555L12.9947 13.6646L14.5856 15.2555L15.9998 13.8413Z" fill="black" fill-opacity="0.9"/>
</g>
<defs>
<clipPath id="clip0_915_10230">
<rect width="16" height="16" fill="white" transform="matrix(-1 0 0 1 16 0)"/>
</clipPath>
</defs>
</svg>
