<svg width="24" height="24" viewBox="0 0 24 24" fill="none" xmlns="http://www.w3.org/2000/svg">
<g id="user-setting">
<path id="fill1" d="M16 7.5C16 9.98528 13.9853 12 11.5 12C9.01472 12 7 9.98528 7 7.5C7 5.01472 9.01472 3 11.5 3C13.9853 3 16 5.01472 16 7.5Z" fill="white"/>
<path id="fill2" d="M21.5 18C21.5 19.6569 20.1569 21 18.5 21C16.8431 21 15.5 19.6569 15.5 18C15.5 16.3431 16.8431 15 18.5 15C20.1569 15 21.5 16.3431 21.5 18Z" fill="white"/>
<path id="stroke1" d="M11 15H8C5.23858 15 3 17.2386 3 20V21H11.05M16 7.5C16 9.98528 13.9853 12 11.5 12C9.01472 12 7 9.98528 7 7.5C7 5.01472 9.01472 3 11.5 3C13.9853 3 16 5.01472 16 7.5Z" stroke="black" stroke-width="2" stroke-linecap="square"/>
<path id="stroke2" d="M18.4999 15V13.75M18.4999 15C16.8431 15 15.4999 16.3431 15.4999 18C15.4999 19.6569 16.8431 21 18.4999 21M18.4999 15C20.1568 15 21.4999 16.3431 21.4999 18C21.4999 19.6569 20.1568 21 18.4999 21M18.4999 21V22.25M15.9019 16.5L14.8193 15.875M21.098 19.5L22.1806 20.125M21.098 16.5L22.1806 15.875M15.9019 19.5L14.8193 20.125" stroke="black" stroke-width="2" stroke-linecap="square"/>
</g>
</svg>
