<svg width="24" height="24" viewBox="0 0 24 24" fill="none" xmlns="http://www.w3.org/2000/svg">
<g id="user-password">
<path id="fill1" d="M16 7.5C16 9.98528 13.9853 12 11.5 12C9.01472 12 7 9.98528 7 7.5C7 5.01472 9.01472 3 11.5 3C13.9853 3 16 5.01472 16 7.5Z" fill="white"/>
<path id="fill2" d="M15.375 17.0029H18H20.625L21.5 17.6458V21.5001H14.5V17.6458L15.375 17.0029Z" fill="white"/>
<path id="stroke1" d="M10.5 15H8C5.23858 15 3 17.2386 3 20V21H10.5508M16 7.5C16 9.98528 13.9853 12 11.5 12C9.01472 12 7 9.98528 7 7.5C7 5.01472 9.01472 3 11.5 3C13.9853 3 16 5.01472 16 7.5Z" stroke="black" stroke-width="2" stroke-linecap="square"/>
<path id="stroke2" d="M18 17.0029V13H20M18 17.0029H15.375L14.5 17.6457V21.5H21.5V17.6457L20.625 17.0029H18Z" stroke="black" stroke-width="2" stroke-linecap="square"/>
</g>
</svg>
