<svg width="16" height="16" viewBox="0 0 16 16" fill="none" xmlns="http://www.w3.org/2000/svg">
<path fill-rule="evenodd" clip-rule="evenodd" d="M15.9998 4.4998C15.9998 2.98353 15.5165 1.57716 14.6958 0.430176L13.0693 1.59403C13.6552 2.41279 13.9998 3.41457 13.9998 4.4998C13.9998 5.58503 13.6552 6.58681 13.0693 7.40557L14.6958 8.56942C15.5165 7.42244 15.9998 6.01607 15.9998 4.4998ZM12.9998 4.4998C12.9998 3.6339 12.7235 2.82957 12.2544 2.17403L10.6279 3.33787C10.8622 3.6652 10.9998 4.06495 10.9998 4.4998C10.9998 4.93465 10.8622 5.3344 10.6279 5.66172L12.2544 6.82557C12.7235 6.17003 12.9998 5.3657 12.9998 4.4998ZM6.5 3C5.67157 3 5 3.67157 5 4.5C5 5.32843 5.67157 6 6.5 6C7.32843 6 8 5.32843 8 4.5C8 3.67157 7.32843 3 6.5 3ZM3 4.5C3 2.567 4.567 1 6.5 1C8.433 1 10 2.567 10 4.5C10 6.433 8.433 8 6.5 8C4.567 8 3 6.433 3 4.5ZM3.02472 11.6426C2.09656 12.0645 2 12.4429 2 12.5H11C11 12.4429 10.9034 12.0645 9.97528 11.6426C9.1374 11.2617 7.90964 11 6.5 11C5.09036 11 3.8626 11.2617 3.02472 11.6426ZM2.19711 9.82187C3.34983 9.2979 4.87207 9 6.5 9C8.12793 9 9.65017 9.2979 10.8029 9.82187C11.8653 10.3048 13 11.1764 13 12.5V14.5H0V12.5C0 11.1764 1.13466 10.3048 2.19711 9.82187Z" fill="black"/>
</svg>
