<svg width="16" height="16" viewBox="0 0 16 16" fill="none" xmlns="http://www.w3.org/2000/svg">
<path fill-rule="evenodd" clip-rule="evenodd" d="M8 15H1V12.5C1 10.172 5.664 9 8 9V11C5.866 11 3.378 11.962 3 12.567V13H8V15ZM8 8C10.21 8 12 6.21 12 4C12 1.79 10.21 0 8 0C5.79 0 4 1.79 4 4C4 6.21 5.79 8 8 8ZM6 4C6 2.89457 6.89457 2 8 2C9.10543 2 10 2.89457 10 4C10 5.10543 9.10543 6 8 6C6.89457 6 6 5.10543 6 4ZM13.5 11.5H16V13.5H13.5V16H11.5V13.5H9V11.5H11.5V9H13.5V11.5Z" fill="black" fill-opacity="0.9"/>
</svg>
