<svg width="24" height="24" viewBox="0 0 24 24" fill="none" xmlns="http://www.w3.org/2000/svg">
    <g clip-path="url(#clip0_100300_104578)">
        <path
            d="M11.9999 0.186157L15.6167 3.26835L20.3536 3.64636L20.7316 8.38325L23.8138 12L20.7316 15.6168L20.3536 20.3537L15.6167 20.7317L11.9999 23.8139L8.38313 20.7317L3.64624 20.3537L3.26823 15.6168L0.186035 12L3.26823 8.38325L3.64624 3.64636L8.38312 3.26835L11.9999 0.186157ZM11.9999 2.81388L9.18759 5.21051L5.50432 5.50444L5.21039 9.18771L2.81376 12L5.21039 14.8123L5.50432 18.4956L9.18759 18.7895L11.9999 21.1862L14.8122 18.7895L18.4955 18.4956L18.7894 14.8123L21.186 12L18.7894 9.18771L18.4955 5.50444L14.8122 5.21051L11.9999 2.81388ZM17.9141 9.50002L10.9999 16.4142L6.58568 12L7.9999 10.5858L10.9999 13.5858L16.4999 8.08581L17.9141 9.50002Z"
            fill="black" />
    </g>
    <defs>
        <clipPath id="clip0_100300_104578">
            <rect width="24" height="24" fill="white" style="fill:white;fill-opacity:1;" />
        </clipPath>
    </defs>
</svg>