<svg width="24" height="24" viewBox="0 0 24 24" fill="none" xmlns="http://www.w3.org/2000/svg">
<g id="video-camera-music">
<path id="fill1" d="M1 5L0.999999 19L16 19L16 5L1 5Z" fill="white"/>
<path id="fill2 " d="M23 6L16 10.2L16 14L23 18L23 6Z" fill="white"/>
<g id="stroke1">
<path d="M23 6L16 10.2V14L23 18V6Z" stroke="black" stroke-width="2" stroke-linecap="square"/>
<path d="M1 5L1 19L16 19V5L1 5Z" stroke="black" stroke-width="2" stroke-linecap="square"/>
</g>
<path id="stroke2" d="M11.5 8L9.5 8V13M9.5 14C9.5 15.1046 8.60457 16 7.5 16C6.39543 16 5.5 15.1046 5.5 14C5.5 12.8954 6.39543 12 7.5 12C8.60457 12 9.5 12.8954 9.5 14Z" stroke="black" stroke-width="2" stroke-linecap="square"/>
</g>
</svg>
