<svg width="24" height="24" viewBox="0 0 24 24" fill="none" xmlns="http://www.w3.org/2000/svg">
<g id="view-in-ar">
<path id="fill1" d="M18.0614 8.49977L11.9997 5L5.93836 8.4995L5.9375 15.5L11.9997 19L18.0619 15.5L18.0614 8.49977Z" fill="white"/>
<path id="stroke1" d="M12.0001 11.9993L11.9999 11.9992L11.9998 11.9993M12.0004 11.9993V18.25M17.3 8.93923L12.5 11.7105M6.7 8.93923L11.5 11.7105M11.9997 5L18.0614 8.49977L18.0619 15.5L11.9997 19L5.9375 15.5L5.93836 8.4995L11.9997 5Z" stroke="black" stroke-width="2" stroke-linecap="square"/>
<path id="stroke2" d="M18.5 21.5H21.5V18.5M18.5 2.5H21.5V5.5M5.5 21.5H2.5V18.5M5.5 2.5H2.5V5.5" stroke="black" stroke-width="2" stroke-linecap="square"/>
</g>
</svg>
