<svg width="24" height="24" viewBox="0 0 24 24" fill="none" xmlns="http://www.w3.org/2000/svg">
    <path
        d="M1.50037 1.5H6.50037V3.5H3.50037V6.5H1.50037V1.5ZM17.5004 1.5H22.5004V6.5H20.5004V3.5H17.5004V1.5ZM12 3.8453L19.0617 7.92236L19.0622 16.0774L12 20.1547L4.93787 16.0774L4.93893 7.92204L12 3.8453ZM6.93812 10.2312L6.93787 14.9227L11.0002 17.268L11.0005 12.5766L6.93812 10.2312ZM13.0002 17.2679L17.0622 14.9227L17.0621 10.2316L13.0005 12.5766L13.0002 17.2679ZM12.0005 10.8446L16.0618 8.49976L12 6.1547L7.93873 8.4995L12.0005 10.8446ZM3.50037 17.5V20.5H6.50037V22.5H1.50037V17.5H3.50037ZM22.5004 17.5V22.5H17.5004V20.5H20.5004V17.5H22.5004Z"
        fill="black" />
</svg>