<svg viewBox="0 0 1024 1024" version="1.1" xmlns="http://www.w3.org/2000/svg"><path fill-opacity=".9" fill-rule="evenodd" d="M128 240C128 213.49033216 156.653776 192 192 192L576 192C611.346224 192 640 213.49033216 640 240L640 320 832 320C867.3462208 320 896 348.653776 896 384L896 832C896 867.3462208 867.3462208 896 832 896L192 896C156.653776 896 128 867.3462208 128 832L128 240ZM832 384L192 384 192 832 832 832 832 384ZM768 448L768 640 704 640 704 448 768 448ZM576 256L192 256 192 320 192 320 576 320 576 256Z"/></svg>