<svg width="24" height="24" viewBox="0 0 24 24" fill="none" xmlns="http://www.w3.org/2000/svg">
    <path
        d="M5 7C5 5.89543 5.89543 5 7 5H17C18.1046 5 19 5.89543 19 7V17C19 18.1046 18.1046 19 17 19H7C5.89543 19 5 18.1046 5 17V7Z"
        fill="white" />
    <path d="M8 1H16L16.5 5H7.5L8 1Z" fill="white" />
    <path d="M7.5 19H16.5L16 23H8L7.5 19Z" fill="white" />
    <path d="M8 1H16L16.5 5H7.5L8 1Z" stroke="black" stroke-width="2" stroke-linecap="square" />
    <path d="M7.5 19H16.5L16 23H8L7.5 19Z" stroke="black" stroke-width="2" stroke-linecap="square" />
    <path
        d="M20 10V14M7 19H17C18.1046 19 19 18.1046 19 17V7C19 5.89543 18.1046 5 17 5H7C5.89543 5 5 5.89543 5 7V17C5 18.1046 5.89543 19 7 19Z"
        stroke="black" stroke-width="2" stroke-linecap="square" />
</svg>