<svg width="24" height="24" viewBox="0 0 24 24" fill="none" xmlns="http://www.w3.org/2000/svg">
    <g id="watermelon">
        <path id="fill1"
            d="M21.5 10.9882C21.5 16.7937 16.7937 21.5 10.9882 21.5C8.05725 21.5 4.40646 19.4349 2.5 17.5C5.21229 19.6345 8.98821 19.5 8.98821 19.5C14.7937 19.5 19.5 14.7937 19.5 8.98824C19.4882 9 19.6346 4.63455 17.5 2.5C19.435 4.40646 21.5 8.05726 21.5 10.9882Z"
            fill="white" />
        <path id="fill2"
            d="M17.5 2.5L2.5 17.5C5.21229 19.6345 8.98821 19.5 8.98821 19.5C14.7937 19.5 19.5 14.7937 19.5 8.98824C19.4882 9 19.6346 4.63455 17.5 2.5Z"
            fill="white" />
        <path id="stroke1"
            d="M17.5 2.5C19.435 4.40646 21.5 8.05726 21.5 10.9882C21.5 16.7937 16.7937 21.5 10.9882 21.5C8.05725 21.5 4.40646 19.4349 2.5 17.5L17.5 2.5ZM17.5 2.5C19.6346 4.63455 19.4882 9 19.5 8.98824C19.5 14.7937 14.7937 19.5 8.98821 19.5C8.98821 19.5 6.01494 19.6059 3.45 18.1383"
            stroke="black" stroke-width="2" stroke-linecap="square" />
        <g id="stroke2">
            <path d="M9.50195 15.498H9.49805V15.502H9.50195V15.498Z" stroke="black" stroke-width="2"
                stroke-linecap="square" />
            <path d="M12.502 12.498H12.498V12.502H12.502V12.498Z" stroke="black" stroke-width="2"
                stroke-linecap="square" />
            <path d="M15.502 9.49805H15.498V9.50195H15.502V9.49805Z" stroke="black" stroke-width="2"
                stroke-linecap="square" />
        </g>
    </g>
</svg>