<svg width="24" height="24" viewBox="0 0 24 24" fill="none" xmlns="http://www.w3.org/2000/svg">
<path d="M17.4936 1.08984L1.08984 17.4936L1.78651 18.2007C2.82694 19.2566 4.30951 20.3184 5.9118 21.119C7.5056 21.9153 9.30918 22.4988 10.987 22.4988C17.3448 22.4988 22.4988 17.3448 22.4988 10.9871C22.4988 9.3092 21.9153 7.50561 21.119 5.91181C20.3185 4.30951 19.2567 2.82693 18.2007 1.78649L17.4936 1.08984ZM20.4398 10.1599C20.4786 10.4444 20.4988 10.721 20.4988 10.9871C20.4988 16.2403 16.2403 20.4988 10.987 20.4988C10.721 20.4988 10.4444 20.4786 10.1599 20.4398C15.5811 19.8912 19.8912 15.5811 20.4398 10.1599ZM17.4025 4.00934C17.8661 4.79683 18.1483 5.77445 18.3092 6.71617C18.4165 7.34473 18.4628 7.91428 18.4827 8.32664C18.4926 8.53198 18.4959 8.69703 18.4971 8.80977C18.4977 8.86027 18.4978 8.90017 18.4979 8.93146L18.4979 8.94259C18.4979 8.95646 18.498 8.97616 18.4983 8.99223C18.4983 8.99509 18.4984 9.00318 18.4988 9.01421C18.4842 14.2549 14.2312 18.4988 8.98704 18.4988H8.96924L8.95336 18.4994L8.95198 18.4994L8.9276 18.5C8.90595 18.5003 8.87104 18.5007 8.82403 18.5004C8.72994 18.5 8.58783 18.4973 8.40694 18.4879C8.04426 18.4689 7.53072 18.4229 6.93887 18.3154C6.04949 18.1537 5.02384 17.8602 4.07197 17.3399L17.4025 4.00934ZM16.5008 8.49687H14.4969V10.5008H16.5008V8.49687ZM13.5008 11.4969H11.4969V13.5008H13.5008V11.4969ZM10.5008 14.4969H8.49688V16.5008H10.5008V14.4969Z" fill="black" fill-opacity="0.9" style="fill:black;fill-opacity:0.9;"/>
</svg>
