<svg width="24" height="24" viewBox="0 0 24 24" fill="none" xmlns="http://www.w3.org/2000/svg">
<g clip-path="url(#clip0_101749_96154)">
<path d="M18.0475 1.37012L18.8709 1.9376C20.0772 2.76906 21.1237 3.81549 21.9552 5.02184L22.5227 5.8452L20.876 6.98024L20.3085 6.15688C19.615 5.15081 18.742 4.27779 17.7359 3.58437L16.9125 3.01688L18.0475 1.37012ZM11.1983 5.28795C12.1308 4.35551 13.6425 4.35551 14.575 5.28795C14.6773 5.39027 14.7684 5.49956 14.8482 5.6143C15.7796 4.96201 17.0724 5.05178 17.9043 5.8836C18.7361 6.71541 18.8258 8.00828 18.1736 8.93961C18.2883 9.01947 18.3976 9.11055 18.4999 9.21287C19.4323 10.1453 19.4323 11.6571 18.4999 12.5895L18.0801 13.0093C18.1833 13.0837 18.2819 13.1673 18.3748 13.2601C19.3064 14.1918 19.3064 15.7023 18.3748 16.634L14.0543 20.9544C11.2467 23.7621 6.69454 23.7621 3.88687 20.9544L3.04256 20.1101C0.732287 17.7998 0.270286 14.2223 1.91787 11.4009L4.14416 7.5885C4.78001 6.49964 6.21325 6.19125 7.24068 6.92222C7.72923 7.2698 8.03881 7.79605 8.12072 8.36555L11.1983 5.28795ZM17.0857 11.1753C17.2371 11.0239 17.2371 10.7785 17.0857 10.6271C16.9344 10.4758 16.6892 10.4757 16.5378 10.6267C16.5377 10.6268 16.5379 10.6266 16.5378 10.6267L11.3008 15.8637L9.88661 14.4495L16.49 7.84605C16.6414 7.69466 16.6414 7.44921 16.49 7.29781C16.3386 7.14642 16.0932 7.14642 15.9418 7.29781L9.33836 13.9012L7.92415 12.487L13.1608 7.25041C13.3122 7.09902 13.3122 6.85356 13.1608 6.70217C13.0094 6.55077 12.7639 6.55077 12.6125 6.70217L7.14409 12.1706C6.58145 12.7332 5.61861 12.4466 5.45587 11.6672C5.42379 11.5136 5.42828 11.3548 5.46884 11.2034L6.13746 8.7081C6.15319 8.64939 6.13078 8.5871 6.08126 8.55187C6.01157 8.50229 5.91437 8.5232 5.87124 8.59705L3.64496 12.4094C2.4557 14.4459 2.78918 17.0283 4.45678 18.6959L5.30108 19.5402C7.3277 21.5668 10.6135 21.5668 12.6401 19.5402L16.9605 15.2198C17.1112 15.0691 17.1112 14.8249 16.9605 14.6743C16.8099 14.5237 16.5657 14.5237 16.4151 14.6743L13.2633 17.8262L11.8491 16.4119L17.0857 11.1753Z" fill="black" fill-opacity="0.9" style="fill:black;fill-opacity:0.9;"/>
</g>
<defs>
<clipPath id="clip0_101749_96154">
<rect width="24" height="24" fill="white" style="fill:white;fill-opacity:1;"/>
</clipPath>
</defs>
</svg>
