<svg width="24" height="24" viewBox="0 0 24 24" fill="none" xmlns="http://www.w3.org/2000/svg">
<g id="wave-right">
<path id="fill1" d="M17.6695 15.9222C18.2106 15.3811 18.2106 14.5037 17.6695 13.9626C17.1283 13.4214 16.251 13.4214 15.7098 13.9626L17.7946 11.8778C18.3365 11.3359 18.3365 10.4573 17.7946 9.91534C17.2527 9.37342 16.3741 9.37342 15.8321 9.91534L17.199 8.54852C17.7409 8.0066 17.7409 7.12798 17.199 6.58607C16.657 6.04415 15.7784 6.04415 15.2365 6.58607L13.8697 7.95288C14.4116 7.41096 14.4116 6.53234 13.8697 5.99042C13.3278 5.4485 12.4491 5.44851 11.9072 5.99042L6.43706 11.4606C6.43616 11.4615 6.43616 11.4591 6.43649 11.4579L7.10519 8.96228C7.22902 8.50016 7.0526 8.00975 6.66277 7.7324C6.11422 7.34213 5.349 7.50679 5.00951 8.08814L2.78322 11.9005C1.3648 14.3295 1.76254 17.4094 3.75148 19.3984L4.59578 20.2427C7.01293 22.6598 10.9319 22.6598 13.349 20.2427L17.6695 15.9222Z" fill="white"/>
<path id="stroke1" d="M15.7098 13.9626L13.2651 16.4073M15.7098 13.9626L17.7946 11.8778C18.3365 11.3359 18.3365 10.4573 17.7946 9.91534C17.2527 9.37342 16.3741 9.37342 15.8321 9.91534M15.7098 13.9626C16.251 13.4214 17.1283 13.4214 17.6695 13.9626C18.2106 14.5037 18.2106 15.3811 17.6695 15.9222L13.349 20.2427C10.9319 22.6598 7.01293 22.6598 4.59578 20.2427L3.75148 19.3984C1.76254 17.4094 1.3648 14.3295 2.78322 11.9005L5.00951 8.08814C5.349 7.50679 6.11422 7.34213 6.66277 7.7324C7.0526 8.00975 7.22902 8.50016 7.10519 8.96228L6.43649 11.4579C6.43616 11.4591 6.43616 11.4615 6.43706 11.4606L11.9072 5.99042C12.4491 5.44851 13.3278 5.4485 13.8697 5.99042C14.4116 6.53234 14.4116 7.41096 13.8697 7.95288M15.8321 9.91534L11.3026 14.4449M15.8321 9.91534L17.199 8.54852C17.7409 8.0066 17.7409 7.12798 17.199 6.58607C16.657 6.04415 15.7784 6.04415 15.2365 6.58607L13.8697 7.95288M13.8697 7.95288L9.34017 12.4824" stroke="black" stroke-width="2" stroke-linecap="square"/>
<path id="stroke2" d="M21.1341 5.58496C20.3717 4.47875 19.4119 3.51903 18.3057 2.75659" stroke="black" stroke-width="2" stroke-linecap="square"/>
</g>
</svg>
