<svg width="24" height="24" viewBox="0 0 24 24" fill="none" xmlns="http://www.w3.org/2000/svg">
    <path
        d="M7.08008 3.01688L6.2567 3.58437C5.2506 4.27779 4.37755 5.15081 3.68409 6.15688L3.11657 6.98024L1.46985 5.8452L2.03737 5.02184C2.86887 3.81549 3.91534 2.76906 5.12172 1.9376L5.94511 1.37012L7.08008 3.01688ZM11.3801 6.70217C11.2287 6.55077 10.9832 6.55077 10.8318 6.70217C10.6805 6.85344 10.6804 7.09863 10.8314 7.25005C10.8316 7.25017 10.8313 7.24993 10.8314 7.25005L16.0684 12.487L14.6542 13.9012L8.05078 7.29781C7.89938 7.14642 7.65393 7.14642 7.50253 7.29781C7.35114 7.44921 7.35114 7.69466 7.50253 7.84606L14.106 14.4495L12.6918 15.8637L7.45514 10.6271C7.45501 10.627 7.45526 10.6272 7.45514 10.6271C7.30371 10.4761 7.05816 10.4758 6.90689 10.6271C6.7555 10.7785 6.7555 11.0239 6.90689 11.1753L8.99077 13.2592C8.99107 13.2595 8.99137 13.2598 8.99168 13.2601L12.1435 16.4119L10.7293 17.8262L7.57746 14.6743C7.42685 14.5237 7.18265 14.5237 7.03203 14.6743C6.88141 14.8249 6.88141 15.0691 7.03203 15.2198L11.3525 19.5402C13.3791 21.5668 16.6649 21.5668 18.6915 19.5402L19.5358 18.6959C21.2034 17.0283 21.5369 14.4459 20.3476 12.4094L18.1213 8.59705C18.0782 8.52321 17.981 8.50229 17.9113 8.55187C17.8618 8.5871 17.8394 8.64939 17.8551 8.7081L18.5238 11.2037C18.5526 11.3111 18.5671 11.4371 18.5521 11.574C18.5476 11.6151 18.5372 11.6872 18.5094 11.7731C18.4871 11.842 18.4216 12.0236 18.2478 12.1892C18.0249 12.4017 17.691 12.5189 17.3421 12.4419C17.0715 12.3822 16.9073 12.2294 16.8502 12.1723L11.3801 6.70217ZM5.91246 13.0093L5.49268 12.5895C4.56024 11.6571 4.56023 10.1453 5.49268 9.21287C5.59499 9.11055 5.70428 9.01947 5.81902 8.93961C5.16674 8.00828 5.2565 6.71541 6.08832 5.8836C6.92014 5.05178 8.213 4.96202 9.14433 5.6143C9.22419 5.49956 9.31528 5.39027 9.41759 5.28795C10.35 4.35551 11.8618 4.35551 12.7943 5.28795L15.8719 8.36555C15.9538 7.79605 16.2633 7.2698 16.7519 6.92222C17.7793 6.19125 19.2126 6.49964 19.8484 7.5885L22.0747 11.4009C23.7223 14.2223 23.2603 17.7998 20.95 20.1101L20.1057 20.9544C17.298 23.7621 12.7459 23.7621 9.93824 20.9544L5.61782 16.634C4.68615 15.7023 4.68615 14.1918 5.61782 13.2601C5.71066 13.1673 5.80926 13.0837 5.91246 13.0093Z"
        fill="black" />
</svg>