<svg width="24" height="24" viewBox="0 0 24 24" fill="none" xmlns="http://www.w3.org/2000/svg">
    <g id="wealth-1">
        <path id="fill1"
            d="M17 13.0274C14.75 13.2762 13 15.1837 13 17.5C13 18.3003 13.2089 19.0519 13.5752 19.7031C12.6597 19.8925 11.6125 20 10.5 20C6.91015 20 4 18.8807 4 17.5V5.5C4 6.88071 6.91015 8 10.5 8C14.0899 8 17 6.88071 17 5.5V13.0274Z"
            fill="white" />
        <g id="fill2">
            <path
                d="M13.5752 19.7031C14.3464 21.074 15.8151 22 17.5 22C19.9853 22 22 19.9853 22 17.5C22 15.0147 19.9853 13 17.5 13C17.331 13 17.1642 13.0093 17 13.0275C14.75 13.2762 13 15.1837 13 17.5C13 18.3003 13.2089 19.0519 13.5752 19.7031Z"
                fill="white" />
            <path
                d="M17 5.5C17 4.11929 14.0899 3 10.5 3C6.91015 3 4 4.11929 4 5.5C4 6.88071 6.91015 8 10.5 8C14.0899 8 17 6.88071 17 5.5Z"
                fill="white" />
        </g>
        <path id="stroke1"
            d="M17 11.5C17 12.8807 14.0899 14 10.5 14C6.91015 14 4 12.8807 4 11.5M17 11.5V13.0275C14.75 13.2762 13 15.1837 13 17.5C13 18.3003 13.2089 19.0519 13.5752 19.7031C12.6597 19.8925 11.6125 20 10.5 20C6.91015 20 4 18.8807 4 17.5V11.5M17 11.5V6.5M4 11.5V6.5M17 5.5C17 6.88071 14.0899 8 10.5 8C6.91015 8 4 6.88071 4 5.5C4 4.11929 6.91015 3 10.5 3C14.0899 3 17 4.11929 17 5.5Z"
            stroke="black" stroke-width="2" stroke-linecap="square" />
        <path id="stroke2"
            d="M13.5752 19.7031C14.3464 21.074 15.8151 22 17.5 22C19.9853 22 22 19.9853 22 17.5C22 15.0147 19.9853 13 17.5 13C17.331 13 17.1642 13.0093 17 13.0275C14.75 13.2762 13 15.1837 13 17.5C13 18.3003 13.2089 19.0519 13.5752 19.7031Z"
            stroke="black" stroke-width="2" stroke-linecap="square" />
    </g>
</svg>