<svg width="24" height="24" viewBox="0 0 24 24" fill="none" xmlns="http://www.w3.org/2000/svg">
    <g id="widget">
        <path id="fill1" d="M22 21V13H2V21H22Z" fill="white" />
        <path id="stroke1"
            d="M6 17V16H5V17H6ZM6.00391 17H7.00391V16H6.00391V17ZM6.00391 17.0039V18.0039H7.00391V17.0039H6.00391ZM6 17.0039H5V18.0039H6V17.0039ZM10 17V16H9V17H10ZM10.0039 17H11.0039V16H10.0039V17ZM10.0039 17.0039V18.0039H11.0039V17.0039H10.0039ZM10 17.0039H9V18.0039H10V17.0039ZM22 13H23V12.7878L22.9138 12.5939L22 13ZM22 21V22H23V21H22ZM2 21H1V22H2V21ZM2 13L1.08619 12.5939L1 12.7878V13H2ZM18 4L18.9138 3.59386L18.6499 3H18V4ZM6 4V3H5.35013L5.08619 3.59386L6 4ZM21.5 14H22.5V12H21.5V14ZM6 17V18H6.00391V17V16H6V17ZM6.00391 17H5.00391V17.0039H6.00391H7.00391V17H6.00391ZM6.00391 17.0039V16.0039H6V17.0039V18.0039H6.00391V17.0039ZM6 17.0039H7V17H6H5V17.0039H6ZM10 17V18H10.0039V17V16H10V17ZM10.0039 17H9.00391V17.0039H10.0039H11.0039V17H10.0039ZM10.0039 17.0039V16.0039H10V17.0039V18.0039H10.0039V17.0039ZM10 17.0039H11V17H10H9V17.0039H10ZM22 13H21V21H22H23V13H22ZM2 21H3L3 13H2H1L1 21H2ZM18 4L17.0862 4.40614L21.0862 13.4061L22 13L22.9138 12.5939L18.9138 3.59386L18 4ZM18 4V3L6 3V4V5L18 5V4ZM2 13L2.91381 13.4061L6.91381 4.40614L6 4L5.08619 3.59386L1.08619 12.5939L2 13ZM2.5 13V14H21.5V13V12H2.5V13ZM22 21V20H2V21V22H22V21Z"
            fill="black" />
    </g>
</svg>