<svg width="24" height="24" viewBox="0 0 24 24" fill="none" xmlns="http://www.w3.org/2000/svg">
    <path
        d="M3.00003 1.58569L22.4142 20.9999L21 22.4141L13.6959 15.11L11.1414 12.5557C9.77364 12.7365 8.45407 13.3519 7.40294 14.403L6.69583 15.1101L5.28162 13.6959L5.98872 12.9888C6.99656 11.981 8.19559 11.2789 9.4689 10.883L9.09974 10.5138L6.0314 7.4457C4.87108 8.04543 3.78146 8.83212 2.80675 9.80684L2.09964 10.5139L0.685425 9.09973L1.39253 8.39262C2.35845 7.4267 3.42435 6.6194 4.5573 5.97139L1.58582 2.99991L3.00003 1.58569ZM21.1921 9.80751C18.2103 6.82575 14.1413 5.59459 10.2582 6.11633L9.2671 6.2495L9.00077 4.26731L9.99186 4.13415C14.4664 3.53293 19.1649 4.95189 22.6063 8.39329L23.3134 9.1004L21.8992 10.5146L21.1921 9.80751ZM10.5859 17.5857C11.3669 16.8046 12.6333 16.8047 13.4143 17.5857L14.1214 18.2928L12.0001 20.4141L9.87878 18.2928L10.5859 17.5857Z"
        fill="black" />
</svg>