<svg width="24" height="24" viewBox="0 0 24 24" fill="none" xmlns="http://www.w3.org/2000/svg">
<path d="M21.1924 9.8076C16.1156 4.73082 7.88442 4.73078 2.8076 9.8076L2.10049 10.5147L0.686279 9.10049L1.39339 8.39339C7.25126 2.53551 16.7488 2.53556 22.6066 8.39339L23.3137 9.10049L21.8995 10.5147L21.1924 9.8076ZM16.5962 14.4038C14.0578 11.8654 9.94221 11.8654 7.40379 14.4038L6.69668 15.1109L5.28247 13.6967L5.98958 12.9896C9.30905 9.67011 14.691 9.67016 18.0104 12.9896L18.7175 13.6967L17.3033 15.1109L16.5962 14.4038ZM10.5858 17.5858C11.3669 16.8047 12.6332 16.8048 13.4142 17.5858L14.1213 18.2929L12 20.4142L9.87869 18.2929L10.5858 17.5858Z" fill="black" fill-opacity="0.9" style="fill:black;fill-opacity:0.9;"/>
</svg>
