<svg width="16" height="16" viewBox="0 0 16 16" fill="none" xmlns="http://www.w3.org/2000/svg">
<path fill-rule="evenodd" clip-rule="evenodd" d="M11.3926 10.4212L12.789 8.9892C11.4142 7.70515 9.73621 7 8.00046 7C6.27214 7 4.60107 7.69912 3.22961 8.97275L4.62613 10.4049C5.66025 9.45835 6.84954 9 8.00046 9C9.15798 9 10.3543 9.46362 11.3926 10.4212ZM14.6035 7.12836L16.0004 5.69582C13.7733 3.39362 10.933 2.11621 7.98412 2.11621C5.04985 2.11621 2.22303 3.38101 0.000976562 5.6617L1.3977 7.09407C3.28945 5.13374 5.63303 4.11621 7.98412 4.11621C10.3489 4.11621 12.706 5.14561 14.6035 7.12836ZM9.06162 11.9386C8.4753 11.3523 7.5247 11.3523 6.93838 11.9386C6.35206 12.5249 6.35206 13.4755 6.93838 14.0618C7.5247 14.6481 8.4753 14.6481 9.06162 14.0618C9.64794 13.4755 9.64794 12.5249 9.06162 11.9386Z" fill="black"/>
</svg>
