<svg width="24" height="24" viewBox="0 0 24 24" fill="none" xmlns="http://www.w3.org/2000/svg">
    <path
        d="M3.00001 1.58569L22.4142 20.9999L21 22.4141L15.6385 17.0526L11.9998 21.601L0.599121 7.35005L1.37826 6.72517C2.12591 6.12554 2.91267 5.59818 3.72907 5.14318L1.5858 2.99991L3.00001 1.58569ZM5.2071 6.62164C4.59622 6.93197 4.00209 7.28689 3.4295 7.68647L11.9998 18.3994L14.2154 15.6299L5.2071 6.62164ZM20.5699 7.68607C17.264 5.37918 13.2342 4.55718 9.41002 5.22378L8.42487 5.39551L8.08142 3.42522L9.06657 3.25349C13.751 2.43694 18.7155 3.59238 22.6211 6.72476L23.4003 7.34964L17.9335 14.1832L16.3717 12.9338L20.5699 7.68607Z"
        fill="black" />
</svg>