<svg width="24" height="24" viewBox="0 0 24 24" fill="none" xmlns="http://www.w3.org/2000/svg">
<g id="wry-smile">
<path id="fill1" d="M22 12C22 17.5228 17.5228 22 12 22C6.47715 22 2 17.5228 2 12C2 6.47715 6.47715 2 12 2C17.5228 2 22 6.47715 22 12Z" fill="white"/>
<path id="stroke1" d="M22 12C22 17.5228 17.5228 22 12 22C6.47715 22 2 17.5228 2 12C2 6.47715 6.47715 2 12 2C17.5228 2 22 6.47715 22 12Z" stroke="black" stroke-width="2" stroke-linecap="square"/>
<path id="stroke2" d="M8.86682 9.5L7.13477 10.5M16.8668 10.5L15.1348 9.5M8.53516 15C9.22678 16.1956 10.5195 17 12 17C13.4806 17 14.7733 16.1956 15.4649 15" stroke="black" stroke-width="2" stroke-linecap="square"/>
</g>
</svg>
