<svg width="24" height="24" viewBox="0 0 24 24" fill="none" xmlns="http://www.w3.org/2000/svg">
<g id="zoom-in">
<path id="fill1" d="M15.8033 15.8033C12.8744 18.7322 8.12563 18.7322 5.1967 15.8033C2.26777 12.8744 2.26777 8.12563 5.1967 5.1967C8.12563 2.26777 12.8744 2.26777 15.8033 5.1967C18.7322 8.12563 18.7322 12.8744 15.8033 15.8033Z" fill="white"/>
<path id="stroke1" d="M15.8033 15.8033C12.8744 18.7322 8.12563 18.7322 5.1967 15.8033C2.26777 12.8744 2.26777 8.12563 5.1967 5.1967C8.12563 2.26777 12.8744 2.26777 15.8033 5.1967C18.7322 8.12563 18.7322 12.8744 15.8033 15.8033ZM15.8033 15.8033L21.1066 21.1066" stroke="black" stroke-width="2" stroke-linecap="square"/>
<path id="stroke2" d="M10.5 13.5V10.5M10.5 10.5L10.5 7.5M10.5 10.5H7.5M10.5 10.5H13.5" stroke="black" stroke-width="2" stroke-linecap="square"/>
</g>
</svg>
