<svg width="16" height="16" viewBox="0 0 16 16" fill="none" xmlns="http://www.w3.org/2000/svg">
<path fill-rule="evenodd" clip-rule="evenodd" d="M7.5 12C9.98528 12 12 9.98528 12 7.5C12 5.01472 9.98528 3 7.5 3C5.01472 3 3 5.01472 3 7.5C3 9.98528 5.01472 12 7.5 12ZM12.7489 11.3347C13.5356 10.2597 14 8.9341 14 7.5C14 3.91015 11.0899 1 7.5 1C3.91015 1 1 3.91015 1 7.5C1 11.0899 3.91015 14 7.5 14C8.9341 14 10.2597 13.5356 11.3347 12.7489L14.2929 15.7071L15.7071 14.2929L12.7489 11.3347ZM6.5 8.5V10.5H8.5V8.5H10.5V6.5H8.5V4.5H6.5V6.5H4.5V8.5H6.5Z" fill="black"/>
</svg>
